M48
;GenerationSoftware,Autodesk,EAGLE,9.6.2*%
;CreationDate,2021-02-15T00:24:30Z*%
FMAT,2
ICI,OFF
METRIC,TZ,000.000
T5C0.813
T4C0.914
T3C1.016
T2C1.118
T1C2.000
%
G90
M71
T1
X2540Y27686
X44196Y27686
X44196Y2540
X2032Y2286
T2
X14224Y17780
X24384Y17780
X29718Y7620
X29718Y17780
X14224Y7620
X24384Y7620
X5842Y7620
X5842Y17780
T3
X36830Y17780
X39370Y17780
X41910Y17780
T4
X43434Y11430
X40894Y11430
X5842Y24130
X5842Y21590
T5
X12192Y13970
X12192Y11430
X23114Y13970
X23114Y11430
X37338Y11430
X34798Y11430
M30