G04 EAGLE Gerber RS-274X export*
G75*
%MOMM*%
%FSLAX34Y34*%
%LPD*%
%INBottom Copper*%
%IPPOS*%
%AMOC8*
5,1,8,0,0,1.08239X$1,22.5*%
G01*
%ADD10P,1.429621X8X22.500000*%
%ADD11C,1.524000*%
%ADD12C,1.117600*%
%ADD13P,1.429621X8X112.500000*%
%ADD14P,1.429621X8X202.500000*%
%ADD15C,0.254000*%

G36*
X459544Y2547D02*
X459544Y2547D01*
X459594Y2545D01*
X459701Y2567D01*
X459810Y2581D01*
X459856Y2599D01*
X459905Y2609D01*
X460004Y2657D01*
X460106Y2698D01*
X460146Y2727D01*
X460191Y2749D01*
X460274Y2820D01*
X460363Y2884D01*
X460395Y2923D01*
X460433Y2955D01*
X460496Y3045D01*
X460566Y3129D01*
X460587Y3174D01*
X460616Y3215D01*
X460655Y3318D01*
X460702Y3417D01*
X460711Y3466D01*
X460729Y3512D01*
X460741Y3622D01*
X460761Y3729D01*
X460758Y3779D01*
X460764Y3828D01*
X460748Y3937D01*
X460742Y4047D01*
X460726Y4094D01*
X460719Y4143D01*
X460667Y4296D01*
X459899Y6150D01*
X459899Y14170D01*
X462969Y21580D01*
X468640Y27251D01*
X476050Y30321D01*
X484070Y30321D01*
X485164Y29868D01*
X485212Y29854D01*
X485257Y29833D01*
X485365Y29813D01*
X485471Y29784D01*
X485521Y29783D01*
X485570Y29773D01*
X485679Y29780D01*
X485789Y29779D01*
X485837Y29790D01*
X485887Y29793D01*
X485991Y29827D01*
X486098Y29853D01*
X486142Y29876D01*
X486189Y29891D01*
X486282Y29950D01*
X486379Y30001D01*
X486416Y30035D01*
X486458Y30061D01*
X486533Y30141D01*
X486615Y30215D01*
X486642Y30257D01*
X486676Y30293D01*
X486729Y30389D01*
X486789Y30481D01*
X486806Y30528D01*
X486830Y30572D01*
X486857Y30678D01*
X486893Y30782D01*
X486897Y30831D01*
X486909Y30879D01*
X486919Y31040D01*
X486919Y249412D01*
X486913Y249461D01*
X486915Y249511D01*
X486893Y249618D01*
X486879Y249727D01*
X486861Y249774D01*
X486851Y249822D01*
X486803Y249921D01*
X486762Y250023D01*
X486733Y250063D01*
X486711Y250108D01*
X486640Y250191D01*
X486576Y250281D01*
X486537Y250312D01*
X486505Y250350D01*
X486415Y250413D01*
X486331Y250483D01*
X486286Y250505D01*
X486245Y250533D01*
X486142Y250572D01*
X486043Y250619D01*
X485994Y250628D01*
X485948Y250646D01*
X485838Y250658D01*
X485731Y250679D01*
X485681Y250676D01*
X485632Y250681D01*
X485523Y250666D01*
X485413Y250659D01*
X485366Y250644D01*
X485317Y250637D01*
X485164Y250585D01*
X481530Y249079D01*
X473510Y249079D01*
X466100Y252149D01*
X460429Y257820D01*
X457359Y265230D01*
X457359Y273250D01*
X459138Y277544D01*
X459146Y277574D01*
X459147Y277575D01*
X459147Y277577D01*
X459151Y277592D01*
X459172Y277637D01*
X459193Y277745D01*
X459222Y277851D01*
X459223Y277901D01*
X459232Y277950D01*
X459225Y278059D01*
X459227Y278169D01*
X459215Y278217D01*
X459212Y278267D01*
X459178Y278371D01*
X459153Y278478D01*
X459130Y278522D01*
X459114Y278569D01*
X459055Y278662D01*
X459004Y278759D01*
X458971Y278796D01*
X458944Y278838D01*
X458864Y278913D01*
X458790Y278995D01*
X458749Y279022D01*
X458712Y279056D01*
X458616Y279109D01*
X458524Y279169D01*
X458477Y279186D01*
X458434Y279210D01*
X458328Y279237D01*
X458224Y279273D01*
X458174Y279277D01*
X458126Y279289D01*
X457965Y279299D01*
X38823Y279299D01*
X38773Y279293D01*
X38724Y279295D01*
X38616Y279273D01*
X38507Y279259D01*
X38461Y279241D01*
X38412Y279231D01*
X38313Y279183D01*
X38211Y279142D01*
X38171Y279113D01*
X38127Y279091D01*
X38043Y279020D01*
X37954Y278956D01*
X37922Y278917D01*
X37885Y278885D01*
X37821Y278795D01*
X37751Y278711D01*
X37730Y278666D01*
X37701Y278625D01*
X37662Y278522D01*
X37616Y278423D01*
X37606Y278374D01*
X37589Y278328D01*
X37577Y278218D01*
X37556Y278111D01*
X37559Y278061D01*
X37553Y278012D01*
X37569Y277903D01*
X37576Y277793D01*
X37591Y277746D01*
X37598Y277697D01*
X37650Y277544D01*
X40481Y270710D01*
X40481Y262690D01*
X37411Y255280D01*
X31740Y249609D01*
X24330Y246539D01*
X16310Y246539D01*
X11916Y248359D01*
X11868Y248372D01*
X11823Y248394D01*
X11715Y248414D01*
X11609Y248443D01*
X11559Y248444D01*
X11510Y248453D01*
X11401Y248447D01*
X11291Y248448D01*
X11243Y248437D01*
X11193Y248434D01*
X11089Y248400D01*
X10982Y248374D01*
X10938Y248351D01*
X10891Y248336D01*
X10798Y248277D01*
X10701Y248225D01*
X10664Y248192D01*
X10622Y248165D01*
X10547Y248085D01*
X10465Y248012D01*
X10438Y247970D01*
X10404Y247934D01*
X10351Y247838D01*
X10291Y247746D01*
X10274Y247699D01*
X10250Y247655D01*
X10223Y247549D01*
X10187Y247445D01*
X10183Y247395D01*
X10171Y247347D01*
X10161Y247187D01*
X10161Y28185D01*
X10167Y28136D01*
X10165Y28086D01*
X10187Y27979D01*
X10201Y27870D01*
X10219Y27824D01*
X10229Y27775D01*
X10277Y27676D01*
X10318Y27574D01*
X10347Y27534D01*
X10369Y27489D01*
X10440Y27406D01*
X10504Y27317D01*
X10543Y27285D01*
X10575Y27247D01*
X10665Y27184D01*
X10749Y27114D01*
X10794Y27093D01*
X10835Y27064D01*
X10938Y27025D01*
X11037Y26978D01*
X11086Y26969D01*
X11132Y26951D01*
X11242Y26939D01*
X11349Y26919D01*
X11399Y26922D01*
X11448Y26916D01*
X11557Y26932D01*
X11667Y26938D01*
X11714Y26954D01*
X11763Y26961D01*
X11916Y27013D01*
X13770Y27781D01*
X21790Y27781D01*
X29200Y24711D01*
X34871Y19040D01*
X37941Y11630D01*
X37941Y3810D01*
X37956Y3692D01*
X37963Y3573D01*
X37976Y3535D01*
X37981Y3494D01*
X38024Y3384D01*
X38061Y3271D01*
X38083Y3236D01*
X38098Y3199D01*
X38167Y3103D01*
X38231Y3002D01*
X38261Y2974D01*
X38284Y2941D01*
X38376Y2865D01*
X38463Y2784D01*
X38498Y2764D01*
X38529Y2739D01*
X38637Y2688D01*
X38741Y2630D01*
X38781Y2620D01*
X38817Y2603D01*
X38934Y2581D01*
X39049Y2551D01*
X39109Y2547D01*
X39129Y2543D01*
X39150Y2545D01*
X39210Y2541D01*
X459495Y2541D01*
X459544Y2547D01*
G37*
%LPC*%
G36*
X254519Y6349D02*
X254519Y6349D01*
X250784Y7896D01*
X247926Y10754D01*
X246379Y14489D01*
X246379Y33771D01*
X247971Y37614D01*
X247983Y37656D01*
X247997Y37687D01*
X247998Y37691D01*
X248005Y37707D01*
X248026Y37815D01*
X248055Y37921D01*
X248056Y37971D01*
X248065Y38020D01*
X248058Y38129D01*
X248060Y38239D01*
X248049Y38287D01*
X248045Y38337D01*
X248012Y38441D01*
X247986Y38548D01*
X247963Y38592D01*
X247947Y38639D01*
X247889Y38732D01*
X247837Y38829D01*
X247804Y38866D01*
X247777Y38908D01*
X247697Y38983D01*
X247623Y39065D01*
X247582Y39092D01*
X247546Y39126D01*
X247449Y39179D01*
X247358Y39239D01*
X247311Y39256D01*
X247267Y39280D01*
X247161Y39307D01*
X247057Y39343D01*
X247007Y39347D01*
X246959Y39359D01*
X246799Y39369D01*
X210384Y39369D01*
X210286Y39357D01*
X210187Y39354D01*
X210129Y39337D01*
X210069Y39329D01*
X209977Y39293D01*
X209881Y39265D01*
X209829Y39235D01*
X209773Y39212D01*
X209693Y39154D01*
X209608Y39104D01*
X209532Y39038D01*
X209516Y39026D01*
X209508Y39016D01*
X209496Y39006D01*
X209495Y39005D01*
X209487Y38998D01*
X205096Y34607D01*
X205036Y34529D01*
X204968Y34457D01*
X204939Y34404D01*
X204902Y34356D01*
X204862Y34265D01*
X204814Y34178D01*
X204799Y34120D01*
X204775Y34064D01*
X204760Y33966D01*
X204735Y33870D01*
X204729Y33770D01*
X204725Y33750D01*
X204727Y33738D01*
X204725Y33710D01*
X204725Y26692D01*
X199368Y21335D01*
X191792Y21335D01*
X186435Y26692D01*
X186435Y34268D01*
X191792Y39625D01*
X198810Y39625D01*
X198908Y39637D01*
X199007Y39640D01*
X199065Y39657D01*
X199125Y39665D01*
X199217Y39701D01*
X199313Y39729D01*
X199365Y39759D01*
X199421Y39782D01*
X199501Y39840D01*
X199586Y39890D01*
X199662Y39956D01*
X199678Y39968D01*
X199686Y39978D01*
X199707Y39996D01*
X206702Y46991D01*
X265849Y46991D01*
X265898Y46997D01*
X265947Y46995D01*
X266055Y47017D01*
X266164Y47031D01*
X266210Y47049D01*
X266259Y47059D01*
X266358Y47107D01*
X266460Y47148D01*
X266500Y47177D01*
X266545Y47199D01*
X266628Y47270D01*
X266717Y47334D01*
X266749Y47373D01*
X266787Y47405D01*
X266850Y47495D01*
X266920Y47579D01*
X266941Y47624D01*
X266970Y47665D01*
X267009Y47768D01*
X267055Y47867D01*
X267065Y47916D01*
X267082Y47962D01*
X267095Y48072D01*
X267115Y48179D01*
X267112Y48229D01*
X267118Y48278D01*
X267102Y48387D01*
X267095Y48497D01*
X267080Y48544D01*
X267073Y48593D01*
X267021Y48746D01*
X265429Y52589D01*
X265429Y71871D01*
X266976Y75606D01*
X269834Y78464D01*
X273569Y80011D01*
X277611Y80011D01*
X281346Y78464D01*
X284204Y75606D01*
X285751Y71871D01*
X285751Y52589D01*
X284159Y48746D01*
X284146Y48698D01*
X284125Y48653D01*
X284104Y48545D01*
X284075Y48439D01*
X284074Y48389D01*
X284065Y48340D01*
X284072Y48231D01*
X284070Y48121D01*
X284081Y48073D01*
X284085Y48023D01*
X284118Y47919D01*
X284144Y47812D01*
X284167Y47768D01*
X284183Y47721D01*
X284241Y47628D01*
X284293Y47531D01*
X284326Y47494D01*
X284353Y47452D01*
X284433Y47377D01*
X284507Y47295D01*
X284548Y47268D01*
X284584Y47234D01*
X284681Y47181D01*
X284772Y47121D01*
X284819Y47104D01*
X284863Y47080D01*
X284969Y47053D01*
X285073Y47017D01*
X285123Y47013D01*
X285171Y47001D01*
X285331Y46991D01*
X303949Y46991D01*
X303998Y46997D01*
X304047Y46995D01*
X304155Y47017D01*
X304264Y47031D01*
X304310Y47049D01*
X304359Y47059D01*
X304458Y47107D01*
X304560Y47148D01*
X304600Y47177D01*
X304645Y47199D01*
X304728Y47270D01*
X304817Y47334D01*
X304849Y47373D01*
X304887Y47405D01*
X304950Y47495D01*
X305020Y47579D01*
X305041Y47624D01*
X305070Y47665D01*
X305109Y47768D01*
X305155Y47867D01*
X305165Y47916D01*
X305182Y47962D01*
X305195Y48072D01*
X305215Y48179D01*
X305212Y48229D01*
X305218Y48278D01*
X305202Y48387D01*
X305195Y48497D01*
X305180Y48544D01*
X305173Y48593D01*
X305121Y48746D01*
X303529Y52589D01*
X303529Y71871D01*
X305076Y75606D01*
X307934Y78464D01*
X311669Y80011D01*
X315711Y80011D01*
X319446Y78464D01*
X322304Y75606D01*
X323851Y71871D01*
X323851Y68580D01*
X323866Y68462D01*
X323873Y68343D01*
X323886Y68305D01*
X323891Y68264D01*
X323934Y68154D01*
X323971Y68041D01*
X323993Y68006D01*
X324008Y67969D01*
X324077Y67873D01*
X324141Y67772D01*
X324171Y67744D01*
X324194Y67711D01*
X324286Y67635D01*
X324373Y67554D01*
X324408Y67534D01*
X324439Y67509D01*
X324547Y67458D01*
X324651Y67400D01*
X324691Y67390D01*
X324727Y67373D01*
X324844Y67351D01*
X324959Y67321D01*
X325019Y67317D01*
X325039Y67313D01*
X325060Y67315D01*
X325120Y67311D01*
X330636Y67311D01*
X330734Y67323D01*
X330833Y67326D01*
X330891Y67343D01*
X330951Y67351D01*
X331043Y67387D01*
X331139Y67415D01*
X331191Y67445D01*
X331247Y67468D01*
X331327Y67526D01*
X331412Y67576D01*
X331488Y67642D01*
X331504Y67654D01*
X331512Y67664D01*
X331533Y67682D01*
X376999Y113149D01*
X377085Y113258D01*
X377173Y113365D01*
X377182Y113384D01*
X377194Y113400D01*
X377250Y113528D01*
X377309Y113653D01*
X377313Y113673D01*
X377321Y113692D01*
X377343Y113830D01*
X377369Y113966D01*
X377367Y113986D01*
X377370Y114006D01*
X377357Y114145D01*
X377349Y114283D01*
X377343Y114302D01*
X377341Y114322D01*
X377293Y114454D01*
X377251Y114585D01*
X377240Y114603D01*
X377233Y114622D01*
X377155Y114737D01*
X377081Y114854D01*
X377066Y114868D01*
X377054Y114885D01*
X376950Y114977D01*
X376849Y115072D01*
X376831Y115082D01*
X376816Y115095D01*
X376692Y115158D01*
X376570Y115226D01*
X376551Y115231D01*
X376533Y115240D01*
X376397Y115270D01*
X376263Y115305D01*
X376234Y115307D01*
X376222Y115310D01*
X376202Y115309D01*
X376102Y115315D01*
X374672Y115315D01*
X369315Y120672D01*
X369315Y122429D01*
X377698Y122429D01*
X377816Y122444D01*
X377935Y122451D01*
X377973Y122463D01*
X378013Y122469D01*
X378124Y122512D01*
X378237Y122549D01*
X378271Y122571D01*
X378309Y122586D01*
X378405Y122655D01*
X378506Y122719D01*
X378534Y122749D01*
X378566Y122772D01*
X378642Y122864D01*
X378724Y122951D01*
X378743Y122986D01*
X378769Y123017D01*
X378820Y123125D01*
X378877Y123229D01*
X378887Y123269D01*
X378905Y123305D01*
X378927Y123422D01*
X378957Y123537D01*
X378961Y123597D01*
X378964Y123617D01*
X378963Y123638D01*
X378967Y123698D01*
X378967Y123953D01*
X379222Y123953D01*
X379340Y123968D01*
X379459Y123975D01*
X379497Y123988D01*
X379538Y123993D01*
X379648Y124037D01*
X379761Y124073D01*
X379796Y124095D01*
X379833Y124110D01*
X379929Y124180D01*
X380030Y124243D01*
X380058Y124273D01*
X380091Y124297D01*
X380167Y124388D01*
X380248Y124475D01*
X380268Y124510D01*
X380293Y124542D01*
X380344Y124649D01*
X380402Y124754D01*
X380412Y124793D01*
X380429Y124829D01*
X380451Y124946D01*
X380481Y125062D01*
X380485Y125122D01*
X380489Y125142D01*
X380487Y125162D01*
X380491Y125222D01*
X380491Y133605D01*
X382248Y133605D01*
X387605Y128248D01*
X387605Y126818D01*
X387622Y126681D01*
X387635Y126542D01*
X387642Y126523D01*
X387645Y126503D01*
X387696Y126373D01*
X387743Y126243D01*
X387754Y126226D01*
X387762Y126207D01*
X387843Y126094D01*
X387921Y125979D01*
X387936Y125966D01*
X387948Y125950D01*
X388056Y125861D01*
X388160Y125769D01*
X388178Y125760D01*
X388193Y125747D01*
X388319Y125688D01*
X388443Y125624D01*
X388463Y125620D01*
X388481Y125611D01*
X388617Y125585D01*
X388753Y125555D01*
X388774Y125555D01*
X388793Y125551D01*
X388932Y125560D01*
X389071Y125564D01*
X389091Y125570D01*
X389111Y125571D01*
X389243Y125614D01*
X389377Y125653D01*
X389394Y125663D01*
X389413Y125669D01*
X389531Y125743D01*
X389651Y125814D01*
X389672Y125833D01*
X389682Y125839D01*
X389696Y125854D01*
X389771Y125921D01*
X392122Y128271D01*
X401832Y128271D01*
X401931Y128283D01*
X402030Y128286D01*
X402088Y128303D01*
X402148Y128311D01*
X402240Y128347D01*
X402335Y128375D01*
X402387Y128405D01*
X402444Y128428D01*
X402524Y128486D01*
X402609Y128536D01*
X402684Y128602D01*
X402701Y128614D01*
X402709Y128624D01*
X402730Y128642D01*
X407692Y133605D01*
X415268Y133605D01*
X420625Y128248D01*
X420625Y120672D01*
X415268Y115315D01*
X407692Y115315D01*
X402730Y120278D01*
X402652Y120338D01*
X402580Y120406D01*
X402527Y120435D01*
X402479Y120472D01*
X402388Y120512D01*
X402301Y120560D01*
X402242Y120575D01*
X402187Y120599D01*
X402089Y120614D01*
X401993Y120639D01*
X401893Y120645D01*
X401873Y120649D01*
X401860Y120647D01*
X401832Y120649D01*
X395804Y120649D01*
X395706Y120637D01*
X395607Y120634D01*
X395549Y120617D01*
X395489Y120609D01*
X395397Y120573D01*
X395301Y120545D01*
X395249Y120515D01*
X395193Y120492D01*
X395113Y120434D01*
X395028Y120384D01*
X394952Y120318D01*
X394936Y120306D01*
X394928Y120296D01*
X394907Y120278D01*
X334318Y59689D01*
X325120Y59689D01*
X325002Y59674D01*
X324883Y59667D01*
X324845Y59654D01*
X324804Y59649D01*
X324694Y59606D01*
X324581Y59569D01*
X324546Y59547D01*
X324509Y59532D01*
X324413Y59463D01*
X324312Y59399D01*
X324284Y59369D01*
X324251Y59346D01*
X324175Y59254D01*
X324094Y59167D01*
X324074Y59132D01*
X324049Y59101D01*
X323998Y58993D01*
X323940Y58889D01*
X323930Y58849D01*
X323913Y58813D01*
X323891Y58696D01*
X323861Y58581D01*
X323857Y58521D01*
X323853Y58501D01*
X323855Y58480D01*
X323854Y58472D01*
X323853Y58468D01*
X323854Y58464D01*
X323851Y58420D01*
X323851Y55444D01*
X323868Y55306D01*
X323881Y55168D01*
X323888Y55149D01*
X323891Y55129D01*
X323942Y54999D01*
X323989Y54868D01*
X324000Y54852D01*
X324008Y54833D01*
X324089Y54721D01*
X324167Y54605D01*
X324183Y54592D01*
X324194Y54576D01*
X324301Y54487D01*
X324406Y54395D01*
X324424Y54386D01*
X324439Y54373D01*
X324565Y54314D01*
X324689Y54250D01*
X324709Y54246D01*
X324727Y54237D01*
X324863Y54211D01*
X324999Y54181D01*
X325020Y54181D01*
X325039Y54177D01*
X325178Y54186D01*
X325317Y54190D01*
X325337Y54196D01*
X325357Y54197D01*
X325489Y54240D01*
X325623Y54279D01*
X325640Y54289D01*
X325659Y54295D01*
X325777Y54370D01*
X325897Y54440D01*
X325918Y54459D01*
X325928Y54465D01*
X325942Y54480D01*
X326018Y54547D01*
X326082Y54611D01*
X355152Y54611D01*
X355181Y54614D01*
X355211Y54612D01*
X355338Y54634D01*
X355467Y54651D01*
X355495Y54661D01*
X355524Y54667D01*
X355642Y54720D01*
X355763Y54768D01*
X355787Y54785D01*
X355814Y54797D01*
X355915Y54878D01*
X356020Y54954D01*
X356039Y54977D01*
X356062Y54996D01*
X356141Y55100D01*
X356223Y55199D01*
X356236Y55226D01*
X356254Y55250D01*
X356325Y55394D01*
X356329Y55405D01*
X358615Y57691D01*
X361603Y58929D01*
X364837Y58929D01*
X367825Y57691D01*
X370111Y55405D01*
X371349Y52417D01*
X371349Y49183D01*
X370111Y46195D01*
X367825Y43909D01*
X364837Y42671D01*
X361603Y42671D01*
X358615Y43909D01*
X356329Y46195D01*
X356325Y46206D01*
X356315Y46222D01*
X356311Y46235D01*
X356307Y46242D01*
X356301Y46259D01*
X356231Y46369D01*
X356167Y46482D01*
X356146Y46503D01*
X356131Y46528D01*
X356036Y46617D01*
X355946Y46710D01*
X355920Y46726D01*
X355899Y46746D01*
X355785Y46809D01*
X355675Y46877D01*
X355646Y46885D01*
X355621Y46900D01*
X355495Y46932D01*
X355371Y46970D01*
X355341Y46972D01*
X355313Y46979D01*
X355152Y46989D01*
X329764Y46989D01*
X329666Y46977D01*
X329567Y46974D01*
X329509Y46957D01*
X329449Y46949D01*
X329357Y46913D01*
X329261Y46885D01*
X329209Y46855D01*
X329153Y46832D01*
X329073Y46774D01*
X328988Y46724D01*
X328912Y46658D01*
X328896Y46646D01*
X328888Y46636D01*
X328867Y46618D01*
X321618Y39369D01*
X304381Y39369D01*
X304332Y39363D01*
X304283Y39365D01*
X304175Y39343D01*
X304066Y39329D01*
X304020Y39311D01*
X303971Y39301D01*
X303872Y39253D01*
X303770Y39212D01*
X303730Y39183D01*
X303685Y39161D01*
X303602Y39090D01*
X303513Y39026D01*
X303481Y38987D01*
X303443Y38955D01*
X303380Y38865D01*
X303310Y38781D01*
X303289Y38736D01*
X303260Y38695D01*
X303221Y38592D01*
X303175Y38493D01*
X303165Y38444D01*
X303148Y38398D01*
X303135Y38288D01*
X303115Y38181D01*
X303118Y38131D01*
X303112Y38082D01*
X303128Y37973D01*
X303135Y37863D01*
X303150Y37816D01*
X303157Y37767D01*
X303209Y37614D01*
X304801Y33771D01*
X304801Y14489D01*
X303254Y10754D01*
X300396Y7896D01*
X296661Y6349D01*
X292619Y6349D01*
X288884Y7896D01*
X286026Y10754D01*
X284479Y14489D01*
X284479Y33771D01*
X286071Y37614D01*
X286083Y37656D01*
X286097Y37687D01*
X286098Y37691D01*
X286105Y37707D01*
X286126Y37815D01*
X286155Y37921D01*
X286156Y37971D01*
X286165Y38020D01*
X286158Y38129D01*
X286160Y38239D01*
X286149Y38287D01*
X286145Y38337D01*
X286112Y38441D01*
X286086Y38548D01*
X286063Y38592D01*
X286047Y38639D01*
X285989Y38732D01*
X285937Y38829D01*
X285904Y38866D01*
X285877Y38908D01*
X285797Y38983D01*
X285723Y39065D01*
X285682Y39092D01*
X285646Y39126D01*
X285549Y39179D01*
X285458Y39239D01*
X285411Y39256D01*
X285367Y39280D01*
X285261Y39307D01*
X285157Y39343D01*
X285107Y39347D01*
X285059Y39359D01*
X284899Y39369D01*
X266281Y39369D01*
X266232Y39363D01*
X266183Y39365D01*
X266075Y39343D01*
X265966Y39329D01*
X265920Y39311D01*
X265871Y39301D01*
X265772Y39253D01*
X265670Y39212D01*
X265630Y39183D01*
X265585Y39161D01*
X265502Y39090D01*
X265413Y39026D01*
X265381Y38987D01*
X265343Y38955D01*
X265280Y38865D01*
X265210Y38781D01*
X265189Y38736D01*
X265160Y38695D01*
X265121Y38592D01*
X265075Y38493D01*
X265065Y38444D01*
X265048Y38398D01*
X265035Y38288D01*
X265015Y38181D01*
X265018Y38131D01*
X265012Y38082D01*
X265028Y37973D01*
X265035Y37863D01*
X265050Y37816D01*
X265057Y37767D01*
X265109Y37614D01*
X266701Y33771D01*
X266701Y14489D01*
X265154Y10754D01*
X262296Y7896D01*
X258561Y6349D01*
X254519Y6349D01*
G37*
%LPD*%
%LPC*%
G36*
X92732Y153415D02*
X92732Y153415D01*
X87375Y158772D01*
X87375Y166348D01*
X92338Y171310D01*
X92398Y171388D01*
X92466Y171460D01*
X92495Y171513D01*
X92532Y171561D01*
X92572Y171652D01*
X92620Y171739D01*
X92635Y171798D01*
X92659Y171853D01*
X92674Y171951D01*
X92699Y172047D01*
X92705Y172147D01*
X92709Y172167D01*
X92707Y172180D01*
X92709Y172208D01*
X92709Y174502D01*
X92692Y174640D01*
X92679Y174779D01*
X92672Y174798D01*
X92669Y174818D01*
X92618Y174947D01*
X92571Y175078D01*
X92560Y175095D01*
X92552Y175114D01*
X92471Y175226D01*
X92393Y175341D01*
X92377Y175355D01*
X92366Y175371D01*
X92258Y175460D01*
X92154Y175552D01*
X92136Y175561D01*
X92121Y175574D01*
X91995Y175633D01*
X91871Y175696D01*
X91851Y175701D01*
X91833Y175709D01*
X91697Y175735D01*
X91561Y175766D01*
X91540Y175765D01*
X91521Y175769D01*
X91382Y175761D01*
X91243Y175756D01*
X91223Y175751D01*
X91203Y175749D01*
X91071Y175707D01*
X90937Y175668D01*
X90920Y175658D01*
X90901Y175651D01*
X90783Y175577D01*
X90663Y175506D01*
X90642Y175488D01*
X90632Y175481D01*
X90618Y175466D01*
X90543Y175400D01*
X87608Y172465D01*
X80032Y172465D01*
X74675Y177822D01*
X74675Y185398D01*
X80032Y190755D01*
X87608Y190755D01*
X90543Y187820D01*
X90652Y187735D01*
X90759Y187646D01*
X90778Y187638D01*
X90794Y187625D01*
X90922Y187570D01*
X91047Y187511D01*
X91067Y187507D01*
X91086Y187499D01*
X91224Y187477D01*
X91360Y187451D01*
X91380Y187452D01*
X91400Y187449D01*
X91539Y187462D01*
X91677Y187471D01*
X91696Y187477D01*
X91716Y187479D01*
X91848Y187526D01*
X91979Y187569D01*
X91997Y187579D01*
X92016Y187586D01*
X92131Y187664D01*
X92248Y187739D01*
X92262Y187754D01*
X92279Y187765D01*
X92371Y187869D01*
X92466Y187970D01*
X92476Y187988D01*
X92489Y188003D01*
X92553Y188127D01*
X92620Y188249D01*
X92625Y188268D01*
X92634Y188287D01*
X92664Y188422D01*
X92699Y188557D01*
X92701Y188585D01*
X92704Y188597D01*
X92703Y188617D01*
X92709Y188718D01*
X92709Y216412D01*
X92697Y216511D01*
X92694Y216610D01*
X92677Y216668D01*
X92669Y216728D01*
X92633Y216820D01*
X92605Y216915D01*
X92575Y216967D01*
X92552Y217024D01*
X92494Y217104D01*
X92444Y217189D01*
X92378Y217264D01*
X92366Y217281D01*
X92356Y217289D01*
X92338Y217310D01*
X87375Y222272D01*
X87375Y229848D01*
X92732Y235205D01*
X100308Y235205D01*
X105665Y229848D01*
X105665Y222272D01*
X100702Y217310D01*
X100642Y217232D01*
X100574Y217160D01*
X100545Y217107D01*
X100508Y217059D01*
X100468Y216968D01*
X100420Y216881D01*
X100405Y216822D01*
X100381Y216767D01*
X100366Y216669D01*
X100341Y216573D01*
X100335Y216473D01*
X100331Y216453D01*
X100333Y216440D01*
X100331Y216412D01*
X100331Y172208D01*
X100343Y172109D01*
X100346Y172010D01*
X100363Y171952D01*
X100371Y171892D01*
X100407Y171800D01*
X100435Y171705D01*
X100465Y171653D01*
X100488Y171596D01*
X100546Y171516D01*
X100596Y171431D01*
X100662Y171356D01*
X100674Y171339D01*
X100684Y171331D01*
X100702Y171310D01*
X105665Y166348D01*
X105665Y158772D01*
X100308Y153415D01*
X92732Y153415D01*
G37*
%LPD*%
%LPC*%
G36*
X80032Y111505D02*
X80032Y111505D01*
X74675Y116862D01*
X74675Y124438D01*
X80032Y129795D01*
X87608Y129795D01*
X91300Y126102D01*
X91378Y126042D01*
X91450Y125974D01*
X91503Y125945D01*
X91551Y125908D01*
X91642Y125868D01*
X91729Y125820D01*
X91788Y125805D01*
X91843Y125781D01*
X91941Y125766D01*
X92037Y125741D01*
X92137Y125735D01*
X92157Y125731D01*
X92170Y125733D01*
X92198Y125731D01*
X139446Y125731D01*
X139564Y125746D01*
X139683Y125753D01*
X139721Y125766D01*
X139762Y125771D01*
X139872Y125814D01*
X139985Y125851D01*
X140020Y125873D01*
X140057Y125888D01*
X140153Y125957D01*
X140254Y126021D01*
X140282Y126051D01*
X140315Y126074D01*
X140391Y126166D01*
X140472Y126253D01*
X140492Y126288D01*
X140517Y126319D01*
X140568Y126427D01*
X140626Y126531D01*
X140636Y126571D01*
X140653Y126607D01*
X140675Y126724D01*
X140705Y126839D01*
X140709Y126899D01*
X140713Y126919D01*
X140711Y126940D01*
X140715Y127000D01*
X140715Y133328D01*
X146072Y138685D01*
X153648Y138685D01*
X159005Y133328D01*
X159005Y125752D01*
X153648Y120395D01*
X146630Y120395D01*
X146532Y120383D01*
X146433Y120380D01*
X146375Y120363D01*
X146315Y120355D01*
X146223Y120319D01*
X146127Y120291D01*
X146075Y120261D01*
X146019Y120238D01*
X145939Y120180D01*
X145854Y120130D01*
X145778Y120064D01*
X145762Y120052D01*
X145754Y120042D01*
X145733Y120024D01*
X143818Y118109D01*
X94234Y118109D01*
X94116Y118094D01*
X93997Y118087D01*
X93959Y118074D01*
X93918Y118069D01*
X93808Y118026D01*
X93695Y117989D01*
X93660Y117967D01*
X93623Y117952D01*
X93527Y117883D01*
X93426Y117819D01*
X93398Y117789D01*
X93365Y117766D01*
X93289Y117674D01*
X93208Y117587D01*
X93188Y117552D01*
X93163Y117521D01*
X93112Y117413D01*
X93054Y117309D01*
X93044Y117269D01*
X93027Y117233D01*
X93005Y117116D01*
X92975Y117001D01*
X92971Y116941D01*
X92967Y116921D01*
X92969Y116900D01*
X92966Y116864D01*
X87608Y111505D01*
X80032Y111505D01*
G37*
%LPD*%
%LPC*%
G36*
X273072Y115315D02*
X273072Y115315D01*
X267715Y120672D01*
X267715Y128248D01*
X270650Y131182D01*
X270723Y131277D01*
X270802Y131366D01*
X270820Y131402D01*
X270845Y131434D01*
X270892Y131543D01*
X270946Y131649D01*
X270955Y131688D01*
X270971Y131726D01*
X270990Y131843D01*
X271016Y131959D01*
X271015Y132000D01*
X271021Y132040D01*
X271010Y132158D01*
X271006Y132277D01*
X270995Y132316D01*
X270991Y132356D01*
X270951Y132469D01*
X270918Y132583D01*
X270897Y132617D01*
X270884Y132656D01*
X270817Y132754D01*
X270756Y132857D01*
X270716Y132902D01*
X270705Y132919D01*
X270690Y132932D01*
X270650Y132977D01*
X265175Y138452D01*
X265175Y146028D01*
X270532Y151385D01*
X278108Y151385D01*
X283465Y146028D01*
X283465Y138452D01*
X280530Y135517D01*
X280457Y135423D01*
X280378Y135334D01*
X280360Y135298D01*
X280335Y135266D01*
X280288Y135157D01*
X280234Y135051D01*
X280225Y135012D01*
X280209Y134974D01*
X280190Y134857D01*
X280164Y134741D01*
X280165Y134700D01*
X280159Y134660D01*
X280170Y134542D01*
X280174Y134423D01*
X280185Y134384D01*
X280189Y134344D01*
X280229Y134231D01*
X280262Y134117D01*
X280283Y134082D01*
X280296Y134044D01*
X280363Y133946D01*
X280424Y133843D01*
X280463Y133798D01*
X280475Y133781D01*
X280490Y133768D01*
X280530Y133722D01*
X286005Y128248D01*
X286005Y120672D01*
X280648Y115315D01*
X273072Y115315D01*
G37*
%LPD*%
%LPC*%
G36*
X80032Y235965D02*
X80032Y235965D01*
X74675Y241322D01*
X74675Y248898D01*
X80032Y254255D01*
X87608Y254255D01*
X92965Y248898D01*
X92965Y241322D01*
X87608Y235965D01*
X80032Y235965D01*
G37*
%LPD*%
%LPC*%
G36*
X270532Y234695D02*
X270532Y234695D01*
X265175Y240052D01*
X265175Y247628D01*
X270532Y252985D01*
X278108Y252985D01*
X283465Y247628D01*
X283465Y240052D01*
X278108Y234695D01*
X270532Y234695D01*
G37*
%LPD*%
%LPC*%
G36*
X247672Y234695D02*
X247672Y234695D01*
X242315Y240052D01*
X242315Y247628D01*
X247672Y252985D01*
X255248Y252985D01*
X260605Y247628D01*
X260605Y240052D01*
X255248Y234695D01*
X247672Y234695D01*
G37*
%LPD*%
%LPC*%
G36*
X146072Y234695D02*
X146072Y234695D01*
X140715Y240052D01*
X140715Y247628D01*
X146072Y252985D01*
X153648Y252985D01*
X159005Y247628D01*
X159005Y240052D01*
X153648Y234695D01*
X146072Y234695D01*
G37*
%LPD*%
%LPC*%
G36*
X67332Y216915D02*
X67332Y216915D01*
X61975Y222272D01*
X61975Y229848D01*
X67332Y235205D01*
X74908Y235205D01*
X80265Y229848D01*
X80265Y222272D01*
X74908Y216915D01*
X67332Y216915D01*
G37*
%LPD*%
%LPC*%
G36*
X247672Y171195D02*
X247672Y171195D01*
X242315Y176552D01*
X242315Y184128D01*
X247672Y189485D01*
X255248Y189485D01*
X260605Y184128D01*
X260605Y176552D01*
X255248Y171195D01*
X247672Y171195D01*
G37*
%LPD*%
%LPC*%
G36*
X146072Y171195D02*
X146072Y171195D01*
X140715Y176552D01*
X140715Y184128D01*
X146072Y189485D01*
X153648Y189485D01*
X159005Y184128D01*
X159005Y176552D01*
X153648Y171195D01*
X146072Y171195D01*
G37*
%LPD*%
%LPC*%
G36*
X67332Y153415D02*
X67332Y153415D01*
X61975Y158772D01*
X61975Y166348D01*
X67332Y171705D01*
X74908Y171705D01*
X80265Y166348D01*
X80265Y158772D01*
X74908Y153415D01*
X67332Y153415D01*
G37*
%LPD*%
%LPC*%
G36*
X247672Y120395D02*
X247672Y120395D01*
X242315Y125752D01*
X242315Y133328D01*
X247672Y138685D01*
X255248Y138685D01*
X260605Y133328D01*
X260605Y125752D01*
X255248Y120395D01*
X247672Y120395D01*
G37*
%LPD*%
%LPC*%
G36*
X92732Y64515D02*
X92732Y64515D01*
X87375Y69872D01*
X87375Y77448D01*
X92732Y82805D01*
X100308Y82805D01*
X105665Y77448D01*
X105665Y69872D01*
X100308Y64515D01*
X92732Y64515D01*
G37*
%LPD*%
%LPC*%
G36*
X194332Y64515D02*
X194332Y64515D01*
X188975Y69872D01*
X188975Y77448D01*
X194332Y82805D01*
X201908Y82805D01*
X207265Y77448D01*
X207265Y69872D01*
X201908Y64515D01*
X194332Y64515D01*
G37*
%LPD*%
%LPC*%
G36*
X67332Y92455D02*
X67332Y92455D01*
X61975Y97812D01*
X61975Y105388D01*
X67332Y110745D01*
X74908Y110745D01*
X80265Y105388D01*
X80265Y97812D01*
X74908Y92455D01*
X67332Y92455D01*
G37*
%LPD*%
%LPC*%
G36*
X92732Y92455D02*
X92732Y92455D01*
X87375Y97812D01*
X87375Y105388D01*
X92732Y110745D01*
X100308Y110745D01*
X105665Y105388D01*
X105665Y97812D01*
X100308Y92455D01*
X92732Y92455D01*
G37*
%LPD*%
%LPC*%
G36*
X90192Y21335D02*
X90192Y21335D01*
X84835Y26692D01*
X84835Y34268D01*
X90192Y39625D01*
X97768Y39625D01*
X103125Y34268D01*
X103125Y26692D01*
X97768Y21335D01*
X90192Y21335D01*
G37*
%LPD*%
%LPC*%
G36*
X335279Y26669D02*
X335279Y26669D01*
X335279Y41609D01*
X336640Y41166D01*
X338065Y40440D01*
X339359Y39500D01*
X340490Y38369D01*
X341430Y37075D01*
X342156Y35650D01*
X342651Y34129D01*
X342901Y32550D01*
X342901Y26669D01*
X335279Y26669D01*
G37*
%LPD*%
%LPC*%
G36*
X335279Y21591D02*
X335279Y21591D01*
X342901Y21591D01*
X342901Y15710D01*
X342651Y14131D01*
X342156Y12610D01*
X341430Y11185D01*
X340490Y9891D01*
X339359Y8760D01*
X338065Y7820D01*
X336640Y7094D01*
X335279Y6651D01*
X335279Y21591D01*
G37*
%LPD*%
%LPC*%
G36*
X322579Y26669D02*
X322579Y26669D01*
X322579Y32550D01*
X322829Y34129D01*
X323324Y35650D01*
X324050Y37075D01*
X324990Y38369D01*
X326121Y39500D01*
X327415Y40440D01*
X328840Y41166D01*
X330201Y41609D01*
X330201Y26669D01*
X322579Y26669D01*
G37*
%LPD*%
%LPC*%
G36*
X328840Y7094D02*
X328840Y7094D01*
X327415Y7820D01*
X326121Y8760D01*
X324990Y9891D01*
X324050Y11185D01*
X323324Y12610D01*
X322829Y14131D01*
X322579Y15710D01*
X322579Y21591D01*
X330201Y21591D01*
X330201Y6651D01*
X328840Y7094D01*
G37*
%LPD*%
%LPC*%
G36*
X438911Y126491D02*
X438911Y126491D01*
X438911Y133605D01*
X440668Y133605D01*
X446025Y128248D01*
X446025Y126491D01*
X438911Y126491D01*
G37*
%LPD*%
%LPC*%
G36*
X369315Y126491D02*
X369315Y126491D01*
X369315Y128248D01*
X374672Y133605D01*
X376429Y133605D01*
X376429Y126491D01*
X369315Y126491D01*
G37*
%LPD*%
%LPC*%
G36*
X427735Y126491D02*
X427735Y126491D01*
X427735Y128248D01*
X433092Y133605D01*
X434849Y133605D01*
X434849Y126491D01*
X427735Y126491D01*
G37*
%LPD*%
%LPC*%
G36*
X438911Y115315D02*
X438911Y115315D01*
X438911Y122429D01*
X446025Y122429D01*
X446025Y120672D01*
X440668Y115315D01*
X438911Y115315D01*
G37*
%LPD*%
%LPC*%
G36*
X433092Y115315D02*
X433092Y115315D01*
X427735Y120672D01*
X427735Y122429D01*
X434849Y122429D01*
X434849Y115315D01*
X433092Y115315D01*
G37*
%LPD*%
%LPC*%
G36*
X415543Y52323D02*
X415543Y52323D01*
X415543Y58785D01*
X416391Y58616D01*
X417870Y58004D01*
X419202Y57114D01*
X420334Y55982D01*
X421224Y54650D01*
X421836Y53171D01*
X422005Y52323D01*
X415543Y52323D01*
G37*
%LPD*%
%LPC*%
G36*
X390143Y26923D02*
X390143Y26923D01*
X390143Y33385D01*
X390991Y33216D01*
X392470Y32604D01*
X393802Y31714D01*
X394934Y30582D01*
X395824Y29250D01*
X396436Y27771D01*
X396605Y26923D01*
X390143Y26923D01*
G37*
%LPD*%
%LPC*%
G36*
X406035Y52323D02*
X406035Y52323D01*
X406204Y53171D01*
X406816Y54650D01*
X407706Y55982D01*
X408838Y57114D01*
X410170Y58004D01*
X411649Y58616D01*
X412497Y58785D01*
X412497Y52323D01*
X406035Y52323D01*
G37*
%LPD*%
%LPC*%
G36*
X415543Y49277D02*
X415543Y49277D01*
X422005Y49277D01*
X421836Y48429D01*
X421224Y46950D01*
X420334Y45618D01*
X419202Y44486D01*
X417870Y43596D01*
X416391Y42984D01*
X415543Y42815D01*
X415543Y49277D01*
G37*
%LPD*%
%LPC*%
G36*
X380635Y26923D02*
X380635Y26923D01*
X380804Y27771D01*
X381416Y29250D01*
X382306Y30582D01*
X383438Y31714D01*
X384770Y32604D01*
X386249Y33216D01*
X387097Y33385D01*
X387097Y26923D01*
X380635Y26923D01*
G37*
%LPD*%
%LPC*%
G36*
X390143Y23877D02*
X390143Y23877D01*
X396605Y23877D01*
X396436Y23029D01*
X395824Y21550D01*
X394934Y20218D01*
X393802Y19086D01*
X392470Y18196D01*
X390991Y17584D01*
X390143Y17415D01*
X390143Y23877D01*
G37*
%LPD*%
%LPC*%
G36*
X411649Y42984D02*
X411649Y42984D01*
X410170Y43596D01*
X408838Y44486D01*
X407706Y45618D01*
X406816Y46950D01*
X406204Y48429D01*
X406035Y49277D01*
X412497Y49277D01*
X412497Y42815D01*
X411649Y42984D01*
G37*
%LPD*%
%LPC*%
G36*
X386249Y17584D02*
X386249Y17584D01*
X384770Y18196D01*
X383438Y19086D01*
X382306Y20218D01*
X381416Y21550D01*
X380804Y23029D01*
X380635Y23877D01*
X387097Y23877D01*
X387097Y17415D01*
X386249Y17584D01*
G37*
%LPD*%
%LPC*%
G36*
X332739Y24129D02*
X332739Y24129D01*
X332739Y24131D01*
X332741Y24131D01*
X332741Y24129D01*
X332739Y24129D01*
G37*
%LPD*%
D10*
X411480Y124460D03*
X436880Y124460D03*
X71120Y226060D03*
X83820Y245110D03*
X96520Y226060D03*
X71120Y162560D03*
X83820Y181610D03*
X96520Y162560D03*
X71120Y101600D03*
X83820Y120650D03*
X96520Y101600D03*
D11*
X256540Y31750D02*
X256540Y16510D01*
X275590Y54610D02*
X275590Y69850D01*
X294640Y31750D02*
X294640Y16510D01*
X313690Y54610D02*
X313690Y69850D01*
X332740Y31750D02*
X332740Y16510D01*
D10*
X149860Y243840D03*
X251460Y243840D03*
D12*
X363220Y50800D03*
X388620Y25400D03*
X414020Y50800D03*
D10*
X149860Y180340D03*
X251460Y180340D03*
X149860Y129540D03*
X251460Y129540D03*
X276860Y124460D03*
X378460Y124460D03*
D13*
X274320Y142240D03*
X274320Y243840D03*
D10*
X93980Y30480D03*
X195580Y30480D03*
D14*
X198120Y73660D03*
X96520Y73660D03*
D15*
X96520Y162560D02*
X96520Y226060D01*
X83820Y121920D02*
X142240Y121920D01*
X149860Y129540D01*
X83820Y121920D02*
X83820Y120650D01*
X393700Y124460D02*
X411480Y124460D01*
X393700Y124460D02*
X332740Y63500D01*
X314960Y63500D01*
X313690Y62230D01*
X327660Y50800D02*
X363220Y50800D01*
X327660Y50800D02*
X320040Y43180D01*
X208280Y43180D01*
X195580Y30480D01*
M02*
