G04 EAGLE Gerber RS-274X export*
G75*
%MOMM*%
%FSLAX34Y34*%
%LPD*%
%IN*%
%IPPOS*%
%AMOC8*
5,1,8,0,0,1.08239X$1,22.5*%
G01*
%ADD10C,0.254000*%


D10*
X4572Y5588D02*
X464060Y5080D01*
X463552Y297588D01*
X5334Y297334D01*
X4572Y5588D01*
X35400Y276423D02*
X35324Y275554D01*
X35172Y274694D01*
X34946Y273850D01*
X34648Y273030D01*
X34279Y272238D01*
X33842Y271482D01*
X33341Y270767D01*
X32780Y270098D01*
X32162Y269480D01*
X31493Y268919D01*
X30778Y268418D01*
X30022Y267981D01*
X29230Y267612D01*
X28410Y267314D01*
X27566Y267088D01*
X26707Y266936D01*
X25837Y266860D01*
X24963Y266860D01*
X24094Y266936D01*
X23234Y267088D01*
X22390Y267314D01*
X21570Y267612D01*
X20778Y267981D01*
X20022Y268418D01*
X19307Y268919D01*
X18638Y269480D01*
X18020Y270098D01*
X17459Y270767D01*
X16958Y271482D01*
X16521Y272238D01*
X16152Y273030D01*
X15854Y273850D01*
X15628Y274694D01*
X15476Y275554D01*
X15400Y276423D01*
X15400Y277297D01*
X15476Y278167D01*
X15628Y279026D01*
X15854Y279870D01*
X16152Y280690D01*
X16521Y281482D01*
X16958Y282238D01*
X17459Y282953D01*
X18020Y283622D01*
X18638Y284240D01*
X19307Y284801D01*
X20022Y285302D01*
X20778Y285739D01*
X21570Y286108D01*
X22390Y286406D01*
X23234Y286632D01*
X24094Y286784D01*
X24963Y286860D01*
X25837Y286860D01*
X26707Y286784D01*
X27566Y286632D01*
X28410Y286406D01*
X29230Y286108D01*
X30022Y285739D01*
X30778Y285302D01*
X31493Y284801D01*
X32162Y284240D01*
X32780Y283622D01*
X33341Y282953D01*
X33842Y282238D01*
X34279Y281482D01*
X34648Y280690D01*
X34946Y279870D01*
X35172Y279026D01*
X35324Y278167D01*
X35400Y277297D01*
X35400Y276423D01*
X451960Y276423D02*
X451884Y275554D01*
X451732Y274694D01*
X451506Y273850D01*
X451208Y273030D01*
X450839Y272238D01*
X450402Y271482D01*
X449901Y270767D01*
X449340Y270098D01*
X448722Y269480D01*
X448053Y268919D01*
X447338Y268418D01*
X446582Y267981D01*
X445790Y267612D01*
X444970Y267314D01*
X444126Y267088D01*
X443267Y266936D01*
X442397Y266860D01*
X441523Y266860D01*
X440654Y266936D01*
X439794Y267088D01*
X438950Y267314D01*
X438130Y267612D01*
X437338Y267981D01*
X436582Y268418D01*
X435867Y268919D01*
X435198Y269480D01*
X434580Y270098D01*
X434019Y270767D01*
X433518Y271482D01*
X433081Y272238D01*
X432712Y273030D01*
X432414Y273850D01*
X432188Y274694D01*
X432036Y275554D01*
X431960Y276423D01*
X431960Y277297D01*
X432036Y278167D01*
X432188Y279026D01*
X432414Y279870D01*
X432712Y280690D01*
X433081Y281482D01*
X433518Y282238D01*
X434019Y282953D01*
X434580Y283622D01*
X435198Y284240D01*
X435867Y284801D01*
X436582Y285302D01*
X437338Y285739D01*
X438130Y286108D01*
X438950Y286406D01*
X439794Y286632D01*
X440654Y286784D01*
X441523Y286860D01*
X442397Y286860D01*
X443267Y286784D01*
X444126Y286632D01*
X444970Y286406D01*
X445790Y286108D01*
X446582Y285739D01*
X447338Y285302D01*
X448053Y284801D01*
X448722Y284240D01*
X449340Y283622D01*
X449901Y282953D01*
X450402Y282238D01*
X450839Y281482D01*
X451208Y280690D01*
X451506Y279870D01*
X451732Y279026D01*
X451884Y278167D01*
X451960Y277297D01*
X451960Y276423D01*
X451960Y24963D02*
X451884Y24094D01*
X451732Y23234D01*
X451506Y22390D01*
X451208Y21570D01*
X450839Y20778D01*
X450402Y20022D01*
X449901Y19307D01*
X449340Y18638D01*
X448722Y18020D01*
X448053Y17459D01*
X447338Y16958D01*
X446582Y16521D01*
X445790Y16152D01*
X444970Y15854D01*
X444126Y15628D01*
X443267Y15476D01*
X442397Y15400D01*
X441523Y15400D01*
X440654Y15476D01*
X439794Y15628D01*
X438950Y15854D01*
X438130Y16152D01*
X437338Y16521D01*
X436582Y16958D01*
X435867Y17459D01*
X435198Y18020D01*
X434580Y18638D01*
X434019Y19307D01*
X433518Y20022D01*
X433081Y20778D01*
X432712Y21570D01*
X432414Y22390D01*
X432188Y23234D01*
X432036Y24094D01*
X431960Y24963D01*
X431960Y25837D01*
X432036Y26707D01*
X432188Y27566D01*
X432414Y28410D01*
X432712Y29230D01*
X433081Y30022D01*
X433518Y30778D01*
X434019Y31493D01*
X434580Y32162D01*
X435198Y32780D01*
X435867Y33341D01*
X436582Y33842D01*
X437338Y34279D01*
X438130Y34648D01*
X438950Y34946D01*
X439794Y35172D01*
X440654Y35324D01*
X441523Y35400D01*
X442397Y35400D01*
X443267Y35324D01*
X444126Y35172D01*
X444970Y34946D01*
X445790Y34648D01*
X446582Y34279D01*
X447338Y33842D01*
X448053Y33341D01*
X448722Y32780D01*
X449340Y32162D01*
X449901Y31493D01*
X450402Y30778D01*
X450839Y30022D01*
X451208Y29230D01*
X451506Y28410D01*
X451732Y27566D01*
X451884Y26707D01*
X451960Y25837D01*
X451960Y24963D01*
X30320Y22423D02*
X30244Y21554D01*
X30092Y20694D01*
X29866Y19850D01*
X29568Y19030D01*
X29199Y18238D01*
X28762Y17482D01*
X28261Y16767D01*
X27700Y16098D01*
X27082Y15480D01*
X26413Y14919D01*
X25698Y14418D01*
X24942Y13981D01*
X24150Y13612D01*
X23330Y13314D01*
X22486Y13088D01*
X21627Y12936D01*
X20757Y12860D01*
X19883Y12860D01*
X19014Y12936D01*
X18154Y13088D01*
X17310Y13314D01*
X16490Y13612D01*
X15698Y13981D01*
X14942Y14418D01*
X14227Y14919D01*
X13558Y15480D01*
X12940Y16098D01*
X12379Y16767D01*
X11878Y17482D01*
X11441Y18238D01*
X11072Y19030D01*
X10774Y19850D01*
X10548Y20694D01*
X10396Y21554D01*
X10320Y22423D01*
X10320Y23297D01*
X10396Y24167D01*
X10548Y25026D01*
X10774Y25870D01*
X11072Y26690D01*
X11441Y27482D01*
X11878Y28238D01*
X12379Y28953D01*
X12940Y29622D01*
X13558Y30240D01*
X14227Y30801D01*
X14942Y31302D01*
X15698Y31739D01*
X16490Y32108D01*
X17310Y32406D01*
X18154Y32632D01*
X19014Y32784D01*
X19883Y32860D01*
X20757Y32860D01*
X21627Y32784D01*
X22486Y32632D01*
X23330Y32406D01*
X24150Y32108D01*
X24942Y31739D01*
X25698Y31302D01*
X26413Y30801D01*
X27082Y30240D01*
X27700Y29622D01*
X28261Y28953D01*
X28762Y28238D01*
X29199Y27482D01*
X29568Y26690D01*
X29866Y25870D01*
X30092Y25026D01*
X30244Y24167D01*
X30320Y23297D01*
X30320Y22423D01*
M02*
