M48
;GenerationSoftware,Autodesk,EAGLE,9.6.2*%
;CreationDate,2021-02-19T14:44:21Z*%
FMAT,2
ICI,OFF
METRIC,TZ,000.000
T4C0.610
T3C0.813
T2C1.016
T1C2.000
%
G90
M71
T1
X2032Y26670
X47752Y26924
X48006Y1016
X1778Y762
T2
X33274Y2413
X25654Y2413
X27559Y6223
X29464Y2413
X31369Y6223
T3
X41148Y12446
X43688Y12446
X7112Y22606
X8382Y24511
X9652Y22606
X7112Y16256
X8382Y18161
X9652Y16256
X7112Y10160
X8382Y12065
X9652Y10160
X14986Y24384
X25146Y24384
X14986Y18034
X25146Y18034
X14986Y12954
X25146Y12954
X27686Y12446
X37846Y12446
X27432Y14224
X27432Y24384
X9398Y3048
X19558Y3048
X19812Y7366
X9652Y7366
T4
X36322Y5080
X38862Y2540
X41402Y5080
M30