G04 EAGLE Gerber RS-274X export*
G75*
%MOMM*%
%FSLAX34Y34*%
%LPD*%
%INBottom Copper*%
%IPPOS*%
%AMOC8*
5,1,8,0,0,1.08239X$1,22.5*%
G01*
%ADD10C,1.422400*%
%ADD11P,1.429621X8X292.500000*%
%ADD12P,1.429621X8X202.500000*%
%ADD13C,1.676400*%
%ADD14C,1.524000*%
%ADD15C,0.254000*%

G36*
X422476Y15293D02*
X422476Y15293D01*
X422527Y15291D01*
X422633Y15313D01*
X422742Y15326D01*
X422789Y15345D01*
X422838Y15355D01*
X422936Y15403D01*
X423038Y15443D01*
X423078Y15472D01*
X423124Y15495D01*
X423207Y15566D01*
X423295Y15630D01*
X423327Y15668D01*
X423366Y15701D01*
X423429Y15790D01*
X423498Y15874D01*
X423520Y15920D01*
X423549Y15961D01*
X423588Y16063D01*
X423634Y16162D01*
X423644Y16211D01*
X423662Y16258D01*
X423674Y16367D01*
X423694Y16474D01*
X423691Y16524D01*
X423697Y16574D01*
X423682Y16683D01*
X423675Y16792D01*
X423659Y16840D01*
X423652Y16889D01*
X423600Y17042D01*
X421799Y21390D01*
X421799Y29410D01*
X424869Y36820D01*
X430540Y42491D01*
X437950Y45561D01*
X445970Y45561D01*
X452076Y43031D01*
X452125Y43018D01*
X452171Y42997D01*
X452278Y42976D01*
X452383Y42948D01*
X452434Y42947D01*
X452484Y42937D01*
X452592Y42944D01*
X452701Y42942D01*
X452751Y42954D01*
X452801Y42958D01*
X452904Y42991D01*
X453010Y43017D01*
X453055Y43040D01*
X453104Y43056D01*
X453195Y43114D01*
X453291Y43165D01*
X453329Y43200D01*
X453372Y43227D01*
X453446Y43306D01*
X453527Y43379D01*
X453555Y43422D01*
X453589Y43459D01*
X453642Y43554D01*
X453702Y43645D01*
X453718Y43693D01*
X453742Y43738D01*
X453769Y43843D01*
X453805Y43946D01*
X453809Y43996D01*
X453821Y44046D01*
X453831Y44206D01*
X453460Y257904D01*
X453454Y257953D01*
X453456Y258001D01*
X453434Y258110D01*
X453420Y258220D01*
X453402Y258265D01*
X453392Y258313D01*
X453343Y258412D01*
X453302Y258515D01*
X453274Y258555D01*
X453252Y258598D01*
X453180Y258683D01*
X453115Y258772D01*
X453077Y258803D01*
X453046Y258840D01*
X452955Y258904D01*
X452870Y258975D01*
X452826Y258995D01*
X452786Y259023D01*
X452682Y259063D01*
X452582Y259110D01*
X452534Y259119D01*
X452489Y259136D01*
X452378Y259148D01*
X452269Y259169D01*
X452221Y259166D01*
X452172Y259171D01*
X452063Y259156D01*
X451952Y259149D01*
X451906Y259134D01*
X451858Y259127D01*
X451705Y259075D01*
X445970Y256699D01*
X437950Y256699D01*
X430540Y259769D01*
X424869Y265440D01*
X421799Y272850D01*
X421799Y280870D01*
X423779Y285650D01*
X423792Y285698D01*
X423813Y285743D01*
X423834Y285851D01*
X423863Y285956D01*
X423864Y286006D01*
X423873Y286056D01*
X423866Y286165D01*
X423868Y286274D01*
X423856Y286323D01*
X423853Y286373D01*
X423819Y286477D01*
X423794Y286584D01*
X423770Y286628D01*
X423755Y286675D01*
X423696Y286768D01*
X423645Y286865D01*
X423611Y286902D01*
X423585Y286944D01*
X423505Y287019D01*
X423431Y287100D01*
X423389Y287128D01*
X423353Y287162D01*
X423257Y287215D01*
X423165Y287275D01*
X423118Y287291D01*
X423074Y287315D01*
X422968Y287342D01*
X422865Y287378D01*
X422815Y287382D01*
X422766Y287394D01*
X422606Y287405D01*
X44840Y287195D01*
X44791Y287189D01*
X44741Y287191D01*
X44634Y287169D01*
X44524Y287155D01*
X44478Y287137D01*
X44430Y287127D01*
X44331Y287079D01*
X44229Y287038D01*
X44189Y287009D01*
X44144Y286987D01*
X44060Y286916D01*
X43971Y286851D01*
X43940Y286813D01*
X43902Y286781D01*
X43839Y286691D01*
X43769Y286606D01*
X43748Y286561D01*
X43719Y286521D01*
X43680Y286418D01*
X43633Y286318D01*
X43624Y286270D01*
X43607Y286224D01*
X43594Y286114D01*
X43574Y286006D01*
X43577Y285956D01*
X43571Y285907D01*
X43587Y285798D01*
X43594Y285688D01*
X43609Y285641D01*
X43616Y285593D01*
X43668Y285440D01*
X45561Y280870D01*
X45561Y272850D01*
X42491Y265440D01*
X36820Y259769D01*
X29410Y256699D01*
X21390Y256699D01*
X17145Y258457D01*
X17099Y258470D01*
X17055Y258491D01*
X16946Y258512D01*
X16838Y258541D01*
X16790Y258542D01*
X16743Y258551D01*
X16632Y258545D01*
X16520Y258546D01*
X16474Y258535D01*
X16426Y258532D01*
X16320Y258498D01*
X16211Y258472D01*
X16169Y258450D01*
X16123Y258435D01*
X16029Y258376D01*
X15930Y258324D01*
X15894Y258291D01*
X15854Y258266D01*
X15777Y258185D01*
X15695Y258110D01*
X15668Y258070D01*
X15635Y258035D01*
X15581Y257937D01*
X15520Y257844D01*
X15504Y257799D01*
X15481Y257757D01*
X15453Y257649D01*
X15417Y257543D01*
X15413Y257495D01*
X15401Y257449D01*
X15390Y257288D01*
X14834Y44293D01*
X14849Y44173D01*
X14856Y44053D01*
X14868Y44016D01*
X14873Y43978D01*
X14917Y43865D01*
X14954Y43751D01*
X14975Y43718D01*
X14989Y43682D01*
X15060Y43584D01*
X15124Y43482D01*
X15153Y43455D01*
X15175Y43424D01*
X15268Y43347D01*
X15356Y43264D01*
X15390Y43245D01*
X15420Y43220D01*
X15529Y43169D01*
X15634Y43110D01*
X15672Y43101D01*
X15707Y43084D01*
X15825Y43061D01*
X15942Y43031D01*
X16000Y43027D01*
X16019Y43024D01*
X16040Y43025D01*
X16103Y43021D01*
X24330Y43021D01*
X31740Y39951D01*
X37411Y34280D01*
X40481Y26870D01*
X40481Y18850D01*
X39906Y17463D01*
X39894Y17416D01*
X39873Y17372D01*
X39852Y17263D01*
X39823Y17157D01*
X39822Y17108D01*
X39812Y17060D01*
X39819Y16949D01*
X39817Y16839D01*
X39829Y16791D01*
X39832Y16742D01*
X39866Y16637D01*
X39892Y16529D01*
X39915Y16486D01*
X39930Y16439D01*
X39989Y16346D01*
X40040Y16248D01*
X40073Y16212D01*
X40099Y16171D01*
X40180Y16095D01*
X40254Y16013D01*
X40295Y15986D01*
X40331Y15952D01*
X40428Y15899D01*
X40520Y15838D01*
X40566Y15822D01*
X40609Y15799D01*
X40716Y15771D01*
X40821Y15735D01*
X40870Y15731D01*
X40917Y15719D01*
X41078Y15708D01*
X422426Y15287D01*
X422476Y15293D01*
G37*
%LPC*%
G36*
X56247Y65277D02*
X56247Y65277D01*
X52233Y66940D01*
X49160Y70013D01*
X47497Y74027D01*
X47497Y78373D01*
X48157Y79966D01*
X48165Y79994D01*
X48178Y80020D01*
X48207Y80147D01*
X48241Y80272D01*
X48242Y80302D01*
X48248Y80331D01*
X48244Y80460D01*
X48246Y80590D01*
X48239Y80619D01*
X48238Y80649D01*
X48202Y80773D01*
X48172Y80900D01*
X48158Y80926D01*
X48150Y80954D01*
X48084Y81066D01*
X48023Y81181D01*
X48003Y81203D01*
X47988Y81228D01*
X47882Y81349D01*
X41909Y87322D01*
X41909Y184458D01*
X54238Y196787D01*
X54298Y196865D01*
X54366Y196937D01*
X54395Y196990D01*
X54432Y197038D01*
X54472Y197129D01*
X54520Y197216D01*
X54535Y197274D01*
X54559Y197330D01*
X54574Y197428D01*
X54599Y197524D01*
X54605Y197624D01*
X54609Y197644D01*
X54607Y197656D01*
X54609Y197684D01*
X54609Y204978D01*
X54594Y205096D01*
X54587Y205215D01*
X54574Y205253D01*
X54569Y205294D01*
X54526Y205404D01*
X54489Y205517D01*
X54467Y205552D01*
X54452Y205589D01*
X54383Y205685D01*
X54319Y205786D01*
X54289Y205814D01*
X54266Y205847D01*
X54174Y205923D01*
X54087Y206004D01*
X54052Y206024D01*
X54021Y206049D01*
X53913Y206100D01*
X53809Y206158D01*
X53769Y206168D01*
X53733Y206185D01*
X53616Y206207D01*
X53501Y206237D01*
X53441Y206241D01*
X53421Y206245D01*
X53400Y206243D01*
X53340Y206247D01*
X49388Y206247D01*
X45840Y207717D01*
X43125Y210432D01*
X41655Y213980D01*
X41655Y217820D01*
X43125Y221368D01*
X45840Y224083D01*
X49388Y225553D01*
X67452Y225553D01*
X71000Y224083D01*
X73715Y221368D01*
X75185Y217820D01*
X75185Y213980D01*
X73715Y210432D01*
X71000Y207717D01*
X67452Y206247D01*
X63500Y206247D01*
X63382Y206232D01*
X63263Y206225D01*
X63225Y206212D01*
X63184Y206207D01*
X63074Y206164D01*
X62961Y206127D01*
X62926Y206105D01*
X62889Y206090D01*
X62793Y206021D01*
X62692Y205957D01*
X62664Y205927D01*
X62631Y205904D01*
X62555Y205812D01*
X62474Y205725D01*
X62454Y205690D01*
X62429Y205659D01*
X62378Y205551D01*
X62320Y205447D01*
X62310Y205407D01*
X62293Y205371D01*
X62271Y205254D01*
X62241Y205139D01*
X62237Y205079D01*
X62233Y205059D01*
X62235Y205038D01*
X62231Y204978D01*
X62231Y194002D01*
X59119Y190889D01*
X59033Y190780D01*
X58945Y190673D01*
X58936Y190654D01*
X58924Y190638D01*
X58868Y190510D01*
X58809Y190385D01*
X58805Y190365D01*
X58797Y190346D01*
X58775Y190208D01*
X58749Y190072D01*
X58751Y190052D01*
X58748Y190032D01*
X58761Y189893D01*
X58769Y189755D01*
X58775Y189736D01*
X58777Y189716D01*
X58825Y189584D01*
X58867Y189453D01*
X58878Y189435D01*
X58885Y189416D01*
X58963Y189301D01*
X59037Y189184D01*
X59052Y189170D01*
X59064Y189153D01*
X59168Y189061D01*
X59269Y188966D01*
X59287Y188956D01*
X59302Y188943D01*
X59426Y188879D01*
X59548Y188812D01*
X59567Y188807D01*
X59585Y188798D01*
X59721Y188768D01*
X59855Y188733D01*
X59884Y188731D01*
X59895Y188728D01*
X59916Y188729D01*
X60016Y188723D01*
X60593Y188723D01*
X64607Y187060D01*
X67680Y183987D01*
X69343Y179973D01*
X69343Y175627D01*
X67680Y171613D01*
X64607Y168540D01*
X60593Y166877D01*
X56247Y166877D01*
X52233Y168540D01*
X51697Y169075D01*
X51588Y169160D01*
X51481Y169249D01*
X51462Y169258D01*
X51446Y169270D01*
X51318Y169326D01*
X51193Y169385D01*
X51173Y169389D01*
X51154Y169397D01*
X51016Y169419D01*
X50880Y169445D01*
X50860Y169443D01*
X50840Y169447D01*
X50701Y169434D01*
X50563Y169425D01*
X50544Y169419D01*
X50524Y169417D01*
X50393Y169370D01*
X50261Y169327D01*
X50243Y169316D01*
X50224Y169309D01*
X50110Y169231D01*
X49992Y169157D01*
X49978Y169142D01*
X49961Y169131D01*
X49869Y169027D01*
X49774Y168925D01*
X49764Y168907D01*
X49751Y168892D01*
X49688Y168768D01*
X49620Y168647D01*
X49615Y168627D01*
X49606Y168609D01*
X49576Y168473D01*
X49541Y168339D01*
X49539Y168311D01*
X49536Y168299D01*
X49537Y168278D01*
X49531Y168178D01*
X49531Y91004D01*
X49543Y90906D01*
X49546Y90807D01*
X49563Y90749D01*
X49571Y90689D01*
X49607Y90597D01*
X49635Y90501D01*
X49665Y90449D01*
X49688Y90393D01*
X49746Y90313D01*
X49796Y90228D01*
X49862Y90152D01*
X49874Y90136D01*
X49884Y90128D01*
X49902Y90107D01*
X53271Y86738D01*
X53295Y86720D01*
X53314Y86697D01*
X53420Y86623D01*
X53522Y86543D01*
X53550Y86531D01*
X53574Y86514D01*
X53695Y86468D01*
X53814Y86417D01*
X53843Y86412D01*
X53871Y86402D01*
X54000Y86387D01*
X54128Y86367D01*
X54158Y86370D01*
X54187Y86366D01*
X54316Y86385D01*
X54445Y86397D01*
X54473Y86407D01*
X54502Y86411D01*
X54654Y86463D01*
X56247Y87123D01*
X60593Y87123D01*
X64607Y85460D01*
X67680Y82387D01*
X69343Y78373D01*
X69343Y74027D01*
X67680Y70013D01*
X64607Y66940D01*
X60593Y65277D01*
X56247Y65277D01*
G37*
%LPD*%
%LPC*%
G36*
X417079Y160019D02*
X417079Y160019D01*
X413344Y161566D01*
X410486Y164424D01*
X408939Y168159D01*
X408939Y187441D01*
X410486Y191176D01*
X413344Y194034D01*
X417079Y195581D01*
X421121Y195581D01*
X424856Y194034D01*
X427714Y191176D01*
X429261Y187441D01*
X429261Y168159D01*
X427714Y164424D01*
X424856Y161566D01*
X421121Y160019D01*
X417079Y160019D01*
G37*
%LPD*%
%LPC*%
G36*
X366279Y160019D02*
X366279Y160019D01*
X362544Y161566D01*
X359686Y164424D01*
X358139Y168159D01*
X358139Y187441D01*
X359686Y191176D01*
X362544Y194034D01*
X366279Y195581D01*
X370321Y195581D01*
X374056Y194034D01*
X376914Y191176D01*
X378461Y187441D01*
X378461Y168159D01*
X376914Y164424D01*
X374056Y161566D01*
X370321Y160019D01*
X366279Y160019D01*
G37*
%LPD*%
%LPC*%
G36*
X49388Y231647D02*
X49388Y231647D01*
X45840Y233117D01*
X43125Y235832D01*
X41655Y239380D01*
X41655Y243220D01*
X43125Y246768D01*
X45840Y249483D01*
X49388Y250953D01*
X67452Y250953D01*
X71000Y249483D01*
X73715Y246768D01*
X75185Y243220D01*
X75185Y239380D01*
X73715Y235832D01*
X71000Y233117D01*
X67452Y231647D01*
X49388Y231647D01*
G37*
%LPD*%
%LPC*%
G36*
X432420Y97535D02*
X432420Y97535D01*
X428872Y99005D01*
X426157Y101720D01*
X424687Y105268D01*
X424687Y123332D01*
X426157Y126880D01*
X428872Y129595D01*
X432420Y131065D01*
X436260Y131065D01*
X439808Y129595D01*
X442523Y126880D01*
X443993Y123332D01*
X443993Y105268D01*
X442523Y101720D01*
X439808Y99005D01*
X436260Y97535D01*
X432420Y97535D01*
G37*
%LPD*%
%LPC*%
G36*
X295007Y166877D02*
X295007Y166877D01*
X290993Y168540D01*
X287920Y171613D01*
X286257Y175627D01*
X286257Y179973D01*
X287920Y183987D01*
X290993Y187060D01*
X295007Y188723D01*
X299353Y188723D01*
X303367Y187060D01*
X306440Y183987D01*
X308103Y179973D01*
X308103Y175627D01*
X306440Y171613D01*
X303367Y168540D01*
X299353Y166877D01*
X295007Y166877D01*
G37*
%LPD*%
%LPC*%
G36*
X241667Y166877D02*
X241667Y166877D01*
X237653Y168540D01*
X234580Y171613D01*
X232917Y175627D01*
X232917Y179973D01*
X234580Y183987D01*
X237653Y187060D01*
X241667Y188723D01*
X246013Y188723D01*
X250027Y187060D01*
X253100Y183987D01*
X254763Y179973D01*
X254763Y175627D01*
X253100Y171613D01*
X250027Y168540D01*
X246013Y166877D01*
X241667Y166877D01*
G37*
%LPD*%
%LPC*%
G36*
X140067Y166877D02*
X140067Y166877D01*
X136053Y168540D01*
X132980Y171613D01*
X131317Y175627D01*
X131317Y179973D01*
X132980Y183987D01*
X136053Y187060D01*
X140067Y188723D01*
X144413Y188723D01*
X148427Y187060D01*
X151500Y183987D01*
X153163Y179973D01*
X153163Y175627D01*
X151500Y171613D01*
X148427Y168540D01*
X144413Y166877D01*
X140067Y166877D01*
G37*
%LPD*%
%LPC*%
G36*
X140067Y65277D02*
X140067Y65277D01*
X136053Y66940D01*
X132980Y70013D01*
X131317Y74027D01*
X131317Y78373D01*
X132980Y82387D01*
X136053Y85460D01*
X140067Y87123D01*
X144413Y87123D01*
X148427Y85460D01*
X151500Y82387D01*
X153163Y78373D01*
X153163Y74027D01*
X151500Y70013D01*
X148427Y66940D01*
X144413Y65277D01*
X140067Y65277D01*
G37*
%LPD*%
%LPC*%
G36*
X227352Y130555D02*
X227352Y130555D01*
X221995Y135912D01*
X221995Y143488D01*
X227352Y148845D01*
X234928Y148845D01*
X240285Y143488D01*
X240285Y135912D01*
X234928Y130555D01*
X227352Y130555D01*
G37*
%LPD*%
%LPC*%
G36*
X118132Y130555D02*
X118132Y130555D01*
X112775Y135912D01*
X112775Y143488D01*
X118132Y148845D01*
X125708Y148845D01*
X131065Y143488D01*
X131065Y135912D01*
X125708Y130555D01*
X118132Y130555D01*
G37*
%LPD*%
%LPC*%
G36*
X369592Y105155D02*
X369592Y105155D01*
X364235Y110512D01*
X364235Y118088D01*
X369592Y123445D01*
X377168Y123445D01*
X382525Y118088D01*
X382525Y110512D01*
X377168Y105155D01*
X369592Y105155D01*
G37*
%LPD*%
%LPC*%
G36*
X396239Y180339D02*
X396239Y180339D01*
X396239Y195279D01*
X397600Y194836D01*
X399025Y194110D01*
X400319Y193170D01*
X401450Y192039D01*
X402390Y190745D01*
X403116Y189320D01*
X403611Y187799D01*
X403861Y186220D01*
X403861Y180339D01*
X396239Y180339D01*
G37*
%LPD*%
%LPC*%
G36*
X396239Y175261D02*
X396239Y175261D01*
X403861Y175261D01*
X403861Y169380D01*
X403611Y167801D01*
X403116Y166280D01*
X402390Y164855D01*
X401450Y163561D01*
X400319Y162430D01*
X399025Y161490D01*
X397600Y160764D01*
X396239Y160321D01*
X396239Y175261D01*
G37*
%LPD*%
%LPC*%
G36*
X383539Y180339D02*
X383539Y180339D01*
X383539Y186220D01*
X383789Y187799D01*
X384284Y189320D01*
X385010Y190745D01*
X385950Y192039D01*
X387081Y193170D01*
X388375Y194110D01*
X389800Y194836D01*
X391161Y195279D01*
X391161Y180339D01*
X383539Y180339D01*
G37*
%LPD*%
%LPC*%
G36*
X389800Y160764D02*
X389800Y160764D01*
X388375Y161490D01*
X387292Y162276D01*
X387292Y162277D01*
X387081Y162430D01*
X385950Y163561D01*
X385010Y164855D01*
X384284Y166280D01*
X383789Y167801D01*
X383539Y169380D01*
X383539Y175261D01*
X391161Y175261D01*
X391161Y160321D01*
X389800Y160764D01*
G37*
%LPD*%
%LPC*%
G36*
X411225Y116585D02*
X411225Y116585D01*
X411225Y130819D01*
X412645Y130358D01*
X413999Y129668D01*
X415228Y128775D01*
X416303Y127700D01*
X417196Y126471D01*
X417886Y125117D01*
X418355Y123672D01*
X418593Y122172D01*
X418593Y116585D01*
X411225Y116585D01*
G37*
%LPD*%
%LPC*%
G36*
X411225Y112015D02*
X411225Y112015D01*
X418593Y112015D01*
X418593Y106428D01*
X418355Y104928D01*
X417886Y103483D01*
X417196Y102129D01*
X416303Y100900D01*
X415228Y99825D01*
X413999Y98932D01*
X412645Y98242D01*
X411225Y97781D01*
X411225Y112015D01*
G37*
%LPD*%
%LPC*%
G36*
X399287Y116585D02*
X399287Y116585D01*
X399287Y122172D01*
X399525Y123672D01*
X399994Y125117D01*
X400684Y126471D01*
X401577Y127700D01*
X402652Y128775D01*
X403881Y129668D01*
X405235Y130358D01*
X406655Y130819D01*
X406655Y116585D01*
X399287Y116585D01*
G37*
%LPD*%
%LPC*%
G36*
X405235Y98242D02*
X405235Y98242D01*
X403881Y98932D01*
X402652Y99825D01*
X401577Y100900D01*
X400684Y102129D01*
X399994Y103483D01*
X399525Y104928D01*
X399287Y106428D01*
X399287Y112015D01*
X406655Y112015D01*
X406655Y97781D01*
X405235Y98242D01*
G37*
%LPD*%
%LPC*%
G36*
X246379Y78739D02*
X246379Y78739D01*
X246379Y86857D01*
X246398Y86854D01*
X248033Y86323D01*
X249565Y85542D01*
X250956Y84531D01*
X252171Y83316D01*
X253182Y81925D01*
X253963Y80393D01*
X254494Y78758D01*
X254497Y78739D01*
X246379Y78739D01*
G37*
%LPD*%
%LPC*%
G36*
X299719Y78739D02*
X299719Y78739D01*
X299719Y86857D01*
X299738Y86854D01*
X301373Y86323D01*
X302905Y85542D01*
X304296Y84531D01*
X305511Y83316D01*
X306522Y81925D01*
X307303Y80393D01*
X307834Y78758D01*
X307837Y78739D01*
X299719Y78739D01*
G37*
%LPD*%
%LPC*%
G36*
X286523Y78739D02*
X286523Y78739D01*
X286526Y78758D01*
X287057Y80393D01*
X287838Y81925D01*
X288849Y83316D01*
X290064Y84531D01*
X291455Y85542D01*
X292987Y86323D01*
X294622Y86854D01*
X294641Y86857D01*
X294641Y78739D01*
X286523Y78739D01*
G37*
%LPD*%
%LPC*%
G36*
X233183Y78739D02*
X233183Y78739D01*
X233186Y78758D01*
X233717Y80393D01*
X234498Y81925D01*
X235509Y83316D01*
X236724Y84531D01*
X238115Y85542D01*
X239647Y86323D01*
X241282Y86854D01*
X241301Y86857D01*
X241301Y78739D01*
X233183Y78739D01*
G37*
%LPD*%
%LPC*%
G36*
X246379Y73661D02*
X246379Y73661D01*
X254497Y73661D01*
X254494Y73642D01*
X253963Y72007D01*
X253182Y70475D01*
X252171Y69084D01*
X250956Y67869D01*
X249565Y66858D01*
X248033Y66077D01*
X246398Y65546D01*
X246379Y65543D01*
X246379Y73661D01*
G37*
%LPD*%
%LPC*%
G36*
X299719Y73661D02*
X299719Y73661D01*
X307837Y73661D01*
X307834Y73642D01*
X307303Y72007D01*
X306522Y70475D01*
X305511Y69084D01*
X304296Y67869D01*
X302905Y66858D01*
X301373Y66077D01*
X299738Y65546D01*
X299719Y65543D01*
X299719Y73661D01*
G37*
%LPD*%
%LPC*%
G36*
X241282Y65546D02*
X241282Y65546D01*
X239647Y66077D01*
X238115Y66858D01*
X236724Y67869D01*
X235509Y69084D01*
X234498Y70475D01*
X233717Y72007D01*
X233186Y73642D01*
X233183Y73661D01*
X241301Y73661D01*
X241301Y65543D01*
X241282Y65546D01*
G37*
%LPD*%
%LPC*%
G36*
X294622Y65546D02*
X294622Y65546D01*
X292987Y66077D01*
X291455Y66858D01*
X290064Y67869D01*
X288849Y69084D01*
X287838Y70475D01*
X287057Y72007D01*
X286526Y73642D01*
X286523Y73661D01*
X294641Y73661D01*
X294641Y65543D01*
X294622Y65546D01*
G37*
%LPD*%
%LPC*%
G36*
X123951Y116331D02*
X123951Y116331D01*
X123951Y123445D01*
X125708Y123445D01*
X131065Y118088D01*
X131065Y116331D01*
X123951Y116331D01*
G37*
%LPD*%
%LPC*%
G36*
X233171Y116331D02*
X233171Y116331D01*
X233171Y123445D01*
X234928Y123445D01*
X240285Y118088D01*
X240285Y116331D01*
X233171Y116331D01*
G37*
%LPD*%
%LPC*%
G36*
X350011Y116331D02*
X350011Y116331D01*
X350011Y123445D01*
X351768Y123445D01*
X357125Y118088D01*
X357125Y116331D01*
X350011Y116331D01*
G37*
%LPD*%
%LPC*%
G36*
X221995Y116331D02*
X221995Y116331D01*
X221995Y118088D01*
X227352Y123445D01*
X229109Y123445D01*
X229109Y116331D01*
X221995Y116331D01*
G37*
%LPD*%
%LPC*%
G36*
X338835Y116331D02*
X338835Y116331D01*
X338835Y118088D01*
X344192Y123445D01*
X345949Y123445D01*
X345949Y116331D01*
X338835Y116331D01*
G37*
%LPD*%
%LPC*%
G36*
X112775Y116331D02*
X112775Y116331D01*
X112775Y118088D01*
X118132Y123445D01*
X119889Y123445D01*
X119889Y116331D01*
X112775Y116331D01*
G37*
%LPD*%
%LPC*%
G36*
X123951Y105155D02*
X123951Y105155D01*
X123951Y112269D01*
X131065Y112269D01*
X131065Y110512D01*
X125708Y105155D01*
X123951Y105155D01*
G37*
%LPD*%
%LPC*%
G36*
X350011Y105155D02*
X350011Y105155D01*
X350011Y112269D01*
X357125Y112269D01*
X357125Y110512D01*
X351768Y105155D01*
X350011Y105155D01*
G37*
%LPD*%
%LPC*%
G36*
X233171Y105155D02*
X233171Y105155D01*
X233171Y112269D01*
X240285Y112269D01*
X240285Y110512D01*
X234928Y105155D01*
X233171Y105155D01*
G37*
%LPD*%
%LPC*%
G36*
X344192Y105155D02*
X344192Y105155D01*
X338835Y110512D01*
X338835Y112269D01*
X345949Y112269D01*
X345949Y105155D01*
X344192Y105155D01*
G37*
%LPD*%
%LPC*%
G36*
X118132Y105155D02*
X118132Y105155D01*
X112775Y110512D01*
X112775Y112269D01*
X119889Y112269D01*
X119889Y105155D01*
X118132Y105155D01*
G37*
%LPD*%
%LPC*%
G36*
X227352Y105155D02*
X227352Y105155D01*
X221995Y110512D01*
X221995Y112269D01*
X229109Y112269D01*
X229109Y105155D01*
X227352Y105155D01*
G37*
%LPD*%
%LPC*%
G36*
X393699Y177799D02*
X393699Y177799D01*
X393699Y177801D01*
X393701Y177801D01*
X393701Y177799D01*
X393699Y177799D01*
G37*
%LPD*%
%LPC*%
G36*
X243839Y76199D02*
X243839Y76199D01*
X243839Y76201D01*
X243841Y76201D01*
X243841Y76199D01*
X243839Y76199D01*
G37*
%LPD*%
%LPC*%
G36*
X297179Y76199D02*
X297179Y76199D01*
X297179Y76201D01*
X297181Y76201D01*
X297181Y76199D01*
X297179Y76199D01*
G37*
%LPD*%
D10*
X434340Y121412D02*
X434340Y107188D01*
X408940Y107188D02*
X408940Y121412D01*
D11*
X121920Y139700D03*
X121920Y114300D03*
X231140Y139700D03*
X231140Y114300D03*
D12*
X373380Y114300D03*
X347980Y114300D03*
D13*
X142240Y177800D03*
X243840Y177800D03*
X297180Y76200D03*
X297180Y177800D03*
X142240Y76200D03*
X243840Y76200D03*
X58420Y76200D03*
X58420Y177800D03*
D14*
X368300Y170180D02*
X368300Y185420D01*
X393700Y185420D02*
X393700Y170180D01*
X419100Y170180D02*
X419100Y185420D01*
D10*
X65532Y241300D02*
X51308Y241300D01*
X51308Y215900D02*
X65532Y215900D01*
D15*
X408940Y162560D02*
X408940Y127000D01*
X408940Y162560D02*
X393700Y177800D01*
X408940Y127000D02*
X360680Y127000D01*
X347980Y114300D01*
X408940Y114300D02*
X408940Y127000D01*
X58420Y195580D02*
X58420Y215900D01*
X58420Y195580D02*
X45720Y182880D01*
X45720Y88900D01*
X58420Y76200D01*
M02*
