G04 EAGLE Gerber RS-274X export*
G75*
%MOMM*%
%FSLAX34Y34*%
%LPD*%
%INSilkscreen Top*%
%IPPOS*%
%AMOC8*
5,1,8,0,0,1.08239X$1,22.5*%
G01*
%ADD10C,0.152400*%
%ADD11C,0.101600*%
%ADD12C,0.127000*%
%ADD13C,0.304800*%
%ADD14C,0.254000*%
%ADD15R,0.508000X2.540000*%
%ADD16R,1.905000X0.762000*%
%ADD17R,2.540000X0.508000*%
%ADD18R,0.762000X1.905000*%
%ADD19R,10.668000X0.762000*%
%ADD20R,1.905000X0.508000*%
%ADD21R,0.762000X0.508000*%


D10*
X216662Y244602D02*
X216662Y260858D01*
X216662Y253633D02*
X225693Y253633D01*
X225693Y260858D02*
X225693Y244602D01*
X235763Y250924D02*
X239827Y250924D01*
X235763Y250924D02*
X235651Y250922D01*
X235540Y250916D01*
X235429Y250906D01*
X235318Y250893D01*
X235208Y250875D01*
X235099Y250853D01*
X234990Y250828D01*
X234882Y250799D01*
X234776Y250766D01*
X234670Y250729D01*
X234566Y250689D01*
X234464Y250645D01*
X234363Y250597D01*
X234264Y250546D01*
X234166Y250491D01*
X234071Y250433D01*
X233978Y250372D01*
X233887Y250307D01*
X233798Y250239D01*
X233712Y250168D01*
X233629Y250095D01*
X233548Y250018D01*
X233469Y249938D01*
X233394Y249856D01*
X233322Y249771D01*
X233252Y249684D01*
X233186Y249594D01*
X233123Y249502D01*
X233063Y249407D01*
X233007Y249311D01*
X232954Y249213D01*
X232905Y249113D01*
X232859Y249011D01*
X232817Y248908D01*
X232778Y248803D01*
X232743Y248697D01*
X232712Y248590D01*
X232685Y248482D01*
X232661Y248373D01*
X232642Y248263D01*
X232626Y248153D01*
X232614Y248042D01*
X232606Y247930D01*
X232602Y247819D01*
X232602Y247707D01*
X232606Y247596D01*
X232614Y247484D01*
X232626Y247373D01*
X232642Y247263D01*
X232661Y247153D01*
X232685Y247044D01*
X232712Y246936D01*
X232743Y246829D01*
X232778Y246723D01*
X232817Y246618D01*
X232859Y246515D01*
X232905Y246413D01*
X232954Y246313D01*
X233007Y246215D01*
X233063Y246119D01*
X233123Y246024D01*
X233186Y245932D01*
X233252Y245842D01*
X233322Y245755D01*
X233394Y245670D01*
X233469Y245588D01*
X233548Y245508D01*
X233629Y245431D01*
X233712Y245358D01*
X233798Y245287D01*
X233887Y245219D01*
X233978Y245154D01*
X234071Y245093D01*
X234166Y245035D01*
X234264Y244980D01*
X234363Y244929D01*
X234464Y244881D01*
X234566Y244837D01*
X234670Y244797D01*
X234776Y244760D01*
X234882Y244727D01*
X234990Y244698D01*
X235099Y244673D01*
X235208Y244651D01*
X235318Y244633D01*
X235429Y244620D01*
X235540Y244610D01*
X235651Y244604D01*
X235763Y244602D01*
X239827Y244602D01*
X239827Y252730D01*
X239825Y252831D01*
X239819Y252932D01*
X239810Y253033D01*
X239797Y253134D01*
X239780Y253234D01*
X239759Y253333D01*
X239735Y253431D01*
X239707Y253528D01*
X239675Y253625D01*
X239640Y253720D01*
X239601Y253813D01*
X239559Y253905D01*
X239513Y253996D01*
X239464Y254085D01*
X239412Y254171D01*
X239356Y254256D01*
X239298Y254339D01*
X239236Y254419D01*
X239171Y254497D01*
X239104Y254573D01*
X239034Y254646D01*
X238961Y254716D01*
X238885Y254783D01*
X238807Y254848D01*
X238727Y254910D01*
X238644Y254968D01*
X238559Y255024D01*
X238473Y255076D01*
X238384Y255125D01*
X238293Y255171D01*
X238201Y255213D01*
X238108Y255252D01*
X238013Y255287D01*
X237916Y255319D01*
X237819Y255347D01*
X237721Y255371D01*
X237622Y255392D01*
X237522Y255409D01*
X237421Y255422D01*
X237320Y255431D01*
X237219Y255437D01*
X237118Y255439D01*
X233505Y255439D01*
X247264Y255439D02*
X247264Y244602D01*
X247264Y255439D02*
X251780Y255439D01*
X251884Y255437D01*
X251987Y255431D01*
X252091Y255421D01*
X252194Y255407D01*
X252296Y255389D01*
X252397Y255368D01*
X252498Y255342D01*
X252597Y255313D01*
X252696Y255280D01*
X252793Y255243D01*
X252888Y255202D01*
X252982Y255158D01*
X253074Y255110D01*
X253164Y255059D01*
X253253Y255004D01*
X253339Y254946D01*
X253422Y254884D01*
X253504Y254820D01*
X253582Y254752D01*
X253658Y254682D01*
X253732Y254609D01*
X253802Y254532D01*
X253870Y254454D01*
X253934Y254372D01*
X253996Y254289D01*
X254054Y254203D01*
X254109Y254114D01*
X254160Y254024D01*
X254208Y253932D01*
X254252Y253838D01*
X254293Y253743D01*
X254330Y253646D01*
X254363Y253547D01*
X254392Y253448D01*
X254418Y253347D01*
X254439Y253246D01*
X254457Y253144D01*
X254471Y253041D01*
X254481Y252937D01*
X254487Y252834D01*
X254489Y252730D01*
X254489Y244602D01*
X268484Y244602D02*
X268484Y260858D01*
X268484Y244602D02*
X263969Y244602D01*
X263868Y244604D01*
X263767Y244610D01*
X263666Y244619D01*
X263565Y244632D01*
X263465Y244649D01*
X263366Y244670D01*
X263268Y244694D01*
X263171Y244722D01*
X263074Y244754D01*
X262979Y244789D01*
X262886Y244828D01*
X262794Y244870D01*
X262703Y244916D01*
X262615Y244965D01*
X262528Y245017D01*
X262443Y245073D01*
X262360Y245131D01*
X262280Y245193D01*
X262202Y245258D01*
X262126Y245325D01*
X262053Y245395D01*
X261983Y245468D01*
X261916Y245544D01*
X261851Y245622D01*
X261789Y245702D01*
X261731Y245785D01*
X261675Y245870D01*
X261623Y245957D01*
X261574Y246045D01*
X261528Y246136D01*
X261486Y246228D01*
X261447Y246321D01*
X261412Y246416D01*
X261380Y246513D01*
X261352Y246610D01*
X261328Y246708D01*
X261307Y246807D01*
X261290Y246907D01*
X261277Y247008D01*
X261268Y247109D01*
X261262Y247210D01*
X261260Y247311D01*
X261259Y247311D02*
X261259Y252730D01*
X261260Y252730D02*
X261262Y252831D01*
X261268Y252932D01*
X261277Y253033D01*
X261290Y253134D01*
X261307Y253234D01*
X261328Y253333D01*
X261352Y253431D01*
X261380Y253528D01*
X261412Y253625D01*
X261447Y253720D01*
X261486Y253813D01*
X261528Y253905D01*
X261574Y253996D01*
X261623Y254085D01*
X261675Y254171D01*
X261731Y254256D01*
X261789Y254339D01*
X261851Y254419D01*
X261916Y254497D01*
X261983Y254573D01*
X262053Y254646D01*
X262126Y254716D01*
X262202Y254783D01*
X262280Y254848D01*
X262360Y254910D01*
X262443Y254968D01*
X262528Y255024D01*
X262615Y255076D01*
X262703Y255125D01*
X262794Y255171D01*
X262886Y255213D01*
X262979Y255252D01*
X263074Y255287D01*
X263171Y255319D01*
X263268Y255347D01*
X263366Y255371D01*
X263465Y255392D01*
X263565Y255409D01*
X263666Y255422D01*
X263767Y255431D01*
X263868Y255437D01*
X263969Y255439D01*
X268484Y255439D01*
X276755Y250924D02*
X281271Y249118D01*
X276755Y250924D02*
X276667Y250961D01*
X276581Y251002D01*
X276496Y251046D01*
X276413Y251094D01*
X276333Y251145D01*
X276254Y251199D01*
X276178Y251257D01*
X276104Y251317D01*
X276032Y251381D01*
X275964Y251447D01*
X275898Y251517D01*
X275835Y251588D01*
X275774Y251663D01*
X275717Y251739D01*
X275664Y251818D01*
X275613Y251899D01*
X275566Y251982D01*
X275522Y252067D01*
X275482Y252154D01*
X275445Y252242D01*
X275412Y252332D01*
X275382Y252423D01*
X275357Y252515D01*
X275335Y252608D01*
X275317Y252702D01*
X275302Y252796D01*
X275292Y252891D01*
X275286Y252987D01*
X275283Y253082D01*
X275284Y253178D01*
X275290Y253273D01*
X275299Y253369D01*
X275312Y253463D01*
X275328Y253557D01*
X275349Y253651D01*
X275374Y253743D01*
X275402Y253834D01*
X275434Y253924D01*
X275469Y254013D01*
X275508Y254100D01*
X275551Y254186D01*
X275597Y254270D01*
X275647Y254351D01*
X275699Y254431D01*
X275755Y254509D01*
X275815Y254584D01*
X275877Y254656D01*
X275942Y254726D01*
X276010Y254794D01*
X276080Y254858D01*
X276153Y254920D01*
X276229Y254978D01*
X276307Y255034D01*
X276387Y255086D01*
X276469Y255135D01*
X276553Y255180D01*
X276639Y255222D01*
X276726Y255261D01*
X276815Y255296D01*
X276906Y255327D01*
X276997Y255354D01*
X277090Y255378D01*
X277183Y255398D01*
X277277Y255414D01*
X277372Y255426D01*
X277467Y255435D01*
X277563Y255439D01*
X277658Y255440D01*
X277905Y255433D01*
X278151Y255421D01*
X278397Y255403D01*
X278643Y255378D01*
X278887Y255348D01*
X279131Y255312D01*
X279374Y255271D01*
X279616Y255223D01*
X279857Y255169D01*
X280096Y255110D01*
X280334Y255045D01*
X280570Y254974D01*
X280805Y254898D01*
X281038Y254816D01*
X281268Y254728D01*
X281496Y254635D01*
X281723Y254537D01*
X281271Y249117D02*
X281359Y249080D01*
X281445Y249039D01*
X281530Y248995D01*
X281613Y248947D01*
X281693Y248896D01*
X281772Y248842D01*
X281848Y248784D01*
X281922Y248724D01*
X281994Y248660D01*
X282062Y248594D01*
X282128Y248524D01*
X282191Y248453D01*
X282252Y248378D01*
X282309Y248302D01*
X282362Y248223D01*
X282413Y248142D01*
X282460Y248059D01*
X282504Y247974D01*
X282544Y247887D01*
X282581Y247799D01*
X282614Y247709D01*
X282644Y247618D01*
X282669Y247526D01*
X282691Y247433D01*
X282709Y247339D01*
X282724Y247245D01*
X282734Y247150D01*
X282740Y247054D01*
X282743Y246959D01*
X282742Y246863D01*
X282736Y246768D01*
X282727Y246672D01*
X282714Y246578D01*
X282698Y246484D01*
X282677Y246390D01*
X282652Y246298D01*
X282624Y246207D01*
X282592Y246117D01*
X282557Y246028D01*
X282518Y245941D01*
X282475Y245855D01*
X282429Y245771D01*
X282379Y245690D01*
X282327Y245610D01*
X282271Y245532D01*
X282211Y245457D01*
X282149Y245385D01*
X282084Y245315D01*
X282016Y245247D01*
X281946Y245183D01*
X281873Y245121D01*
X281797Y245063D01*
X281719Y245007D01*
X281639Y244955D01*
X281557Y244906D01*
X281473Y244861D01*
X281387Y244819D01*
X281300Y244780D01*
X281211Y244745D01*
X281120Y244714D01*
X281029Y244687D01*
X280936Y244663D01*
X280843Y244643D01*
X280749Y244627D01*
X280654Y244615D01*
X280559Y244606D01*
X280463Y244602D01*
X280368Y244601D01*
X280367Y244602D02*
X280005Y244611D01*
X279643Y244629D01*
X279282Y244656D01*
X278922Y244691D01*
X278562Y244734D01*
X278203Y244786D01*
X277846Y244847D01*
X277491Y244916D01*
X277137Y244993D01*
X276785Y245079D01*
X276435Y245173D01*
X276087Y245276D01*
X275742Y245386D01*
X275400Y245505D01*
X297423Y249118D02*
X297423Y256342D01*
X297425Y256475D01*
X297431Y256607D01*
X297441Y256739D01*
X297454Y256871D01*
X297472Y257003D01*
X297493Y257133D01*
X297518Y257264D01*
X297547Y257393D01*
X297580Y257521D01*
X297616Y257649D01*
X297656Y257775D01*
X297700Y257900D01*
X297748Y258024D01*
X297799Y258146D01*
X297854Y258267D01*
X297912Y258386D01*
X297974Y258504D01*
X298039Y258619D01*
X298108Y258733D01*
X298179Y258844D01*
X298255Y258953D01*
X298333Y259060D01*
X298414Y259165D01*
X298499Y259267D01*
X298586Y259367D01*
X298676Y259464D01*
X298769Y259559D01*
X298865Y259650D01*
X298963Y259739D01*
X299064Y259825D01*
X299168Y259908D01*
X299274Y259988D01*
X299382Y260064D01*
X299492Y260138D01*
X299605Y260208D01*
X299719Y260275D01*
X299836Y260338D01*
X299954Y260398D01*
X300074Y260455D01*
X300196Y260508D01*
X300319Y260557D01*
X300443Y260603D01*
X300569Y260645D01*
X300696Y260683D01*
X300824Y260718D01*
X300953Y260749D01*
X301082Y260776D01*
X301213Y260799D01*
X301344Y260819D01*
X301476Y260834D01*
X301608Y260846D01*
X301740Y260854D01*
X301873Y260858D01*
X302005Y260858D01*
X302138Y260854D01*
X302270Y260846D01*
X302402Y260834D01*
X302534Y260819D01*
X302665Y260799D01*
X302796Y260776D01*
X302925Y260749D01*
X303054Y260718D01*
X303182Y260683D01*
X303309Y260645D01*
X303435Y260603D01*
X303559Y260557D01*
X303682Y260508D01*
X303804Y260455D01*
X303924Y260398D01*
X304042Y260338D01*
X304159Y260275D01*
X304273Y260208D01*
X304386Y260138D01*
X304496Y260064D01*
X304604Y259988D01*
X304710Y259908D01*
X304814Y259825D01*
X304915Y259739D01*
X305013Y259650D01*
X305109Y259559D01*
X305202Y259464D01*
X305292Y259367D01*
X305379Y259267D01*
X305464Y259165D01*
X305545Y259060D01*
X305623Y258953D01*
X305699Y258844D01*
X305770Y258733D01*
X305839Y258619D01*
X305904Y258504D01*
X305966Y258386D01*
X306024Y258267D01*
X306079Y258146D01*
X306130Y258024D01*
X306178Y257900D01*
X306222Y257775D01*
X306262Y257649D01*
X306298Y257521D01*
X306331Y257393D01*
X306360Y257264D01*
X306385Y257133D01*
X306406Y257003D01*
X306424Y256871D01*
X306437Y256739D01*
X306447Y256607D01*
X306453Y256475D01*
X306455Y256342D01*
X306454Y256342D02*
X306454Y249118D01*
X306455Y249118D02*
X306453Y248985D01*
X306447Y248853D01*
X306437Y248721D01*
X306424Y248589D01*
X306406Y248457D01*
X306385Y248327D01*
X306360Y248196D01*
X306331Y248067D01*
X306298Y247939D01*
X306262Y247811D01*
X306222Y247685D01*
X306178Y247560D01*
X306130Y247436D01*
X306079Y247314D01*
X306024Y247193D01*
X305966Y247074D01*
X305904Y246956D01*
X305839Y246841D01*
X305770Y246727D01*
X305699Y246616D01*
X305623Y246507D01*
X305545Y246400D01*
X305464Y246295D01*
X305379Y246193D01*
X305292Y246093D01*
X305202Y245996D01*
X305109Y245901D01*
X305013Y245810D01*
X304915Y245721D01*
X304814Y245635D01*
X304710Y245552D01*
X304604Y245472D01*
X304496Y245396D01*
X304386Y245322D01*
X304273Y245252D01*
X304159Y245185D01*
X304042Y245122D01*
X303924Y245062D01*
X303804Y245005D01*
X303682Y244952D01*
X303559Y244903D01*
X303435Y244857D01*
X303309Y244815D01*
X303182Y244777D01*
X303054Y244742D01*
X302925Y244711D01*
X302796Y244684D01*
X302665Y244661D01*
X302534Y244641D01*
X302402Y244626D01*
X302270Y244614D01*
X302138Y244606D01*
X302005Y244602D01*
X301873Y244602D01*
X301740Y244606D01*
X301608Y244614D01*
X301476Y244626D01*
X301344Y244641D01*
X301213Y244661D01*
X301082Y244684D01*
X300953Y244711D01*
X300824Y244742D01*
X300696Y244777D01*
X300569Y244815D01*
X300443Y244857D01*
X300319Y244903D01*
X300196Y244952D01*
X300074Y245005D01*
X299954Y245062D01*
X299836Y245122D01*
X299719Y245185D01*
X299605Y245252D01*
X299492Y245322D01*
X299382Y245396D01*
X299274Y245472D01*
X299168Y245552D01*
X299064Y245635D01*
X298963Y245721D01*
X298865Y245810D01*
X298769Y245901D01*
X298676Y245996D01*
X298586Y246093D01*
X298499Y246193D01*
X298414Y246295D01*
X298333Y246400D01*
X298255Y246507D01*
X298179Y246616D01*
X298108Y246727D01*
X298039Y246841D01*
X297974Y246956D01*
X297912Y247074D01*
X297854Y247193D01*
X297799Y247314D01*
X297748Y247436D01*
X297700Y247560D01*
X297656Y247685D01*
X297616Y247811D01*
X297580Y247939D01*
X297547Y248067D01*
X297518Y248196D01*
X297493Y248327D01*
X297472Y248457D01*
X297454Y248589D01*
X297441Y248721D01*
X297431Y248853D01*
X297425Y248985D01*
X297423Y249118D01*
X313437Y244602D02*
X313437Y255439D01*
X317952Y255439D01*
X318056Y255437D01*
X318159Y255431D01*
X318263Y255421D01*
X318366Y255407D01*
X318468Y255389D01*
X318569Y255368D01*
X318670Y255342D01*
X318769Y255313D01*
X318868Y255280D01*
X318965Y255243D01*
X319060Y255202D01*
X319154Y255158D01*
X319246Y255110D01*
X319336Y255059D01*
X319425Y255004D01*
X319511Y254946D01*
X319594Y254884D01*
X319676Y254820D01*
X319754Y254752D01*
X319830Y254682D01*
X319904Y254609D01*
X319974Y254532D01*
X320042Y254454D01*
X320106Y254372D01*
X320168Y254289D01*
X320226Y254203D01*
X320281Y254114D01*
X320332Y254024D01*
X320380Y253932D01*
X320424Y253838D01*
X320465Y253743D01*
X320502Y253646D01*
X320535Y253547D01*
X320564Y253448D01*
X320590Y253347D01*
X320611Y253246D01*
X320629Y253144D01*
X320643Y253041D01*
X320653Y252937D01*
X320659Y252834D01*
X320661Y252730D01*
X320661Y244602D01*
X336501Y244602D02*
X336501Y260858D01*
X341017Y260858D01*
X341148Y260856D01*
X341280Y260850D01*
X341411Y260841D01*
X341541Y260827D01*
X341672Y260810D01*
X341801Y260789D01*
X341930Y260765D01*
X342058Y260736D01*
X342186Y260704D01*
X342312Y260668D01*
X342437Y260629D01*
X342562Y260586D01*
X342684Y260539D01*
X342806Y260489D01*
X342926Y260435D01*
X343044Y260378D01*
X343160Y260317D01*
X343275Y260253D01*
X343388Y260186D01*
X343499Y260115D01*
X343607Y260041D01*
X343714Y259964D01*
X343818Y259884D01*
X343920Y259801D01*
X344019Y259716D01*
X344116Y259627D01*
X344210Y259535D01*
X344302Y259441D01*
X344391Y259344D01*
X344476Y259245D01*
X344559Y259143D01*
X344639Y259039D01*
X344716Y258932D01*
X344790Y258824D01*
X344861Y258713D01*
X344928Y258600D01*
X344992Y258485D01*
X345053Y258369D01*
X345110Y258251D01*
X345164Y258131D01*
X345214Y258009D01*
X345261Y257887D01*
X345304Y257762D01*
X345343Y257637D01*
X345379Y257511D01*
X345411Y257383D01*
X345440Y257255D01*
X345464Y257126D01*
X345485Y256997D01*
X345502Y256866D01*
X345516Y256736D01*
X345525Y256605D01*
X345531Y256473D01*
X345533Y256342D01*
X345532Y256342D02*
X345532Y249118D01*
X345533Y249118D02*
X345531Y248987D01*
X345525Y248855D01*
X345516Y248724D01*
X345502Y248594D01*
X345485Y248463D01*
X345464Y248334D01*
X345440Y248205D01*
X345411Y248077D01*
X345379Y247949D01*
X345343Y247823D01*
X345304Y247698D01*
X345261Y247573D01*
X345214Y247451D01*
X345164Y247329D01*
X345110Y247209D01*
X345053Y247091D01*
X344992Y246975D01*
X344928Y246860D01*
X344861Y246747D01*
X344790Y246636D01*
X344716Y246528D01*
X344639Y246421D01*
X344559Y246317D01*
X344476Y246215D01*
X344391Y246116D01*
X344302Y246019D01*
X344210Y245925D01*
X344116Y245833D01*
X344019Y245744D01*
X343920Y245659D01*
X343818Y245576D01*
X343714Y245496D01*
X343607Y245419D01*
X343499Y245345D01*
X343388Y245274D01*
X343275Y245207D01*
X343160Y245143D01*
X343044Y245082D01*
X342926Y245025D01*
X342806Y244971D01*
X342684Y244921D01*
X342562Y244874D01*
X342437Y244831D01*
X342312Y244792D01*
X342186Y244756D01*
X342058Y244724D01*
X341930Y244695D01*
X341801Y244671D01*
X341671Y244650D01*
X341541Y244633D01*
X341411Y244619D01*
X341280Y244610D01*
X341148Y244604D01*
X341017Y244602D01*
X336501Y244602D01*
X355224Y244602D02*
X359740Y244602D01*
X355224Y244602D02*
X355123Y244604D01*
X355022Y244610D01*
X354921Y244619D01*
X354820Y244632D01*
X354720Y244649D01*
X354621Y244670D01*
X354523Y244694D01*
X354426Y244722D01*
X354329Y244754D01*
X354234Y244789D01*
X354141Y244828D01*
X354049Y244870D01*
X353958Y244916D01*
X353870Y244965D01*
X353783Y245017D01*
X353698Y245073D01*
X353615Y245131D01*
X353535Y245193D01*
X353457Y245258D01*
X353381Y245325D01*
X353308Y245395D01*
X353238Y245468D01*
X353171Y245544D01*
X353106Y245622D01*
X353044Y245702D01*
X352986Y245785D01*
X352930Y245870D01*
X352878Y245957D01*
X352829Y246045D01*
X352783Y246136D01*
X352741Y246228D01*
X352702Y246321D01*
X352667Y246416D01*
X352635Y246513D01*
X352607Y246610D01*
X352583Y246708D01*
X352562Y246807D01*
X352545Y246907D01*
X352532Y247008D01*
X352523Y247109D01*
X352517Y247210D01*
X352515Y247311D01*
X352515Y251827D01*
X352517Y251946D01*
X352523Y252066D01*
X352533Y252185D01*
X352547Y252303D01*
X352564Y252422D01*
X352586Y252539D01*
X352611Y252656D01*
X352641Y252771D01*
X352674Y252886D01*
X352711Y253000D01*
X352751Y253112D01*
X352796Y253223D01*
X352844Y253332D01*
X352895Y253440D01*
X352950Y253546D01*
X353009Y253650D01*
X353071Y253752D01*
X353136Y253852D01*
X353205Y253950D01*
X353277Y254046D01*
X353352Y254139D01*
X353429Y254229D01*
X353510Y254317D01*
X353594Y254402D01*
X353681Y254484D01*
X353770Y254564D01*
X353862Y254640D01*
X353956Y254714D01*
X354053Y254784D01*
X354151Y254851D01*
X354252Y254915D01*
X354356Y254975D01*
X354461Y255032D01*
X354568Y255085D01*
X354676Y255135D01*
X354786Y255181D01*
X354898Y255223D01*
X355011Y255262D01*
X355125Y255297D01*
X355240Y255328D01*
X355357Y255356D01*
X355474Y255379D01*
X355591Y255399D01*
X355710Y255415D01*
X355829Y255427D01*
X355948Y255435D01*
X356067Y255439D01*
X356187Y255439D01*
X356306Y255435D01*
X356425Y255427D01*
X356544Y255415D01*
X356663Y255399D01*
X356780Y255379D01*
X356897Y255356D01*
X357014Y255328D01*
X357129Y255297D01*
X357243Y255262D01*
X357356Y255223D01*
X357468Y255181D01*
X357578Y255135D01*
X357686Y255085D01*
X357793Y255032D01*
X357898Y254975D01*
X358002Y254915D01*
X358103Y254851D01*
X358201Y254784D01*
X358298Y254714D01*
X358392Y254640D01*
X358484Y254564D01*
X358573Y254484D01*
X358660Y254402D01*
X358744Y254317D01*
X358825Y254229D01*
X358902Y254139D01*
X358977Y254046D01*
X359049Y253950D01*
X359118Y253852D01*
X359183Y253752D01*
X359245Y253650D01*
X359304Y253546D01*
X359359Y253440D01*
X359410Y253332D01*
X359458Y253223D01*
X359503Y253112D01*
X359543Y253000D01*
X359580Y252886D01*
X359613Y252771D01*
X359643Y252656D01*
X359668Y252539D01*
X359690Y252422D01*
X359707Y252303D01*
X359721Y252185D01*
X359731Y252066D01*
X359737Y251946D01*
X359739Y251827D01*
X359740Y251827D02*
X359740Y250021D01*
X352515Y250021D01*
X366861Y244602D02*
X366861Y255439D01*
X374989Y255439D01*
X375090Y255437D01*
X375191Y255431D01*
X375292Y255422D01*
X375393Y255409D01*
X375493Y255392D01*
X375592Y255371D01*
X375690Y255347D01*
X375787Y255319D01*
X375884Y255287D01*
X375979Y255252D01*
X376072Y255213D01*
X376164Y255171D01*
X376255Y255125D01*
X376344Y255076D01*
X376430Y255024D01*
X376515Y254968D01*
X376598Y254910D01*
X376678Y254848D01*
X376756Y254783D01*
X376832Y254716D01*
X376905Y254646D01*
X376975Y254573D01*
X377042Y254497D01*
X377107Y254419D01*
X377169Y254339D01*
X377227Y254256D01*
X377283Y254171D01*
X377335Y254085D01*
X377384Y253996D01*
X377430Y253905D01*
X377472Y253813D01*
X377511Y253720D01*
X377546Y253625D01*
X377578Y253528D01*
X377606Y253431D01*
X377630Y253333D01*
X377651Y253234D01*
X377668Y253134D01*
X377681Y253033D01*
X377690Y252932D01*
X377696Y252831D01*
X377698Y252730D01*
X377698Y244602D01*
X372279Y244602D02*
X372279Y255439D01*
X384819Y251827D02*
X384819Y248214D01*
X384820Y251827D02*
X384822Y251946D01*
X384828Y252066D01*
X384838Y252185D01*
X384852Y252303D01*
X384869Y252422D01*
X384891Y252539D01*
X384916Y252656D01*
X384946Y252771D01*
X384979Y252886D01*
X385016Y253000D01*
X385056Y253112D01*
X385101Y253223D01*
X385149Y253332D01*
X385200Y253440D01*
X385255Y253546D01*
X385314Y253650D01*
X385376Y253752D01*
X385441Y253852D01*
X385510Y253950D01*
X385582Y254046D01*
X385657Y254139D01*
X385734Y254229D01*
X385815Y254317D01*
X385899Y254402D01*
X385986Y254484D01*
X386075Y254564D01*
X386167Y254640D01*
X386261Y254714D01*
X386358Y254784D01*
X386456Y254851D01*
X386557Y254915D01*
X386661Y254975D01*
X386766Y255032D01*
X386873Y255085D01*
X386981Y255135D01*
X387091Y255181D01*
X387203Y255223D01*
X387316Y255262D01*
X387430Y255297D01*
X387545Y255328D01*
X387662Y255356D01*
X387779Y255379D01*
X387896Y255399D01*
X388015Y255415D01*
X388134Y255427D01*
X388253Y255435D01*
X388372Y255439D01*
X388492Y255439D01*
X388611Y255435D01*
X388730Y255427D01*
X388849Y255415D01*
X388968Y255399D01*
X389085Y255379D01*
X389202Y255356D01*
X389319Y255328D01*
X389434Y255297D01*
X389548Y255262D01*
X389661Y255223D01*
X389773Y255181D01*
X389883Y255135D01*
X389991Y255085D01*
X390098Y255032D01*
X390203Y254975D01*
X390307Y254915D01*
X390408Y254851D01*
X390506Y254784D01*
X390603Y254714D01*
X390697Y254640D01*
X390789Y254564D01*
X390878Y254484D01*
X390965Y254402D01*
X391049Y254317D01*
X391130Y254229D01*
X391207Y254139D01*
X391282Y254046D01*
X391354Y253950D01*
X391423Y253852D01*
X391488Y253752D01*
X391550Y253650D01*
X391609Y253546D01*
X391664Y253440D01*
X391715Y253332D01*
X391763Y253223D01*
X391808Y253112D01*
X391848Y253000D01*
X391885Y252886D01*
X391918Y252771D01*
X391948Y252656D01*
X391973Y252539D01*
X391995Y252422D01*
X392012Y252303D01*
X392026Y252185D01*
X392036Y252066D01*
X392042Y251946D01*
X392044Y251827D01*
X392044Y248214D01*
X392042Y248095D01*
X392036Y247975D01*
X392026Y247856D01*
X392012Y247738D01*
X391995Y247619D01*
X391973Y247502D01*
X391948Y247385D01*
X391918Y247270D01*
X391885Y247155D01*
X391848Y247041D01*
X391808Y246929D01*
X391763Y246818D01*
X391715Y246709D01*
X391664Y246601D01*
X391609Y246495D01*
X391550Y246391D01*
X391488Y246289D01*
X391423Y246189D01*
X391354Y246091D01*
X391282Y245995D01*
X391207Y245902D01*
X391130Y245812D01*
X391049Y245724D01*
X390965Y245639D01*
X390878Y245557D01*
X390789Y245477D01*
X390697Y245401D01*
X390603Y245327D01*
X390506Y245257D01*
X390408Y245190D01*
X390307Y245126D01*
X390203Y245066D01*
X390098Y245009D01*
X389991Y244956D01*
X389883Y244906D01*
X389773Y244860D01*
X389661Y244818D01*
X389548Y244779D01*
X389434Y244744D01*
X389319Y244713D01*
X389202Y244685D01*
X389085Y244662D01*
X388968Y244642D01*
X388849Y244626D01*
X388730Y244614D01*
X388611Y244606D01*
X388492Y244602D01*
X388372Y244602D01*
X388253Y244606D01*
X388134Y244614D01*
X388015Y244626D01*
X387896Y244642D01*
X387779Y244662D01*
X387662Y244685D01*
X387545Y244713D01*
X387430Y244744D01*
X387316Y244779D01*
X387203Y244818D01*
X387091Y244860D01*
X386981Y244906D01*
X386873Y244956D01*
X386766Y245009D01*
X386661Y245066D01*
X386557Y245126D01*
X386456Y245190D01*
X386358Y245257D01*
X386261Y245327D01*
X386167Y245401D01*
X386075Y245477D01*
X385986Y245557D01*
X385899Y245639D01*
X385815Y245724D01*
X385734Y245812D01*
X385657Y245902D01*
X385582Y245995D01*
X385510Y246091D01*
X385441Y246189D01*
X385376Y246289D01*
X385314Y246391D01*
X385255Y246495D01*
X385200Y246601D01*
X385149Y246709D01*
X385101Y246818D01*
X385056Y246929D01*
X385016Y247041D01*
X384979Y247155D01*
X384946Y247270D01*
X384916Y247385D01*
X384891Y247502D01*
X384869Y247619D01*
X384852Y247738D01*
X384838Y247856D01*
X384828Y247975D01*
X384822Y248095D01*
X384820Y248214D01*
X406842Y257246D02*
X411357Y260858D01*
X411357Y244602D01*
X406842Y244602D02*
X415873Y244602D01*
D11*
X255863Y226568D02*
X251968Y226568D01*
X255863Y226568D02*
X255962Y226570D01*
X256062Y226576D01*
X256161Y226585D01*
X256259Y226598D01*
X256357Y226615D01*
X256455Y226636D01*
X256551Y226661D01*
X256646Y226689D01*
X256740Y226721D01*
X256833Y226756D01*
X256925Y226795D01*
X257015Y226838D01*
X257103Y226883D01*
X257190Y226933D01*
X257274Y226985D01*
X257357Y227041D01*
X257437Y227099D01*
X257515Y227161D01*
X257590Y227226D01*
X257663Y227294D01*
X257733Y227364D01*
X257801Y227437D01*
X257866Y227512D01*
X257928Y227590D01*
X257986Y227670D01*
X258042Y227753D01*
X258094Y227837D01*
X258144Y227924D01*
X258189Y228012D01*
X258232Y228102D01*
X258271Y228194D01*
X258306Y228287D01*
X258338Y228381D01*
X258366Y228476D01*
X258391Y228572D01*
X258412Y228670D01*
X258429Y228768D01*
X258442Y228866D01*
X258451Y228965D01*
X258457Y229065D01*
X258459Y229164D01*
X258459Y230463D01*
X258457Y230562D01*
X258451Y230662D01*
X258442Y230761D01*
X258429Y230859D01*
X258412Y230957D01*
X258391Y231055D01*
X258366Y231151D01*
X258338Y231246D01*
X258306Y231340D01*
X258271Y231433D01*
X258232Y231525D01*
X258189Y231615D01*
X258144Y231703D01*
X258094Y231790D01*
X258042Y231874D01*
X257986Y231957D01*
X257928Y232037D01*
X257866Y232115D01*
X257801Y232190D01*
X257733Y232263D01*
X257663Y232333D01*
X257590Y232401D01*
X257515Y232466D01*
X257437Y232528D01*
X257357Y232586D01*
X257274Y232642D01*
X257190Y232694D01*
X257103Y232744D01*
X257015Y232789D01*
X256925Y232832D01*
X256833Y232871D01*
X256740Y232906D01*
X256646Y232938D01*
X256551Y232966D01*
X256455Y232991D01*
X256357Y233012D01*
X256259Y233029D01*
X256161Y233042D01*
X256062Y233051D01*
X255962Y233057D01*
X255863Y233059D01*
X251968Y233059D01*
X251968Y238252D01*
X258459Y238252D01*
X262749Y238252D02*
X266644Y226568D01*
X270538Y238252D01*
X284170Y238252D02*
X280275Y226568D01*
X288064Y226568D02*
X284170Y238252D01*
X287091Y229489D02*
X281249Y229489D01*
X294917Y226568D02*
X297514Y226568D01*
X294917Y226568D02*
X294818Y226570D01*
X294718Y226576D01*
X294619Y226585D01*
X294521Y226598D01*
X294423Y226615D01*
X294325Y226636D01*
X294229Y226661D01*
X294134Y226689D01*
X294040Y226721D01*
X293947Y226756D01*
X293855Y226795D01*
X293765Y226838D01*
X293677Y226883D01*
X293590Y226933D01*
X293506Y226985D01*
X293423Y227041D01*
X293343Y227099D01*
X293265Y227161D01*
X293190Y227226D01*
X293117Y227294D01*
X293047Y227364D01*
X292979Y227437D01*
X292914Y227512D01*
X292852Y227590D01*
X292794Y227670D01*
X292738Y227753D01*
X292686Y227837D01*
X292636Y227924D01*
X292591Y228012D01*
X292548Y228102D01*
X292509Y228194D01*
X292474Y228287D01*
X292442Y228381D01*
X292414Y228476D01*
X292389Y228572D01*
X292368Y228670D01*
X292351Y228768D01*
X292338Y228866D01*
X292329Y228965D01*
X292323Y229065D01*
X292321Y229164D01*
X292321Y235656D01*
X292323Y235755D01*
X292329Y235855D01*
X292338Y235954D01*
X292351Y236052D01*
X292368Y236150D01*
X292389Y236248D01*
X292414Y236344D01*
X292442Y236439D01*
X292474Y236533D01*
X292509Y236626D01*
X292548Y236718D01*
X292591Y236808D01*
X292636Y236896D01*
X292686Y236983D01*
X292738Y237067D01*
X292794Y237150D01*
X292852Y237230D01*
X292914Y237308D01*
X292979Y237383D01*
X293047Y237456D01*
X293117Y237526D01*
X293190Y237594D01*
X293265Y237659D01*
X293343Y237721D01*
X293423Y237779D01*
X293506Y237835D01*
X293590Y237887D01*
X293677Y237937D01*
X293765Y237982D01*
X293855Y238025D01*
X293947Y238064D01*
X294039Y238099D01*
X294134Y238131D01*
X294229Y238159D01*
X294325Y238184D01*
X294423Y238205D01*
X294521Y238222D01*
X294619Y238235D01*
X294718Y238244D01*
X294818Y238250D01*
X294917Y238252D01*
X297514Y238252D01*
X301992Y231112D02*
X309781Y231112D01*
X315214Y226568D02*
X315214Y238252D01*
X318460Y238252D01*
X318573Y238250D01*
X318686Y238244D01*
X318799Y238234D01*
X318912Y238220D01*
X319024Y238203D01*
X319135Y238181D01*
X319245Y238156D01*
X319355Y238126D01*
X319463Y238093D01*
X319570Y238056D01*
X319676Y238016D01*
X319780Y237971D01*
X319883Y237923D01*
X319984Y237872D01*
X320083Y237817D01*
X320180Y237759D01*
X320275Y237697D01*
X320368Y237632D01*
X320458Y237564D01*
X320546Y237493D01*
X320632Y237418D01*
X320715Y237341D01*
X320795Y237261D01*
X320872Y237178D01*
X320947Y237092D01*
X321018Y237004D01*
X321086Y236914D01*
X321151Y236821D01*
X321213Y236726D01*
X321271Y236629D01*
X321326Y236530D01*
X321377Y236429D01*
X321425Y236326D01*
X321470Y236222D01*
X321510Y236116D01*
X321547Y236009D01*
X321580Y235901D01*
X321610Y235791D01*
X321635Y235681D01*
X321657Y235570D01*
X321674Y235458D01*
X321688Y235345D01*
X321698Y235232D01*
X321704Y235119D01*
X321706Y235006D01*
X321705Y235006D02*
X321705Y229814D01*
X321706Y229814D02*
X321704Y229701D01*
X321698Y229588D01*
X321688Y229475D01*
X321674Y229362D01*
X321657Y229250D01*
X321635Y229139D01*
X321610Y229029D01*
X321580Y228919D01*
X321547Y228811D01*
X321510Y228704D01*
X321470Y228598D01*
X321425Y228494D01*
X321377Y228391D01*
X321326Y228290D01*
X321271Y228191D01*
X321213Y228094D01*
X321151Y227999D01*
X321086Y227906D01*
X321018Y227816D01*
X320947Y227728D01*
X320872Y227642D01*
X320795Y227559D01*
X320715Y227479D01*
X320632Y227402D01*
X320546Y227327D01*
X320458Y227256D01*
X320368Y227188D01*
X320275Y227123D01*
X320180Y227061D01*
X320083Y227003D01*
X319984Y226948D01*
X319883Y226897D01*
X319780Y226849D01*
X319676Y226804D01*
X319570Y226764D01*
X319463Y226727D01*
X319355Y226694D01*
X319245Y226664D01*
X319135Y226639D01*
X319024Y226617D01*
X318912Y226600D01*
X318799Y226586D01*
X318686Y226576D01*
X318573Y226570D01*
X318460Y226568D01*
X315214Y226568D01*
X329588Y226568D02*
X332185Y226568D01*
X329588Y226568D02*
X329489Y226570D01*
X329389Y226576D01*
X329290Y226585D01*
X329192Y226598D01*
X329094Y226615D01*
X328996Y226636D01*
X328900Y226661D01*
X328805Y226689D01*
X328711Y226721D01*
X328618Y226756D01*
X328526Y226795D01*
X328436Y226838D01*
X328348Y226883D01*
X328261Y226933D01*
X328177Y226985D01*
X328094Y227041D01*
X328014Y227099D01*
X327936Y227161D01*
X327861Y227226D01*
X327788Y227294D01*
X327718Y227364D01*
X327650Y227437D01*
X327585Y227512D01*
X327523Y227590D01*
X327465Y227670D01*
X327409Y227753D01*
X327357Y227837D01*
X327307Y227924D01*
X327262Y228012D01*
X327219Y228102D01*
X327180Y228194D01*
X327145Y228287D01*
X327113Y228381D01*
X327085Y228476D01*
X327060Y228572D01*
X327039Y228670D01*
X327022Y228768D01*
X327009Y228866D01*
X327000Y228965D01*
X326994Y229065D01*
X326992Y229164D01*
X326992Y235656D01*
X326994Y235755D01*
X327000Y235855D01*
X327009Y235954D01*
X327022Y236052D01*
X327039Y236150D01*
X327060Y236248D01*
X327085Y236344D01*
X327113Y236439D01*
X327145Y236533D01*
X327180Y236626D01*
X327219Y236718D01*
X327262Y236808D01*
X327307Y236896D01*
X327357Y236983D01*
X327409Y237067D01*
X327465Y237150D01*
X327523Y237230D01*
X327585Y237308D01*
X327650Y237383D01*
X327718Y237456D01*
X327788Y237526D01*
X327861Y237594D01*
X327936Y237659D01*
X328014Y237721D01*
X328094Y237779D01*
X328177Y237835D01*
X328261Y237887D01*
X328348Y237937D01*
X328436Y237982D01*
X328526Y238025D01*
X328618Y238064D01*
X328710Y238099D01*
X328805Y238131D01*
X328900Y238159D01*
X328996Y238184D01*
X329094Y238205D01*
X329192Y238222D01*
X329290Y238235D01*
X329389Y238244D01*
X329489Y238250D01*
X329588Y238252D01*
X332185Y238252D01*
X345209Y226568D02*
X347806Y226568D01*
X345209Y226568D02*
X345110Y226570D01*
X345010Y226576D01*
X344911Y226585D01*
X344813Y226598D01*
X344715Y226615D01*
X344617Y226636D01*
X344521Y226661D01*
X344426Y226689D01*
X344332Y226721D01*
X344239Y226756D01*
X344147Y226795D01*
X344057Y226838D01*
X343969Y226883D01*
X343882Y226933D01*
X343798Y226985D01*
X343715Y227041D01*
X343635Y227099D01*
X343557Y227161D01*
X343482Y227226D01*
X343409Y227294D01*
X343339Y227364D01*
X343271Y227437D01*
X343206Y227512D01*
X343144Y227590D01*
X343086Y227670D01*
X343030Y227753D01*
X342978Y227837D01*
X342928Y227924D01*
X342883Y228012D01*
X342840Y228102D01*
X342801Y228194D01*
X342766Y228287D01*
X342734Y228381D01*
X342706Y228476D01*
X342681Y228572D01*
X342660Y228670D01*
X342643Y228768D01*
X342630Y228866D01*
X342621Y228965D01*
X342615Y229065D01*
X342613Y229164D01*
X342613Y235656D01*
X342615Y235755D01*
X342621Y235855D01*
X342630Y235954D01*
X342643Y236052D01*
X342660Y236150D01*
X342681Y236248D01*
X342706Y236344D01*
X342734Y236439D01*
X342766Y236533D01*
X342801Y236626D01*
X342840Y236718D01*
X342883Y236808D01*
X342928Y236896D01*
X342978Y236983D01*
X343030Y237067D01*
X343086Y237150D01*
X343144Y237230D01*
X343206Y237308D01*
X343271Y237383D01*
X343339Y237456D01*
X343409Y237526D01*
X343482Y237594D01*
X343557Y237659D01*
X343635Y237721D01*
X343715Y237779D01*
X343798Y237835D01*
X343882Y237887D01*
X343969Y237937D01*
X344057Y237982D01*
X344147Y238025D01*
X344239Y238064D01*
X344331Y238099D01*
X344426Y238131D01*
X344521Y238159D01*
X344617Y238184D01*
X344715Y238205D01*
X344813Y238222D01*
X344911Y238235D01*
X345010Y238244D01*
X345110Y238250D01*
X345209Y238252D01*
X347806Y238252D01*
X352575Y238252D02*
X352575Y226568D01*
X352575Y230463D02*
X357767Y234357D01*
X354846Y232085D02*
X357767Y226568D01*
X360997Y234357D02*
X364891Y234357D01*
X362295Y238252D02*
X362295Y228515D01*
X362297Y228428D01*
X362303Y228340D01*
X362313Y228254D01*
X362326Y228167D01*
X362344Y228082D01*
X362365Y227997D01*
X362390Y227913D01*
X362419Y227831D01*
X362452Y227750D01*
X362488Y227670D01*
X362527Y227592D01*
X362571Y227516D01*
X362617Y227442D01*
X362667Y227371D01*
X362720Y227301D01*
X362776Y227234D01*
X362835Y227170D01*
X362897Y227108D01*
X362961Y227049D01*
X363028Y226993D01*
X363098Y226940D01*
X363169Y226890D01*
X363243Y226844D01*
X363319Y226800D01*
X363397Y226761D01*
X363477Y226725D01*
X363558Y226692D01*
X363640Y226663D01*
X363724Y226638D01*
X363809Y226617D01*
X363894Y226599D01*
X363981Y226586D01*
X364067Y226576D01*
X364155Y226570D01*
X364242Y226568D01*
X364891Y226568D01*
D10*
X444500Y96520D02*
X444500Y88900D01*
X444500Y96520D02*
X425450Y96520D01*
X424180Y97790D01*
X421640Y100330D01*
X419100Y97790D01*
X417830Y96520D01*
X424180Y135890D02*
X424180Y137160D01*
X444500Y137160D01*
X424180Y135890D02*
X419100Y135890D01*
X419100Y137160D01*
X398780Y137160D01*
X398780Y96520D02*
X417830Y96520D01*
X398780Y96520D02*
X398780Y88900D01*
X444500Y96520D02*
X444500Y129540D01*
X444500Y132080D02*
X444500Y137160D01*
X444500Y132080D02*
X440690Y132080D01*
X398780Y132080D02*
X398780Y137160D01*
X398780Y132080D02*
X402590Y132080D01*
X398780Y129540D02*
X398780Y96520D01*
X402590Y129540D02*
X402590Y132080D01*
X402590Y127000D02*
X415290Y127000D01*
X427990Y129540D02*
X427990Y132080D01*
X440690Y132080D02*
X440690Y129540D01*
X440690Y127000D02*
X427990Y127000D01*
X427990Y132080D02*
X415290Y132080D01*
X427990Y129540D02*
X427990Y127000D01*
X415290Y129540D02*
X415290Y132080D01*
X415290Y129540D02*
X415290Y127000D01*
X415290Y129540D02*
X419100Y129540D01*
X419100Y97790D01*
X424180Y129540D02*
X427990Y129540D01*
X424180Y129540D02*
X419100Y129540D01*
X424180Y129540D02*
X424180Y97790D01*
X402590Y129540D02*
X398780Y129540D01*
X402590Y129540D02*
X402590Y127000D01*
X398780Y129540D02*
X398780Y132080D01*
X440690Y129540D02*
X444500Y129540D01*
X440690Y129540D02*
X440690Y127000D01*
X444500Y129540D02*
X444500Y132080D01*
X444500Y88900D02*
X436880Y88900D01*
X436880Y87630D01*
X431800Y87630D02*
X431800Y88900D01*
X431800Y87630D02*
X436880Y87630D01*
X411480Y87630D02*
X411480Y88900D01*
X406400Y88900D02*
X398780Y88900D01*
X406400Y88900D02*
X406400Y87630D01*
X411480Y87630D01*
X419100Y88900D02*
X419100Y90170D01*
X419100Y88900D02*
X411480Y88900D01*
X419100Y90170D02*
X424180Y90170D01*
X424180Y88900D01*
X431800Y88900D01*
D12*
X431814Y99469D02*
X429895Y101868D01*
X438531Y101868D01*
X438531Y99469D02*
X438531Y104267D01*
X324612Y67691D02*
X320802Y67691D01*
X324612Y67691D02*
X324712Y67693D01*
X324811Y67699D01*
X324911Y67709D01*
X325009Y67722D01*
X325108Y67740D01*
X325205Y67761D01*
X325301Y67786D01*
X325397Y67815D01*
X325491Y67848D01*
X325584Y67884D01*
X325675Y67924D01*
X325765Y67968D01*
X325853Y68015D01*
X325939Y68065D01*
X326023Y68119D01*
X326105Y68176D01*
X326184Y68236D01*
X326262Y68300D01*
X326336Y68366D01*
X326408Y68435D01*
X326477Y68507D01*
X326543Y68581D01*
X326607Y68659D01*
X326667Y68738D01*
X326724Y68820D01*
X326778Y68904D01*
X326828Y68990D01*
X326875Y69078D01*
X326919Y69168D01*
X326959Y69259D01*
X326995Y69352D01*
X327028Y69446D01*
X327057Y69542D01*
X327082Y69638D01*
X327103Y69735D01*
X327121Y69834D01*
X327134Y69932D01*
X327144Y70032D01*
X327150Y70131D01*
X327152Y70231D01*
X327152Y71501D01*
X327150Y71601D01*
X327144Y71700D01*
X327134Y71800D01*
X327121Y71898D01*
X327103Y71997D01*
X327082Y72094D01*
X327057Y72190D01*
X327028Y72286D01*
X326995Y72380D01*
X326959Y72473D01*
X326919Y72564D01*
X326875Y72654D01*
X326828Y72742D01*
X326778Y72828D01*
X326724Y72912D01*
X326667Y72994D01*
X326607Y73073D01*
X326543Y73151D01*
X326477Y73225D01*
X326408Y73297D01*
X326336Y73366D01*
X326262Y73432D01*
X326184Y73496D01*
X326105Y73556D01*
X326023Y73613D01*
X325939Y73667D01*
X325853Y73717D01*
X325765Y73764D01*
X325675Y73808D01*
X325584Y73848D01*
X325491Y73884D01*
X325397Y73917D01*
X325301Y73946D01*
X325205Y73971D01*
X325108Y73992D01*
X325009Y74010D01*
X324911Y74023D01*
X324811Y74033D01*
X324712Y74039D01*
X324612Y74041D01*
X320802Y74041D01*
X320802Y79121D01*
X327152Y79121D01*
X331597Y79121D02*
X335407Y67691D01*
X339217Y79121D01*
X343789Y72136D02*
X351409Y72136D01*
X356997Y67691D02*
X356997Y79121D01*
X360172Y79121D01*
X360283Y79119D01*
X360393Y79113D01*
X360504Y79104D01*
X360614Y79090D01*
X360723Y79073D01*
X360832Y79052D01*
X360940Y79027D01*
X361047Y78998D01*
X361153Y78966D01*
X361258Y78930D01*
X361361Y78890D01*
X361463Y78847D01*
X361564Y78800D01*
X361663Y78749D01*
X361760Y78696D01*
X361854Y78639D01*
X361947Y78578D01*
X362038Y78515D01*
X362127Y78448D01*
X362213Y78378D01*
X362296Y78305D01*
X362378Y78230D01*
X362456Y78152D01*
X362531Y78070D01*
X362604Y77987D01*
X362674Y77901D01*
X362741Y77812D01*
X362804Y77721D01*
X362865Y77628D01*
X362922Y77534D01*
X362975Y77437D01*
X363026Y77338D01*
X363073Y77237D01*
X363116Y77135D01*
X363156Y77032D01*
X363192Y76927D01*
X363224Y76821D01*
X363253Y76714D01*
X363278Y76606D01*
X363299Y76497D01*
X363316Y76388D01*
X363330Y76278D01*
X363339Y76167D01*
X363345Y76057D01*
X363347Y75946D01*
X363347Y70866D01*
X363345Y70755D01*
X363339Y70645D01*
X363330Y70534D01*
X363316Y70424D01*
X363299Y70315D01*
X363278Y70206D01*
X363253Y70098D01*
X363224Y69991D01*
X363192Y69885D01*
X363156Y69780D01*
X363116Y69677D01*
X363073Y69575D01*
X363026Y69474D01*
X362975Y69375D01*
X362922Y69278D01*
X362865Y69184D01*
X362804Y69091D01*
X362741Y69000D01*
X362674Y68911D01*
X362604Y68825D01*
X362531Y68742D01*
X362456Y68660D01*
X362378Y68582D01*
X362296Y68507D01*
X362213Y68434D01*
X362127Y68364D01*
X362038Y68297D01*
X361947Y68234D01*
X361854Y68173D01*
X361760Y68116D01*
X361663Y68063D01*
X361564Y68012D01*
X361463Y67965D01*
X361361Y67922D01*
X361258Y67882D01*
X361153Y67846D01*
X361047Y67814D01*
X360940Y67785D01*
X360832Y67760D01*
X360723Y67739D01*
X360614Y67722D01*
X360504Y67708D01*
X360393Y67699D01*
X360283Y67693D01*
X360172Y67691D01*
X356997Y67691D01*
X371311Y67691D02*
X373851Y67691D01*
X371311Y67691D02*
X371211Y67693D01*
X371112Y67699D01*
X371012Y67709D01*
X370914Y67722D01*
X370815Y67740D01*
X370718Y67761D01*
X370622Y67786D01*
X370526Y67815D01*
X370432Y67848D01*
X370339Y67884D01*
X370248Y67924D01*
X370158Y67968D01*
X370070Y68015D01*
X369984Y68065D01*
X369900Y68119D01*
X369818Y68176D01*
X369739Y68236D01*
X369661Y68300D01*
X369587Y68366D01*
X369515Y68435D01*
X369446Y68507D01*
X369380Y68581D01*
X369316Y68659D01*
X369256Y68738D01*
X369199Y68820D01*
X369145Y68904D01*
X369095Y68990D01*
X369048Y69078D01*
X369004Y69168D01*
X368964Y69259D01*
X368928Y69352D01*
X368895Y69446D01*
X368866Y69542D01*
X368841Y69638D01*
X368820Y69735D01*
X368802Y69834D01*
X368789Y69932D01*
X368779Y70032D01*
X368773Y70131D01*
X368771Y70231D01*
X368771Y76581D01*
X368773Y76681D01*
X368779Y76780D01*
X368789Y76880D01*
X368802Y76978D01*
X368820Y77077D01*
X368841Y77174D01*
X368866Y77270D01*
X368895Y77366D01*
X368928Y77460D01*
X368964Y77553D01*
X369004Y77644D01*
X369048Y77734D01*
X369095Y77822D01*
X369145Y77908D01*
X369199Y77992D01*
X369256Y78074D01*
X369316Y78153D01*
X369380Y78231D01*
X369446Y78305D01*
X369515Y78377D01*
X369587Y78446D01*
X369661Y78512D01*
X369739Y78576D01*
X369818Y78636D01*
X369900Y78693D01*
X369984Y78747D01*
X370070Y78797D01*
X370158Y78844D01*
X370248Y78888D01*
X370339Y78928D01*
X370432Y78964D01*
X370526Y78997D01*
X370622Y79026D01*
X370718Y79051D01*
X370815Y79072D01*
X370914Y79090D01*
X371012Y79103D01*
X371112Y79113D01*
X371211Y79119D01*
X371311Y79121D01*
X373851Y79121D01*
X378460Y72136D02*
X386080Y72136D01*
X391287Y70866D02*
X391287Y75946D01*
X391289Y76057D01*
X391295Y76167D01*
X391304Y76278D01*
X391318Y76388D01*
X391335Y76497D01*
X391356Y76606D01*
X391381Y76714D01*
X391410Y76821D01*
X391442Y76927D01*
X391478Y77032D01*
X391518Y77135D01*
X391561Y77237D01*
X391608Y77338D01*
X391659Y77437D01*
X391712Y77533D01*
X391769Y77628D01*
X391830Y77721D01*
X391893Y77812D01*
X391960Y77901D01*
X392030Y77987D01*
X392103Y78070D01*
X392178Y78152D01*
X392256Y78230D01*
X392338Y78305D01*
X392421Y78378D01*
X392507Y78448D01*
X392596Y78515D01*
X392687Y78578D01*
X392780Y78639D01*
X392875Y78696D01*
X392971Y78749D01*
X393070Y78800D01*
X393171Y78847D01*
X393273Y78890D01*
X393376Y78930D01*
X393481Y78966D01*
X393587Y78998D01*
X393694Y79027D01*
X393802Y79052D01*
X393911Y79073D01*
X394020Y79090D01*
X394130Y79104D01*
X394241Y79113D01*
X394351Y79119D01*
X394462Y79121D01*
X394573Y79119D01*
X394683Y79113D01*
X394794Y79104D01*
X394904Y79090D01*
X395013Y79073D01*
X395122Y79052D01*
X395230Y79027D01*
X395337Y78998D01*
X395443Y78966D01*
X395548Y78930D01*
X395651Y78890D01*
X395753Y78847D01*
X395854Y78800D01*
X395953Y78749D01*
X396050Y78696D01*
X396144Y78639D01*
X396237Y78578D01*
X396328Y78515D01*
X396417Y78448D01*
X396503Y78378D01*
X396586Y78305D01*
X396668Y78230D01*
X396746Y78152D01*
X396821Y78070D01*
X396894Y77987D01*
X396964Y77901D01*
X397031Y77812D01*
X397094Y77721D01*
X397155Y77628D01*
X397212Y77534D01*
X397265Y77437D01*
X397316Y77338D01*
X397363Y77237D01*
X397406Y77135D01*
X397446Y77032D01*
X397482Y76927D01*
X397514Y76821D01*
X397543Y76714D01*
X397568Y76606D01*
X397589Y76497D01*
X397606Y76388D01*
X397620Y76278D01*
X397629Y76167D01*
X397635Y76057D01*
X397637Y75946D01*
X397637Y70866D01*
X397635Y70755D01*
X397629Y70645D01*
X397620Y70534D01*
X397606Y70424D01*
X397589Y70315D01*
X397568Y70206D01*
X397543Y70098D01*
X397514Y69991D01*
X397482Y69885D01*
X397446Y69780D01*
X397406Y69677D01*
X397363Y69575D01*
X397316Y69474D01*
X397265Y69375D01*
X397212Y69278D01*
X397155Y69184D01*
X397094Y69091D01*
X397031Y69000D01*
X396964Y68911D01*
X396894Y68825D01*
X396821Y68742D01*
X396746Y68660D01*
X396668Y68582D01*
X396586Y68507D01*
X396503Y68434D01*
X396417Y68364D01*
X396328Y68297D01*
X396237Y68234D01*
X396144Y68173D01*
X396049Y68116D01*
X395953Y68063D01*
X395854Y68012D01*
X395753Y67965D01*
X395651Y67922D01*
X395548Y67882D01*
X395443Y67846D01*
X395337Y67814D01*
X395230Y67785D01*
X395122Y67760D01*
X395013Y67739D01*
X394904Y67722D01*
X394794Y67708D01*
X394683Y67699D01*
X394573Y67693D01*
X394462Y67691D01*
X394351Y67693D01*
X394241Y67699D01*
X394130Y67708D01*
X394020Y67722D01*
X393911Y67739D01*
X393802Y67760D01*
X393694Y67785D01*
X393587Y67814D01*
X393481Y67846D01*
X393376Y67882D01*
X393273Y67922D01*
X393171Y67965D01*
X393070Y68012D01*
X392971Y68063D01*
X392875Y68116D01*
X392780Y68173D01*
X392687Y68234D01*
X392596Y68297D01*
X392507Y68364D01*
X392421Y68434D01*
X392338Y68507D01*
X392256Y68582D01*
X392178Y68660D01*
X392103Y68742D01*
X392030Y68825D01*
X391960Y68911D01*
X391893Y69000D01*
X391830Y69091D01*
X391769Y69184D01*
X391712Y69279D01*
X391659Y69375D01*
X391608Y69474D01*
X391561Y69575D01*
X391518Y69677D01*
X391478Y69780D01*
X391442Y69885D01*
X391410Y69991D01*
X391381Y70098D01*
X391356Y70206D01*
X391335Y70315D01*
X391318Y70424D01*
X391304Y70534D01*
X391295Y70645D01*
X391289Y70755D01*
X391287Y70866D01*
X403098Y70866D02*
X403098Y79121D01*
X403098Y70866D02*
X403100Y70755D01*
X403106Y70645D01*
X403115Y70534D01*
X403129Y70424D01*
X403146Y70315D01*
X403167Y70206D01*
X403192Y70098D01*
X403221Y69991D01*
X403253Y69885D01*
X403289Y69780D01*
X403329Y69677D01*
X403372Y69575D01*
X403419Y69474D01*
X403470Y69375D01*
X403523Y69279D01*
X403580Y69184D01*
X403641Y69091D01*
X403704Y69000D01*
X403771Y68911D01*
X403841Y68825D01*
X403914Y68742D01*
X403989Y68660D01*
X404067Y68582D01*
X404149Y68507D01*
X404232Y68434D01*
X404318Y68364D01*
X404407Y68297D01*
X404498Y68234D01*
X404591Y68173D01*
X404686Y68116D01*
X404782Y68063D01*
X404881Y68012D01*
X404982Y67965D01*
X405084Y67922D01*
X405187Y67882D01*
X405292Y67846D01*
X405398Y67814D01*
X405505Y67785D01*
X405613Y67760D01*
X405722Y67739D01*
X405831Y67722D01*
X405941Y67708D01*
X406052Y67699D01*
X406162Y67693D01*
X406273Y67691D01*
X406384Y67693D01*
X406494Y67699D01*
X406605Y67708D01*
X406715Y67722D01*
X406824Y67739D01*
X406933Y67760D01*
X407041Y67785D01*
X407148Y67814D01*
X407254Y67846D01*
X407359Y67882D01*
X407462Y67922D01*
X407564Y67965D01*
X407665Y68012D01*
X407764Y68063D01*
X407860Y68116D01*
X407955Y68173D01*
X408048Y68234D01*
X408139Y68297D01*
X408228Y68364D01*
X408314Y68434D01*
X408397Y68507D01*
X408479Y68582D01*
X408557Y68660D01*
X408632Y68742D01*
X408705Y68825D01*
X408775Y68911D01*
X408842Y69000D01*
X408905Y69091D01*
X408966Y69184D01*
X409023Y69278D01*
X409076Y69375D01*
X409127Y69474D01*
X409174Y69575D01*
X409217Y69677D01*
X409257Y69780D01*
X409293Y69885D01*
X409325Y69991D01*
X409354Y70098D01*
X409379Y70206D01*
X409400Y70315D01*
X409417Y70424D01*
X409431Y70534D01*
X409440Y70645D01*
X409446Y70755D01*
X409448Y70866D01*
X409448Y79121D01*
X417322Y79121D02*
X417322Y67691D01*
X414147Y79121D02*
X420497Y79121D01*
X425387Y79121D02*
X425387Y67691D01*
X425387Y79121D02*
X428562Y79121D01*
X428673Y79119D01*
X428783Y79113D01*
X428894Y79104D01*
X429004Y79090D01*
X429113Y79073D01*
X429222Y79052D01*
X429330Y79027D01*
X429437Y78998D01*
X429543Y78966D01*
X429648Y78930D01*
X429751Y78890D01*
X429853Y78847D01*
X429954Y78800D01*
X430053Y78749D01*
X430150Y78696D01*
X430244Y78639D01*
X430337Y78578D01*
X430428Y78515D01*
X430517Y78448D01*
X430603Y78378D01*
X430686Y78305D01*
X430768Y78230D01*
X430846Y78152D01*
X430921Y78070D01*
X430994Y77987D01*
X431064Y77901D01*
X431131Y77812D01*
X431194Y77721D01*
X431255Y77628D01*
X431312Y77533D01*
X431365Y77437D01*
X431416Y77338D01*
X431463Y77237D01*
X431506Y77135D01*
X431546Y77032D01*
X431582Y76927D01*
X431614Y76821D01*
X431643Y76714D01*
X431668Y76606D01*
X431689Y76497D01*
X431706Y76388D01*
X431720Y76278D01*
X431729Y76167D01*
X431735Y76057D01*
X431737Y75946D01*
X431735Y75835D01*
X431729Y75725D01*
X431720Y75614D01*
X431706Y75504D01*
X431689Y75395D01*
X431668Y75286D01*
X431643Y75178D01*
X431614Y75071D01*
X431582Y74965D01*
X431546Y74860D01*
X431506Y74757D01*
X431463Y74655D01*
X431416Y74554D01*
X431365Y74455D01*
X431312Y74358D01*
X431255Y74264D01*
X431194Y74171D01*
X431131Y74080D01*
X431064Y73991D01*
X430994Y73905D01*
X430921Y73822D01*
X430846Y73740D01*
X430768Y73662D01*
X430686Y73587D01*
X430603Y73514D01*
X430517Y73444D01*
X430428Y73377D01*
X430337Y73314D01*
X430244Y73253D01*
X430150Y73196D01*
X430053Y73143D01*
X429954Y73092D01*
X429853Y73045D01*
X429751Y73002D01*
X429648Y72962D01*
X429543Y72926D01*
X429437Y72894D01*
X429330Y72865D01*
X429222Y72840D01*
X429113Y72819D01*
X429004Y72802D01*
X428894Y72788D01*
X428783Y72779D01*
X428673Y72773D01*
X428562Y72771D01*
X425387Y72771D01*
X436626Y70866D02*
X436626Y79121D01*
X436626Y70866D02*
X436628Y70755D01*
X436634Y70645D01*
X436643Y70534D01*
X436657Y70424D01*
X436674Y70315D01*
X436695Y70206D01*
X436720Y70098D01*
X436749Y69991D01*
X436781Y69885D01*
X436817Y69780D01*
X436857Y69677D01*
X436900Y69575D01*
X436947Y69474D01*
X436998Y69375D01*
X437051Y69279D01*
X437108Y69184D01*
X437169Y69091D01*
X437232Y69000D01*
X437299Y68911D01*
X437369Y68825D01*
X437442Y68742D01*
X437517Y68660D01*
X437595Y68582D01*
X437677Y68507D01*
X437760Y68434D01*
X437846Y68364D01*
X437935Y68297D01*
X438026Y68234D01*
X438119Y68173D01*
X438214Y68116D01*
X438310Y68063D01*
X438409Y68012D01*
X438510Y67965D01*
X438612Y67922D01*
X438715Y67882D01*
X438820Y67846D01*
X438926Y67814D01*
X439033Y67785D01*
X439141Y67760D01*
X439250Y67739D01*
X439359Y67722D01*
X439469Y67708D01*
X439580Y67699D01*
X439690Y67693D01*
X439801Y67691D01*
X439912Y67693D01*
X440022Y67699D01*
X440133Y67708D01*
X440243Y67722D01*
X440352Y67739D01*
X440461Y67760D01*
X440569Y67785D01*
X440676Y67814D01*
X440782Y67846D01*
X440887Y67882D01*
X440990Y67922D01*
X441092Y67965D01*
X441193Y68012D01*
X441292Y68063D01*
X441388Y68116D01*
X441483Y68173D01*
X441576Y68234D01*
X441667Y68297D01*
X441756Y68364D01*
X441842Y68434D01*
X441925Y68507D01*
X442007Y68582D01*
X442085Y68660D01*
X442160Y68742D01*
X442233Y68825D01*
X442303Y68911D01*
X442370Y69000D01*
X442433Y69091D01*
X442494Y69184D01*
X442551Y69278D01*
X442604Y69375D01*
X442655Y69474D01*
X442702Y69575D01*
X442745Y69677D01*
X442785Y69780D01*
X442821Y69885D01*
X442853Y69991D01*
X442882Y70098D01*
X442907Y70206D01*
X442928Y70315D01*
X442945Y70424D01*
X442959Y70534D01*
X442968Y70645D01*
X442974Y70755D01*
X442976Y70866D01*
X442976Y79121D01*
X450850Y79121D02*
X450850Y67691D01*
X447675Y79121D02*
X454025Y79121D01*
D10*
X128270Y148590D02*
X115570Y148590D01*
X128270Y148590D02*
X128410Y148588D01*
X128550Y148582D01*
X128690Y148573D01*
X128829Y148559D01*
X128968Y148542D01*
X129106Y148521D01*
X129244Y148496D01*
X129381Y148467D01*
X129517Y148435D01*
X129652Y148398D01*
X129786Y148358D01*
X129919Y148315D01*
X130051Y148267D01*
X130182Y148217D01*
X130311Y148162D01*
X130438Y148104D01*
X130564Y148043D01*
X130688Y147978D01*
X130810Y147909D01*
X130930Y147838D01*
X131048Y147763D01*
X131165Y147685D01*
X131279Y147603D01*
X131390Y147519D01*
X131499Y147431D01*
X131606Y147341D01*
X131711Y147247D01*
X131812Y147151D01*
X131911Y147052D01*
X132007Y146951D01*
X132101Y146846D01*
X132191Y146739D01*
X132279Y146630D01*
X132363Y146519D01*
X132445Y146405D01*
X132523Y146288D01*
X132598Y146170D01*
X132669Y146050D01*
X132738Y145928D01*
X132803Y145804D01*
X132864Y145678D01*
X132922Y145551D01*
X132977Y145422D01*
X133027Y145291D01*
X133075Y145159D01*
X133118Y145026D01*
X133158Y144892D01*
X133195Y144757D01*
X133227Y144621D01*
X133256Y144484D01*
X133281Y144346D01*
X133302Y144208D01*
X133319Y144069D01*
X133333Y143930D01*
X133342Y143790D01*
X133348Y143650D01*
X133350Y143510D01*
X115570Y148590D02*
X115430Y148588D01*
X115290Y148582D01*
X115150Y148573D01*
X115011Y148559D01*
X114872Y148542D01*
X114734Y148521D01*
X114596Y148496D01*
X114459Y148467D01*
X114323Y148435D01*
X114188Y148398D01*
X114054Y148358D01*
X113921Y148315D01*
X113789Y148267D01*
X113658Y148217D01*
X113529Y148162D01*
X113402Y148104D01*
X113276Y148043D01*
X113152Y147978D01*
X113030Y147909D01*
X112910Y147838D01*
X112792Y147763D01*
X112675Y147685D01*
X112561Y147603D01*
X112450Y147519D01*
X112341Y147431D01*
X112234Y147341D01*
X112129Y147247D01*
X112028Y147151D01*
X111929Y147052D01*
X111833Y146951D01*
X111739Y146846D01*
X111649Y146739D01*
X111561Y146630D01*
X111477Y146519D01*
X111395Y146405D01*
X111317Y146288D01*
X111242Y146170D01*
X111171Y146050D01*
X111102Y145928D01*
X111037Y145804D01*
X110976Y145678D01*
X110918Y145551D01*
X110863Y145422D01*
X110813Y145291D01*
X110765Y145159D01*
X110722Y145026D01*
X110682Y144892D01*
X110645Y144757D01*
X110613Y144621D01*
X110584Y144484D01*
X110559Y144346D01*
X110538Y144208D01*
X110521Y144069D01*
X110507Y143930D01*
X110498Y143790D01*
X110492Y143650D01*
X110490Y143510D01*
X133350Y143510D02*
X133350Y110490D01*
X128270Y105410D02*
X115570Y105410D01*
X110490Y110490D02*
X110490Y143510D01*
X133350Y110490D02*
X133348Y110350D01*
X133342Y110210D01*
X133333Y110070D01*
X133319Y109931D01*
X133302Y109792D01*
X133281Y109654D01*
X133256Y109516D01*
X133227Y109379D01*
X133195Y109243D01*
X133158Y109108D01*
X133118Y108974D01*
X133075Y108841D01*
X133027Y108709D01*
X132977Y108578D01*
X132922Y108449D01*
X132864Y108322D01*
X132803Y108196D01*
X132738Y108072D01*
X132669Y107950D01*
X132598Y107830D01*
X132523Y107712D01*
X132445Y107595D01*
X132363Y107481D01*
X132279Y107370D01*
X132191Y107261D01*
X132101Y107154D01*
X132007Y107049D01*
X131911Y106948D01*
X131812Y106849D01*
X131711Y106753D01*
X131606Y106659D01*
X131499Y106569D01*
X131390Y106481D01*
X131279Y106397D01*
X131165Y106315D01*
X131048Y106237D01*
X130930Y106162D01*
X130810Y106091D01*
X130688Y106022D01*
X130564Y105957D01*
X130438Y105896D01*
X130311Y105838D01*
X130182Y105783D01*
X130051Y105733D01*
X129919Y105685D01*
X129786Y105642D01*
X129652Y105602D01*
X129517Y105565D01*
X129381Y105533D01*
X129244Y105504D01*
X129106Y105479D01*
X128968Y105458D01*
X128829Y105441D01*
X128690Y105427D01*
X128550Y105418D01*
X128410Y105412D01*
X128270Y105410D01*
X115570Y105410D02*
X115430Y105412D01*
X115290Y105418D01*
X115150Y105427D01*
X115011Y105441D01*
X114872Y105458D01*
X114734Y105479D01*
X114596Y105504D01*
X114459Y105533D01*
X114323Y105565D01*
X114188Y105602D01*
X114054Y105642D01*
X113921Y105685D01*
X113789Y105733D01*
X113658Y105783D01*
X113529Y105838D01*
X113402Y105896D01*
X113276Y105957D01*
X113152Y106022D01*
X113030Y106091D01*
X112910Y106162D01*
X112792Y106237D01*
X112675Y106315D01*
X112561Y106397D01*
X112450Y106481D01*
X112341Y106569D01*
X112234Y106659D01*
X112129Y106753D01*
X112028Y106849D01*
X111929Y106948D01*
X111833Y107049D01*
X111739Y107154D01*
X111649Y107261D01*
X111561Y107370D01*
X111477Y107481D01*
X111395Y107595D01*
X111317Y107712D01*
X111242Y107830D01*
X111171Y107950D01*
X111102Y108072D01*
X111037Y108196D01*
X110976Y108322D01*
X110918Y108449D01*
X110863Y108578D01*
X110813Y108709D01*
X110765Y108841D01*
X110722Y108974D01*
X110682Y109108D01*
X110645Y109243D01*
X110613Y109379D01*
X110584Y109516D01*
X110559Y109654D01*
X110538Y109792D01*
X110521Y109931D01*
X110507Y110070D01*
X110498Y110210D01*
X110492Y110350D01*
X110490Y110490D01*
D13*
X114300Y130048D02*
X129540Y130048D01*
X129540Y123698D02*
X114300Y123698D01*
D12*
X147955Y130773D02*
X147955Y133313D01*
X147955Y130773D02*
X147953Y130673D01*
X147947Y130574D01*
X147937Y130474D01*
X147924Y130376D01*
X147906Y130277D01*
X147885Y130180D01*
X147860Y130084D01*
X147831Y129988D01*
X147798Y129894D01*
X147762Y129801D01*
X147722Y129710D01*
X147678Y129620D01*
X147631Y129532D01*
X147581Y129446D01*
X147527Y129362D01*
X147470Y129280D01*
X147410Y129201D01*
X147346Y129123D01*
X147280Y129049D01*
X147211Y128977D01*
X147139Y128908D01*
X147065Y128842D01*
X146987Y128778D01*
X146908Y128718D01*
X146826Y128661D01*
X146742Y128607D01*
X146656Y128557D01*
X146568Y128510D01*
X146478Y128466D01*
X146387Y128426D01*
X146294Y128390D01*
X146200Y128357D01*
X146104Y128328D01*
X146008Y128303D01*
X145911Y128282D01*
X145812Y128264D01*
X145714Y128251D01*
X145614Y128241D01*
X145515Y128235D01*
X145415Y128233D01*
X139065Y128233D01*
X138965Y128235D01*
X138866Y128241D01*
X138766Y128251D01*
X138668Y128264D01*
X138569Y128282D01*
X138472Y128303D01*
X138376Y128328D01*
X138280Y128357D01*
X138186Y128390D01*
X138093Y128426D01*
X138002Y128466D01*
X137912Y128510D01*
X137824Y128557D01*
X137738Y128607D01*
X137654Y128661D01*
X137572Y128718D01*
X137493Y128778D01*
X137415Y128842D01*
X137341Y128908D01*
X137269Y128977D01*
X137200Y129049D01*
X137134Y129123D01*
X137070Y129201D01*
X137010Y129280D01*
X136953Y129362D01*
X136899Y129446D01*
X136849Y129532D01*
X136802Y129620D01*
X136758Y129710D01*
X136718Y129801D01*
X136682Y129894D01*
X136649Y129988D01*
X136620Y130084D01*
X136595Y130180D01*
X136574Y130277D01*
X136556Y130376D01*
X136543Y130474D01*
X136533Y130574D01*
X136527Y130673D01*
X136525Y130773D01*
X136525Y133313D01*
X139065Y137795D02*
X136525Y140970D01*
X147955Y140970D01*
X147955Y137795D02*
X147955Y144145D01*
D10*
X243840Y148590D02*
X243840Y105410D01*
X218440Y105410D02*
X218440Y148590D01*
X220980Y102870D02*
X241300Y102870D01*
X241300Y151130D02*
X220980Y151130D01*
X243840Y105410D02*
X243838Y105310D01*
X243832Y105211D01*
X243822Y105111D01*
X243809Y105013D01*
X243791Y104914D01*
X243770Y104817D01*
X243745Y104721D01*
X243716Y104625D01*
X243683Y104531D01*
X243647Y104438D01*
X243607Y104347D01*
X243563Y104257D01*
X243516Y104169D01*
X243466Y104083D01*
X243412Y103999D01*
X243355Y103917D01*
X243295Y103838D01*
X243231Y103760D01*
X243165Y103686D01*
X243096Y103614D01*
X243024Y103545D01*
X242950Y103479D01*
X242872Y103415D01*
X242793Y103355D01*
X242711Y103298D01*
X242627Y103244D01*
X242541Y103194D01*
X242453Y103147D01*
X242363Y103103D01*
X242272Y103063D01*
X242179Y103027D01*
X242085Y102994D01*
X241989Y102965D01*
X241893Y102940D01*
X241796Y102919D01*
X241697Y102901D01*
X241599Y102888D01*
X241499Y102878D01*
X241400Y102872D01*
X241300Y102870D01*
X243840Y148590D02*
X243838Y148690D01*
X243832Y148789D01*
X243822Y148889D01*
X243809Y148987D01*
X243791Y149086D01*
X243770Y149183D01*
X243745Y149279D01*
X243716Y149375D01*
X243683Y149469D01*
X243647Y149562D01*
X243607Y149653D01*
X243563Y149743D01*
X243516Y149831D01*
X243466Y149917D01*
X243412Y150001D01*
X243355Y150083D01*
X243295Y150162D01*
X243231Y150240D01*
X243165Y150314D01*
X243096Y150386D01*
X243024Y150455D01*
X242950Y150521D01*
X242872Y150585D01*
X242793Y150645D01*
X242711Y150702D01*
X242627Y150756D01*
X242541Y150806D01*
X242453Y150853D01*
X242363Y150897D01*
X242272Y150937D01*
X242179Y150973D01*
X242085Y151006D01*
X241989Y151035D01*
X241893Y151060D01*
X241796Y151081D01*
X241697Y151099D01*
X241599Y151112D01*
X241499Y151122D01*
X241400Y151128D01*
X241300Y151130D01*
X218440Y105410D02*
X218442Y105310D01*
X218448Y105211D01*
X218458Y105111D01*
X218471Y105013D01*
X218489Y104914D01*
X218510Y104817D01*
X218535Y104721D01*
X218564Y104625D01*
X218597Y104531D01*
X218633Y104438D01*
X218673Y104347D01*
X218717Y104257D01*
X218764Y104169D01*
X218814Y104083D01*
X218868Y103999D01*
X218925Y103917D01*
X218985Y103838D01*
X219049Y103760D01*
X219115Y103686D01*
X219184Y103614D01*
X219256Y103545D01*
X219330Y103479D01*
X219408Y103415D01*
X219487Y103355D01*
X219569Y103298D01*
X219653Y103244D01*
X219739Y103194D01*
X219827Y103147D01*
X219917Y103103D01*
X220008Y103063D01*
X220101Y103027D01*
X220195Y102994D01*
X220291Y102965D01*
X220387Y102940D01*
X220484Y102919D01*
X220583Y102901D01*
X220681Y102888D01*
X220781Y102878D01*
X220880Y102872D01*
X220980Y102870D01*
X218440Y148590D02*
X218442Y148690D01*
X218448Y148789D01*
X218458Y148889D01*
X218471Y148987D01*
X218489Y149086D01*
X218510Y149183D01*
X218535Y149279D01*
X218564Y149375D01*
X218597Y149469D01*
X218633Y149562D01*
X218673Y149653D01*
X218717Y149743D01*
X218764Y149831D01*
X218814Y149917D01*
X218868Y150001D01*
X218925Y150083D01*
X218985Y150162D01*
X219049Y150240D01*
X219115Y150314D01*
X219184Y150386D01*
X219256Y150455D01*
X219330Y150521D01*
X219408Y150585D01*
X219487Y150645D01*
X219569Y150702D01*
X219653Y150756D01*
X219739Y150806D01*
X219827Y150853D01*
X219917Y150897D01*
X220008Y150937D01*
X220101Y150973D01*
X220195Y151006D01*
X220291Y151035D01*
X220387Y151060D01*
X220484Y151081D01*
X220583Y151099D01*
X220681Y151112D01*
X220781Y151122D01*
X220880Y151128D01*
X220980Y151130D01*
X231140Y124460D02*
X231140Y123190D01*
D14*
X231140Y124460D02*
X238760Y124460D01*
X231140Y124460D02*
X223520Y124460D01*
X231140Y129540D02*
X238760Y129540D01*
X231140Y129540D02*
X223520Y129540D01*
D10*
X231140Y129540D02*
X231140Y130810D01*
D12*
X258445Y135853D02*
X258445Y138393D01*
X258445Y135853D02*
X258443Y135753D01*
X258437Y135654D01*
X258427Y135554D01*
X258414Y135456D01*
X258396Y135357D01*
X258375Y135260D01*
X258350Y135164D01*
X258321Y135068D01*
X258288Y134974D01*
X258252Y134881D01*
X258212Y134790D01*
X258168Y134700D01*
X258121Y134612D01*
X258071Y134526D01*
X258017Y134442D01*
X257960Y134360D01*
X257900Y134281D01*
X257836Y134203D01*
X257770Y134129D01*
X257701Y134057D01*
X257629Y133988D01*
X257555Y133922D01*
X257477Y133858D01*
X257398Y133798D01*
X257316Y133741D01*
X257232Y133687D01*
X257146Y133637D01*
X257058Y133590D01*
X256968Y133546D01*
X256877Y133506D01*
X256784Y133470D01*
X256690Y133437D01*
X256594Y133408D01*
X256498Y133383D01*
X256401Y133362D01*
X256302Y133344D01*
X256204Y133331D01*
X256104Y133321D01*
X256005Y133315D01*
X255905Y133313D01*
X249555Y133313D01*
X249455Y133315D01*
X249356Y133321D01*
X249256Y133331D01*
X249158Y133344D01*
X249059Y133362D01*
X248962Y133383D01*
X248866Y133408D01*
X248770Y133437D01*
X248676Y133470D01*
X248583Y133506D01*
X248492Y133546D01*
X248402Y133590D01*
X248314Y133637D01*
X248228Y133687D01*
X248144Y133741D01*
X248062Y133798D01*
X247983Y133858D01*
X247905Y133922D01*
X247831Y133988D01*
X247759Y134057D01*
X247690Y134129D01*
X247624Y134203D01*
X247560Y134281D01*
X247500Y134360D01*
X247443Y134442D01*
X247389Y134526D01*
X247339Y134612D01*
X247292Y134700D01*
X247248Y134790D01*
X247208Y134881D01*
X247172Y134974D01*
X247139Y135068D01*
X247110Y135164D01*
X247085Y135260D01*
X247064Y135357D01*
X247046Y135456D01*
X247033Y135554D01*
X247023Y135654D01*
X247017Y135753D01*
X247015Y135853D01*
X247015Y138393D01*
X247015Y146368D02*
X247017Y146472D01*
X247023Y146577D01*
X247032Y146681D01*
X247045Y146784D01*
X247063Y146887D01*
X247083Y146989D01*
X247108Y147091D01*
X247136Y147191D01*
X247168Y147291D01*
X247204Y147389D01*
X247243Y147486D01*
X247285Y147581D01*
X247331Y147675D01*
X247381Y147767D01*
X247433Y147857D01*
X247489Y147945D01*
X247549Y148031D01*
X247611Y148115D01*
X247676Y148196D01*
X247744Y148275D01*
X247816Y148352D01*
X247889Y148425D01*
X247966Y148497D01*
X248045Y148565D01*
X248126Y148630D01*
X248210Y148692D01*
X248296Y148752D01*
X248384Y148808D01*
X248474Y148860D01*
X248566Y148910D01*
X248660Y148956D01*
X248755Y148998D01*
X248852Y149037D01*
X248950Y149073D01*
X249050Y149105D01*
X249150Y149133D01*
X249252Y149158D01*
X249354Y149178D01*
X249457Y149196D01*
X249560Y149209D01*
X249664Y149218D01*
X249769Y149224D01*
X249873Y149226D01*
X247015Y146368D02*
X247017Y146250D01*
X247023Y146131D01*
X247032Y146013D01*
X247045Y145896D01*
X247063Y145779D01*
X247083Y145662D01*
X247108Y145546D01*
X247136Y145431D01*
X247169Y145318D01*
X247204Y145205D01*
X247244Y145093D01*
X247286Y144983D01*
X247333Y144874D01*
X247383Y144766D01*
X247436Y144661D01*
X247493Y144557D01*
X247553Y144455D01*
X247616Y144355D01*
X247683Y144257D01*
X247752Y144161D01*
X247825Y144068D01*
X247901Y143977D01*
X247979Y143888D01*
X248061Y143802D01*
X248145Y143719D01*
X248231Y143638D01*
X248321Y143561D01*
X248412Y143486D01*
X248506Y143414D01*
X248603Y143345D01*
X248701Y143280D01*
X248802Y143217D01*
X248905Y143158D01*
X249009Y143102D01*
X249115Y143050D01*
X249223Y143001D01*
X249332Y142956D01*
X249443Y142914D01*
X249555Y142876D01*
X252095Y148273D02*
X252020Y148349D01*
X251941Y148424D01*
X251860Y148495D01*
X251776Y148564D01*
X251690Y148629D01*
X251602Y148691D01*
X251512Y148751D01*
X251420Y148807D01*
X251325Y148860D01*
X251229Y148909D01*
X251131Y148955D01*
X251032Y148998D01*
X250931Y149037D01*
X250829Y149072D01*
X250726Y149104D01*
X250622Y149132D01*
X250517Y149157D01*
X250410Y149178D01*
X250304Y149195D01*
X250197Y149208D01*
X250089Y149217D01*
X249981Y149223D01*
X249873Y149225D01*
X252095Y148273D02*
X258445Y142875D01*
X258445Y149225D01*
D10*
X339090Y101600D02*
X382270Y101600D01*
X382270Y127000D02*
X339090Y127000D01*
X336550Y124460D02*
X336550Y104140D01*
X384810Y104140D02*
X384810Y124460D01*
X339090Y101600D02*
X338990Y101602D01*
X338891Y101608D01*
X338791Y101618D01*
X338693Y101631D01*
X338594Y101649D01*
X338497Y101670D01*
X338401Y101695D01*
X338305Y101724D01*
X338211Y101757D01*
X338118Y101793D01*
X338027Y101833D01*
X337937Y101877D01*
X337849Y101924D01*
X337763Y101974D01*
X337679Y102028D01*
X337597Y102085D01*
X337518Y102145D01*
X337440Y102209D01*
X337366Y102275D01*
X337294Y102344D01*
X337225Y102416D01*
X337159Y102490D01*
X337095Y102568D01*
X337035Y102647D01*
X336978Y102729D01*
X336924Y102813D01*
X336874Y102899D01*
X336827Y102987D01*
X336783Y103077D01*
X336743Y103168D01*
X336707Y103261D01*
X336674Y103355D01*
X336645Y103451D01*
X336620Y103547D01*
X336599Y103644D01*
X336581Y103743D01*
X336568Y103841D01*
X336558Y103941D01*
X336552Y104040D01*
X336550Y104140D01*
X382270Y101600D02*
X382370Y101602D01*
X382469Y101608D01*
X382569Y101618D01*
X382667Y101631D01*
X382766Y101649D01*
X382863Y101670D01*
X382959Y101695D01*
X383055Y101724D01*
X383149Y101757D01*
X383242Y101793D01*
X383333Y101833D01*
X383423Y101877D01*
X383511Y101924D01*
X383597Y101974D01*
X383681Y102028D01*
X383763Y102085D01*
X383842Y102145D01*
X383920Y102209D01*
X383994Y102275D01*
X384066Y102344D01*
X384135Y102416D01*
X384201Y102490D01*
X384265Y102568D01*
X384325Y102647D01*
X384382Y102729D01*
X384436Y102813D01*
X384486Y102899D01*
X384533Y102987D01*
X384577Y103077D01*
X384617Y103168D01*
X384653Y103261D01*
X384686Y103355D01*
X384715Y103451D01*
X384740Y103547D01*
X384761Y103644D01*
X384779Y103743D01*
X384792Y103841D01*
X384802Y103941D01*
X384808Y104040D01*
X384810Y104140D01*
X339090Y127000D02*
X338990Y126998D01*
X338891Y126992D01*
X338791Y126982D01*
X338693Y126969D01*
X338594Y126951D01*
X338497Y126930D01*
X338401Y126905D01*
X338305Y126876D01*
X338211Y126843D01*
X338118Y126807D01*
X338027Y126767D01*
X337937Y126723D01*
X337849Y126676D01*
X337763Y126626D01*
X337679Y126572D01*
X337597Y126515D01*
X337518Y126455D01*
X337440Y126391D01*
X337366Y126325D01*
X337294Y126256D01*
X337225Y126184D01*
X337159Y126110D01*
X337095Y126032D01*
X337035Y125953D01*
X336978Y125871D01*
X336924Y125787D01*
X336874Y125701D01*
X336827Y125613D01*
X336783Y125523D01*
X336743Y125432D01*
X336707Y125339D01*
X336674Y125245D01*
X336645Y125149D01*
X336620Y125053D01*
X336599Y124956D01*
X336581Y124857D01*
X336568Y124759D01*
X336558Y124659D01*
X336552Y124560D01*
X336550Y124460D01*
X382270Y127000D02*
X382370Y126998D01*
X382469Y126992D01*
X382569Y126982D01*
X382667Y126969D01*
X382766Y126951D01*
X382863Y126930D01*
X382959Y126905D01*
X383055Y126876D01*
X383149Y126843D01*
X383242Y126807D01*
X383333Y126767D01*
X383423Y126723D01*
X383511Y126676D01*
X383597Y126626D01*
X383681Y126572D01*
X383763Y126515D01*
X383842Y126455D01*
X383920Y126391D01*
X383994Y126325D01*
X384066Y126256D01*
X384135Y126184D01*
X384201Y126110D01*
X384265Y126032D01*
X384325Y125953D01*
X384382Y125871D01*
X384436Y125787D01*
X384486Y125701D01*
X384533Y125613D01*
X384577Y125523D01*
X384617Y125432D01*
X384653Y125339D01*
X384686Y125245D01*
X384715Y125149D01*
X384740Y125053D01*
X384761Y124956D01*
X384779Y124857D01*
X384792Y124759D01*
X384802Y124659D01*
X384808Y124560D01*
X384810Y124460D01*
X358140Y114300D02*
X356870Y114300D01*
D14*
X358140Y114300D02*
X358140Y106680D01*
X358140Y114300D02*
X358140Y121920D01*
X363220Y114300D02*
X363220Y106680D01*
X363220Y114300D02*
X363220Y121920D01*
D10*
X363220Y114300D02*
X364490Y114300D01*
D12*
X344133Y130175D02*
X341593Y130175D01*
X341493Y130177D01*
X341394Y130183D01*
X341294Y130193D01*
X341196Y130206D01*
X341097Y130224D01*
X341000Y130245D01*
X340904Y130270D01*
X340808Y130299D01*
X340714Y130332D01*
X340621Y130368D01*
X340530Y130408D01*
X340440Y130452D01*
X340352Y130499D01*
X340266Y130549D01*
X340182Y130603D01*
X340100Y130660D01*
X340021Y130720D01*
X339943Y130784D01*
X339869Y130850D01*
X339797Y130919D01*
X339728Y130991D01*
X339662Y131065D01*
X339598Y131143D01*
X339538Y131222D01*
X339481Y131304D01*
X339427Y131388D01*
X339377Y131474D01*
X339330Y131562D01*
X339286Y131652D01*
X339246Y131743D01*
X339210Y131836D01*
X339177Y131930D01*
X339148Y132026D01*
X339123Y132122D01*
X339102Y132219D01*
X339084Y132318D01*
X339071Y132416D01*
X339061Y132516D01*
X339055Y132615D01*
X339053Y132715D01*
X339053Y139065D01*
X339055Y139165D01*
X339061Y139264D01*
X339071Y139364D01*
X339084Y139462D01*
X339102Y139561D01*
X339123Y139658D01*
X339148Y139754D01*
X339177Y139850D01*
X339210Y139944D01*
X339246Y140037D01*
X339286Y140128D01*
X339330Y140218D01*
X339377Y140306D01*
X339427Y140392D01*
X339481Y140476D01*
X339538Y140558D01*
X339598Y140637D01*
X339662Y140715D01*
X339728Y140789D01*
X339797Y140861D01*
X339869Y140930D01*
X339943Y140996D01*
X340021Y141060D01*
X340100Y141120D01*
X340182Y141177D01*
X340266Y141231D01*
X340352Y141281D01*
X340440Y141328D01*
X340530Y141372D01*
X340621Y141412D01*
X340714Y141448D01*
X340808Y141481D01*
X340904Y141510D01*
X341000Y141535D01*
X341097Y141556D01*
X341196Y141574D01*
X341294Y141587D01*
X341394Y141597D01*
X341493Y141603D01*
X341593Y141605D01*
X344133Y141605D01*
X348615Y130175D02*
X351790Y130175D01*
X351901Y130177D01*
X352011Y130183D01*
X352122Y130192D01*
X352232Y130206D01*
X352341Y130223D01*
X352450Y130244D01*
X352558Y130269D01*
X352665Y130298D01*
X352771Y130330D01*
X352876Y130366D01*
X352979Y130406D01*
X353081Y130449D01*
X353182Y130496D01*
X353281Y130547D01*
X353378Y130600D01*
X353472Y130657D01*
X353565Y130718D01*
X353656Y130781D01*
X353745Y130848D01*
X353831Y130918D01*
X353914Y130991D01*
X353996Y131066D01*
X354074Y131144D01*
X354149Y131226D01*
X354222Y131309D01*
X354292Y131395D01*
X354359Y131484D01*
X354422Y131575D01*
X354483Y131668D01*
X354540Y131762D01*
X354593Y131859D01*
X354644Y131958D01*
X354691Y132059D01*
X354734Y132161D01*
X354774Y132264D01*
X354810Y132369D01*
X354842Y132475D01*
X354871Y132582D01*
X354896Y132690D01*
X354917Y132799D01*
X354934Y132908D01*
X354948Y133018D01*
X354957Y133129D01*
X354963Y133239D01*
X354965Y133350D01*
X354963Y133461D01*
X354957Y133571D01*
X354948Y133682D01*
X354934Y133792D01*
X354917Y133901D01*
X354896Y134010D01*
X354871Y134118D01*
X354842Y134225D01*
X354810Y134331D01*
X354774Y134436D01*
X354734Y134539D01*
X354691Y134641D01*
X354644Y134742D01*
X354593Y134841D01*
X354540Y134937D01*
X354483Y135032D01*
X354422Y135125D01*
X354359Y135216D01*
X354292Y135305D01*
X354222Y135391D01*
X354149Y135474D01*
X354074Y135556D01*
X353996Y135634D01*
X353914Y135709D01*
X353831Y135782D01*
X353745Y135852D01*
X353656Y135919D01*
X353565Y135982D01*
X353472Y136043D01*
X353378Y136100D01*
X353281Y136153D01*
X353182Y136204D01*
X353081Y136251D01*
X352979Y136294D01*
X352876Y136334D01*
X352771Y136370D01*
X352665Y136402D01*
X352558Y136431D01*
X352450Y136456D01*
X352341Y136477D01*
X352232Y136494D01*
X352122Y136508D01*
X352011Y136517D01*
X351901Y136523D01*
X351790Y136525D01*
X352425Y141605D02*
X348615Y141605D01*
X352425Y141605D02*
X352525Y141603D01*
X352624Y141597D01*
X352724Y141587D01*
X352822Y141574D01*
X352921Y141556D01*
X353018Y141535D01*
X353114Y141510D01*
X353210Y141481D01*
X353304Y141448D01*
X353397Y141412D01*
X353488Y141372D01*
X353578Y141328D01*
X353666Y141281D01*
X353752Y141231D01*
X353836Y141177D01*
X353918Y141120D01*
X353997Y141060D01*
X354075Y140996D01*
X354149Y140930D01*
X354221Y140861D01*
X354290Y140789D01*
X354356Y140715D01*
X354420Y140637D01*
X354480Y140558D01*
X354537Y140476D01*
X354591Y140392D01*
X354641Y140306D01*
X354688Y140218D01*
X354732Y140128D01*
X354772Y140037D01*
X354808Y139944D01*
X354841Y139850D01*
X354870Y139754D01*
X354895Y139658D01*
X354916Y139561D01*
X354934Y139462D01*
X354947Y139364D01*
X354957Y139264D01*
X354963Y139165D01*
X354965Y139065D01*
X354963Y138965D01*
X354957Y138866D01*
X354947Y138766D01*
X354934Y138668D01*
X354916Y138569D01*
X354895Y138472D01*
X354870Y138376D01*
X354841Y138280D01*
X354808Y138186D01*
X354772Y138093D01*
X354732Y138002D01*
X354688Y137912D01*
X354641Y137824D01*
X354591Y137738D01*
X354537Y137654D01*
X354480Y137572D01*
X354420Y137493D01*
X354356Y137415D01*
X354290Y137341D01*
X354221Y137269D01*
X354149Y137200D01*
X354075Y137134D01*
X353997Y137070D01*
X353918Y137010D01*
X353836Y136953D01*
X353752Y136899D01*
X353666Y136849D01*
X353578Y136802D01*
X353488Y136758D01*
X353397Y136718D01*
X353304Y136682D01*
X353210Y136649D01*
X353114Y136620D01*
X353018Y136595D01*
X352921Y136574D01*
X352822Y136556D01*
X352724Y136543D01*
X352624Y136533D01*
X352525Y136527D01*
X352425Y136525D01*
X349885Y136525D01*
D10*
X213360Y190500D02*
X172720Y190500D01*
X172720Y165100D01*
X213360Y165100D01*
X213360Y190500D01*
X199390Y177800D02*
X193040Y177800D01*
X182880Y171450D02*
X182880Y184150D01*
X193040Y177800D01*
X177800Y177800D01*
X182880Y171450D02*
X193040Y177800D01*
X193040Y171450D01*
X193040Y177800D02*
X193040Y184150D01*
D15*
X207010Y177800D03*
D16*
X163195Y177800D03*
X222885Y177800D03*
D12*
X146304Y163195D02*
X146304Y151765D01*
X146304Y163195D02*
X149479Y163195D01*
X149590Y163193D01*
X149700Y163187D01*
X149811Y163178D01*
X149921Y163164D01*
X150030Y163147D01*
X150139Y163126D01*
X150247Y163101D01*
X150354Y163072D01*
X150460Y163040D01*
X150565Y163004D01*
X150668Y162964D01*
X150770Y162921D01*
X150871Y162874D01*
X150970Y162823D01*
X151067Y162770D01*
X151161Y162713D01*
X151254Y162652D01*
X151345Y162589D01*
X151434Y162522D01*
X151520Y162452D01*
X151603Y162379D01*
X151685Y162304D01*
X151763Y162226D01*
X151838Y162144D01*
X151911Y162061D01*
X151981Y161975D01*
X152048Y161886D01*
X152111Y161795D01*
X152172Y161702D01*
X152229Y161608D01*
X152282Y161511D01*
X152333Y161412D01*
X152380Y161311D01*
X152423Y161209D01*
X152463Y161106D01*
X152499Y161001D01*
X152531Y160895D01*
X152560Y160788D01*
X152585Y160680D01*
X152606Y160571D01*
X152623Y160462D01*
X152637Y160352D01*
X152646Y160241D01*
X152652Y160131D01*
X152654Y160020D01*
X152654Y154940D01*
X152652Y154829D01*
X152646Y154719D01*
X152637Y154608D01*
X152623Y154498D01*
X152606Y154389D01*
X152585Y154280D01*
X152560Y154172D01*
X152531Y154065D01*
X152499Y153959D01*
X152463Y153854D01*
X152423Y153751D01*
X152380Y153649D01*
X152333Y153548D01*
X152282Y153449D01*
X152229Y153352D01*
X152172Y153258D01*
X152111Y153165D01*
X152048Y153074D01*
X151981Y152985D01*
X151911Y152899D01*
X151838Y152816D01*
X151763Y152734D01*
X151685Y152656D01*
X151603Y152581D01*
X151520Y152508D01*
X151434Y152438D01*
X151345Y152371D01*
X151254Y152308D01*
X151161Y152247D01*
X151066Y152190D01*
X150970Y152137D01*
X150871Y152086D01*
X150770Y152039D01*
X150668Y151996D01*
X150565Y151956D01*
X150460Y151920D01*
X150354Y151888D01*
X150247Y151859D01*
X150139Y151834D01*
X150030Y151813D01*
X149921Y151796D01*
X149811Y151782D01*
X149700Y151773D01*
X149590Y151767D01*
X149479Y151765D01*
X146304Y151765D01*
X158115Y160655D02*
X161290Y163195D01*
X161290Y151765D01*
X158115Y151765D02*
X164465Y151765D01*
D10*
X284480Y147320D02*
X284480Y106680D01*
X309880Y106680D01*
X309880Y147320D01*
X284480Y147320D01*
X297180Y133350D02*
X297180Y127000D01*
X303530Y116840D02*
X290830Y116840D01*
X297180Y127000D01*
X297180Y111760D01*
X303530Y116840D02*
X297180Y127000D01*
X303530Y127000D01*
X297180Y127000D02*
X290830Y127000D01*
D17*
X297180Y140970D03*
D18*
X297180Y97155D03*
X297180Y156845D03*
D12*
X314325Y128524D02*
X325755Y128524D01*
X314325Y128524D02*
X314325Y131699D01*
X314327Y131810D01*
X314333Y131920D01*
X314342Y132031D01*
X314356Y132141D01*
X314373Y132250D01*
X314394Y132359D01*
X314419Y132467D01*
X314448Y132574D01*
X314480Y132680D01*
X314516Y132785D01*
X314556Y132888D01*
X314599Y132990D01*
X314646Y133091D01*
X314697Y133190D01*
X314750Y133287D01*
X314807Y133381D01*
X314868Y133474D01*
X314931Y133565D01*
X314998Y133654D01*
X315068Y133740D01*
X315141Y133823D01*
X315216Y133905D01*
X315294Y133983D01*
X315376Y134058D01*
X315459Y134131D01*
X315545Y134201D01*
X315634Y134268D01*
X315725Y134331D01*
X315818Y134392D01*
X315913Y134449D01*
X316009Y134502D01*
X316108Y134553D01*
X316209Y134600D01*
X316311Y134643D01*
X316414Y134683D01*
X316519Y134719D01*
X316625Y134751D01*
X316732Y134780D01*
X316840Y134805D01*
X316949Y134826D01*
X317058Y134843D01*
X317168Y134857D01*
X317279Y134866D01*
X317389Y134872D01*
X317500Y134874D01*
X322580Y134874D01*
X322691Y134872D01*
X322801Y134866D01*
X322912Y134857D01*
X323022Y134843D01*
X323131Y134826D01*
X323240Y134805D01*
X323348Y134780D01*
X323455Y134751D01*
X323561Y134719D01*
X323666Y134683D01*
X323769Y134643D01*
X323871Y134600D01*
X323972Y134553D01*
X324071Y134502D01*
X324168Y134449D01*
X324262Y134392D01*
X324355Y134331D01*
X324446Y134268D01*
X324535Y134201D01*
X324621Y134131D01*
X324704Y134058D01*
X324786Y133983D01*
X324864Y133905D01*
X324939Y133823D01*
X325012Y133740D01*
X325082Y133654D01*
X325149Y133565D01*
X325212Y133474D01*
X325273Y133381D01*
X325330Y133287D01*
X325383Y133190D01*
X325434Y133091D01*
X325481Y132990D01*
X325524Y132888D01*
X325564Y132785D01*
X325600Y132680D01*
X325632Y132574D01*
X325661Y132467D01*
X325686Y132359D01*
X325707Y132250D01*
X325724Y132141D01*
X325738Y132031D01*
X325747Y131920D01*
X325753Y131810D01*
X325755Y131699D01*
X325755Y128524D01*
X314325Y143828D02*
X314327Y143932D01*
X314333Y144037D01*
X314342Y144141D01*
X314355Y144244D01*
X314373Y144347D01*
X314393Y144449D01*
X314418Y144551D01*
X314446Y144651D01*
X314478Y144751D01*
X314514Y144849D01*
X314553Y144946D01*
X314595Y145041D01*
X314641Y145135D01*
X314691Y145227D01*
X314743Y145317D01*
X314799Y145405D01*
X314859Y145491D01*
X314921Y145575D01*
X314986Y145656D01*
X315054Y145735D01*
X315126Y145812D01*
X315199Y145885D01*
X315276Y145957D01*
X315355Y146025D01*
X315436Y146090D01*
X315520Y146152D01*
X315606Y146212D01*
X315694Y146268D01*
X315784Y146320D01*
X315876Y146370D01*
X315970Y146416D01*
X316065Y146458D01*
X316162Y146497D01*
X316260Y146533D01*
X316360Y146565D01*
X316460Y146593D01*
X316562Y146618D01*
X316664Y146638D01*
X316767Y146656D01*
X316870Y146669D01*
X316974Y146678D01*
X317079Y146684D01*
X317183Y146686D01*
X314325Y143828D02*
X314327Y143710D01*
X314333Y143591D01*
X314342Y143473D01*
X314355Y143356D01*
X314373Y143239D01*
X314393Y143122D01*
X314418Y143006D01*
X314446Y142891D01*
X314479Y142778D01*
X314514Y142665D01*
X314554Y142553D01*
X314596Y142443D01*
X314643Y142334D01*
X314693Y142226D01*
X314746Y142121D01*
X314803Y142017D01*
X314863Y141915D01*
X314926Y141815D01*
X314993Y141717D01*
X315062Y141621D01*
X315135Y141528D01*
X315211Y141437D01*
X315289Y141348D01*
X315371Y141262D01*
X315455Y141179D01*
X315541Y141098D01*
X315631Y141021D01*
X315722Y140946D01*
X315816Y140874D01*
X315913Y140805D01*
X316011Y140740D01*
X316112Y140677D01*
X316215Y140618D01*
X316319Y140562D01*
X316425Y140510D01*
X316533Y140461D01*
X316642Y140416D01*
X316753Y140374D01*
X316865Y140336D01*
X319405Y145733D02*
X319330Y145809D01*
X319251Y145884D01*
X319170Y145955D01*
X319086Y146024D01*
X319000Y146089D01*
X318912Y146151D01*
X318822Y146211D01*
X318730Y146267D01*
X318635Y146320D01*
X318539Y146369D01*
X318441Y146415D01*
X318342Y146458D01*
X318241Y146497D01*
X318139Y146532D01*
X318036Y146564D01*
X317932Y146592D01*
X317827Y146617D01*
X317720Y146638D01*
X317614Y146655D01*
X317507Y146668D01*
X317399Y146677D01*
X317291Y146683D01*
X317183Y146685D01*
X319405Y145733D02*
X325755Y140335D01*
X325755Y146685D01*
D10*
X213360Y88900D02*
X172720Y88900D01*
X172720Y63500D01*
X213360Y63500D01*
X213360Y88900D01*
X199390Y76200D02*
X193040Y76200D01*
X182880Y69850D02*
X182880Y82550D01*
X193040Y76200D01*
X177800Y76200D01*
X182880Y69850D02*
X193040Y76200D01*
X193040Y69850D01*
X193040Y76200D02*
X193040Y82550D01*
D15*
X207010Y76200D03*
D16*
X163195Y76200D03*
X222885Y76200D03*
D12*
X148844Y61595D02*
X148844Y50165D01*
X148844Y61595D02*
X152019Y61595D01*
X152130Y61593D01*
X152240Y61587D01*
X152351Y61578D01*
X152461Y61564D01*
X152570Y61547D01*
X152679Y61526D01*
X152787Y61501D01*
X152894Y61472D01*
X153000Y61440D01*
X153105Y61404D01*
X153208Y61364D01*
X153310Y61321D01*
X153411Y61274D01*
X153510Y61223D01*
X153607Y61170D01*
X153701Y61113D01*
X153794Y61052D01*
X153885Y60989D01*
X153974Y60922D01*
X154060Y60852D01*
X154143Y60779D01*
X154225Y60704D01*
X154303Y60626D01*
X154378Y60544D01*
X154451Y60461D01*
X154521Y60375D01*
X154588Y60286D01*
X154651Y60195D01*
X154712Y60102D01*
X154769Y60008D01*
X154822Y59911D01*
X154873Y59812D01*
X154920Y59711D01*
X154963Y59609D01*
X155003Y59506D01*
X155039Y59401D01*
X155071Y59295D01*
X155100Y59188D01*
X155125Y59080D01*
X155146Y58971D01*
X155163Y58862D01*
X155177Y58752D01*
X155186Y58641D01*
X155192Y58531D01*
X155194Y58420D01*
X155194Y53340D01*
X155192Y53229D01*
X155186Y53119D01*
X155177Y53008D01*
X155163Y52898D01*
X155146Y52789D01*
X155125Y52680D01*
X155100Y52572D01*
X155071Y52465D01*
X155039Y52359D01*
X155003Y52254D01*
X154963Y52151D01*
X154920Y52049D01*
X154873Y51948D01*
X154822Y51849D01*
X154769Y51752D01*
X154712Y51658D01*
X154651Y51565D01*
X154588Y51474D01*
X154521Y51385D01*
X154451Y51299D01*
X154378Y51216D01*
X154303Y51134D01*
X154225Y51056D01*
X154143Y50981D01*
X154060Y50908D01*
X153974Y50838D01*
X153885Y50771D01*
X153794Y50708D01*
X153701Y50647D01*
X153606Y50590D01*
X153510Y50537D01*
X153411Y50486D01*
X153310Y50439D01*
X153208Y50396D01*
X153105Y50356D01*
X153000Y50320D01*
X152894Y50288D01*
X152787Y50259D01*
X152679Y50234D01*
X152570Y50213D01*
X152461Y50196D01*
X152351Y50182D01*
X152240Y50173D01*
X152130Y50167D01*
X152019Y50165D01*
X148844Y50165D01*
X160655Y50165D02*
X163830Y50165D01*
X163941Y50167D01*
X164051Y50173D01*
X164162Y50182D01*
X164272Y50196D01*
X164381Y50213D01*
X164490Y50234D01*
X164598Y50259D01*
X164705Y50288D01*
X164811Y50320D01*
X164916Y50356D01*
X165019Y50396D01*
X165121Y50439D01*
X165222Y50486D01*
X165321Y50537D01*
X165417Y50590D01*
X165512Y50647D01*
X165605Y50708D01*
X165696Y50771D01*
X165785Y50838D01*
X165871Y50908D01*
X165954Y50981D01*
X166036Y51056D01*
X166114Y51134D01*
X166189Y51216D01*
X166262Y51299D01*
X166332Y51385D01*
X166399Y51474D01*
X166462Y51565D01*
X166523Y51658D01*
X166580Y51752D01*
X166633Y51849D01*
X166684Y51948D01*
X166731Y52049D01*
X166774Y52151D01*
X166814Y52254D01*
X166850Y52359D01*
X166882Y52465D01*
X166911Y52572D01*
X166936Y52680D01*
X166957Y52789D01*
X166974Y52898D01*
X166988Y53008D01*
X166997Y53119D01*
X167003Y53229D01*
X167005Y53340D01*
X167003Y53451D01*
X166997Y53561D01*
X166988Y53672D01*
X166974Y53782D01*
X166957Y53891D01*
X166936Y54000D01*
X166911Y54108D01*
X166882Y54215D01*
X166850Y54321D01*
X166814Y54426D01*
X166774Y54529D01*
X166731Y54631D01*
X166684Y54732D01*
X166633Y54831D01*
X166580Y54927D01*
X166523Y55022D01*
X166462Y55115D01*
X166399Y55206D01*
X166332Y55295D01*
X166262Y55381D01*
X166189Y55464D01*
X166114Y55546D01*
X166036Y55624D01*
X165954Y55699D01*
X165871Y55772D01*
X165785Y55842D01*
X165696Y55909D01*
X165605Y55972D01*
X165512Y56033D01*
X165418Y56090D01*
X165321Y56143D01*
X165222Y56194D01*
X165121Y56241D01*
X165019Y56284D01*
X164916Y56324D01*
X164811Y56360D01*
X164705Y56392D01*
X164598Y56421D01*
X164490Y56446D01*
X164381Y56467D01*
X164272Y56484D01*
X164162Y56498D01*
X164051Y56507D01*
X163941Y56513D01*
X163830Y56515D01*
X164465Y61595D02*
X160655Y61595D01*
X164465Y61595D02*
X164565Y61593D01*
X164664Y61587D01*
X164764Y61577D01*
X164862Y61564D01*
X164961Y61546D01*
X165058Y61525D01*
X165154Y61500D01*
X165250Y61471D01*
X165344Y61438D01*
X165437Y61402D01*
X165528Y61362D01*
X165618Y61318D01*
X165706Y61271D01*
X165792Y61221D01*
X165876Y61167D01*
X165958Y61110D01*
X166037Y61050D01*
X166115Y60986D01*
X166189Y60920D01*
X166261Y60851D01*
X166330Y60779D01*
X166396Y60705D01*
X166460Y60627D01*
X166520Y60548D01*
X166577Y60466D01*
X166631Y60382D01*
X166681Y60296D01*
X166728Y60208D01*
X166772Y60118D01*
X166812Y60027D01*
X166848Y59934D01*
X166881Y59840D01*
X166910Y59744D01*
X166935Y59648D01*
X166956Y59551D01*
X166974Y59452D01*
X166987Y59354D01*
X166997Y59254D01*
X167003Y59155D01*
X167005Y59055D01*
X167003Y58955D01*
X166997Y58856D01*
X166987Y58756D01*
X166974Y58658D01*
X166956Y58559D01*
X166935Y58462D01*
X166910Y58366D01*
X166881Y58270D01*
X166848Y58176D01*
X166812Y58083D01*
X166772Y57992D01*
X166728Y57902D01*
X166681Y57814D01*
X166631Y57728D01*
X166577Y57644D01*
X166520Y57562D01*
X166460Y57483D01*
X166396Y57405D01*
X166330Y57331D01*
X166261Y57259D01*
X166189Y57190D01*
X166115Y57124D01*
X166037Y57060D01*
X165958Y57000D01*
X165876Y56943D01*
X165792Y56889D01*
X165706Y56839D01*
X165618Y56792D01*
X165528Y56748D01*
X165437Y56708D01*
X165344Y56672D01*
X165250Y56639D01*
X165154Y56610D01*
X165058Y56585D01*
X164961Y56564D01*
X164862Y56546D01*
X164764Y56533D01*
X164664Y56523D01*
X164565Y56517D01*
X164465Y56515D01*
X161925Y56515D01*
D10*
X45720Y106680D02*
X45720Y147320D01*
X45720Y106680D02*
X71120Y106680D01*
X71120Y147320D01*
X45720Y147320D01*
X58420Y133350D02*
X58420Y127000D01*
X64770Y116840D02*
X52070Y116840D01*
X58420Y127000D01*
X58420Y111760D01*
X64770Y116840D02*
X58420Y127000D01*
X64770Y127000D01*
X58420Y127000D02*
X52070Y127000D01*
D17*
X58420Y140970D03*
D18*
X58420Y97155D03*
X58420Y156845D03*
D12*
X75565Y128524D02*
X86995Y128524D01*
X75565Y128524D02*
X75565Y131699D01*
X75567Y131810D01*
X75573Y131920D01*
X75582Y132031D01*
X75596Y132141D01*
X75613Y132250D01*
X75634Y132359D01*
X75659Y132467D01*
X75688Y132574D01*
X75720Y132680D01*
X75756Y132785D01*
X75796Y132888D01*
X75839Y132990D01*
X75886Y133091D01*
X75937Y133190D01*
X75990Y133287D01*
X76047Y133381D01*
X76108Y133474D01*
X76171Y133565D01*
X76238Y133654D01*
X76308Y133740D01*
X76381Y133823D01*
X76456Y133905D01*
X76534Y133983D01*
X76616Y134058D01*
X76699Y134131D01*
X76785Y134201D01*
X76874Y134268D01*
X76965Y134331D01*
X77058Y134392D01*
X77153Y134449D01*
X77249Y134502D01*
X77348Y134553D01*
X77449Y134600D01*
X77551Y134643D01*
X77654Y134683D01*
X77759Y134719D01*
X77865Y134751D01*
X77972Y134780D01*
X78080Y134805D01*
X78189Y134826D01*
X78298Y134843D01*
X78408Y134857D01*
X78519Y134866D01*
X78629Y134872D01*
X78740Y134874D01*
X83820Y134874D01*
X83931Y134872D01*
X84041Y134866D01*
X84152Y134857D01*
X84262Y134843D01*
X84371Y134826D01*
X84480Y134805D01*
X84588Y134780D01*
X84695Y134751D01*
X84801Y134719D01*
X84906Y134683D01*
X85009Y134643D01*
X85111Y134600D01*
X85212Y134553D01*
X85311Y134502D01*
X85408Y134449D01*
X85502Y134392D01*
X85595Y134331D01*
X85686Y134268D01*
X85775Y134201D01*
X85861Y134131D01*
X85944Y134058D01*
X86026Y133983D01*
X86104Y133905D01*
X86179Y133823D01*
X86252Y133740D01*
X86322Y133654D01*
X86389Y133565D01*
X86452Y133474D01*
X86513Y133381D01*
X86570Y133287D01*
X86623Y133190D01*
X86674Y133091D01*
X86721Y132990D01*
X86764Y132888D01*
X86804Y132785D01*
X86840Y132680D01*
X86872Y132574D01*
X86901Y132467D01*
X86926Y132359D01*
X86947Y132250D01*
X86964Y132141D01*
X86978Y132031D01*
X86987Y131920D01*
X86993Y131810D01*
X86995Y131699D01*
X86995Y128524D01*
X84455Y140335D02*
X75565Y142875D01*
X84455Y140335D02*
X84455Y146685D01*
X81915Y144780D02*
X86995Y144780D01*
X443230Y162560D02*
X444500Y191770D01*
X443230Y162560D02*
X440690Y160020D01*
X346710Y160020D01*
X344170Y162560D01*
X342900Y191770D01*
X346202Y166116D02*
X346204Y166216D01*
X346210Y166317D01*
X346220Y166416D01*
X346234Y166516D01*
X346251Y166615D01*
X346273Y166713D01*
X346299Y166810D01*
X346328Y166906D01*
X346361Y167000D01*
X346398Y167094D01*
X346438Y167186D01*
X346482Y167276D01*
X346530Y167364D01*
X346581Y167451D01*
X346635Y167535D01*
X346693Y167617D01*
X346754Y167697D01*
X346818Y167774D01*
X346885Y167849D01*
X346955Y167921D01*
X347028Y167990D01*
X347103Y168056D01*
X347181Y168120D01*
X347261Y168180D01*
X347344Y168237D01*
X347429Y168290D01*
X347516Y168340D01*
X347605Y168387D01*
X347695Y168430D01*
X347787Y168470D01*
X347881Y168506D01*
X347976Y168538D01*
X348072Y168566D01*
X348170Y168591D01*
X348268Y168611D01*
X348367Y168628D01*
X348467Y168641D01*
X348566Y168650D01*
X348667Y168655D01*
X348767Y168656D01*
X348867Y168653D01*
X348968Y168646D01*
X349067Y168635D01*
X349167Y168620D01*
X349265Y168602D01*
X349363Y168579D01*
X349460Y168552D01*
X349555Y168522D01*
X349650Y168488D01*
X349743Y168450D01*
X349834Y168409D01*
X349924Y168364D01*
X350012Y168316D01*
X350098Y168264D01*
X350182Y168209D01*
X350263Y168150D01*
X350342Y168088D01*
X350419Y168024D01*
X350493Y167956D01*
X350564Y167885D01*
X350633Y167812D01*
X350698Y167736D01*
X350761Y167657D01*
X350820Y167576D01*
X350876Y167493D01*
X350929Y167408D01*
X350978Y167320D01*
X351024Y167231D01*
X351066Y167140D01*
X351105Y167047D01*
X351140Y166953D01*
X351171Y166858D01*
X351199Y166761D01*
X351222Y166664D01*
X351242Y166565D01*
X351258Y166466D01*
X351270Y166367D01*
X351278Y166266D01*
X351282Y166166D01*
X351282Y166066D01*
X351278Y165966D01*
X351270Y165865D01*
X351258Y165766D01*
X351242Y165667D01*
X351222Y165568D01*
X351199Y165471D01*
X351171Y165374D01*
X351140Y165279D01*
X351105Y165185D01*
X351066Y165092D01*
X351024Y165001D01*
X350978Y164912D01*
X350929Y164824D01*
X350876Y164739D01*
X350820Y164656D01*
X350761Y164575D01*
X350698Y164496D01*
X350633Y164420D01*
X350564Y164347D01*
X350493Y164276D01*
X350419Y164208D01*
X350342Y164144D01*
X350263Y164082D01*
X350182Y164023D01*
X350098Y163968D01*
X350012Y163916D01*
X349924Y163868D01*
X349834Y163823D01*
X349743Y163782D01*
X349650Y163744D01*
X349555Y163710D01*
X349460Y163680D01*
X349363Y163653D01*
X349265Y163630D01*
X349167Y163612D01*
X349067Y163597D01*
X348968Y163586D01*
X348867Y163579D01*
X348767Y163576D01*
X348667Y163577D01*
X348566Y163582D01*
X348467Y163591D01*
X348367Y163604D01*
X348268Y163621D01*
X348170Y163641D01*
X348072Y163666D01*
X347976Y163694D01*
X347881Y163726D01*
X347787Y163762D01*
X347695Y163802D01*
X347605Y163845D01*
X347516Y163892D01*
X347429Y163942D01*
X347344Y163995D01*
X347261Y164052D01*
X347181Y164112D01*
X347103Y164176D01*
X347028Y164242D01*
X346955Y164311D01*
X346885Y164383D01*
X346818Y164458D01*
X346754Y164535D01*
X346693Y164615D01*
X346635Y164697D01*
X346581Y164781D01*
X346530Y164868D01*
X346482Y164956D01*
X346438Y165046D01*
X346398Y165138D01*
X346361Y165232D01*
X346328Y165326D01*
X346299Y165422D01*
X346273Y165519D01*
X346251Y165617D01*
X346234Y165716D01*
X346220Y165816D01*
X346210Y165915D01*
X346204Y166016D01*
X346202Y166116D01*
D19*
X393700Y199390D03*
D20*
X349885Y193040D03*
D21*
X381000Y193040D03*
X406400Y193040D03*
D20*
X437515Y193040D03*
D12*
X415925Y209423D02*
X415925Y220853D01*
X414655Y209423D02*
X417195Y209423D01*
X417195Y220853D02*
X414655Y220853D01*
X424397Y209423D02*
X426937Y209423D01*
X424397Y209423D02*
X424297Y209425D01*
X424198Y209431D01*
X424098Y209441D01*
X424000Y209454D01*
X423901Y209472D01*
X423804Y209493D01*
X423708Y209518D01*
X423612Y209547D01*
X423518Y209580D01*
X423425Y209616D01*
X423334Y209656D01*
X423244Y209700D01*
X423156Y209747D01*
X423070Y209797D01*
X422986Y209851D01*
X422904Y209908D01*
X422825Y209968D01*
X422747Y210032D01*
X422673Y210098D01*
X422601Y210167D01*
X422532Y210239D01*
X422466Y210313D01*
X422402Y210391D01*
X422342Y210470D01*
X422285Y210552D01*
X422231Y210636D01*
X422181Y210722D01*
X422134Y210810D01*
X422090Y210900D01*
X422050Y210991D01*
X422014Y211084D01*
X421981Y211178D01*
X421952Y211274D01*
X421927Y211370D01*
X421906Y211467D01*
X421888Y211566D01*
X421875Y211664D01*
X421865Y211764D01*
X421859Y211863D01*
X421857Y211963D01*
X421857Y218313D01*
X421859Y218413D01*
X421865Y218512D01*
X421875Y218612D01*
X421888Y218710D01*
X421906Y218809D01*
X421927Y218906D01*
X421952Y219002D01*
X421981Y219098D01*
X422014Y219192D01*
X422050Y219285D01*
X422090Y219376D01*
X422134Y219466D01*
X422181Y219554D01*
X422231Y219640D01*
X422285Y219724D01*
X422342Y219806D01*
X422402Y219885D01*
X422466Y219963D01*
X422532Y220037D01*
X422601Y220109D01*
X422673Y220178D01*
X422747Y220244D01*
X422825Y220308D01*
X422904Y220368D01*
X422986Y220425D01*
X423070Y220479D01*
X423156Y220529D01*
X423244Y220576D01*
X423334Y220620D01*
X423425Y220660D01*
X423518Y220696D01*
X423612Y220729D01*
X423708Y220758D01*
X423804Y220783D01*
X423901Y220804D01*
X424000Y220822D01*
X424098Y220835D01*
X424198Y220845D01*
X424297Y220851D01*
X424397Y220853D01*
X426937Y220853D01*
X431419Y218313D02*
X434594Y220853D01*
X434594Y209423D01*
X431419Y209423D02*
X437769Y209423D01*
D10*
X83820Y251460D02*
X76200Y251460D01*
X76200Y232410D01*
X74930Y231140D01*
X72390Y228600D01*
X74930Y226060D01*
X76200Y224790D01*
X36830Y231140D02*
X35560Y231140D01*
X35560Y251460D01*
X36830Y231140D02*
X36830Y226060D01*
X35560Y226060D01*
X35560Y205740D01*
X76200Y205740D02*
X76200Y224790D01*
X76200Y205740D02*
X83820Y205740D01*
X76200Y251460D02*
X43180Y251460D01*
X40640Y251460D02*
X35560Y251460D01*
X40640Y251460D02*
X40640Y247650D01*
X40640Y205740D02*
X35560Y205740D01*
X40640Y205740D02*
X40640Y209550D01*
X43180Y205740D02*
X76200Y205740D01*
X43180Y209550D02*
X40640Y209550D01*
X45720Y209550D02*
X45720Y222250D01*
X43180Y234950D02*
X40640Y234950D01*
X40640Y247650D02*
X43180Y247650D01*
X45720Y247650D02*
X45720Y234950D01*
X40640Y234950D02*
X40640Y222250D01*
X43180Y234950D02*
X45720Y234950D01*
X43180Y222250D02*
X40640Y222250D01*
X43180Y222250D02*
X45720Y222250D01*
X43180Y222250D02*
X43180Y226060D01*
X74930Y226060D01*
X43180Y231140D02*
X43180Y234950D01*
X43180Y231140D02*
X43180Y226060D01*
X43180Y231140D02*
X74930Y231140D01*
X43180Y209550D02*
X43180Y205740D01*
X43180Y209550D02*
X45720Y209550D01*
X43180Y205740D02*
X40640Y205740D01*
X43180Y247650D02*
X43180Y251460D01*
X43180Y247650D02*
X45720Y247650D01*
X43180Y251460D02*
X40640Y251460D01*
X83820Y251460D02*
X83820Y243840D01*
X85090Y243840D01*
X85090Y238760D02*
X83820Y238760D01*
X85090Y238760D02*
X85090Y243840D01*
X85090Y218440D02*
X83820Y218440D01*
X83820Y213360D02*
X83820Y205740D01*
X83820Y213360D02*
X85090Y213360D01*
X85090Y218440D01*
X83820Y226060D02*
X82550Y226060D01*
X83820Y226060D02*
X83820Y218440D01*
X82550Y226060D02*
X82550Y231140D01*
X83820Y231140D01*
X83820Y238760D01*
D12*
X70852Y245491D02*
X68453Y243572D01*
X70852Y245491D02*
X70852Y236855D01*
X68453Y236855D02*
X73251Y236855D01*
X88519Y203454D02*
X99949Y203454D01*
X99949Y202184D02*
X99949Y204724D01*
X88519Y204724D02*
X88519Y202184D01*
X88519Y209804D02*
X99949Y209804D01*
X99949Y216154D02*
X88519Y209804D01*
X88519Y216154D02*
X99949Y216154D01*
X99949Y222187D02*
X88519Y222187D01*
X88519Y225362D01*
X88521Y225473D01*
X88527Y225583D01*
X88536Y225694D01*
X88550Y225804D01*
X88567Y225913D01*
X88588Y226022D01*
X88613Y226130D01*
X88642Y226237D01*
X88674Y226343D01*
X88710Y226448D01*
X88750Y226551D01*
X88793Y226653D01*
X88840Y226754D01*
X88891Y226853D01*
X88944Y226950D01*
X89001Y227044D01*
X89062Y227137D01*
X89125Y227228D01*
X89192Y227317D01*
X89262Y227403D01*
X89335Y227486D01*
X89410Y227568D01*
X89488Y227646D01*
X89570Y227721D01*
X89653Y227794D01*
X89739Y227864D01*
X89828Y227931D01*
X89919Y227994D01*
X90012Y228055D01*
X90107Y228112D01*
X90203Y228165D01*
X90302Y228216D01*
X90403Y228263D01*
X90505Y228306D01*
X90608Y228346D01*
X90713Y228382D01*
X90819Y228414D01*
X90926Y228443D01*
X91034Y228468D01*
X91143Y228489D01*
X91252Y228506D01*
X91362Y228520D01*
X91473Y228529D01*
X91583Y228535D01*
X91694Y228537D01*
X91805Y228535D01*
X91915Y228529D01*
X92026Y228520D01*
X92136Y228506D01*
X92245Y228489D01*
X92354Y228468D01*
X92462Y228443D01*
X92569Y228414D01*
X92675Y228382D01*
X92780Y228346D01*
X92883Y228306D01*
X92985Y228263D01*
X93086Y228216D01*
X93185Y228165D01*
X93282Y228112D01*
X93376Y228055D01*
X93469Y227994D01*
X93560Y227931D01*
X93649Y227864D01*
X93735Y227794D01*
X93818Y227721D01*
X93900Y227646D01*
X93978Y227568D01*
X94053Y227486D01*
X94126Y227403D01*
X94196Y227317D01*
X94263Y227228D01*
X94326Y227137D01*
X94387Y227044D01*
X94444Y226950D01*
X94497Y226853D01*
X94548Y226754D01*
X94595Y226653D01*
X94638Y226551D01*
X94678Y226448D01*
X94714Y226343D01*
X94746Y226237D01*
X94775Y226130D01*
X94800Y226022D01*
X94821Y225913D01*
X94838Y225804D01*
X94852Y225694D01*
X94861Y225583D01*
X94867Y225473D01*
X94869Y225362D01*
X94869Y222187D01*
X96774Y233426D02*
X88519Y233426D01*
X96774Y233426D02*
X96885Y233428D01*
X96995Y233434D01*
X97106Y233443D01*
X97216Y233457D01*
X97325Y233474D01*
X97434Y233495D01*
X97542Y233520D01*
X97649Y233549D01*
X97755Y233581D01*
X97860Y233617D01*
X97963Y233657D01*
X98065Y233700D01*
X98166Y233747D01*
X98265Y233798D01*
X98361Y233851D01*
X98456Y233908D01*
X98549Y233969D01*
X98640Y234032D01*
X98729Y234099D01*
X98815Y234169D01*
X98898Y234242D01*
X98980Y234317D01*
X99058Y234395D01*
X99133Y234477D01*
X99206Y234560D01*
X99276Y234646D01*
X99343Y234735D01*
X99406Y234826D01*
X99467Y234919D01*
X99524Y235013D01*
X99577Y235110D01*
X99628Y235209D01*
X99675Y235310D01*
X99718Y235412D01*
X99758Y235515D01*
X99794Y235620D01*
X99826Y235726D01*
X99855Y235833D01*
X99880Y235941D01*
X99901Y236050D01*
X99918Y236159D01*
X99932Y236269D01*
X99941Y236380D01*
X99947Y236490D01*
X99949Y236601D01*
X99947Y236712D01*
X99941Y236822D01*
X99932Y236933D01*
X99918Y237043D01*
X99901Y237152D01*
X99880Y237261D01*
X99855Y237369D01*
X99826Y237476D01*
X99794Y237582D01*
X99758Y237687D01*
X99718Y237790D01*
X99675Y237892D01*
X99628Y237993D01*
X99577Y238092D01*
X99524Y238188D01*
X99467Y238283D01*
X99406Y238376D01*
X99343Y238467D01*
X99276Y238556D01*
X99206Y238642D01*
X99133Y238725D01*
X99058Y238807D01*
X98980Y238885D01*
X98898Y238960D01*
X98815Y239033D01*
X98729Y239103D01*
X98640Y239170D01*
X98549Y239233D01*
X98456Y239294D01*
X98362Y239351D01*
X98265Y239404D01*
X98166Y239455D01*
X98065Y239502D01*
X97963Y239545D01*
X97860Y239585D01*
X97755Y239621D01*
X97649Y239653D01*
X97542Y239682D01*
X97434Y239707D01*
X97325Y239728D01*
X97216Y239745D01*
X97106Y239759D01*
X96995Y239768D01*
X96885Y239774D01*
X96774Y239776D01*
X88519Y239776D01*
X88519Y247650D02*
X99949Y247650D01*
X88519Y244475D02*
X88519Y250825D01*
M02*
