G04 EAGLE Gerber RS-274X export*
G75*
%MOMM*%
%FSLAX34Y34*%
%LPD*%
%INTop Copper*%
%IPPOS*%
%AMOC8*
5,1,8,0,0,1.08239X$1,22.5*%
G01*
%ADD10R,1.500000X1.300000*%
%ADD11R,1.300000X1.500000*%
%ADD12C,1.422400*%
%ADD13R,1.200000X1.300000*%
%ADD14R,0.800000X0.500000*%
%ADD15R,0.350000X0.350000*%
%ADD16C,1.524000*%
%ADD17C,1.676400*%
%ADD18R,1.000000X0.220000*%
%ADD19R,0.220000X1.000000*%
%ADD20R,0.500000X3.910000*%
%ADD21R,1.800000X1.000000*%
%ADD22C,0.152400*%
%ADD23C,0.756400*%

G36*
X774720Y329442D02*
X774720Y329442D01*
X774739Y329440D01*
X774841Y329462D01*
X774943Y329479D01*
X774960Y329488D01*
X774980Y329492D01*
X775069Y329545D01*
X775160Y329594D01*
X775174Y329608D01*
X775191Y329618D01*
X775258Y329697D01*
X775330Y329772D01*
X775338Y329790D01*
X775351Y329805D01*
X775390Y329901D01*
X775433Y329995D01*
X775435Y330015D01*
X775443Y330033D01*
X775461Y330200D01*
X775461Y635000D01*
X775458Y635020D01*
X775460Y635039D01*
X775438Y635141D01*
X775422Y635243D01*
X775412Y635260D01*
X775408Y635280D01*
X775355Y635369D01*
X775306Y635460D01*
X775292Y635474D01*
X775282Y635491D01*
X775203Y635558D01*
X775128Y635630D01*
X775110Y635638D01*
X775095Y635651D01*
X774999Y635690D01*
X774905Y635733D01*
X774885Y635735D01*
X774867Y635743D01*
X774700Y635761D01*
X241300Y635761D01*
X241280Y635758D01*
X241261Y635760D01*
X241159Y635738D01*
X241057Y635722D01*
X241040Y635712D01*
X241020Y635708D01*
X240931Y635655D01*
X240840Y635606D01*
X240826Y635592D01*
X240809Y635582D01*
X240742Y635503D01*
X240671Y635428D01*
X240662Y635410D01*
X240649Y635395D01*
X240610Y635299D01*
X240567Y635205D01*
X240565Y635185D01*
X240557Y635167D01*
X240539Y635000D01*
X240539Y330200D01*
X240542Y330180D01*
X240540Y330161D01*
X240562Y330059D01*
X240579Y329957D01*
X240588Y329940D01*
X240592Y329920D01*
X240645Y329831D01*
X240694Y329740D01*
X240708Y329726D01*
X240718Y329709D01*
X240797Y329642D01*
X240872Y329571D01*
X240890Y329562D01*
X240905Y329549D01*
X241001Y329510D01*
X241095Y329467D01*
X241115Y329465D01*
X241133Y329457D01*
X241300Y329439D01*
X774700Y329439D01*
X774720Y329442D01*
G37*
%LPC*%
G36*
X510953Y446788D02*
X510953Y446788D01*
X511055Y446810D01*
X511157Y446826D01*
X511174Y446836D01*
X511194Y446840D01*
X511283Y446893D01*
X511374Y446942D01*
X511388Y446956D01*
X511405Y446966D01*
X511472Y447045D01*
X511544Y447120D01*
X511552Y447138D01*
X511565Y447153D01*
X511604Y447249D01*
X511647Y447343D01*
X511649Y447363D01*
X511657Y447381D01*
X511675Y447548D01*
X511675Y454832D01*
X512568Y455725D01*
X528832Y455725D01*
X529725Y454832D01*
X529725Y452500D01*
X529736Y452430D01*
X529738Y452358D01*
X529756Y452309D01*
X529764Y452258D01*
X529798Y452194D01*
X529823Y452127D01*
X529855Y452086D01*
X529880Y452040D01*
X529931Y451991D01*
X529976Y451935D01*
X530020Y451907D01*
X530058Y451871D01*
X530123Y451841D01*
X530183Y451802D01*
X530234Y451789D01*
X530281Y451767D01*
X530352Y451759D01*
X530422Y451742D01*
X530474Y451746D01*
X530525Y451740D01*
X530596Y451755D01*
X530667Y451761D01*
X530715Y451781D01*
X530766Y451792D01*
X530827Y451829D01*
X530893Y451857D01*
X530949Y451902D01*
X530977Y451919D01*
X530992Y451936D01*
X531024Y451962D01*
X537014Y457952D01*
X537067Y458026D01*
X537127Y458096D01*
X537139Y458126D01*
X537158Y458152D01*
X537185Y458239D01*
X537219Y458324D01*
X537223Y458365D01*
X537230Y458387D01*
X537229Y458419D01*
X537237Y458491D01*
X537237Y462446D01*
X540346Y465555D01*
X544742Y465555D01*
X545054Y465243D01*
X545112Y465201D01*
X545164Y465152D01*
X545211Y465130D01*
X545253Y465100D01*
X545322Y465078D01*
X545387Y465048D01*
X545439Y465043D01*
X545489Y465027D01*
X545560Y465029D01*
X545631Y465021D01*
X545682Y465032D01*
X545734Y465034D01*
X545802Y465058D01*
X545872Y465073D01*
X545917Y465100D01*
X545965Y465118D01*
X546021Y465163D01*
X546083Y465200D01*
X546117Y465239D01*
X546157Y465272D01*
X546196Y465332D01*
X546243Y465387D01*
X546262Y465435D01*
X546290Y465479D01*
X546308Y465548D01*
X546335Y465615D01*
X546343Y465686D01*
X546351Y465717D01*
X546349Y465740D01*
X546353Y465781D01*
X546353Y473003D01*
X546342Y473073D01*
X546340Y473145D01*
X546322Y473194D01*
X546314Y473245D01*
X546280Y473309D01*
X546255Y473376D01*
X546223Y473417D01*
X546198Y473463D01*
X546146Y473512D01*
X546102Y473568D01*
X546058Y473596D01*
X546020Y473632D01*
X545955Y473662D01*
X545895Y473701D01*
X545844Y473714D01*
X545797Y473736D01*
X545726Y473744D01*
X545656Y473761D01*
X545604Y473757D01*
X545553Y473763D01*
X545482Y473748D01*
X545411Y473742D01*
X545363Y473722D01*
X545312Y473711D01*
X545251Y473674D01*
X545185Y473646D01*
X545129Y473601D01*
X545101Y473584D01*
X545086Y473567D01*
X545054Y473541D01*
X544742Y473229D01*
X540346Y473229D01*
X537237Y476338D01*
X537237Y480294D01*
X537223Y480384D01*
X537215Y480475D01*
X537203Y480504D01*
X537198Y480536D01*
X537155Y480617D01*
X537119Y480701D01*
X537093Y480733D01*
X537082Y480754D01*
X537059Y480776D01*
X537014Y480832D01*
X534200Y483646D01*
X534126Y483699D01*
X534056Y483759D01*
X534026Y483771D01*
X534000Y483790D01*
X533913Y483817D01*
X533828Y483851D01*
X533787Y483855D01*
X533765Y483862D01*
X533733Y483861D01*
X533661Y483869D01*
X478275Y483869D01*
X478184Y483855D01*
X478094Y483847D01*
X478064Y483835D01*
X478032Y483830D01*
X477951Y483787D01*
X477867Y483751D01*
X477835Y483725D01*
X477814Y483714D01*
X477792Y483691D01*
X477736Y483646D01*
X453748Y459658D01*
X453695Y459584D01*
X453635Y459514D01*
X453623Y459484D01*
X453604Y459458D01*
X453577Y459371D01*
X453543Y459286D01*
X453539Y459245D01*
X453532Y459223D01*
X453533Y459191D01*
X453525Y459119D01*
X453525Y453268D01*
X452632Y452375D01*
X436368Y452375D01*
X435475Y453268D01*
X435475Y467643D01*
X435461Y467733D01*
X435453Y467824D01*
X435441Y467853D01*
X435436Y467885D01*
X435393Y467966D01*
X435357Y468050D01*
X435331Y468082D01*
X435320Y468103D01*
X435297Y468125D01*
X435252Y468181D01*
X423943Y479490D01*
X423869Y479543D01*
X423799Y479603D01*
X423769Y479615D01*
X423743Y479634D01*
X423656Y479661D01*
X423571Y479695D01*
X423530Y479699D01*
X423508Y479706D01*
X423476Y479705D01*
X423405Y479713D01*
X413586Y479713D01*
X413566Y479710D01*
X413547Y479712D01*
X413445Y479690D01*
X413343Y479674D01*
X413326Y479664D01*
X413306Y479660D01*
X413217Y479607D01*
X413126Y479558D01*
X413112Y479544D01*
X413095Y479534D01*
X413028Y479455D01*
X412956Y479380D01*
X412948Y479362D01*
X412935Y479347D01*
X412896Y479251D01*
X412853Y479157D01*
X412851Y479137D01*
X412843Y479119D01*
X412825Y478952D01*
X412825Y461818D01*
X411932Y460925D01*
X405668Y460925D01*
X404775Y461818D01*
X404775Y502182D01*
X405668Y503075D01*
X411932Y503075D01*
X412825Y502182D01*
X412825Y485048D01*
X412828Y485028D01*
X412826Y485009D01*
X412848Y484907D01*
X412864Y484805D01*
X412874Y484788D01*
X412878Y484768D01*
X412931Y484679D01*
X412980Y484588D01*
X412994Y484574D01*
X413004Y484557D01*
X413083Y484490D01*
X413158Y484418D01*
X413176Y484410D01*
X413191Y484397D01*
X413287Y484358D01*
X413381Y484315D01*
X413401Y484313D01*
X413419Y484305D01*
X413586Y484287D01*
X425614Y484287D01*
X433160Y476741D01*
X433218Y476699D01*
X433270Y476650D01*
X433317Y476628D01*
X433359Y476598D01*
X433428Y476577D01*
X433493Y476546D01*
X433545Y476541D01*
X433595Y476525D01*
X433666Y476527D01*
X433737Y476519D01*
X433788Y476530D01*
X433840Y476532D01*
X433908Y476556D01*
X433978Y476572D01*
X434023Y476598D01*
X434071Y476616D01*
X434127Y476661D01*
X434189Y476698D01*
X434223Y476737D01*
X434263Y476770D01*
X434302Y476830D01*
X434349Y476885D01*
X434368Y476933D01*
X434396Y476977D01*
X434414Y477046D01*
X434441Y477113D01*
X434449Y477184D01*
X434457Y477215D01*
X434455Y477239D01*
X434459Y477280D01*
X434459Y477877D01*
X443738Y477877D01*
X443758Y477880D01*
X443777Y477878D01*
X443879Y477900D01*
X443981Y477917D01*
X443998Y477926D01*
X444018Y477930D01*
X444107Y477983D01*
X444198Y478032D01*
X444212Y478046D01*
X444229Y478056D01*
X444296Y478135D01*
X444367Y478210D01*
X444376Y478228D01*
X444389Y478243D01*
X444428Y478339D01*
X444471Y478433D01*
X444473Y478453D01*
X444481Y478471D01*
X444499Y478638D01*
X444499Y479401D01*
X444501Y479401D01*
X444501Y478638D01*
X444504Y478621D01*
X444502Y478604D01*
X444502Y478602D01*
X444502Y478599D01*
X444524Y478497D01*
X444541Y478395D01*
X444550Y478378D01*
X444554Y478358D01*
X444607Y478269D01*
X444656Y478178D01*
X444670Y478164D01*
X444680Y478147D01*
X444759Y478080D01*
X444834Y478009D01*
X444852Y478000D01*
X444867Y477987D01*
X444963Y477948D01*
X445057Y477905D01*
X445077Y477903D01*
X445095Y477895D01*
X445262Y477877D01*
X454541Y477877D01*
X454541Y472566D01*
X454368Y471919D01*
X454033Y471340D01*
X453560Y470867D01*
X452981Y470532D01*
X452334Y470359D01*
X448056Y470359D01*
X448036Y470356D01*
X448017Y470358D01*
X447915Y470336D01*
X447813Y470320D01*
X447796Y470310D01*
X447776Y470306D01*
X447687Y470253D01*
X447596Y470204D01*
X447582Y470190D01*
X447565Y470180D01*
X447498Y470101D01*
X447426Y470026D01*
X447418Y470008D01*
X447405Y469993D01*
X447366Y469897D01*
X447323Y469803D01*
X447321Y469783D01*
X447313Y469765D01*
X447295Y469598D01*
X447295Y469186D01*
X447298Y469166D01*
X447296Y469147D01*
X447318Y469045D01*
X447334Y468943D01*
X447344Y468926D01*
X447348Y468906D01*
X447401Y468817D01*
X447450Y468726D01*
X447464Y468712D01*
X447474Y468695D01*
X447553Y468628D01*
X447628Y468556D01*
X447646Y468548D01*
X447661Y468535D01*
X447757Y468496D01*
X447851Y468453D01*
X447871Y468451D01*
X447889Y468443D01*
X448056Y468425D01*
X452632Y468425D01*
X453571Y467485D01*
X453598Y467434D01*
X453623Y467367D01*
X453655Y467326D01*
X453673Y467294D01*
X453680Y467280D01*
X453731Y467231D01*
X453776Y467175D01*
X453820Y467147D01*
X453858Y467111D01*
X453923Y467081D01*
X453983Y467042D01*
X454034Y467029D01*
X454081Y467007D01*
X454152Y466999D01*
X454222Y466982D01*
X454274Y466986D01*
X454325Y466980D01*
X454396Y466995D01*
X454467Y467001D01*
X454515Y467021D01*
X454566Y467032D01*
X454627Y467069D01*
X454693Y467097D01*
X454749Y467142D01*
X454777Y467159D01*
X454792Y467176D01*
X454824Y467202D01*
X476065Y488443D01*
X533662Y488443D01*
X533732Y488454D01*
X533804Y488456D01*
X533853Y488474D01*
X533904Y488482D01*
X533968Y488516D01*
X534035Y488541D01*
X534076Y488573D01*
X534122Y488598D01*
X534171Y488650D01*
X534227Y488694D01*
X534255Y488738D01*
X534291Y488776D01*
X534321Y488841D01*
X534360Y488901D01*
X534373Y488952D01*
X534395Y488999D01*
X534403Y489070D01*
X534420Y489140D01*
X534416Y489192D01*
X534422Y489243D01*
X534407Y489314D01*
X534401Y489385D01*
X534381Y489433D01*
X534370Y489484D01*
X534333Y489545D01*
X534305Y489611D01*
X534260Y489667D01*
X534243Y489695D01*
X534226Y489710D01*
X534200Y489742D01*
X514388Y509554D01*
X514314Y509607D01*
X514244Y509667D01*
X514214Y509679D01*
X514188Y509698D01*
X514101Y509725D01*
X514016Y509759D01*
X513975Y509763D01*
X513953Y509770D01*
X513921Y509769D01*
X513849Y509777D01*
X419677Y509777D01*
X409232Y520222D01*
X409158Y520275D01*
X409088Y520335D01*
X409058Y520347D01*
X409032Y520366D01*
X408945Y520393D01*
X408860Y520427D01*
X408819Y520431D01*
X408797Y520438D01*
X408765Y520437D01*
X408693Y520445D01*
X390786Y520445D01*
X390766Y520442D01*
X390747Y520444D01*
X390645Y520422D01*
X390543Y520406D01*
X390526Y520396D01*
X390506Y520392D01*
X390417Y520339D01*
X390326Y520290D01*
X390312Y520276D01*
X390295Y520266D01*
X390228Y520187D01*
X390156Y520112D01*
X390148Y520094D01*
X390135Y520079D01*
X390096Y519983D01*
X390053Y519889D01*
X390051Y519869D01*
X390043Y519851D01*
X390025Y519684D01*
X390025Y516768D01*
X389132Y515875D01*
X372868Y515875D01*
X371975Y516768D01*
X371975Y531032D01*
X372868Y531925D01*
X389132Y531925D01*
X390025Y531032D01*
X390025Y525780D01*
X390028Y525760D01*
X390026Y525741D01*
X390048Y525639D01*
X390064Y525537D01*
X390074Y525520D01*
X390078Y525500D01*
X390131Y525411D01*
X390180Y525320D01*
X390194Y525306D01*
X390204Y525289D01*
X390283Y525222D01*
X390358Y525150D01*
X390376Y525142D01*
X390391Y525129D01*
X390487Y525090D01*
X390581Y525047D01*
X390601Y525045D01*
X390619Y525037D01*
X390786Y525019D01*
X410903Y525019D01*
X412276Y523646D01*
X412334Y523604D01*
X412386Y523555D01*
X412433Y523533D01*
X412475Y523503D01*
X412544Y523482D01*
X412609Y523451D01*
X412661Y523446D01*
X412711Y523430D01*
X412782Y523432D01*
X412853Y523424D01*
X412904Y523435D01*
X412956Y523437D01*
X413024Y523461D01*
X413094Y523476D01*
X413139Y523503D01*
X413187Y523521D01*
X413243Y523566D01*
X413305Y523603D01*
X413339Y523642D01*
X413379Y523675D01*
X413418Y523735D01*
X413465Y523790D01*
X413484Y523838D01*
X413512Y523882D01*
X413530Y523951D01*
X413557Y524018D01*
X413565Y524089D01*
X413573Y524120D01*
X413571Y524144D01*
X413575Y524184D01*
X413575Y527782D01*
X414468Y528675D01*
X415064Y528675D01*
X415084Y528678D01*
X415103Y528676D01*
X415205Y528698D01*
X415307Y528714D01*
X415324Y528724D01*
X415344Y528728D01*
X415433Y528781D01*
X415524Y528830D01*
X415538Y528844D01*
X415555Y528854D01*
X415622Y528933D01*
X415694Y529008D01*
X415702Y529026D01*
X415715Y529041D01*
X415754Y529137D01*
X415797Y529231D01*
X415799Y529251D01*
X415807Y529269D01*
X415825Y529436D01*
X415825Y530782D01*
X416718Y531675D01*
X421482Y531675D01*
X422375Y530782D01*
X422375Y529436D01*
X422378Y529416D01*
X422376Y529397D01*
X422398Y529295D01*
X422414Y529193D01*
X422424Y529176D01*
X422428Y529156D01*
X422481Y529067D01*
X422530Y528976D01*
X422544Y528962D01*
X422554Y528945D01*
X422633Y528878D01*
X422708Y528806D01*
X422726Y528798D01*
X422741Y528785D01*
X422837Y528746D01*
X422931Y528703D01*
X422951Y528701D01*
X422969Y528693D01*
X423136Y528675D01*
X423732Y528675D01*
X424625Y527782D01*
X424625Y521518D01*
X423732Y520625D01*
X417134Y520625D01*
X417064Y520614D01*
X416992Y520612D01*
X416943Y520594D01*
X416892Y520586D01*
X416828Y520552D01*
X416761Y520527D01*
X416720Y520495D01*
X416674Y520470D01*
X416625Y520418D01*
X416569Y520374D01*
X416541Y520330D01*
X416505Y520292D01*
X416475Y520227D01*
X416436Y520167D01*
X416423Y520116D01*
X416401Y520069D01*
X416393Y519998D01*
X416376Y519928D01*
X416380Y519876D01*
X416374Y519825D01*
X416389Y519754D01*
X416395Y519683D01*
X416415Y519635D01*
X416426Y519584D01*
X416463Y519523D01*
X416491Y519457D01*
X416536Y519401D01*
X416553Y519373D01*
X416570Y519358D01*
X416596Y519326D01*
X421348Y514574D01*
X421422Y514521D01*
X421492Y514461D01*
X421522Y514449D01*
X421548Y514430D01*
X421635Y514403D01*
X421720Y514369D01*
X421761Y514365D01*
X421783Y514358D01*
X421815Y514359D01*
X421887Y514351D01*
X516059Y514351D01*
X526260Y504150D01*
X526318Y504108D01*
X526370Y504059D01*
X526417Y504037D01*
X526459Y504007D01*
X526528Y503986D01*
X526593Y503955D01*
X526645Y503950D01*
X526695Y503934D01*
X526766Y503936D01*
X526837Y503928D01*
X526888Y503939D01*
X526940Y503941D01*
X527008Y503965D01*
X527078Y503980D01*
X527123Y504007D01*
X527171Y504025D01*
X527227Y504070D01*
X527289Y504107D01*
X527323Y504146D01*
X527363Y504179D01*
X527402Y504239D01*
X527449Y504294D01*
X527468Y504342D01*
X527496Y504386D01*
X527514Y504455D01*
X527541Y504522D01*
X527549Y504593D01*
X527557Y504624D01*
X527555Y504648D01*
X527559Y504688D01*
X527559Y506477D01*
X535077Y506477D01*
X535077Y497959D01*
X534288Y497959D01*
X534218Y497948D01*
X534146Y497946D01*
X534097Y497928D01*
X534046Y497920D01*
X533982Y497886D01*
X533915Y497861D01*
X533874Y497829D01*
X533828Y497804D01*
X533779Y497752D01*
X533723Y497708D01*
X533695Y497664D01*
X533659Y497626D01*
X533629Y497561D01*
X533590Y497501D01*
X533577Y497450D01*
X533555Y497403D01*
X533547Y497332D01*
X533530Y497262D01*
X533534Y497210D01*
X533528Y497159D01*
X533543Y497088D01*
X533549Y497017D01*
X533569Y496969D01*
X533580Y496918D01*
X533617Y496857D01*
X533645Y496791D01*
X533690Y496735D01*
X533707Y496707D01*
X533724Y496692D01*
X533750Y496660D01*
X543268Y487142D01*
X543342Y487089D01*
X543412Y487029D01*
X543442Y487017D01*
X543468Y486998D01*
X543555Y486971D01*
X543640Y486937D01*
X543681Y486933D01*
X543703Y486926D01*
X543735Y486927D01*
X543807Y486919D01*
X546539Y486919D01*
X550927Y482531D01*
X550927Y459685D01*
X550938Y459615D01*
X550940Y459543D01*
X550958Y459494D01*
X550966Y459443D01*
X551000Y459379D01*
X551025Y459312D01*
X551057Y459271D01*
X551082Y459225D01*
X551134Y459176D01*
X551178Y459120D01*
X551222Y459092D01*
X551260Y459056D01*
X551325Y459026D01*
X551385Y458987D01*
X551436Y458974D01*
X551483Y458952D01*
X551554Y458944D01*
X551624Y458927D01*
X551676Y458931D01*
X551727Y458925D01*
X551798Y458940D01*
X551869Y458946D01*
X551917Y458966D01*
X551968Y458977D01*
X552029Y459014D01*
X552095Y459042D01*
X552151Y459087D01*
X552179Y459104D01*
X552194Y459121D01*
X552226Y459147D01*
X552538Y459459D01*
X555026Y459459D01*
X555096Y459470D01*
X555168Y459472D01*
X555217Y459490D01*
X555268Y459498D01*
X555332Y459532D01*
X555399Y459557D01*
X555440Y459589D01*
X555486Y459614D01*
X555535Y459665D01*
X555591Y459710D01*
X555619Y459754D01*
X555655Y459792D01*
X555685Y459857D01*
X555724Y459917D01*
X555737Y459968D01*
X555759Y460015D01*
X555767Y460086D01*
X555784Y460156D01*
X555780Y460208D01*
X555786Y460259D01*
X555771Y460330D01*
X555765Y460401D01*
X555745Y460449D01*
X555734Y460500D01*
X555697Y460561D01*
X555669Y460627D01*
X555624Y460683D01*
X555607Y460711D01*
X555590Y460726D01*
X555564Y460758D01*
X555497Y460825D01*
X555497Y468431D01*
X555483Y468521D01*
X555475Y468612D01*
X555463Y468641D01*
X555458Y468673D01*
X555415Y468754D01*
X555379Y468838D01*
X555353Y468870D01*
X555342Y468891D01*
X555319Y468913D01*
X555274Y468969D01*
X552477Y471766D01*
X552477Y476162D01*
X555586Y479271D01*
X559982Y479271D01*
X563091Y476162D01*
X563091Y472286D01*
X563094Y472266D01*
X563092Y472247D01*
X563114Y472145D01*
X563130Y472043D01*
X563140Y472026D01*
X563144Y472006D01*
X563197Y471917D01*
X563246Y471826D01*
X563260Y471812D01*
X563270Y471795D01*
X563349Y471728D01*
X563424Y471656D01*
X563442Y471648D01*
X563457Y471635D01*
X563553Y471596D01*
X563647Y471553D01*
X563667Y471551D01*
X563685Y471543D01*
X563852Y471525D01*
X571500Y471525D01*
X571520Y471528D01*
X571539Y471526D01*
X571641Y471548D01*
X571743Y471564D01*
X571760Y471574D01*
X571780Y471578D01*
X571869Y471631D01*
X571960Y471680D01*
X571974Y471694D01*
X571991Y471704D01*
X572058Y471783D01*
X572130Y471858D01*
X572138Y471876D01*
X572151Y471891D01*
X572190Y471987D01*
X572233Y472081D01*
X572235Y472101D01*
X572243Y472119D01*
X572261Y472286D01*
X572261Y537395D01*
X588011Y553145D01*
X588078Y553239D01*
X588149Y553333D01*
X588151Y553339D01*
X588154Y553345D01*
X588189Y553455D01*
X588225Y553567D01*
X588225Y553574D01*
X588227Y553580D01*
X588224Y553696D01*
X588223Y553813D01*
X588221Y553820D01*
X588220Y553825D01*
X588214Y553843D01*
X588176Y553974D01*
X586993Y556829D01*
X586993Y560771D01*
X588501Y564412D01*
X591288Y567199D01*
X594929Y568707D01*
X598871Y568707D01*
X602512Y567199D01*
X605299Y564412D01*
X606807Y560771D01*
X606807Y556829D01*
X605299Y553188D01*
X602512Y550401D01*
X598871Y548893D01*
X594929Y548893D01*
X592074Y550076D01*
X591961Y550103D01*
X591847Y550131D01*
X591841Y550131D01*
X591835Y550132D01*
X591718Y550121D01*
X591602Y550112D01*
X591596Y550110D01*
X591590Y550109D01*
X591482Y550061D01*
X591376Y550016D01*
X591370Y550011D01*
X591365Y550009D01*
X591352Y549996D01*
X591245Y549911D01*
X577058Y535724D01*
X577005Y535650D01*
X576945Y535580D01*
X576933Y535550D01*
X576914Y535524D01*
X576887Y535437D01*
X576853Y535352D01*
X576849Y535311D01*
X576842Y535289D01*
X576843Y535257D01*
X576835Y535185D01*
X576835Y502658D01*
X576846Y502588D01*
X576848Y502516D01*
X576866Y502467D01*
X576874Y502416D01*
X576908Y502352D01*
X576933Y502285D01*
X576965Y502244D01*
X576990Y502198D01*
X577041Y502149D01*
X577086Y502093D01*
X577130Y502065D01*
X577168Y502029D01*
X577233Y501999D01*
X577293Y501960D01*
X577344Y501947D01*
X577391Y501925D01*
X577462Y501917D01*
X577532Y501900D01*
X577584Y501904D01*
X577635Y501898D01*
X577706Y501913D01*
X577777Y501919D01*
X577825Y501939D01*
X577876Y501950D01*
X577937Y501987D01*
X578003Y502015D01*
X578059Y502060D01*
X578087Y502077D01*
X578102Y502094D01*
X578134Y502120D01*
X579152Y503138D01*
X579205Y503212D01*
X579265Y503282D01*
X579277Y503312D01*
X579296Y503338D01*
X579323Y503425D01*
X579357Y503510D01*
X579361Y503551D01*
X579368Y503573D01*
X579367Y503605D01*
X579375Y503676D01*
X579375Y516132D01*
X580268Y517025D01*
X594532Y517025D01*
X595425Y516132D01*
X595425Y499868D01*
X594532Y498975D01*
X582168Y498975D01*
X582148Y498972D01*
X582129Y498974D01*
X582027Y498952D01*
X581925Y498936D01*
X581908Y498926D01*
X581888Y498922D01*
X581799Y498869D01*
X581708Y498820D01*
X581694Y498806D01*
X581677Y498796D01*
X581610Y498717D01*
X581538Y498642D01*
X581530Y498624D01*
X581517Y498609D01*
X581478Y498513D01*
X581435Y498419D01*
X581433Y498399D01*
X581425Y498381D01*
X581407Y498214D01*
X581407Y489622D01*
X581426Y489506D01*
X581444Y489387D01*
X581446Y489384D01*
X581446Y489380D01*
X581502Y489274D01*
X581557Y489169D01*
X581560Y489166D01*
X581562Y489162D01*
X581648Y489080D01*
X581733Y488997D01*
X581737Y488996D01*
X581740Y488993D01*
X581848Y488942D01*
X581955Y488891D01*
X581959Y488891D01*
X581963Y488889D01*
X582082Y488876D01*
X582199Y488862D01*
X582204Y488862D01*
X582207Y488862D01*
X582221Y488865D01*
X582365Y488887D01*
X582565Y488941D01*
X583239Y488941D01*
X583239Y481400D01*
X583242Y481381D01*
X583240Y481361D01*
X583262Y481260D01*
X583278Y481158D01*
X583288Y481140D01*
X583292Y481121D01*
X583345Y481031D01*
X583393Y480940D01*
X583408Y480927D01*
X583418Y480909D01*
X583497Y480842D01*
X583572Y480771D01*
X583590Y480762D01*
X583605Y480749D01*
X583701Y480711D01*
X583795Y480667D01*
X583815Y480665D01*
X583833Y480658D01*
X584000Y480639D01*
X584020Y480642D01*
X584039Y480640D01*
X584040Y480640D01*
X584141Y480662D01*
X584243Y480679D01*
X584260Y480688D01*
X584280Y480692D01*
X584369Y480746D01*
X584460Y480794D01*
X584474Y480808D01*
X584491Y480819D01*
X584558Y480897D01*
X584630Y480972D01*
X584638Y480990D01*
X584651Y481005D01*
X584690Y481102D01*
X584733Y481195D01*
X584735Y481215D01*
X584743Y481234D01*
X584761Y481400D01*
X584761Y488941D01*
X585435Y488941D01*
X586081Y488768D01*
X586660Y488433D01*
X586945Y488148D01*
X587019Y488095D01*
X587089Y488035D01*
X587119Y488023D01*
X587145Y488004D01*
X587232Y487977D01*
X587317Y487943D01*
X587358Y487939D01*
X587380Y487932D01*
X587412Y487933D01*
X587484Y487925D01*
X590732Y487925D01*
X590962Y487695D01*
X590978Y487683D01*
X590990Y487667D01*
X591078Y487611D01*
X591161Y487551D01*
X591180Y487545D01*
X591197Y487534D01*
X591298Y487509D01*
X591397Y487479D01*
X591417Y487479D01*
X591436Y487474D01*
X591539Y487482D01*
X591642Y487485D01*
X591661Y487492D01*
X591681Y487493D01*
X591776Y487534D01*
X591873Y487569D01*
X591889Y487582D01*
X591907Y487590D01*
X592038Y487695D01*
X592268Y487925D01*
X595516Y487925D01*
X595606Y487939D01*
X595697Y487947D01*
X595727Y487959D01*
X595759Y487964D01*
X595840Y488007D01*
X595924Y488043D01*
X595956Y488069D01*
X595976Y488080D01*
X595999Y488103D01*
X596055Y488148D01*
X596340Y488433D01*
X596919Y488768D01*
X597566Y488941D01*
X598239Y488941D01*
X598239Y481400D01*
X598239Y473859D01*
X597566Y473859D01*
X596919Y474032D01*
X596340Y474367D01*
X596055Y474652D01*
X595981Y474705D01*
X595911Y474765D01*
X595881Y474777D01*
X595855Y474796D01*
X595768Y474823D01*
X595683Y474857D01*
X595642Y474861D01*
X595620Y474868D01*
X595588Y474867D01*
X595516Y474875D01*
X592268Y474875D01*
X592038Y475105D01*
X592022Y475117D01*
X592010Y475133D01*
X591923Y475189D01*
X591839Y475249D01*
X591820Y475255D01*
X591803Y475266D01*
X591702Y475291D01*
X591604Y475321D01*
X591584Y475321D01*
X591564Y475326D01*
X591461Y475318D01*
X591358Y475315D01*
X591339Y475308D01*
X591319Y475307D01*
X591224Y475266D01*
X591127Y475231D01*
X591111Y475218D01*
X591093Y475210D01*
X590962Y475105D01*
X590732Y474875D01*
X587484Y474875D01*
X587394Y474861D01*
X587303Y474853D01*
X587273Y474841D01*
X587241Y474836D01*
X587160Y474793D01*
X587076Y474757D01*
X587044Y474731D01*
X587024Y474720D01*
X587001Y474697D01*
X586945Y474652D01*
X586660Y474367D01*
X586081Y474032D01*
X585563Y473894D01*
X585476Y473855D01*
X585387Y473822D01*
X585365Y473804D01*
X585339Y473793D01*
X585269Y473728D01*
X585195Y473668D01*
X585179Y473644D01*
X585159Y473625D01*
X585113Y473541D01*
X585062Y473461D01*
X585055Y473434D01*
X585041Y473409D01*
X585025Y473315D01*
X585002Y473223D01*
X585004Y473195D01*
X584999Y473167D01*
X585013Y473072D01*
X585021Y472977D01*
X585032Y472952D01*
X585036Y472924D01*
X585080Y472838D01*
X585117Y472751D01*
X585139Y472724D01*
X585149Y472705D01*
X585172Y472682D01*
X585222Y472620D01*
X585940Y471902D01*
X586014Y471849D01*
X586084Y471789D01*
X586114Y471777D01*
X586140Y471758D01*
X586227Y471731D01*
X586312Y471697D01*
X586353Y471693D01*
X586375Y471686D01*
X586407Y471687D01*
X586479Y471679D01*
X645263Y471679D01*
X645277Y471681D01*
X645291Y471679D01*
X645398Y471701D01*
X645505Y471718D01*
X645518Y471725D01*
X645532Y471728D01*
X645681Y471804D01*
X645709Y471823D01*
X646333Y471694D01*
X646353Y471694D01*
X646487Y471679D01*
X647147Y471679D01*
X647198Y471635D01*
X647228Y471623D01*
X647254Y471604D01*
X647341Y471577D01*
X647426Y471543D01*
X647467Y471539D01*
X647489Y471532D01*
X647521Y471533D01*
X647593Y471525D01*
X652132Y471525D01*
X653025Y470632D01*
X653025Y467384D01*
X653039Y467294D01*
X653047Y467203D01*
X653059Y467173D01*
X653064Y467141D01*
X653107Y467060D01*
X653143Y466976D01*
X653169Y466944D01*
X653180Y466924D01*
X653203Y466901D01*
X653248Y466845D01*
X653533Y466560D01*
X653868Y465981D01*
X654041Y465334D01*
X654041Y464661D01*
X646500Y464661D01*
X638959Y464661D01*
X638959Y465334D01*
X639141Y466012D01*
X639156Y466052D01*
X639196Y466139D01*
X639199Y466167D01*
X639209Y466193D01*
X639213Y466289D01*
X639223Y466383D01*
X639217Y466411D01*
X639219Y466439D01*
X639191Y466531D01*
X639171Y466624D01*
X639157Y466648D01*
X639149Y466675D01*
X639094Y466753D01*
X639045Y466835D01*
X639024Y466853D01*
X639007Y466876D01*
X638931Y466933D01*
X638858Y466995D01*
X638832Y467005D01*
X638809Y467022D01*
X638719Y467051D01*
X638630Y467087D01*
X638595Y467091D01*
X638575Y467097D01*
X638542Y467097D01*
X638463Y467105D01*
X624840Y467105D01*
X624820Y467102D01*
X624801Y467104D01*
X624699Y467082D01*
X624597Y467066D01*
X624580Y467056D01*
X624560Y467052D01*
X624471Y466999D01*
X624380Y466950D01*
X624366Y466936D01*
X624349Y466926D01*
X624282Y466847D01*
X624210Y466772D01*
X624202Y466754D01*
X624189Y466739D01*
X624150Y466643D01*
X624107Y466549D01*
X624105Y466529D01*
X624097Y466511D01*
X624079Y466344D01*
X624079Y453589D01*
X624093Y453499D01*
X624101Y453408D01*
X624113Y453379D01*
X624118Y453347D01*
X624161Y453266D01*
X624197Y453182D01*
X624223Y453150D01*
X624234Y453129D01*
X624257Y453107D01*
X624302Y453051D01*
X627099Y450254D01*
X627099Y449290D01*
X627110Y449220D01*
X627112Y449148D01*
X627130Y449099D01*
X627138Y449048D01*
X627172Y448984D01*
X627197Y448917D01*
X627229Y448876D01*
X627254Y448830D01*
X627306Y448781D01*
X627350Y448725D01*
X627394Y448697D01*
X627432Y448661D01*
X627497Y448631D01*
X627557Y448592D01*
X627608Y448579D01*
X627655Y448557D01*
X627726Y448549D01*
X627796Y448532D01*
X627848Y448536D01*
X627899Y448530D01*
X627970Y448545D01*
X628041Y448551D01*
X628089Y448571D01*
X628140Y448582D01*
X628201Y448619D01*
X628267Y448647D01*
X628323Y448692D01*
X628351Y448709D01*
X628366Y448726D01*
X628398Y448752D01*
X639094Y459448D01*
X639638Y459992D01*
X639650Y460008D01*
X639665Y460021D01*
X639721Y460108D01*
X639782Y460192D01*
X639788Y460211D01*
X639798Y460228D01*
X639824Y460328D01*
X639854Y460427D01*
X639854Y460447D01*
X639858Y460466D01*
X639850Y460569D01*
X639848Y460673D01*
X639841Y460692D01*
X639839Y460711D01*
X639799Y460807D01*
X639763Y460904D01*
X639751Y460919D01*
X639743Y460938D01*
X639638Y461069D01*
X639467Y461240D01*
X639132Y461819D01*
X638959Y462466D01*
X638959Y463139D01*
X646500Y463139D01*
X654041Y463139D01*
X654041Y462466D01*
X653908Y461969D01*
X653896Y461850D01*
X653883Y461733D01*
X653884Y461728D01*
X653883Y461724D01*
X653910Y461609D01*
X653935Y461492D01*
X653937Y461489D01*
X653938Y461485D01*
X654000Y461383D01*
X654061Y461281D01*
X654064Y461278D01*
X654067Y461275D01*
X654158Y461198D01*
X654248Y461121D01*
X654252Y461120D01*
X654255Y461117D01*
X654365Y461074D01*
X654476Y461029D01*
X654481Y461029D01*
X654484Y461027D01*
X654498Y461027D01*
X654643Y461011D01*
X657791Y461011D01*
X661760Y457042D01*
X661818Y457000D01*
X661870Y456951D01*
X661917Y456929D01*
X661959Y456899D01*
X662028Y456878D01*
X662093Y456847D01*
X662145Y456842D01*
X662195Y456826D01*
X662266Y456828D01*
X662337Y456820D01*
X662388Y456831D01*
X662440Y456833D01*
X662508Y456857D01*
X662578Y456872D01*
X662623Y456899D01*
X662671Y456917D01*
X662727Y456962D01*
X662789Y456999D01*
X662823Y457038D01*
X662863Y457071D01*
X662902Y457131D01*
X662949Y457186D01*
X662968Y457234D01*
X662996Y457278D01*
X663014Y457347D01*
X663041Y457414D01*
X663049Y457485D01*
X663057Y457516D01*
X663055Y457540D01*
X663059Y457580D01*
X663059Y458877D01*
X671577Y458877D01*
X671577Y451359D01*
X669280Y451359D01*
X669210Y451348D01*
X669138Y451346D01*
X669089Y451328D01*
X669038Y451320D01*
X668974Y451286D01*
X668907Y451261D01*
X668866Y451229D01*
X668820Y451204D01*
X668771Y451152D01*
X668715Y451108D01*
X668687Y451064D01*
X668651Y451026D01*
X668621Y450961D01*
X668582Y450901D01*
X668569Y450850D01*
X668547Y450803D01*
X668539Y450732D01*
X668522Y450662D01*
X668526Y450610D01*
X668520Y450559D01*
X668535Y450488D01*
X668541Y450417D01*
X668561Y450369D01*
X668572Y450318D01*
X668609Y450257D01*
X668637Y450191D01*
X668682Y450135D01*
X668699Y450107D01*
X668716Y450092D01*
X668742Y450060D01*
X714334Y404468D01*
X714408Y404415D01*
X714478Y404355D01*
X714508Y404343D01*
X714534Y404324D01*
X714621Y404297D01*
X714706Y404263D01*
X714747Y404259D01*
X714769Y404252D01*
X714801Y404253D01*
X714873Y404245D01*
X733339Y404245D01*
X736700Y402853D01*
X738602Y400951D01*
X738660Y400909D01*
X738712Y400860D01*
X738759Y400838D01*
X738801Y400807D01*
X738870Y400786D01*
X738935Y400756D01*
X738987Y400750D01*
X739037Y400735D01*
X739108Y400737D01*
X739179Y400729D01*
X739230Y400740D01*
X739282Y400741D01*
X739350Y400766D01*
X739420Y400781D01*
X739465Y400808D01*
X739513Y400826D01*
X739569Y400871D01*
X739631Y400907D01*
X739665Y400947D01*
X739705Y400979D01*
X739744Y401040D01*
X739791Y401094D01*
X739810Y401143D01*
X739838Y401186D01*
X739856Y401256D01*
X739883Y401322D01*
X739891Y401394D01*
X739899Y401425D01*
X739897Y401448D01*
X739901Y401489D01*
X739901Y412274D01*
X739890Y412345D01*
X739888Y412416D01*
X739870Y412465D01*
X739862Y412517D01*
X739828Y412580D01*
X739803Y412647D01*
X739771Y412688D01*
X739746Y412734D01*
X739694Y412784D01*
X739650Y412839D01*
X739606Y412868D01*
X739568Y412904D01*
X739503Y412934D01*
X739443Y412972D01*
X739392Y412985D01*
X739345Y413007D01*
X739274Y413015D01*
X739204Y413033D01*
X739152Y413028D01*
X739101Y413034D01*
X739030Y413019D01*
X738959Y413013D01*
X738911Y412993D01*
X738860Y412982D01*
X738799Y412945D01*
X738733Y412917D01*
X738677Y412872D01*
X738649Y412856D01*
X738634Y412838D01*
X738602Y412812D01*
X738139Y412350D01*
X736845Y411410D01*
X735420Y410684D01*
X733899Y410189D01*
X732320Y409939D01*
X725423Y409939D01*
X725423Y419338D01*
X725420Y419358D01*
X725422Y419377D01*
X725400Y419479D01*
X725383Y419581D01*
X725374Y419598D01*
X725370Y419618D01*
X725317Y419707D01*
X725268Y419798D01*
X725254Y419812D01*
X725244Y419829D01*
X725165Y419896D01*
X725090Y419967D01*
X725072Y419976D01*
X725057Y419989D01*
X724961Y420027D01*
X724867Y420071D01*
X724847Y420073D01*
X724829Y420081D01*
X724662Y420099D01*
X723899Y420099D01*
X723899Y420101D01*
X724662Y420101D01*
X724682Y420104D01*
X724701Y420102D01*
X724803Y420124D01*
X724905Y420141D01*
X724922Y420150D01*
X724942Y420154D01*
X725031Y420207D01*
X725122Y420256D01*
X725136Y420270D01*
X725153Y420280D01*
X725220Y420359D01*
X725291Y420434D01*
X725300Y420452D01*
X725313Y420467D01*
X725352Y420563D01*
X725395Y420657D01*
X725397Y420677D01*
X725405Y420695D01*
X725423Y420862D01*
X725423Y430261D01*
X732320Y430261D01*
X733899Y430011D01*
X735420Y429516D01*
X736845Y428790D01*
X738139Y427850D01*
X738602Y427388D01*
X738660Y427346D01*
X738712Y427296D01*
X738759Y427275D01*
X738801Y427244D01*
X738870Y427223D01*
X738935Y427193D01*
X738987Y427187D01*
X739037Y427172D01*
X739108Y427174D01*
X739179Y427166D01*
X739230Y427177D01*
X739282Y427178D01*
X739350Y427203D01*
X739420Y427218D01*
X739465Y427245D01*
X739513Y427263D01*
X739569Y427307D01*
X739631Y427344D01*
X739665Y427384D01*
X739705Y427416D01*
X739744Y427477D01*
X739791Y427531D01*
X739810Y427580D01*
X739838Y427623D01*
X739856Y427693D01*
X739883Y427759D01*
X739891Y427831D01*
X739899Y427862D01*
X739897Y427885D01*
X739901Y427926D01*
X739901Y438711D01*
X739890Y438782D01*
X739888Y438853D01*
X739870Y438902D01*
X739862Y438954D01*
X739828Y439017D01*
X739803Y439084D01*
X739771Y439125D01*
X739746Y439171D01*
X739694Y439220D01*
X739650Y439276D01*
X739606Y439305D01*
X739568Y439340D01*
X739503Y439371D01*
X739443Y439409D01*
X739392Y439422D01*
X739345Y439444D01*
X739274Y439452D01*
X739204Y439469D01*
X739152Y439465D01*
X739101Y439471D01*
X739030Y439456D01*
X738959Y439450D01*
X738911Y439430D01*
X738860Y439419D01*
X738799Y439382D01*
X738733Y439354D01*
X738677Y439309D01*
X738649Y439293D01*
X738634Y439275D01*
X738602Y439249D01*
X736700Y437347D01*
X733339Y435955D01*
X714461Y435955D01*
X711100Y437347D01*
X708527Y439920D01*
X707135Y443281D01*
X707135Y446919D01*
X708527Y450280D01*
X710660Y452413D01*
X710672Y452429D01*
X710688Y452442D01*
X710744Y452529D01*
X710804Y452613D01*
X710810Y452632D01*
X710821Y452649D01*
X710846Y452749D01*
X710876Y452848D01*
X710876Y452868D01*
X710881Y452887D01*
X710873Y452990D01*
X710870Y453094D01*
X710863Y453113D01*
X710862Y453132D01*
X710821Y453227D01*
X710786Y453325D01*
X710773Y453340D01*
X710765Y453359D01*
X710660Y453490D01*
X697268Y466882D01*
X697194Y466935D01*
X697124Y466995D01*
X697094Y467007D01*
X697068Y467026D01*
X696981Y467053D01*
X696896Y467087D01*
X696855Y467091D01*
X696833Y467098D01*
X696801Y467097D01*
X696729Y467105D01*
X683902Y467105D01*
X683882Y467102D01*
X683863Y467104D01*
X683761Y467082D01*
X683659Y467066D01*
X683642Y467056D01*
X683622Y467052D01*
X683533Y466999D01*
X683442Y466950D01*
X683428Y466936D01*
X683411Y466926D01*
X683344Y466847D01*
X683272Y466772D01*
X683264Y466754D01*
X683251Y466739D01*
X683212Y466643D01*
X683169Y466549D01*
X683167Y466529D01*
X683159Y466511D01*
X683141Y466344D01*
X683141Y461923D01*
X673862Y461923D01*
X673842Y461920D01*
X673823Y461922D01*
X673721Y461900D01*
X673619Y461883D01*
X673602Y461874D01*
X673582Y461870D01*
X673493Y461817D01*
X673402Y461768D01*
X673388Y461754D01*
X673371Y461744D01*
X673304Y461665D01*
X673233Y461590D01*
X673224Y461572D01*
X673211Y461557D01*
X673172Y461461D01*
X673129Y461367D01*
X673127Y461347D01*
X673119Y461329D01*
X673101Y461162D01*
X673101Y460399D01*
X673099Y460399D01*
X673099Y461162D01*
X673098Y461171D01*
X673098Y461174D01*
X673096Y461184D01*
X673098Y461201D01*
X673076Y461303D01*
X673059Y461405D01*
X673050Y461422D01*
X673046Y461442D01*
X672993Y461531D01*
X672944Y461622D01*
X672930Y461636D01*
X672920Y461653D01*
X672841Y461720D01*
X672766Y461791D01*
X672748Y461800D01*
X672733Y461813D01*
X672637Y461852D01*
X672543Y461895D01*
X672523Y461897D01*
X672505Y461905D01*
X672338Y461923D01*
X663059Y461923D01*
X663059Y467248D01*
X663058Y467258D01*
X663058Y467264D01*
X663051Y467297D01*
X663045Y467338D01*
X663037Y467429D01*
X663025Y467458D01*
X663020Y467490D01*
X662977Y467571D01*
X662941Y467655D01*
X662915Y467687D01*
X662904Y467708D01*
X662881Y467730D01*
X662836Y467786D01*
X661954Y468668D01*
X653072Y477550D01*
X652998Y477603D01*
X652928Y477663D01*
X652898Y477675D01*
X652872Y477694D01*
X652785Y477721D01*
X652700Y477755D01*
X652659Y477759D01*
X652637Y477766D01*
X652605Y477765D01*
X652533Y477773D01*
X637386Y477773D01*
X637366Y477770D01*
X637347Y477772D01*
X637245Y477750D01*
X637143Y477734D01*
X637126Y477724D01*
X637106Y477720D01*
X637017Y477667D01*
X636926Y477618D01*
X636912Y477604D01*
X636895Y477594D01*
X636828Y477515D01*
X636756Y477440D01*
X636748Y477422D01*
X636735Y477407D01*
X636696Y477311D01*
X636653Y477217D01*
X636651Y477197D01*
X636643Y477179D01*
X636625Y477012D01*
X636625Y475768D01*
X635732Y474875D01*
X632268Y474875D01*
X632038Y475105D01*
X632022Y475117D01*
X632010Y475133D01*
X631923Y475189D01*
X631839Y475249D01*
X631820Y475255D01*
X631803Y475266D01*
X631702Y475291D01*
X631604Y475321D01*
X631584Y475321D01*
X631564Y475326D01*
X631461Y475318D01*
X631358Y475315D01*
X631339Y475308D01*
X631319Y475307D01*
X631224Y475266D01*
X631127Y475231D01*
X631111Y475218D01*
X631093Y475210D01*
X630962Y475105D01*
X630732Y474875D01*
X627268Y474875D01*
X627038Y475105D01*
X627022Y475117D01*
X627010Y475133D01*
X626923Y475189D01*
X626839Y475249D01*
X626820Y475255D01*
X626803Y475266D01*
X626702Y475291D01*
X626604Y475321D01*
X626584Y475321D01*
X626564Y475326D01*
X626461Y475318D01*
X626358Y475315D01*
X626339Y475308D01*
X626319Y475307D01*
X626224Y475266D01*
X626127Y475231D01*
X626111Y475218D01*
X626093Y475210D01*
X625962Y475105D01*
X625732Y474875D01*
X622268Y474875D01*
X622038Y475105D01*
X622022Y475117D01*
X622010Y475133D01*
X621923Y475189D01*
X621839Y475249D01*
X621820Y475255D01*
X621803Y475266D01*
X621702Y475291D01*
X621604Y475321D01*
X621584Y475321D01*
X621564Y475326D01*
X621461Y475318D01*
X621358Y475315D01*
X621339Y475308D01*
X621319Y475307D01*
X621224Y475266D01*
X621127Y475231D01*
X621111Y475218D01*
X621093Y475210D01*
X620962Y475105D01*
X620732Y474875D01*
X617268Y474875D01*
X617038Y475105D01*
X617022Y475117D01*
X617010Y475133D01*
X616923Y475189D01*
X616839Y475249D01*
X616820Y475255D01*
X616803Y475266D01*
X616702Y475291D01*
X616604Y475321D01*
X616584Y475321D01*
X616564Y475326D01*
X616461Y475318D01*
X616358Y475315D01*
X616339Y475308D01*
X616319Y475307D01*
X616224Y475266D01*
X616127Y475231D01*
X616111Y475218D01*
X616093Y475210D01*
X615962Y475105D01*
X615732Y474875D01*
X612268Y474875D01*
X612038Y475105D01*
X612022Y475117D01*
X612010Y475133D01*
X611923Y475189D01*
X611839Y475249D01*
X611820Y475255D01*
X611803Y475266D01*
X611702Y475291D01*
X611604Y475321D01*
X611584Y475321D01*
X611564Y475326D01*
X611461Y475318D01*
X611358Y475315D01*
X611339Y475308D01*
X611319Y475307D01*
X611224Y475266D01*
X611127Y475231D01*
X611111Y475218D01*
X611093Y475210D01*
X610962Y475105D01*
X610732Y474875D01*
X607268Y474875D01*
X607038Y475105D01*
X607022Y475117D01*
X607010Y475133D01*
X606923Y475189D01*
X606839Y475249D01*
X606820Y475255D01*
X606803Y475266D01*
X606702Y475291D01*
X606604Y475321D01*
X606584Y475321D01*
X606564Y475326D01*
X606461Y475318D01*
X606358Y475315D01*
X606339Y475308D01*
X606319Y475307D01*
X606224Y475266D01*
X606127Y475231D01*
X606111Y475218D01*
X606093Y475210D01*
X605962Y475105D01*
X605732Y474875D01*
X602484Y474875D01*
X602394Y474861D01*
X602303Y474853D01*
X602273Y474841D01*
X602241Y474836D01*
X602160Y474793D01*
X602076Y474757D01*
X602044Y474731D01*
X602024Y474720D01*
X602001Y474697D01*
X601945Y474652D01*
X601660Y474367D01*
X601081Y474032D01*
X600434Y473859D01*
X599761Y473859D01*
X599761Y481400D01*
X599761Y488941D01*
X600435Y488941D01*
X601081Y488768D01*
X601660Y488433D01*
X601945Y488148D01*
X602019Y488095D01*
X602089Y488035D01*
X602119Y488023D01*
X602145Y488004D01*
X602232Y487977D01*
X602317Y487943D01*
X602358Y487939D01*
X602380Y487932D01*
X602412Y487933D01*
X602484Y487925D01*
X605732Y487925D01*
X605962Y487695D01*
X605978Y487683D01*
X605990Y487667D01*
X606078Y487611D01*
X606161Y487551D01*
X606180Y487545D01*
X606197Y487534D01*
X606298Y487509D01*
X606397Y487479D01*
X606417Y487479D01*
X606436Y487474D01*
X606539Y487482D01*
X606642Y487485D01*
X606661Y487492D01*
X606681Y487493D01*
X606776Y487534D01*
X606873Y487569D01*
X606889Y487582D01*
X606907Y487590D01*
X607038Y487695D01*
X607268Y487925D01*
X610732Y487925D01*
X610962Y487695D01*
X610978Y487683D01*
X610990Y487667D01*
X611078Y487611D01*
X611161Y487551D01*
X611180Y487545D01*
X611197Y487534D01*
X611298Y487509D01*
X611397Y487479D01*
X611417Y487479D01*
X611436Y487474D01*
X611539Y487482D01*
X611642Y487485D01*
X611661Y487492D01*
X611681Y487493D01*
X611776Y487534D01*
X611873Y487569D01*
X611889Y487582D01*
X611907Y487590D01*
X612038Y487695D01*
X612268Y487925D01*
X615732Y487925D01*
X615962Y487695D01*
X615978Y487683D01*
X615990Y487667D01*
X616078Y487611D01*
X616161Y487551D01*
X616180Y487545D01*
X616197Y487534D01*
X616298Y487509D01*
X616397Y487479D01*
X616417Y487479D01*
X616436Y487474D01*
X616539Y487482D01*
X616642Y487485D01*
X616661Y487492D01*
X616681Y487493D01*
X616776Y487534D01*
X616873Y487569D01*
X616889Y487582D01*
X616907Y487590D01*
X617038Y487695D01*
X617268Y487925D01*
X620732Y487925D01*
X620962Y487695D01*
X620978Y487683D01*
X620990Y487667D01*
X621078Y487611D01*
X621161Y487551D01*
X621180Y487545D01*
X621197Y487534D01*
X621298Y487509D01*
X621397Y487479D01*
X621417Y487479D01*
X621436Y487474D01*
X621539Y487482D01*
X621642Y487485D01*
X621661Y487492D01*
X621681Y487493D01*
X621776Y487534D01*
X621873Y487569D01*
X621889Y487582D01*
X621907Y487590D01*
X622038Y487695D01*
X622268Y487925D01*
X625732Y487925D01*
X625962Y487695D01*
X625978Y487683D01*
X625990Y487667D01*
X626078Y487611D01*
X626161Y487551D01*
X626180Y487545D01*
X626197Y487534D01*
X626298Y487509D01*
X626397Y487479D01*
X626417Y487479D01*
X626436Y487474D01*
X626539Y487482D01*
X626642Y487485D01*
X626661Y487492D01*
X626681Y487493D01*
X626776Y487534D01*
X626873Y487569D01*
X626889Y487582D01*
X626907Y487590D01*
X627038Y487695D01*
X627268Y487925D01*
X630732Y487925D01*
X630962Y487695D01*
X630978Y487683D01*
X630990Y487667D01*
X631078Y487611D01*
X631161Y487551D01*
X631180Y487545D01*
X631197Y487534D01*
X631298Y487509D01*
X631397Y487479D01*
X631417Y487479D01*
X631436Y487474D01*
X631539Y487482D01*
X631642Y487485D01*
X631661Y487492D01*
X631681Y487493D01*
X631776Y487534D01*
X631873Y487569D01*
X631889Y487582D01*
X631907Y487590D01*
X632038Y487695D01*
X632268Y487925D01*
X635732Y487925D01*
X636625Y487032D01*
X636625Y483108D01*
X636628Y483088D01*
X636626Y483069D01*
X636648Y482967D01*
X636664Y482865D01*
X636674Y482848D01*
X636678Y482828D01*
X636731Y482739D01*
X636780Y482648D01*
X636794Y482634D01*
X636804Y482617D01*
X636883Y482550D01*
X636958Y482478D01*
X636976Y482470D01*
X636991Y482457D01*
X637087Y482418D01*
X637181Y482375D01*
X637201Y482373D01*
X637219Y482365D01*
X637386Y482347D01*
X654743Y482347D01*
X662776Y474314D01*
X662834Y474272D01*
X662886Y474223D01*
X662933Y474201D01*
X662975Y474171D01*
X663044Y474150D01*
X663109Y474119D01*
X663161Y474114D01*
X663211Y474098D01*
X663282Y474100D01*
X663353Y474092D01*
X663404Y474103D01*
X663456Y474105D01*
X663524Y474129D01*
X663594Y474144D01*
X663639Y474171D01*
X663687Y474189D01*
X663743Y474234D01*
X663805Y474271D01*
X663839Y474310D01*
X663879Y474343D01*
X663918Y474403D01*
X663965Y474458D01*
X663984Y474506D01*
X664012Y474550D01*
X664030Y474619D01*
X664057Y474686D01*
X664065Y474757D01*
X664073Y474788D01*
X664071Y474812D01*
X664075Y474852D01*
X664075Y486532D01*
X664968Y487425D01*
X669036Y487425D01*
X669056Y487428D01*
X669075Y487426D01*
X669177Y487448D01*
X669279Y487464D01*
X669296Y487474D01*
X669316Y487478D01*
X669405Y487531D01*
X669496Y487580D01*
X669510Y487594D01*
X669527Y487604D01*
X669594Y487683D01*
X669666Y487758D01*
X669674Y487776D01*
X669687Y487791D01*
X669726Y487887D01*
X669769Y487981D01*
X669771Y488001D01*
X669779Y488019D01*
X669797Y488186D01*
X669797Y507753D01*
X669783Y507844D01*
X669775Y507934D01*
X669763Y507964D01*
X669758Y507996D01*
X669715Y508077D01*
X669679Y508161D01*
X669653Y508193D01*
X669642Y508214D01*
X669619Y508236D01*
X669574Y508292D01*
X627955Y549911D01*
X627861Y549978D01*
X627767Y550049D01*
X627761Y550051D01*
X627755Y550054D01*
X627645Y550089D01*
X627533Y550125D01*
X627526Y550125D01*
X627520Y550127D01*
X627404Y550124D01*
X627287Y550123D01*
X627280Y550121D01*
X627275Y550120D01*
X627257Y550114D01*
X627126Y550076D01*
X624271Y548893D01*
X620329Y548893D01*
X616688Y550401D01*
X613901Y553188D01*
X612393Y556829D01*
X612393Y560771D01*
X613576Y563626D01*
X613586Y563667D01*
X613600Y563699D01*
X613606Y563755D01*
X613631Y563853D01*
X613631Y563859D01*
X613632Y563865D01*
X613626Y563930D01*
X613627Y563943D01*
X613623Y563965D01*
X613621Y563982D01*
X613612Y564098D01*
X613610Y564104D01*
X613609Y564110D01*
X613561Y564218D01*
X613516Y564324D01*
X613511Y564330D01*
X613509Y564335D01*
X613496Y564348D01*
X613411Y564455D01*
X607352Y570514D01*
X607278Y570567D01*
X607208Y570627D01*
X607178Y570639D01*
X607152Y570658D01*
X607065Y570685D01*
X606980Y570719D01*
X606939Y570723D01*
X606917Y570730D01*
X606885Y570729D01*
X606813Y570737D01*
X530091Y570737D01*
X530000Y570723D01*
X529910Y570715D01*
X529880Y570703D01*
X529848Y570698D01*
X529767Y570655D01*
X529683Y570619D01*
X529651Y570593D01*
X529630Y570582D01*
X529608Y570559D01*
X529552Y570514D01*
X506512Y547474D01*
X506470Y547416D01*
X506421Y547364D01*
X506399Y547317D01*
X506369Y547275D01*
X506348Y547206D01*
X506317Y547141D01*
X506312Y547089D01*
X506296Y547039D01*
X506298Y546968D01*
X506290Y546897D01*
X506301Y546846D01*
X506303Y546794D01*
X506327Y546726D01*
X506342Y546656D01*
X506369Y546611D01*
X506387Y546563D01*
X506432Y546507D01*
X506469Y546445D01*
X506508Y546411D01*
X506541Y546371D01*
X506601Y546332D01*
X506656Y546285D01*
X506704Y546266D01*
X506748Y546238D01*
X506817Y546220D01*
X506884Y546193D01*
X506955Y546185D01*
X506986Y546177D01*
X507010Y546179D01*
X507050Y546175D01*
X512632Y546175D01*
X513525Y545282D01*
X513525Y539018D01*
X512514Y538007D01*
X512461Y537933D01*
X512401Y537864D01*
X512389Y537834D01*
X512370Y537808D01*
X512343Y537721D01*
X512309Y537636D01*
X512305Y537595D01*
X512298Y537573D01*
X512299Y537540D01*
X512291Y537469D01*
X512291Y536316D01*
X512118Y535669D01*
X511783Y535090D01*
X511310Y534617D01*
X510731Y534282D01*
X510084Y534109D01*
X508874Y534109D01*
X508874Y537364D01*
X508871Y537384D01*
X508873Y537403D01*
X508851Y537505D01*
X508835Y537607D01*
X508825Y537624D01*
X508821Y537644D01*
X508768Y537733D01*
X508719Y537824D01*
X508705Y537838D01*
X508695Y537855D01*
X508616Y537922D01*
X508541Y537994D01*
X508523Y538002D01*
X508508Y538015D01*
X508412Y538054D01*
X508318Y538097D01*
X508298Y538099D01*
X508280Y538107D01*
X508113Y538125D01*
X507887Y538125D01*
X507867Y538122D01*
X507847Y538124D01*
X507746Y538102D01*
X507644Y538086D01*
X507627Y538076D01*
X507607Y538072D01*
X507518Y538019D01*
X507427Y537970D01*
X507413Y537956D01*
X507396Y537946D01*
X507329Y537867D01*
X507257Y537792D01*
X507249Y537774D01*
X507236Y537759D01*
X507197Y537663D01*
X507154Y537569D01*
X507152Y537549D01*
X507144Y537531D01*
X507126Y537364D01*
X507126Y534109D01*
X505916Y534109D01*
X505269Y534282D01*
X504690Y534617D01*
X504217Y535090D01*
X503882Y535669D01*
X503709Y536316D01*
X503709Y537469D01*
X503695Y537559D01*
X503687Y537650D01*
X503675Y537680D01*
X503670Y537712D01*
X503627Y537793D01*
X503591Y537876D01*
X503565Y537909D01*
X503554Y537929D01*
X503531Y537951D01*
X503486Y538007D01*
X502475Y539018D01*
X502475Y541600D01*
X502464Y541670D01*
X502462Y541742D01*
X502444Y541791D01*
X502436Y541842D01*
X502402Y541906D01*
X502377Y541973D01*
X502345Y542014D01*
X502320Y542060D01*
X502268Y542109D01*
X502224Y542165D01*
X502180Y542193D01*
X502142Y542229D01*
X502077Y542259D01*
X502017Y542298D01*
X501966Y542311D01*
X501919Y542333D01*
X501848Y542341D01*
X501778Y542358D01*
X501726Y542354D01*
X501675Y542360D01*
X501604Y542345D01*
X501533Y542339D01*
X501485Y542319D01*
X501434Y542308D01*
X501373Y542271D01*
X501307Y542243D01*
X501251Y542198D01*
X501223Y542181D01*
X501208Y542164D01*
X501176Y542138D01*
X481007Y521969D01*
X479686Y521969D01*
X479666Y521966D01*
X479647Y521968D01*
X479545Y521946D01*
X479443Y521930D01*
X479426Y521920D01*
X479406Y521916D01*
X479317Y521863D01*
X479226Y521814D01*
X479212Y521800D01*
X479195Y521790D01*
X479128Y521711D01*
X479056Y521636D01*
X479048Y521618D01*
X479035Y521603D01*
X478996Y521507D01*
X478953Y521413D01*
X478951Y521393D01*
X478943Y521375D01*
X478925Y521208D01*
X478925Y516768D01*
X478032Y515875D01*
X461768Y515875D01*
X460875Y516768D01*
X460875Y529224D01*
X460861Y529314D01*
X460853Y529405D01*
X460841Y529434D01*
X460836Y529466D01*
X460793Y529547D01*
X460757Y529631D01*
X460731Y529663D01*
X460720Y529684D01*
X460697Y529706D01*
X460652Y529762D01*
X441236Y549178D01*
X441162Y549231D01*
X441092Y549291D01*
X441062Y549303D01*
X441036Y549322D01*
X440949Y549349D01*
X440864Y549383D01*
X440823Y549387D01*
X440801Y549394D01*
X440769Y549393D01*
X440697Y549401D01*
X390786Y549401D01*
X390766Y549398D01*
X390747Y549400D01*
X390645Y549378D01*
X390543Y549362D01*
X390526Y549352D01*
X390506Y549348D01*
X390417Y549295D01*
X390326Y549246D01*
X390312Y549232D01*
X390295Y549222D01*
X390228Y549143D01*
X390156Y549068D01*
X390148Y549050D01*
X390135Y549035D01*
X390096Y548939D01*
X390053Y548845D01*
X390051Y548825D01*
X390043Y548807D01*
X390025Y548640D01*
X390025Y535768D01*
X389132Y534875D01*
X372868Y534875D01*
X371975Y535768D01*
X371975Y548640D01*
X371972Y548660D01*
X371974Y548679D01*
X371952Y548781D01*
X371936Y548883D01*
X371926Y548900D01*
X371922Y548920D01*
X371869Y549009D01*
X371820Y549100D01*
X371806Y549114D01*
X371796Y549131D01*
X371717Y549198D01*
X371642Y549270D01*
X371624Y549278D01*
X371609Y549291D01*
X371513Y549330D01*
X371419Y549373D01*
X371399Y549375D01*
X371381Y549383D01*
X371214Y549401D01*
X303015Y549401D01*
X302924Y549387D01*
X302834Y549379D01*
X302804Y549367D01*
X302772Y549362D01*
X302691Y549319D01*
X302607Y549283D01*
X302575Y549257D01*
X302554Y549246D01*
X302532Y549223D01*
X302476Y549178D01*
X284950Y531652D01*
X284908Y531594D01*
X284859Y531542D01*
X284837Y531495D01*
X284807Y531453D01*
X284786Y531384D01*
X284755Y531319D01*
X284750Y531267D01*
X284734Y531217D01*
X284736Y531146D01*
X284728Y531075D01*
X284739Y531024D01*
X284741Y530972D01*
X284765Y530904D01*
X284780Y530834D01*
X284807Y530789D01*
X284825Y530741D01*
X284870Y530685D01*
X284907Y530623D01*
X284946Y530589D01*
X284979Y530549D01*
X285039Y530510D01*
X285094Y530463D01*
X285142Y530444D01*
X285186Y530416D01*
X285255Y530398D01*
X285322Y530371D01*
X285393Y530363D01*
X285424Y530355D01*
X285448Y530357D01*
X285488Y530353D01*
X290577Y530353D01*
X290577Y521462D01*
X290580Y521442D01*
X290578Y521423D01*
X290600Y521321D01*
X290617Y521219D01*
X290626Y521202D01*
X290630Y521182D01*
X290683Y521093D01*
X290732Y521002D01*
X290746Y520988D01*
X290756Y520971D01*
X290835Y520904D01*
X290910Y520833D01*
X290928Y520824D01*
X290943Y520811D01*
X291039Y520773D01*
X291133Y520729D01*
X291153Y520727D01*
X291171Y520719D01*
X291338Y520701D01*
X292101Y520701D01*
X292101Y520699D01*
X291338Y520699D01*
X291318Y520696D01*
X291299Y520698D01*
X291197Y520676D01*
X291095Y520659D01*
X291078Y520650D01*
X291058Y520646D01*
X290969Y520593D01*
X290878Y520544D01*
X290864Y520530D01*
X290847Y520520D01*
X290780Y520441D01*
X290709Y520366D01*
X290700Y520348D01*
X290687Y520333D01*
X290648Y520237D01*
X290605Y520143D01*
X290603Y520123D01*
X290595Y520105D01*
X290577Y519938D01*
X290577Y511047D01*
X284980Y511047D01*
X284909Y511036D01*
X284836Y511034D01*
X284788Y511016D01*
X284738Y511008D01*
X284674Y510974D01*
X284606Y510949D01*
X284566Y510916D01*
X284520Y510892D01*
X284470Y510840D01*
X284414Y510794D01*
X284386Y510751D01*
X284351Y510714D01*
X284320Y510648D01*
X284281Y510587D01*
X284269Y510538D01*
X284247Y510491D01*
X284239Y510419D01*
X284222Y510349D01*
X284226Y510298D01*
X284220Y510247D01*
X284227Y510217D01*
X284227Y509016D01*
X284230Y508996D01*
X284228Y508977D01*
X284250Y508875D01*
X284266Y508773D01*
X284276Y508756D01*
X284280Y508736D01*
X284333Y508647D01*
X284382Y508556D01*
X284396Y508542D01*
X284406Y508525D01*
X284485Y508458D01*
X284560Y508386D01*
X284578Y508378D01*
X284593Y508365D01*
X284689Y508326D01*
X284783Y508283D01*
X284803Y508281D01*
X284821Y508273D01*
X284988Y508255D01*
X297441Y508255D01*
X297532Y508269D01*
X297622Y508277D01*
X297652Y508289D01*
X297684Y508294D01*
X297765Y508337D01*
X297849Y508373D01*
X297881Y508399D01*
X297902Y508410D01*
X297924Y508433D01*
X297980Y508478D01*
X299250Y509748D01*
X299292Y509806D01*
X299341Y509858D01*
X299363Y509905D01*
X299393Y509947D01*
X299414Y510016D01*
X299445Y510081D01*
X299450Y510133D01*
X299466Y510183D01*
X299464Y510254D01*
X299472Y510325D01*
X299461Y510376D01*
X299459Y510428D01*
X299435Y510496D01*
X299420Y510566D01*
X299393Y510611D01*
X299375Y510659D01*
X299330Y510715D01*
X299293Y510777D01*
X299254Y510811D01*
X299221Y510851D01*
X299161Y510890D01*
X299106Y510937D01*
X299058Y510956D01*
X299014Y510984D01*
X298945Y511002D01*
X298878Y511029D01*
X298807Y511037D01*
X298776Y511045D01*
X298752Y511043D01*
X298712Y511047D01*
X293623Y511047D01*
X293623Y519177D01*
X308364Y519177D01*
X308454Y519192D01*
X308545Y519199D01*
X308574Y519211D01*
X308606Y519217D01*
X308687Y519259D01*
X308771Y519295D01*
X308803Y519321D01*
X308824Y519332D01*
X308846Y519355D01*
X308902Y519400D01*
X311473Y521971D01*
X311754Y521971D01*
X311774Y521974D01*
X311793Y521972D01*
X311895Y521994D01*
X311997Y522010D01*
X312014Y522020D01*
X312034Y522024D01*
X312123Y522077D01*
X312214Y522126D01*
X312228Y522140D01*
X312245Y522150D01*
X312312Y522229D01*
X312384Y522304D01*
X312392Y522322D01*
X312405Y522337D01*
X312444Y522433D01*
X312487Y522527D01*
X312489Y522547D01*
X312497Y522565D01*
X312515Y522732D01*
X312515Y527832D01*
X313408Y528725D01*
X326672Y528725D01*
X327565Y527832D01*
X327565Y517040D01*
X327576Y516970D01*
X327578Y516898D01*
X327596Y516849D01*
X327604Y516798D01*
X327638Y516734D01*
X327663Y516667D01*
X327695Y516626D01*
X327720Y516580D01*
X327772Y516531D01*
X327816Y516475D01*
X327860Y516447D01*
X327898Y516411D01*
X327963Y516381D01*
X328023Y516342D01*
X328074Y516329D01*
X328121Y516307D01*
X328192Y516299D01*
X328262Y516282D01*
X328314Y516286D01*
X328365Y516280D01*
X328436Y516295D01*
X328507Y516301D01*
X328555Y516321D01*
X328606Y516332D01*
X328667Y516369D01*
X328733Y516397D01*
X328789Y516442D01*
X328817Y516459D01*
X328832Y516476D01*
X328864Y516502D01*
X332612Y520250D01*
X332665Y520324D01*
X332725Y520394D01*
X332737Y520424D01*
X332756Y520450D01*
X332783Y520537D01*
X332817Y520622D01*
X332821Y520663D01*
X332828Y520685D01*
X332827Y520717D01*
X332835Y520789D01*
X332835Y527832D01*
X333728Y528725D01*
X346992Y528725D01*
X347885Y527832D01*
X347885Y513568D01*
X346992Y512675D01*
X333728Y512675D01*
X333155Y513249D01*
X333139Y513260D01*
X333126Y513276D01*
X333039Y513332D01*
X332955Y513392D01*
X332936Y513398D01*
X332920Y513409D01*
X332819Y513434D01*
X332720Y513465D01*
X332700Y513464D01*
X332681Y513469D01*
X332578Y513461D01*
X332474Y513458D01*
X332456Y513451D01*
X332436Y513450D01*
X332341Y513409D01*
X332243Y513374D01*
X332228Y513361D01*
X332210Y513353D01*
X332079Y513249D01*
X311843Y493013D01*
X308122Y493013D01*
X308007Y492994D01*
X307891Y492977D01*
X307885Y492975D01*
X307879Y492974D01*
X307776Y492919D01*
X307672Y492866D01*
X307667Y492861D01*
X307662Y492858D01*
X307582Y492774D01*
X307499Y492690D01*
X307496Y492684D01*
X307492Y492680D01*
X307484Y492663D01*
X307418Y492543D01*
X306534Y490408D01*
X304104Y487978D01*
X300930Y486663D01*
X283270Y486663D01*
X280096Y487978D01*
X277906Y490168D01*
X277848Y490209D01*
X277796Y490259D01*
X277749Y490281D01*
X277707Y490311D01*
X277638Y490332D01*
X277573Y490362D01*
X277521Y490368D01*
X277471Y490383D01*
X277400Y490382D01*
X277329Y490389D01*
X277278Y490378D01*
X277226Y490377D01*
X277158Y490352D01*
X277088Y490337D01*
X277043Y490311D01*
X276995Y490293D01*
X276939Y490248D01*
X276877Y490211D01*
X276843Y490171D01*
X276803Y490139D01*
X276764Y490079D01*
X276717Y490024D01*
X276698Y489976D01*
X276670Y489932D01*
X276652Y489863D01*
X276625Y489796D01*
X276617Y489725D01*
X276609Y489693D01*
X276611Y489670D01*
X276607Y489629D01*
X276607Y484370D01*
X276621Y484280D01*
X276629Y484189D01*
X276641Y484160D01*
X276646Y484128D01*
X276689Y484047D01*
X276725Y483963D01*
X276751Y483931D01*
X276762Y483910D01*
X276785Y483888D01*
X276830Y483832D01*
X294214Y466448D01*
X294288Y466395D01*
X294358Y466335D01*
X294388Y466323D01*
X294414Y466304D01*
X294501Y466277D01*
X294586Y466243D01*
X294627Y466239D01*
X294649Y466232D01*
X294681Y466233D01*
X294752Y466225D01*
X308732Y466225D01*
X309625Y465332D01*
X309625Y449068D01*
X308732Y448175D01*
X294468Y448175D01*
X293575Y449068D01*
X293575Y460304D01*
X293561Y460394D01*
X293553Y460485D01*
X293541Y460514D01*
X293536Y460546D01*
X293493Y460627D01*
X293457Y460711D01*
X293431Y460743D01*
X293420Y460764D01*
X293397Y460786D01*
X293352Y460842D01*
X291924Y462270D01*
X291866Y462312D01*
X291814Y462361D01*
X291767Y462383D01*
X291725Y462413D01*
X291656Y462434D01*
X291591Y462465D01*
X291539Y462470D01*
X291489Y462486D01*
X291418Y462484D01*
X291347Y462492D01*
X291296Y462481D01*
X291244Y462479D01*
X291176Y462455D01*
X291106Y462440D01*
X291062Y462413D01*
X291013Y462395D01*
X290957Y462350D01*
X290895Y462313D01*
X290861Y462274D01*
X290821Y462241D01*
X290782Y462181D01*
X290735Y462126D01*
X290716Y462078D01*
X290688Y462034D01*
X290670Y461965D01*
X290643Y461898D01*
X290635Y461827D01*
X290627Y461796D01*
X290629Y461772D01*
X290625Y461732D01*
X290625Y449068D01*
X289732Y448175D01*
X288416Y448175D01*
X288346Y448164D01*
X288274Y448162D01*
X288225Y448144D01*
X288174Y448136D01*
X288110Y448102D01*
X288043Y448077D01*
X288002Y448045D01*
X287956Y448020D01*
X287907Y447969D01*
X287851Y447924D01*
X287823Y447880D01*
X287787Y447842D01*
X287757Y447777D01*
X287718Y447717D01*
X287705Y447666D01*
X287683Y447619D01*
X287675Y447548D01*
X287658Y447478D01*
X287662Y447426D01*
X287656Y447375D01*
X287671Y447304D01*
X287677Y447233D01*
X287697Y447185D01*
X287708Y447134D01*
X287745Y447073D01*
X287773Y447007D01*
X287818Y446951D01*
X287835Y446923D01*
X287852Y446908D01*
X287878Y446876D01*
X331948Y402806D01*
X332006Y402764D01*
X332058Y402715D01*
X332105Y402693D01*
X332147Y402663D01*
X332216Y402642D01*
X332281Y402611D01*
X332333Y402606D01*
X332383Y402590D01*
X332454Y402592D01*
X332525Y402584D01*
X332576Y402595D01*
X332628Y402597D01*
X332696Y402621D01*
X332766Y402636D01*
X332810Y402663D01*
X332859Y402681D01*
X332915Y402726D01*
X332977Y402763D01*
X333011Y402802D01*
X333051Y402835D01*
X333090Y402895D01*
X333137Y402950D01*
X333156Y402998D01*
X333184Y403042D01*
X333202Y403111D01*
X333229Y403178D01*
X333237Y403249D01*
X333245Y403280D01*
X333243Y403304D01*
X333247Y403344D01*
X333247Y405425D01*
X334639Y408786D01*
X337212Y411359D01*
X340573Y412751D01*
X359451Y412751D01*
X362812Y411359D01*
X365385Y408786D01*
X366777Y405425D01*
X366777Y401787D01*
X365385Y398426D01*
X362812Y395853D01*
X359451Y394461D01*
X342130Y394461D01*
X342060Y394450D01*
X341988Y394448D01*
X341939Y394430D01*
X341888Y394422D01*
X341824Y394388D01*
X341757Y394363D01*
X341716Y394331D01*
X341670Y394306D01*
X341621Y394254D01*
X341565Y394210D01*
X341537Y394166D01*
X341501Y394128D01*
X341471Y394063D01*
X341432Y394003D01*
X341419Y393952D01*
X341397Y393905D01*
X341389Y393834D01*
X341372Y393764D01*
X341376Y393712D01*
X341370Y393661D01*
X341385Y393590D01*
X341391Y393519D01*
X341411Y393471D01*
X341422Y393420D01*
X341459Y393359D01*
X341487Y393293D01*
X341532Y393237D01*
X341549Y393209D01*
X341566Y393194D01*
X341592Y393162D01*
X360388Y374366D01*
X360462Y374313D01*
X360532Y374253D01*
X360562Y374241D01*
X360588Y374222D01*
X360675Y374195D01*
X360760Y374161D01*
X360801Y374157D01*
X360823Y374150D01*
X360855Y374151D01*
X360927Y374143D01*
X383471Y374143D01*
X390868Y366746D01*
X390942Y366693D01*
X391012Y366633D01*
X391042Y366621D01*
X391068Y366602D01*
X391155Y366575D01*
X391240Y366541D01*
X391281Y366537D01*
X391303Y366530D01*
X391335Y366531D01*
X391407Y366523D01*
X454413Y366523D01*
X454504Y366537D01*
X454594Y366545D01*
X454624Y366557D01*
X454656Y366562D01*
X454737Y366605D01*
X454821Y366641D01*
X454853Y366667D01*
X454874Y366678D01*
X454896Y366701D01*
X454952Y366746D01*
X476054Y387848D01*
X476107Y387922D01*
X476167Y387992D01*
X476179Y388022D01*
X476198Y388048D01*
X476225Y388135D01*
X476259Y388220D01*
X476263Y388261D01*
X476270Y388283D01*
X476269Y388315D01*
X476277Y388387D01*
X476277Y392342D01*
X479386Y395451D01*
X483782Y395451D01*
X486891Y392342D01*
X486891Y387946D01*
X483782Y384837D01*
X479827Y384837D01*
X479736Y384823D01*
X479646Y384815D01*
X479616Y384803D01*
X479584Y384798D01*
X479503Y384755D01*
X479419Y384719D01*
X479387Y384693D01*
X479366Y384682D01*
X479344Y384659D01*
X479288Y384614D01*
X456623Y361949D01*
X389197Y361949D01*
X382308Y368838D01*
X381800Y369346D01*
X381726Y369400D01*
X381656Y369459D01*
X381626Y369471D01*
X381600Y369490D01*
X381513Y369517D01*
X381428Y369551D01*
X381387Y369555D01*
X381365Y369562D01*
X381333Y369561D01*
X381261Y369569D01*
X360925Y369569D01*
X360921Y369569D01*
X360917Y369569D01*
X360800Y369549D01*
X360682Y369530D01*
X360679Y369528D01*
X360675Y369527D01*
X360570Y369470D01*
X360465Y369414D01*
X360462Y369412D01*
X360459Y369410D01*
X360378Y369322D01*
X360296Y369236D01*
X360294Y369232D01*
X360291Y369230D01*
X360242Y369121D01*
X360192Y369013D01*
X360192Y369009D01*
X360190Y369005D01*
X360178Y368886D01*
X360165Y368769D01*
X360166Y368765D01*
X360165Y368761D01*
X360192Y368645D01*
X360217Y368528D01*
X360219Y368525D01*
X360220Y368521D01*
X360282Y368420D01*
X360343Y368317D01*
X360346Y368315D01*
X360349Y368311D01*
X360440Y368235D01*
X360530Y368157D01*
X360534Y368156D01*
X360537Y368153D01*
X360690Y368084D01*
X361532Y367810D01*
X362957Y367084D01*
X364251Y366144D01*
X365382Y365013D01*
X366322Y363719D01*
X367048Y362294D01*
X367543Y360773D01*
X367678Y359917D01*
X351535Y359917D01*
X351535Y368555D01*
X357894Y368555D01*
X357964Y368566D01*
X358036Y368568D01*
X358085Y368586D01*
X358136Y368594D01*
X358200Y368628D01*
X358267Y368653D01*
X358308Y368685D01*
X358354Y368710D01*
X358403Y368762D01*
X358459Y368806D01*
X358487Y368850D01*
X358523Y368888D01*
X358553Y368953D01*
X358592Y369013D01*
X358605Y369064D01*
X358627Y369111D01*
X358635Y369182D01*
X358652Y369252D01*
X358648Y369304D01*
X358654Y369355D01*
X358639Y369426D01*
X358633Y369497D01*
X358613Y369545D01*
X358602Y369596D01*
X358565Y369657D01*
X358537Y369723D01*
X358492Y369779D01*
X358475Y369807D01*
X358457Y369822D01*
X358432Y369854D01*
X357154Y371132D01*
X281177Y447109D01*
X281177Y447414D01*
X281174Y447434D01*
X281176Y447453D01*
X281154Y447555D01*
X281138Y447657D01*
X281128Y447674D01*
X281124Y447694D01*
X281071Y447783D01*
X281022Y447874D01*
X281008Y447888D01*
X280998Y447905D01*
X280919Y447972D01*
X280844Y448044D01*
X280826Y448052D01*
X280811Y448065D01*
X280715Y448104D01*
X280621Y448147D01*
X280601Y448149D01*
X280583Y448157D01*
X280416Y448175D01*
X275468Y448175D01*
X274575Y449068D01*
X274575Y465332D01*
X275468Y466225D01*
X286132Y466225D01*
X286202Y466236D01*
X286274Y466238D01*
X286323Y466256D01*
X286374Y466264D01*
X286438Y466298D01*
X286505Y466323D01*
X286546Y466355D01*
X286592Y466380D01*
X286641Y466431D01*
X286697Y466476D01*
X286725Y466520D01*
X286761Y466558D01*
X286791Y466623D01*
X286830Y466683D01*
X286843Y466734D01*
X286865Y466781D01*
X286873Y466852D01*
X286890Y466922D01*
X286886Y466974D01*
X286892Y467025D01*
X286877Y467096D01*
X286871Y467167D01*
X286851Y467215D01*
X286840Y467266D01*
X286803Y467327D01*
X286775Y467393D01*
X286730Y467449D01*
X286713Y467477D01*
X286696Y467492D01*
X286670Y467524D01*
X273596Y480598D01*
X272033Y482161D01*
X272033Y499295D01*
X279430Y506692D01*
X279483Y506766D01*
X279543Y506836D01*
X279555Y506866D01*
X279574Y506892D01*
X279601Y506979D01*
X279635Y507064D01*
X279639Y507105D01*
X279646Y507127D01*
X279645Y507159D01*
X279653Y507231D01*
X279653Y507753D01*
X279639Y507844D01*
X279631Y507934D01*
X279619Y507964D01*
X279614Y507996D01*
X279571Y508077D01*
X279535Y508161D01*
X279509Y508193D01*
X279498Y508214D01*
X279475Y508236D01*
X279430Y508292D01*
X272033Y515689D01*
X272033Y525203D01*
X300805Y553975D01*
X442907Y553975D01*
X459576Y537306D01*
X459634Y537264D01*
X459686Y537215D01*
X459733Y537193D01*
X459775Y537163D01*
X459844Y537142D01*
X459909Y537111D01*
X459961Y537106D01*
X460011Y537090D01*
X460082Y537092D01*
X460153Y537084D01*
X460204Y537095D01*
X460256Y537097D01*
X460324Y537121D01*
X460394Y537136D01*
X460439Y537163D01*
X460487Y537181D01*
X460543Y537226D01*
X460605Y537263D01*
X460639Y537302D01*
X460679Y537335D01*
X460718Y537395D01*
X460765Y537450D01*
X460784Y537498D01*
X460812Y537542D01*
X460830Y537611D01*
X460857Y537678D01*
X460865Y537749D01*
X460873Y537780D01*
X460871Y537804D01*
X460875Y537844D01*
X460875Y550032D01*
X461768Y550925D01*
X478032Y550925D01*
X478925Y550032D01*
X478925Y535768D01*
X478032Y534875D01*
X463844Y534875D01*
X463774Y534864D01*
X463702Y534862D01*
X463653Y534844D01*
X463602Y534836D01*
X463538Y534802D01*
X463471Y534777D01*
X463430Y534745D01*
X463384Y534720D01*
X463335Y534669D01*
X463279Y534624D01*
X463251Y534580D01*
X463215Y534542D01*
X463185Y534477D01*
X463146Y534417D01*
X463133Y534366D01*
X463111Y534319D01*
X463103Y534248D01*
X463086Y534178D01*
X463090Y534126D01*
X463084Y534075D01*
X463099Y534004D01*
X463105Y533933D01*
X463125Y533885D01*
X463136Y533834D01*
X463173Y533773D01*
X463201Y533707D01*
X463246Y533651D01*
X463263Y533623D01*
X463280Y533608D01*
X463306Y533576D01*
X464734Y532148D01*
X464808Y532095D01*
X464878Y532035D01*
X464908Y532023D01*
X464934Y532004D01*
X465021Y531977D01*
X465106Y531943D01*
X465147Y531939D01*
X465169Y531932D01*
X465201Y531933D01*
X465272Y531925D01*
X478032Y531925D01*
X478925Y531032D01*
X478925Y528192D01*
X478936Y528122D01*
X478938Y528050D01*
X478956Y528001D01*
X478964Y527950D01*
X478998Y527886D01*
X479023Y527819D01*
X479055Y527778D01*
X479080Y527732D01*
X479132Y527683D01*
X479176Y527627D01*
X479220Y527599D01*
X479258Y527563D01*
X479323Y527533D01*
X479383Y527494D01*
X479434Y527481D01*
X479481Y527459D01*
X479552Y527451D01*
X479622Y527434D01*
X479674Y527438D01*
X479725Y527432D01*
X479796Y527447D01*
X479867Y527453D01*
X479915Y527473D01*
X479966Y527484D01*
X480027Y527521D01*
X480093Y527549D01*
X480149Y527594D01*
X480177Y527611D01*
X480192Y527628D01*
X480224Y527654D01*
X526318Y573748D01*
X527881Y575311D01*
X609023Y575311D01*
X616645Y567689D01*
X616739Y567621D01*
X616833Y567551D01*
X616839Y567549D01*
X616844Y567546D01*
X616956Y567511D01*
X617067Y567475D01*
X617074Y567475D01*
X617080Y567473D01*
X617196Y567476D01*
X617313Y567477D01*
X617320Y567479D01*
X617325Y567480D01*
X617343Y567486D01*
X617474Y567524D01*
X620329Y568707D01*
X624271Y568707D01*
X627912Y567199D01*
X630699Y564412D01*
X632207Y560771D01*
X632207Y556829D01*
X631024Y553974D01*
X630997Y553861D01*
X630969Y553747D01*
X630969Y553741D01*
X630968Y553735D01*
X630979Y553618D01*
X630988Y553502D01*
X630990Y553496D01*
X630991Y553490D01*
X631039Y553382D01*
X631084Y553276D01*
X631089Y553270D01*
X631091Y553265D01*
X631104Y553252D01*
X631189Y553145D01*
X674371Y509963D01*
X674371Y488186D01*
X674374Y488166D01*
X674372Y488147D01*
X674394Y488045D01*
X674410Y487943D01*
X674420Y487926D01*
X674424Y487906D01*
X674477Y487817D01*
X674526Y487726D01*
X674540Y487712D01*
X674550Y487695D01*
X674629Y487628D01*
X674704Y487556D01*
X674722Y487548D01*
X674737Y487535D01*
X674833Y487496D01*
X674927Y487453D01*
X674947Y487451D01*
X674965Y487443D01*
X675132Y487425D01*
X681232Y487425D01*
X682125Y486532D01*
X682125Y481584D01*
X682128Y481564D01*
X682126Y481545D01*
X682148Y481443D01*
X682164Y481341D01*
X682174Y481324D01*
X682178Y481304D01*
X682231Y481215D01*
X682280Y481124D01*
X682294Y481110D01*
X682304Y481093D01*
X682383Y481026D01*
X682458Y480954D01*
X682476Y480946D01*
X682491Y480933D01*
X682587Y480894D01*
X682681Y480851D01*
X682701Y480849D01*
X682719Y480841D01*
X682886Y480823D01*
X694367Y480823D01*
X695930Y479260D01*
X704820Y470370D01*
X704878Y470328D01*
X704930Y470279D01*
X704977Y470257D01*
X705019Y470227D01*
X705088Y470206D01*
X705153Y470175D01*
X705205Y470170D01*
X705255Y470154D01*
X705326Y470156D01*
X705397Y470148D01*
X705448Y470159D01*
X705500Y470161D01*
X705568Y470185D01*
X705638Y470200D01*
X705683Y470227D01*
X705731Y470245D01*
X705787Y470290D01*
X705849Y470327D01*
X705883Y470366D01*
X705923Y470399D01*
X705962Y470459D01*
X706009Y470514D01*
X706028Y470562D01*
X706056Y470606D01*
X706074Y470675D01*
X706101Y470742D01*
X706109Y470813D01*
X706117Y470844D01*
X706115Y470868D01*
X706116Y470879D01*
X706369Y472479D01*
X706864Y474000D01*
X707590Y475425D01*
X708530Y476719D01*
X709661Y477850D01*
X710955Y478790D01*
X712380Y479516D01*
X713901Y480011D01*
X715480Y480261D01*
X722377Y480261D01*
X722377Y470862D01*
X722380Y470842D01*
X722378Y470823D01*
X722400Y470721D01*
X722417Y470619D01*
X722426Y470602D01*
X722430Y470582D01*
X722483Y470493D01*
X722532Y470402D01*
X722546Y470388D01*
X722556Y470371D01*
X722635Y470304D01*
X722710Y470233D01*
X722728Y470224D01*
X722743Y470211D01*
X722839Y470173D01*
X722933Y470129D01*
X722953Y470127D01*
X722971Y470119D01*
X723138Y470101D01*
X723901Y470101D01*
X723901Y469338D01*
X723904Y469318D01*
X723902Y469299D01*
X723924Y469197D01*
X723941Y469095D01*
X723950Y469078D01*
X723954Y469058D01*
X724008Y468969D01*
X724056Y468878D01*
X724070Y468864D01*
X724080Y468847D01*
X724159Y468780D01*
X724234Y468709D01*
X724252Y468700D01*
X724267Y468687D01*
X724363Y468648D01*
X724457Y468605D01*
X724477Y468603D01*
X724495Y468595D01*
X724662Y468577D01*
X741566Y468577D01*
X741431Y467721D01*
X740936Y466200D01*
X740210Y464775D01*
X739270Y463481D01*
X738139Y462350D01*
X736845Y461410D01*
X735624Y460787D01*
X735611Y460778D01*
X735596Y460772D01*
X735512Y460705D01*
X735426Y460642D01*
X735416Y460629D01*
X735404Y460619D01*
X735346Y460529D01*
X735284Y460441D01*
X735280Y460425D01*
X735271Y460412D01*
X735245Y460308D01*
X735214Y460205D01*
X735215Y460189D01*
X735211Y460173D01*
X735219Y460066D01*
X735223Y459959D01*
X735229Y459944D01*
X735230Y459928D01*
X735272Y459830D01*
X735310Y459729D01*
X735320Y459716D01*
X735326Y459702D01*
X735431Y459571D01*
X744475Y450527D01*
X744475Y390721D01*
X742912Y389158D01*
X733904Y380150D01*
X733877Y380113D01*
X733843Y380082D01*
X733806Y380013D01*
X733760Y379950D01*
X733747Y379906D01*
X733725Y379866D01*
X733711Y379790D01*
X733688Y379715D01*
X733689Y379669D01*
X733681Y379624D01*
X733692Y379547D01*
X733694Y379469D01*
X733710Y379426D01*
X733717Y379381D01*
X733752Y379311D01*
X733779Y379238D01*
X733808Y379202D01*
X733828Y379162D01*
X733884Y379107D01*
X733933Y379046D01*
X733971Y379021D01*
X734004Y378989D01*
X734124Y378923D01*
X734139Y378913D01*
X734144Y378912D01*
X734151Y378908D01*
X736700Y377853D01*
X739273Y375280D01*
X740665Y371919D01*
X740665Y368281D01*
X739273Y364920D01*
X736700Y362347D01*
X733339Y360955D01*
X714461Y360955D01*
X711100Y362347D01*
X708527Y364920D01*
X707135Y368281D01*
X707135Y371919D01*
X708527Y375280D01*
X710661Y377414D01*
X710703Y377472D01*
X710752Y377524D01*
X710774Y377571D01*
X710805Y377613D01*
X710826Y377682D01*
X710856Y377747D01*
X710862Y377799D01*
X710877Y377849D01*
X710875Y377920D01*
X710883Y377991D01*
X710872Y378042D01*
X710871Y378094D01*
X710846Y378162D01*
X710831Y378232D01*
X710804Y378277D01*
X710786Y378325D01*
X710741Y378381D01*
X710705Y378443D01*
X710665Y378477D01*
X710633Y378517D01*
X710572Y378556D01*
X710518Y378603D01*
X710469Y378622D01*
X710426Y378650D01*
X710356Y378668D01*
X710290Y378695D01*
X710218Y378703D01*
X710187Y378711D01*
X710164Y378709D01*
X710123Y378713D01*
X653286Y378713D01*
X653266Y378710D01*
X653247Y378712D01*
X653145Y378690D01*
X653043Y378674D01*
X653026Y378664D01*
X653006Y378660D01*
X652917Y378607D01*
X652826Y378558D01*
X652812Y378544D01*
X652795Y378534D01*
X652728Y378455D01*
X652656Y378380D01*
X652648Y378362D01*
X652635Y378347D01*
X652596Y378251D01*
X652553Y378157D01*
X652551Y378137D01*
X652543Y378119D01*
X652525Y377952D01*
X652525Y372868D01*
X651632Y371975D01*
X637368Y371975D01*
X636475Y372868D01*
X636475Y384103D01*
X636461Y384193D01*
X636453Y384284D01*
X636441Y384314D01*
X636436Y384346D01*
X636393Y384427D01*
X636357Y384511D01*
X636331Y384543D01*
X636320Y384564D01*
X636297Y384586D01*
X636252Y384642D01*
X635840Y385054D01*
X635782Y385096D01*
X635730Y385145D01*
X635683Y385167D01*
X635641Y385197D01*
X635572Y385218D01*
X635507Y385249D01*
X635455Y385254D01*
X635405Y385270D01*
X635334Y385268D01*
X635263Y385276D01*
X635212Y385265D01*
X635160Y385263D01*
X635092Y385239D01*
X635022Y385224D01*
X634977Y385197D01*
X634929Y385179D01*
X634873Y385134D01*
X634811Y385097D01*
X634777Y385058D01*
X634737Y385025D01*
X634698Y384965D01*
X634651Y384910D01*
X634632Y384862D01*
X634604Y384818D01*
X634586Y384749D01*
X634559Y384682D01*
X634551Y384611D01*
X634543Y384580D01*
X634545Y384556D01*
X634541Y384516D01*
X634541Y382523D01*
X627023Y382523D01*
X627023Y391041D01*
X630936Y391041D01*
X630956Y391044D01*
X630975Y391042D01*
X631077Y391064D01*
X631179Y391080D01*
X631196Y391090D01*
X631216Y391094D01*
X631305Y391147D01*
X631396Y391196D01*
X631410Y391210D01*
X631427Y391220D01*
X631494Y391299D01*
X631566Y391374D01*
X631574Y391392D01*
X631587Y391407D01*
X631626Y391503D01*
X631669Y391597D01*
X631671Y391617D01*
X631679Y391635D01*
X631697Y391802D01*
X631697Y393206D01*
X631678Y393322D01*
X631660Y393441D01*
X631658Y393444D01*
X631658Y393448D01*
X631602Y393553D01*
X631547Y393659D01*
X631544Y393662D01*
X631542Y393666D01*
X631457Y393747D01*
X631371Y393830D01*
X631367Y393832D01*
X631364Y393835D01*
X631257Y393885D01*
X631149Y393936D01*
X631145Y393937D01*
X631141Y393939D01*
X631023Y393952D01*
X630905Y393966D01*
X630900Y393965D01*
X630897Y393966D01*
X630883Y393963D01*
X630739Y393941D01*
X630435Y393859D01*
X629761Y393859D01*
X629761Y401400D01*
X629761Y408941D01*
X630434Y408941D01*
X631081Y408768D01*
X631660Y408433D01*
X631945Y408148D01*
X632019Y408095D01*
X632089Y408035D01*
X632119Y408023D01*
X632145Y408004D01*
X632232Y407977D01*
X632317Y407943D01*
X632358Y407939D01*
X632380Y407932D01*
X632412Y407933D01*
X632484Y407925D01*
X635732Y407925D01*
X636625Y407032D01*
X636625Y395768D01*
X636494Y395637D01*
X636441Y395563D01*
X636381Y395494D01*
X636369Y395464D01*
X636350Y395438D01*
X636323Y395351D01*
X636289Y395266D01*
X636285Y395225D01*
X636278Y395203D01*
X636279Y395170D01*
X636271Y395099D01*
X636271Y391407D01*
X636285Y391316D01*
X636293Y391226D01*
X636305Y391196D01*
X636310Y391164D01*
X636353Y391083D01*
X636389Y390999D01*
X636415Y390967D01*
X636426Y390946D01*
X636449Y390924D01*
X636494Y390868D01*
X637114Y390248D01*
X637188Y390195D01*
X637258Y390135D01*
X637288Y390123D01*
X637314Y390104D01*
X637401Y390077D01*
X637486Y390043D01*
X637527Y390039D01*
X637549Y390032D01*
X637581Y390033D01*
X637653Y390025D01*
X651632Y390025D01*
X652525Y389132D01*
X652525Y384048D01*
X652528Y384028D01*
X652526Y384009D01*
X652548Y383907D01*
X652564Y383805D01*
X652574Y383788D01*
X652578Y383768D01*
X652631Y383679D01*
X652680Y383588D01*
X652694Y383574D01*
X652704Y383557D01*
X652783Y383490D01*
X652858Y383418D01*
X652876Y383410D01*
X652891Y383397D01*
X652987Y383358D01*
X653081Y383315D01*
X653101Y383313D01*
X653119Y383305D01*
X653286Y383287D01*
X714179Y383287D01*
X717998Y379468D01*
X718072Y379415D01*
X718142Y379355D01*
X718172Y379343D01*
X718198Y379324D01*
X718285Y379297D01*
X718370Y379263D01*
X718411Y379259D01*
X718433Y379252D01*
X718465Y379253D01*
X718537Y379245D01*
X726215Y379245D01*
X726306Y379259D01*
X726396Y379267D01*
X726426Y379279D01*
X726458Y379284D01*
X726539Y379327D01*
X726623Y379363D01*
X726655Y379389D01*
X726676Y379400D01*
X726698Y379423D01*
X726754Y379468D01*
X731942Y384656D01*
X731984Y384714D01*
X732033Y384766D01*
X732055Y384813D01*
X732085Y384855D01*
X732106Y384924D01*
X732137Y384989D01*
X732142Y385041D01*
X732158Y385091D01*
X732156Y385162D01*
X732164Y385233D01*
X732153Y385284D01*
X732151Y385336D01*
X732127Y385404D01*
X732112Y385474D01*
X732085Y385519D01*
X732067Y385567D01*
X732022Y385623D01*
X731985Y385685D01*
X731946Y385719D01*
X731913Y385759D01*
X731853Y385798D01*
X731798Y385845D01*
X731750Y385864D01*
X731706Y385892D01*
X731637Y385910D01*
X731570Y385937D01*
X731499Y385945D01*
X731468Y385953D01*
X731444Y385951D01*
X731404Y385955D01*
X714461Y385955D01*
X711100Y387347D01*
X708527Y389920D01*
X707135Y393281D01*
X707135Y396919D01*
X708527Y400280D01*
X709752Y401505D01*
X709764Y401521D01*
X709780Y401534D01*
X709836Y401621D01*
X709896Y401705D01*
X709902Y401724D01*
X709913Y401741D01*
X709938Y401841D01*
X709968Y401940D01*
X709968Y401960D01*
X709973Y401979D01*
X709965Y402082D01*
X709962Y402186D01*
X709955Y402205D01*
X709954Y402224D01*
X709913Y402319D01*
X709878Y402417D01*
X709865Y402432D01*
X709857Y402451D01*
X709752Y402582D01*
X656120Y456214D01*
X656046Y456267D01*
X655976Y456327D01*
X655946Y456339D01*
X655920Y456358D01*
X655833Y456385D01*
X655748Y456419D01*
X655707Y456423D01*
X655685Y456430D01*
X655653Y456429D01*
X655581Y456437D01*
X653786Y456437D01*
X653766Y456434D01*
X653747Y456436D01*
X653645Y456414D01*
X653543Y456398D01*
X653526Y456388D01*
X653506Y456384D01*
X653417Y456331D01*
X653326Y456282D01*
X653312Y456268D01*
X653295Y456258D01*
X653228Y456179D01*
X653156Y456104D01*
X653148Y456086D01*
X653135Y456071D01*
X653096Y455975D01*
X653053Y455881D01*
X653051Y455861D01*
X653043Y455843D01*
X653025Y455676D01*
X653025Y452168D01*
X652795Y451938D01*
X652783Y451922D01*
X652767Y451910D01*
X652711Y451822D01*
X652651Y451739D01*
X652645Y451720D01*
X652634Y451703D01*
X652609Y451602D01*
X652579Y451503D01*
X652579Y451483D01*
X652574Y451464D01*
X652582Y451361D01*
X652585Y451258D01*
X652592Y451239D01*
X652593Y451219D01*
X652634Y451124D01*
X652669Y451027D01*
X652682Y451011D01*
X652690Y450993D01*
X652795Y450862D01*
X653025Y450632D01*
X653025Y447168D01*
X652795Y446938D01*
X652783Y446922D01*
X652767Y446910D01*
X652711Y446822D01*
X652651Y446739D01*
X652645Y446720D01*
X652634Y446703D01*
X652609Y446602D01*
X652579Y446503D01*
X652579Y446483D01*
X652574Y446464D01*
X652582Y446361D01*
X652585Y446258D01*
X652592Y446239D01*
X652593Y446219D01*
X652634Y446124D01*
X652669Y446027D01*
X652682Y446011D01*
X652690Y445993D01*
X652795Y445862D01*
X653025Y445632D01*
X653025Y442168D01*
X652795Y441938D01*
X652783Y441922D01*
X652767Y441910D01*
X652711Y441822D01*
X652651Y441739D01*
X652645Y441720D01*
X652634Y441703D01*
X652609Y441602D01*
X652579Y441503D01*
X652579Y441483D01*
X652574Y441464D01*
X652582Y441361D01*
X652585Y441258D01*
X652592Y441239D01*
X652593Y441219D01*
X652634Y441124D01*
X652669Y441027D01*
X652682Y441011D01*
X652690Y440993D01*
X652795Y440862D01*
X653025Y440632D01*
X653025Y437168D01*
X652795Y436938D01*
X652783Y436922D01*
X652767Y436910D01*
X652711Y436822D01*
X652651Y436739D01*
X652645Y436720D01*
X652634Y436703D01*
X652609Y436602D01*
X652579Y436503D01*
X652579Y436483D01*
X652574Y436464D01*
X652582Y436361D01*
X652585Y436258D01*
X652592Y436239D01*
X652593Y436219D01*
X652634Y436124D01*
X652669Y436027D01*
X652682Y436011D01*
X652690Y435993D01*
X652795Y435862D01*
X653025Y435632D01*
X653025Y432168D01*
X652795Y431938D01*
X652783Y431922D01*
X652767Y431910D01*
X652711Y431822D01*
X652651Y431739D01*
X652645Y431720D01*
X652634Y431703D01*
X652609Y431602D01*
X652579Y431503D01*
X652579Y431483D01*
X652574Y431464D01*
X652582Y431361D01*
X652585Y431258D01*
X652592Y431239D01*
X652593Y431219D01*
X652634Y431124D01*
X652669Y431027D01*
X652682Y431011D01*
X652690Y430993D01*
X652795Y430862D01*
X653025Y430632D01*
X653025Y427168D01*
X652795Y426938D01*
X652783Y426922D01*
X652767Y426910D01*
X652711Y426822D01*
X652651Y426739D01*
X652645Y426720D01*
X652634Y426703D01*
X652609Y426602D01*
X652579Y426503D01*
X652579Y426483D01*
X652574Y426464D01*
X652582Y426361D01*
X652585Y426258D01*
X652592Y426239D01*
X652593Y426219D01*
X652634Y426124D01*
X652669Y426027D01*
X652682Y426011D01*
X652690Y425993D01*
X652795Y425862D01*
X653025Y425632D01*
X653025Y422168D01*
X652795Y421938D01*
X652783Y421922D01*
X652767Y421910D01*
X652711Y421822D01*
X652651Y421739D01*
X652645Y421720D01*
X652634Y421703D01*
X652609Y421602D01*
X652579Y421503D01*
X652579Y421483D01*
X652574Y421464D01*
X652582Y421361D01*
X652585Y421258D01*
X652592Y421239D01*
X652593Y421219D01*
X652634Y421124D01*
X652669Y421027D01*
X652682Y421011D01*
X652690Y420993D01*
X652795Y420862D01*
X653025Y420632D01*
X653025Y417168D01*
X652795Y416938D01*
X652783Y416922D01*
X652767Y416910D01*
X652711Y416822D01*
X652651Y416739D01*
X652645Y416720D01*
X652634Y416703D01*
X652609Y416602D01*
X652579Y416503D01*
X652579Y416483D01*
X652574Y416464D01*
X652582Y416361D01*
X652585Y416258D01*
X652592Y416239D01*
X652593Y416219D01*
X652634Y416124D01*
X652669Y416027D01*
X652682Y416011D01*
X652690Y415993D01*
X652795Y415862D01*
X653025Y415632D01*
X653025Y412168D01*
X652132Y411275D01*
X640868Y411275D01*
X639975Y412168D01*
X639975Y415632D01*
X640205Y415862D01*
X640217Y415878D01*
X640233Y415890D01*
X640289Y415977D01*
X640349Y416061D01*
X640355Y416080D01*
X640366Y416097D01*
X640391Y416198D01*
X640421Y416296D01*
X640421Y416316D01*
X640426Y416336D01*
X640418Y416439D01*
X640415Y416542D01*
X640408Y416561D01*
X640407Y416581D01*
X640366Y416676D01*
X640331Y416773D01*
X640318Y416789D01*
X640310Y416807D01*
X640205Y416938D01*
X639975Y417168D01*
X639975Y420632D01*
X640205Y420862D01*
X640217Y420878D01*
X640233Y420890D01*
X640289Y420977D01*
X640349Y421061D01*
X640355Y421080D01*
X640366Y421097D01*
X640391Y421198D01*
X640421Y421296D01*
X640421Y421316D01*
X640426Y421336D01*
X640418Y421439D01*
X640415Y421542D01*
X640408Y421561D01*
X640407Y421581D01*
X640366Y421676D01*
X640331Y421773D01*
X640318Y421789D01*
X640310Y421807D01*
X640205Y421938D01*
X639975Y422168D01*
X639975Y425632D01*
X640205Y425862D01*
X640217Y425878D01*
X640233Y425890D01*
X640289Y425977D01*
X640349Y426061D01*
X640355Y426080D01*
X640366Y426097D01*
X640391Y426198D01*
X640421Y426296D01*
X640421Y426316D01*
X640426Y426336D01*
X640418Y426439D01*
X640415Y426542D01*
X640408Y426561D01*
X640407Y426581D01*
X640366Y426676D01*
X640331Y426773D01*
X640318Y426789D01*
X640310Y426807D01*
X640205Y426938D01*
X639975Y427168D01*
X639975Y430632D01*
X640205Y430862D01*
X640217Y430878D01*
X640233Y430890D01*
X640289Y430977D01*
X640349Y431061D01*
X640355Y431080D01*
X640366Y431097D01*
X640391Y431198D01*
X640421Y431296D01*
X640421Y431316D01*
X640426Y431336D01*
X640418Y431439D01*
X640415Y431542D01*
X640408Y431561D01*
X640407Y431581D01*
X640366Y431676D01*
X640331Y431773D01*
X640318Y431789D01*
X640310Y431807D01*
X640205Y431938D01*
X639975Y432168D01*
X639975Y435632D01*
X640205Y435862D01*
X640217Y435878D01*
X640233Y435890D01*
X640289Y435977D01*
X640349Y436061D01*
X640355Y436080D01*
X640366Y436097D01*
X640391Y436198D01*
X640421Y436296D01*
X640421Y436316D01*
X640426Y436336D01*
X640418Y436439D01*
X640415Y436542D01*
X640408Y436561D01*
X640407Y436581D01*
X640366Y436676D01*
X640331Y436773D01*
X640318Y436789D01*
X640310Y436807D01*
X640205Y436938D01*
X639975Y437168D01*
X639975Y440632D01*
X640205Y440862D01*
X640217Y440878D01*
X640233Y440890D01*
X640289Y440977D01*
X640349Y441061D01*
X640355Y441080D01*
X640366Y441097D01*
X640391Y441198D01*
X640421Y441296D01*
X640421Y441316D01*
X640426Y441336D01*
X640418Y441439D01*
X640415Y441542D01*
X640408Y441561D01*
X640407Y441581D01*
X640366Y441676D01*
X640331Y441773D01*
X640318Y441789D01*
X640310Y441807D01*
X640205Y441938D01*
X639975Y442168D01*
X639975Y445632D01*
X640205Y445862D01*
X640217Y445878D01*
X640233Y445890D01*
X640289Y445977D01*
X640349Y446061D01*
X640355Y446080D01*
X640366Y446097D01*
X640391Y446198D01*
X640421Y446296D01*
X640421Y446316D01*
X640426Y446336D01*
X640418Y446439D01*
X640415Y446542D01*
X640408Y446561D01*
X640407Y446581D01*
X640366Y446676D01*
X640331Y446773D01*
X640318Y446789D01*
X640310Y446807D01*
X640205Y446938D01*
X639975Y447168D01*
X639975Y450632D01*
X640205Y450862D01*
X640217Y450878D01*
X640233Y450890D01*
X640289Y450977D01*
X640349Y451061D01*
X640355Y451080D01*
X640366Y451097D01*
X640391Y451198D01*
X640421Y451296D01*
X640421Y451316D01*
X640426Y451336D01*
X640418Y451439D01*
X640415Y451542D01*
X640408Y451561D01*
X640407Y451581D01*
X640366Y451676D01*
X640331Y451773D01*
X640318Y451789D01*
X640310Y451807D01*
X640205Y451938D01*
X639953Y452191D01*
X639944Y452215D01*
X639936Y452266D01*
X639902Y452330D01*
X639877Y452397D01*
X639845Y452438D01*
X639820Y452484D01*
X639769Y452533D01*
X639724Y452589D01*
X639680Y452617D01*
X639642Y452653D01*
X639577Y452683D01*
X639517Y452722D01*
X639466Y452735D01*
X639419Y452757D01*
X639348Y452765D01*
X639278Y452782D01*
X639226Y452778D01*
X639175Y452784D01*
X639104Y452769D01*
X639033Y452763D01*
X638985Y452743D01*
X638934Y452732D01*
X638873Y452695D01*
X638807Y452667D01*
X638751Y452622D01*
X638723Y452605D01*
X638708Y452588D01*
X638676Y452562D01*
X595338Y409224D01*
X595296Y409166D01*
X595247Y409114D01*
X595225Y409067D01*
X595195Y409025D01*
X595174Y408956D01*
X595143Y408891D01*
X595138Y408839D01*
X595122Y408789D01*
X595124Y408718D01*
X595116Y408647D01*
X595127Y408596D01*
X595129Y408544D01*
X595153Y408476D01*
X595168Y408406D01*
X595195Y408362D01*
X595213Y408313D01*
X595258Y408257D01*
X595295Y408195D01*
X595334Y408161D01*
X595367Y408121D01*
X595427Y408082D01*
X595482Y408035D01*
X595530Y408016D01*
X595574Y407988D01*
X595643Y407970D01*
X595710Y407943D01*
X595713Y407943D01*
X595962Y407695D01*
X595978Y407683D01*
X595990Y407667D01*
X596077Y407611D01*
X596161Y407551D01*
X596180Y407545D01*
X596197Y407534D01*
X596298Y407509D01*
X596396Y407479D01*
X596416Y407479D01*
X596436Y407474D01*
X596539Y407482D01*
X596642Y407485D01*
X596661Y407492D01*
X596681Y407493D01*
X596776Y407534D01*
X596873Y407569D01*
X596889Y407582D01*
X596907Y407590D01*
X597038Y407695D01*
X597268Y407925D01*
X600732Y407925D01*
X600962Y407695D01*
X600978Y407683D01*
X600990Y407667D01*
X601077Y407611D01*
X601161Y407551D01*
X601180Y407545D01*
X601197Y407534D01*
X601298Y407509D01*
X601396Y407479D01*
X601416Y407479D01*
X601436Y407474D01*
X601539Y407482D01*
X601642Y407485D01*
X601661Y407492D01*
X601681Y407493D01*
X601776Y407534D01*
X601873Y407569D01*
X601889Y407582D01*
X601907Y407590D01*
X602038Y407695D01*
X602268Y407925D01*
X605732Y407925D01*
X605962Y407695D01*
X605978Y407683D01*
X605990Y407667D01*
X606077Y407611D01*
X606161Y407551D01*
X606180Y407545D01*
X606197Y407534D01*
X606298Y407509D01*
X606396Y407479D01*
X606416Y407479D01*
X606436Y407474D01*
X606539Y407482D01*
X606642Y407485D01*
X606661Y407492D01*
X606681Y407493D01*
X606776Y407534D01*
X606873Y407569D01*
X606889Y407582D01*
X606907Y407590D01*
X607038Y407695D01*
X607268Y407925D01*
X610732Y407925D01*
X610962Y407695D01*
X610978Y407683D01*
X610990Y407667D01*
X611077Y407611D01*
X611161Y407551D01*
X611180Y407545D01*
X611197Y407534D01*
X611298Y407509D01*
X611396Y407479D01*
X611416Y407479D01*
X611436Y407474D01*
X611539Y407482D01*
X611642Y407485D01*
X611661Y407492D01*
X611681Y407493D01*
X611776Y407534D01*
X611873Y407569D01*
X611889Y407582D01*
X611907Y407590D01*
X612038Y407695D01*
X612268Y407925D01*
X615732Y407925D01*
X615962Y407695D01*
X615978Y407683D01*
X615990Y407667D01*
X616078Y407611D01*
X616161Y407551D01*
X616180Y407545D01*
X616197Y407534D01*
X616298Y407509D01*
X616397Y407479D01*
X616417Y407479D01*
X616436Y407474D01*
X616539Y407482D01*
X616642Y407485D01*
X616661Y407492D01*
X616681Y407493D01*
X616776Y407534D01*
X616873Y407569D01*
X616889Y407582D01*
X616907Y407590D01*
X617038Y407695D01*
X617268Y407925D01*
X620732Y407925D01*
X620962Y407695D01*
X620978Y407683D01*
X620990Y407667D01*
X621077Y407611D01*
X621161Y407551D01*
X621180Y407545D01*
X621197Y407534D01*
X621298Y407509D01*
X621396Y407479D01*
X621416Y407479D01*
X621436Y407474D01*
X621539Y407482D01*
X621642Y407485D01*
X621661Y407492D01*
X621681Y407493D01*
X621776Y407534D01*
X621873Y407569D01*
X621889Y407582D01*
X621907Y407590D01*
X622038Y407695D01*
X622268Y407925D01*
X625516Y407925D01*
X625606Y407939D01*
X625697Y407947D01*
X625727Y407959D01*
X625759Y407964D01*
X625840Y408007D01*
X625924Y408043D01*
X625956Y408069D01*
X625976Y408080D01*
X625999Y408103D01*
X626055Y408148D01*
X626340Y408433D01*
X626919Y408768D01*
X627566Y408941D01*
X628239Y408941D01*
X628239Y401400D01*
X628239Y393859D01*
X627566Y393859D01*
X626919Y394032D01*
X626340Y394367D01*
X626055Y394652D01*
X625981Y394705D01*
X625911Y394765D01*
X625881Y394777D01*
X625855Y394796D01*
X625768Y394823D01*
X625683Y394857D01*
X625642Y394861D01*
X625620Y394868D01*
X625588Y394867D01*
X625516Y394875D01*
X622268Y394875D01*
X622038Y395105D01*
X622022Y395117D01*
X622010Y395133D01*
X621922Y395189D01*
X621839Y395249D01*
X621820Y395255D01*
X621803Y395266D01*
X621702Y395291D01*
X621603Y395321D01*
X621583Y395321D01*
X621564Y395326D01*
X621461Y395318D01*
X621358Y395315D01*
X621339Y395308D01*
X621319Y395307D01*
X621224Y395266D01*
X621127Y395231D01*
X621111Y395218D01*
X621093Y395210D01*
X620962Y395105D01*
X620732Y394875D01*
X617268Y394875D01*
X617038Y395105D01*
X617022Y395117D01*
X617010Y395133D01*
X616923Y395189D01*
X616839Y395249D01*
X616820Y395255D01*
X616803Y395266D01*
X616702Y395291D01*
X616604Y395321D01*
X616584Y395321D01*
X616564Y395326D01*
X616461Y395318D01*
X616358Y395315D01*
X616339Y395308D01*
X616319Y395307D01*
X616224Y395266D01*
X616127Y395231D01*
X616111Y395218D01*
X616093Y395210D01*
X615962Y395105D01*
X615732Y394875D01*
X612268Y394875D01*
X612038Y395105D01*
X612022Y395117D01*
X612010Y395133D01*
X611922Y395189D01*
X611839Y395249D01*
X611820Y395255D01*
X611803Y395266D01*
X611702Y395291D01*
X611603Y395321D01*
X611583Y395321D01*
X611564Y395326D01*
X611461Y395318D01*
X611358Y395315D01*
X611339Y395308D01*
X611319Y395307D01*
X611224Y395266D01*
X611127Y395231D01*
X611111Y395218D01*
X611093Y395210D01*
X610962Y395105D01*
X610732Y394875D01*
X607268Y394875D01*
X607038Y395105D01*
X607022Y395117D01*
X607010Y395133D01*
X606922Y395189D01*
X606839Y395249D01*
X606820Y395255D01*
X606803Y395266D01*
X606702Y395291D01*
X606603Y395321D01*
X606583Y395321D01*
X606564Y395326D01*
X606461Y395318D01*
X606358Y395315D01*
X606339Y395308D01*
X606319Y395307D01*
X606224Y395266D01*
X606127Y395231D01*
X606111Y395218D01*
X606093Y395210D01*
X605962Y395105D01*
X605732Y394875D01*
X602268Y394875D01*
X602038Y395105D01*
X602022Y395117D01*
X602010Y395133D01*
X601922Y395189D01*
X601839Y395249D01*
X601820Y395255D01*
X601803Y395266D01*
X601702Y395291D01*
X601603Y395321D01*
X601583Y395321D01*
X601564Y395326D01*
X601461Y395318D01*
X601358Y395315D01*
X601339Y395308D01*
X601319Y395307D01*
X601224Y395266D01*
X601127Y395231D01*
X601111Y395218D01*
X601093Y395210D01*
X600962Y395105D01*
X600732Y394875D01*
X597268Y394875D01*
X597038Y395105D01*
X597022Y395117D01*
X597010Y395133D01*
X596922Y395189D01*
X596839Y395249D01*
X596820Y395255D01*
X596803Y395266D01*
X596702Y395291D01*
X596603Y395321D01*
X596583Y395321D01*
X596564Y395326D01*
X596461Y395318D01*
X596358Y395315D01*
X596339Y395308D01*
X596319Y395307D01*
X596224Y395266D01*
X596127Y395231D01*
X596111Y395218D01*
X596093Y395210D01*
X595962Y395105D01*
X595732Y394875D01*
X592268Y394875D01*
X592038Y395105D01*
X592022Y395117D01*
X592010Y395133D01*
X591922Y395189D01*
X591839Y395249D01*
X591820Y395255D01*
X591803Y395266D01*
X591702Y395291D01*
X591603Y395321D01*
X591583Y395321D01*
X591564Y395326D01*
X591461Y395318D01*
X591358Y395315D01*
X591339Y395308D01*
X591319Y395307D01*
X591224Y395266D01*
X591127Y395231D01*
X591111Y395218D01*
X591093Y395210D01*
X590962Y395105D01*
X590732Y394875D01*
X587268Y394875D01*
X587038Y395105D01*
X587022Y395117D01*
X587010Y395133D01*
X586922Y395189D01*
X586839Y395249D01*
X586820Y395255D01*
X586803Y395266D01*
X586702Y395291D01*
X586603Y395321D01*
X586583Y395321D01*
X586564Y395326D01*
X586461Y395318D01*
X586358Y395315D01*
X586339Y395308D01*
X586319Y395307D01*
X586224Y395266D01*
X586127Y395231D01*
X586111Y395218D01*
X586093Y395210D01*
X585962Y395105D01*
X585732Y394875D01*
X582268Y394875D01*
X582038Y395105D01*
X582022Y395117D01*
X582010Y395133D01*
X581922Y395189D01*
X581839Y395249D01*
X581820Y395255D01*
X581803Y395266D01*
X581702Y395291D01*
X581603Y395321D01*
X581583Y395321D01*
X581564Y395326D01*
X581461Y395318D01*
X581358Y395315D01*
X581339Y395308D01*
X581319Y395307D01*
X581224Y395266D01*
X581127Y395231D01*
X581111Y395218D01*
X581093Y395210D01*
X580962Y395105D01*
X580732Y394875D01*
X577268Y394875D01*
X576375Y395768D01*
X576375Y403664D01*
X576364Y403734D01*
X576362Y403806D01*
X576344Y403855D01*
X576336Y403906D01*
X576302Y403970D01*
X576277Y404037D01*
X576245Y404078D01*
X576220Y404124D01*
X576168Y404173D01*
X576124Y404229D01*
X576080Y404257D01*
X576042Y404293D01*
X575977Y404323D01*
X575917Y404362D01*
X575866Y404375D01*
X575819Y404397D01*
X575748Y404405D01*
X575678Y404422D01*
X575626Y404418D01*
X575575Y404424D01*
X575504Y404409D01*
X575433Y404403D01*
X575385Y404383D01*
X575334Y404372D01*
X575273Y404335D01*
X575207Y404307D01*
X575151Y404262D01*
X575123Y404245D01*
X575108Y404228D01*
X575076Y404202D01*
X569399Y398525D01*
X555313Y398525D01*
X546353Y407485D01*
X546353Y454715D01*
X546342Y454785D01*
X546340Y454857D01*
X546322Y454906D01*
X546314Y454957D01*
X546280Y455021D01*
X546255Y455088D01*
X546223Y455129D01*
X546198Y455175D01*
X546146Y455224D01*
X546102Y455280D01*
X546058Y455308D01*
X546020Y455344D01*
X545955Y455374D01*
X545895Y455413D01*
X545844Y455426D01*
X545797Y455448D01*
X545726Y455456D01*
X545656Y455473D01*
X545604Y455469D01*
X545553Y455475D01*
X545482Y455460D01*
X545411Y455454D01*
X545363Y455434D01*
X545312Y455423D01*
X545251Y455386D01*
X545185Y455358D01*
X545129Y455313D01*
X545101Y455296D01*
X545086Y455279D01*
X545054Y455253D01*
X544742Y454941D01*
X540787Y454941D01*
X540696Y454927D01*
X540606Y454919D01*
X540576Y454907D01*
X540544Y454902D01*
X540463Y454859D01*
X540379Y454823D01*
X540347Y454797D01*
X540326Y454786D01*
X540304Y454763D01*
X540248Y454718D01*
X529948Y444418D01*
X529895Y444344D01*
X529835Y444274D01*
X529823Y444244D01*
X529804Y444218D01*
X529777Y444131D01*
X529743Y444046D01*
X529739Y444005D01*
X529732Y443983D01*
X529733Y443951D01*
X529725Y443879D01*
X529725Y440568D01*
X528832Y439675D01*
X512568Y439675D01*
X511675Y440568D01*
X511675Y441452D01*
X511672Y441472D01*
X511674Y441491D01*
X511652Y441593D01*
X511636Y441695D01*
X511626Y441712D01*
X511622Y441732D01*
X511569Y441821D01*
X511520Y441912D01*
X511506Y441926D01*
X511496Y441943D01*
X511417Y442010D01*
X511342Y442082D01*
X511324Y442090D01*
X511309Y442103D01*
X511213Y442142D01*
X511119Y442185D01*
X511099Y442187D01*
X511081Y442195D01*
X510914Y442213D01*
X506586Y442213D01*
X506566Y442210D01*
X506547Y442212D01*
X506445Y442190D01*
X506343Y442174D01*
X506326Y442164D01*
X506306Y442160D01*
X506217Y442107D01*
X506126Y442058D01*
X506112Y442044D01*
X506095Y442034D01*
X506028Y441955D01*
X505956Y441880D01*
X505948Y441862D01*
X505935Y441847D01*
X505896Y441751D01*
X505853Y441657D01*
X505851Y441637D01*
X505843Y441619D01*
X505825Y441452D01*
X505825Y436168D01*
X504932Y435275D01*
X485668Y435275D01*
X484775Y436168D01*
X484775Y447432D01*
X485668Y448325D01*
X504932Y448325D01*
X505847Y447409D01*
X505848Y447407D01*
X505864Y447305D01*
X505874Y447288D01*
X505878Y447268D01*
X505931Y447179D01*
X505980Y447088D01*
X505994Y447074D01*
X506004Y447057D01*
X506083Y446990D01*
X506158Y446918D01*
X506176Y446910D01*
X506191Y446897D01*
X506287Y446858D01*
X506381Y446815D01*
X506401Y446813D01*
X506419Y446805D01*
X506586Y446787D01*
X510914Y446787D01*
X510934Y446790D01*
X510953Y446788D01*
G37*
%LPD*%
%LPC*%
G36*
X476384Y413849D02*
X476384Y413849D01*
X476414Y413837D01*
X476440Y413818D01*
X476469Y413809D01*
X476527Y413791D01*
X476612Y413757D01*
X476653Y413753D01*
X476675Y413746D01*
X476707Y413747D01*
X476778Y413739D01*
X480734Y413739D01*
X483476Y410997D01*
X483534Y410955D01*
X483586Y410906D01*
X483633Y410884D01*
X483675Y410854D01*
X483744Y410832D01*
X483809Y410802D01*
X483861Y410797D01*
X483911Y410781D01*
X483982Y410783D01*
X484043Y410776D01*
X484039Y410773D01*
X484000Y410713D01*
X483953Y410658D01*
X483934Y410610D01*
X483906Y410566D01*
X483888Y410496D01*
X483861Y410430D01*
X483853Y410359D01*
X483845Y410327D01*
X483847Y410304D01*
X483843Y410263D01*
X483843Y406234D01*
X480734Y403125D01*
X476338Y403125D01*
X473229Y406234D01*
X473229Y410190D01*
X473215Y410280D01*
X473207Y410371D01*
X473195Y410400D01*
X473190Y410432D01*
X473147Y410513D01*
X473111Y410597D01*
X473085Y410629D01*
X473074Y410650D01*
X473051Y410672D01*
X473006Y410728D01*
X457738Y425996D01*
X439712Y444022D01*
X439638Y444075D01*
X439568Y444135D01*
X439538Y444147D01*
X439512Y444166D01*
X439425Y444193D01*
X439340Y444227D01*
X439299Y444231D01*
X439277Y444238D01*
X439245Y444237D01*
X439173Y444245D01*
X343477Y444245D01*
X339770Y447952D01*
X339696Y448005D01*
X339626Y448065D01*
X339596Y448077D01*
X339570Y448096D01*
X339483Y448123D01*
X339398Y448157D01*
X339357Y448161D01*
X339335Y448168D01*
X339303Y448167D01*
X339231Y448175D01*
X326268Y448175D01*
X325375Y449068D01*
X325375Y465332D01*
X326268Y466225D01*
X340532Y466225D01*
X341425Y465332D01*
X341425Y453081D01*
X341439Y452991D01*
X341447Y452900D01*
X341459Y452870D01*
X341464Y452838D01*
X341507Y452757D01*
X341543Y452673D01*
X341569Y452641D01*
X341580Y452620D01*
X341603Y452598D01*
X341648Y452542D01*
X342060Y452130D01*
X342118Y452088D01*
X342170Y452039D01*
X342217Y452017D01*
X342259Y451987D01*
X342328Y451966D01*
X342393Y451935D01*
X342445Y451930D01*
X342495Y451914D01*
X342566Y451916D01*
X342637Y451908D01*
X342688Y451919D01*
X342740Y451921D01*
X342808Y451945D01*
X342878Y451960D01*
X342923Y451987D01*
X342971Y452005D01*
X343027Y452050D01*
X343089Y452087D01*
X343123Y452126D01*
X343163Y452159D01*
X343202Y452219D01*
X343249Y452274D01*
X343268Y452322D01*
X343296Y452366D01*
X343314Y452435D01*
X343341Y452502D01*
X343349Y452573D01*
X343357Y452604D01*
X343355Y452628D01*
X343359Y452668D01*
X343359Y455677D01*
X351638Y455677D01*
X351658Y455680D01*
X351677Y455678D01*
X351779Y455700D01*
X351881Y455717D01*
X351898Y455726D01*
X351918Y455730D01*
X352007Y455783D01*
X352098Y455832D01*
X352112Y455846D01*
X352129Y455856D01*
X352196Y455935D01*
X352267Y456010D01*
X352276Y456028D01*
X352289Y456043D01*
X352328Y456139D01*
X352371Y456233D01*
X352373Y456253D01*
X352381Y456271D01*
X352399Y456438D01*
X352399Y457201D01*
X352401Y457201D01*
X352401Y456438D01*
X352404Y456418D01*
X352402Y456399D01*
X352424Y456297D01*
X352441Y456195D01*
X352450Y456178D01*
X352454Y456158D01*
X352507Y456069D01*
X352556Y455978D01*
X352570Y455964D01*
X352580Y455947D01*
X352659Y455880D01*
X352734Y455809D01*
X352752Y455800D01*
X352767Y455787D01*
X352863Y455748D01*
X352957Y455705D01*
X352977Y455703D01*
X352995Y455695D01*
X353162Y455677D01*
X361441Y455677D01*
X361441Y449580D01*
X361444Y449560D01*
X361442Y449541D01*
X361464Y449439D01*
X361480Y449337D01*
X361490Y449320D01*
X361494Y449300D01*
X361547Y449211D01*
X361596Y449120D01*
X361610Y449106D01*
X361620Y449089D01*
X361699Y449022D01*
X361774Y448950D01*
X361792Y448942D01*
X361807Y448929D01*
X361903Y448890D01*
X361997Y448847D01*
X362017Y448845D01*
X362035Y448837D01*
X362202Y448819D01*
X441383Y448819D01*
X476240Y413962D01*
X476314Y413909D01*
X476384Y413849D01*
G37*
%LPD*%
%LPC*%
G36*
X405668Y372925D02*
X405668Y372925D01*
X404775Y373818D01*
X404775Y414182D01*
X405668Y415075D01*
X411932Y415075D01*
X412825Y414182D01*
X412825Y397048D01*
X412828Y397028D01*
X412826Y397009D01*
X412848Y396907D01*
X412864Y396805D01*
X412874Y396788D01*
X412878Y396768D01*
X412931Y396679D01*
X412980Y396588D01*
X412994Y396574D01*
X413004Y396557D01*
X413083Y396490D01*
X413158Y396418D01*
X413176Y396410D01*
X413191Y396397D01*
X413287Y396358D01*
X413381Y396315D01*
X413401Y396313D01*
X413419Y396305D01*
X413586Y396287D01*
X430837Y396287D01*
X430928Y396301D01*
X431018Y396309D01*
X431048Y396321D01*
X431080Y396326D01*
X431161Y396369D01*
X431245Y396405D01*
X431277Y396431D01*
X431298Y396442D01*
X431320Y396465D01*
X431376Y396510D01*
X435252Y400386D01*
X435305Y400460D01*
X435365Y400530D01*
X435377Y400560D01*
X435396Y400586D01*
X435423Y400673D01*
X435457Y400758D01*
X435461Y400799D01*
X435468Y400821D01*
X435467Y400853D01*
X435475Y400925D01*
X435475Y404032D01*
X436368Y404925D01*
X439475Y404925D01*
X439565Y404939D01*
X439656Y404947D01*
X439686Y404959D01*
X439718Y404964D01*
X439799Y405007D01*
X439883Y405043D01*
X439915Y405069D01*
X439936Y405080D01*
X439958Y405103D01*
X440014Y405148D01*
X440426Y405560D01*
X440468Y405618D01*
X440517Y405670D01*
X440539Y405717D01*
X440569Y405759D01*
X440590Y405828D01*
X440621Y405893D01*
X440626Y405945D01*
X440642Y405995D01*
X440640Y406066D01*
X440648Y406137D01*
X440637Y406188D01*
X440635Y406240D01*
X440611Y406308D01*
X440596Y406378D01*
X440569Y406423D01*
X440551Y406471D01*
X440506Y406527D01*
X440469Y406589D01*
X440430Y406623D01*
X440397Y406663D01*
X440337Y406702D01*
X440282Y406749D01*
X440234Y406768D01*
X440190Y406796D01*
X440121Y406814D01*
X440054Y406841D01*
X439983Y406849D01*
X439952Y406857D01*
X439928Y406855D01*
X439888Y406859D01*
X436666Y406859D01*
X436019Y407032D01*
X435440Y407367D01*
X434967Y407840D01*
X434632Y408419D01*
X434459Y409066D01*
X434459Y414377D01*
X443738Y414377D01*
X443758Y414380D01*
X443777Y414378D01*
X443879Y414400D01*
X443981Y414417D01*
X443998Y414426D01*
X444018Y414430D01*
X444107Y414483D01*
X444198Y414532D01*
X444212Y414546D01*
X444229Y414556D01*
X444296Y414635D01*
X444367Y414710D01*
X444376Y414728D01*
X444389Y414743D01*
X444428Y414839D01*
X444471Y414933D01*
X444473Y414953D01*
X444481Y414971D01*
X444499Y415138D01*
X444499Y415901D01*
X444501Y415901D01*
X444501Y415138D01*
X444504Y415118D01*
X444502Y415099D01*
X444524Y414997D01*
X444541Y414895D01*
X444550Y414878D01*
X444554Y414858D01*
X444607Y414769D01*
X444656Y414678D01*
X444670Y414664D01*
X444680Y414647D01*
X444759Y414580D01*
X444834Y414509D01*
X444852Y414500D01*
X444867Y414487D01*
X444963Y414448D01*
X445057Y414405D01*
X445077Y414403D01*
X445095Y414395D01*
X445262Y414377D01*
X454541Y414377D01*
X454541Y409066D01*
X454368Y408419D01*
X454033Y407840D01*
X453560Y407367D01*
X452981Y407032D01*
X452334Y406859D01*
X447548Y406859D01*
X447528Y406856D01*
X447509Y406858D01*
X447407Y406836D01*
X447305Y406820D01*
X447288Y406810D01*
X447268Y406806D01*
X447179Y406753D01*
X447088Y406704D01*
X447074Y406690D01*
X447057Y406680D01*
X446990Y406601D01*
X446918Y406526D01*
X446910Y406508D01*
X446897Y406493D01*
X446858Y406397D01*
X446815Y406303D01*
X446813Y406283D01*
X446805Y406265D01*
X446787Y406098D01*
X446787Y405686D01*
X446790Y405666D01*
X446788Y405647D01*
X446810Y405545D01*
X446826Y405443D01*
X446836Y405426D01*
X446840Y405406D01*
X446893Y405317D01*
X446942Y405226D01*
X446956Y405212D01*
X446966Y405195D01*
X447045Y405128D01*
X447120Y405056D01*
X447138Y405048D01*
X447153Y405035D01*
X447249Y404996D01*
X447343Y404953D01*
X447363Y404951D01*
X447381Y404943D01*
X447548Y404925D01*
X452632Y404925D01*
X453525Y404032D01*
X453525Y390116D01*
X453528Y390096D01*
X453526Y390077D01*
X453548Y389975D01*
X453564Y389873D01*
X453574Y389856D01*
X453578Y389836D01*
X453631Y389747D01*
X453680Y389656D01*
X453694Y389642D01*
X453704Y389625D01*
X453783Y389558D01*
X453858Y389486D01*
X453876Y389478D01*
X453891Y389465D01*
X453987Y389426D01*
X454081Y389383D01*
X454101Y389381D01*
X454119Y389373D01*
X454286Y389355D01*
X454826Y389355D01*
X457935Y386246D01*
X457935Y381850D01*
X454826Y378741D01*
X450430Y378741D01*
X447321Y381850D01*
X447321Y385805D01*
X447316Y385838D01*
X447317Y385848D01*
X447306Y385897D01*
X447299Y385986D01*
X447287Y386016D01*
X447282Y386048D01*
X447268Y386074D01*
X447265Y386089D01*
X447234Y386139D01*
X447203Y386213D01*
X447177Y386245D01*
X447166Y386266D01*
X447149Y386282D01*
X447139Y386300D01*
X447123Y386313D01*
X447098Y386344D01*
X444790Y388652D01*
X444716Y388705D01*
X444646Y388765D01*
X444616Y388777D01*
X444590Y388796D01*
X444503Y388823D01*
X444418Y388857D01*
X444377Y388861D01*
X444355Y388868D01*
X444323Y388867D01*
X444251Y388875D01*
X436368Y388875D01*
X435475Y389768D01*
X435475Y392304D01*
X435464Y392374D01*
X435462Y392446D01*
X435444Y392495D01*
X435436Y392546D01*
X435402Y392610D01*
X435377Y392677D01*
X435345Y392718D01*
X435320Y392764D01*
X435268Y392813D01*
X435224Y392869D01*
X435180Y392897D01*
X435142Y392933D01*
X435077Y392963D01*
X435017Y393002D01*
X434966Y393015D01*
X434919Y393037D01*
X434848Y393045D01*
X434778Y393062D01*
X434726Y393058D01*
X434675Y393064D01*
X434604Y393049D01*
X434533Y393043D01*
X434485Y393023D01*
X434434Y393012D01*
X434373Y392975D01*
X434307Y392947D01*
X434251Y392902D01*
X434223Y392885D01*
X434208Y392868D01*
X434176Y392842D01*
X433047Y391713D01*
X413586Y391713D01*
X413566Y391710D01*
X413547Y391712D01*
X413445Y391690D01*
X413343Y391674D01*
X413326Y391664D01*
X413306Y391660D01*
X413217Y391607D01*
X413126Y391558D01*
X413112Y391544D01*
X413095Y391534D01*
X413028Y391455D01*
X412956Y391380D01*
X412948Y391362D01*
X412935Y391347D01*
X412896Y391251D01*
X412853Y391157D01*
X412851Y391137D01*
X412843Y391119D01*
X412825Y390952D01*
X412825Y373818D01*
X411932Y372925D01*
X405668Y372925D01*
G37*
%LPD*%
%LPC*%
G36*
X548468Y498975D02*
X548468Y498975D01*
X547575Y499868D01*
X547575Y516132D01*
X548468Y517025D01*
X553212Y517025D01*
X553232Y517028D01*
X553251Y517026D01*
X553353Y517048D01*
X553455Y517064D01*
X553472Y517074D01*
X553492Y517078D01*
X553581Y517131D01*
X553672Y517180D01*
X553686Y517194D01*
X553703Y517204D01*
X553770Y517283D01*
X553842Y517358D01*
X553850Y517376D01*
X553863Y517391D01*
X553902Y517487D01*
X553945Y517581D01*
X553947Y517601D01*
X553955Y517619D01*
X553973Y517786D01*
X553973Y543491D01*
X562908Y552426D01*
X562976Y552520D01*
X563046Y552615D01*
X563048Y552621D01*
X563052Y552626D01*
X563086Y552737D01*
X563123Y552849D01*
X563122Y552855D01*
X563124Y552861D01*
X563121Y552978D01*
X563120Y553095D01*
X563118Y553102D01*
X563118Y553107D01*
X563112Y553125D01*
X563073Y553256D01*
X561593Y556829D01*
X561593Y560771D01*
X563101Y564412D01*
X565888Y567199D01*
X569529Y568707D01*
X573471Y568707D01*
X577112Y567199D01*
X579899Y564412D01*
X581407Y560771D01*
X581407Y556829D01*
X579899Y553188D01*
X577112Y550401D01*
X573471Y548893D01*
X569529Y548893D01*
X567393Y549778D01*
X567279Y549805D01*
X567166Y549834D01*
X567159Y549833D01*
X567153Y549834D01*
X567037Y549823D01*
X566920Y549814D01*
X566915Y549812D01*
X566908Y549811D01*
X566801Y549764D01*
X566694Y549718D01*
X566688Y549713D01*
X566684Y549711D01*
X566670Y549699D01*
X566563Y549613D01*
X558770Y541820D01*
X558717Y541746D01*
X558657Y541676D01*
X558645Y541646D01*
X558626Y541620D01*
X558599Y541533D01*
X558565Y541448D01*
X558561Y541407D01*
X558554Y541385D01*
X558555Y541353D01*
X558547Y541281D01*
X558547Y517786D01*
X558550Y517766D01*
X558548Y517747D01*
X558570Y517645D01*
X558586Y517543D01*
X558596Y517526D01*
X558600Y517506D01*
X558653Y517417D01*
X558702Y517326D01*
X558716Y517312D01*
X558726Y517295D01*
X558805Y517228D01*
X558880Y517156D01*
X558898Y517148D01*
X558913Y517135D01*
X559009Y517096D01*
X559103Y517053D01*
X559123Y517051D01*
X559141Y517043D01*
X559308Y517025D01*
X562732Y517025D01*
X563625Y516132D01*
X563625Y499868D01*
X562732Y498975D01*
X548468Y498975D01*
G37*
%LPD*%
%LPC*%
G36*
X512568Y407875D02*
X512568Y407875D01*
X511675Y408768D01*
X511675Y413752D01*
X511673Y413764D01*
X511674Y413773D01*
X511673Y413779D01*
X511674Y413791D01*
X511652Y413893D01*
X511636Y413995D01*
X511626Y414012D01*
X511622Y414032D01*
X511569Y414121D01*
X511520Y414212D01*
X511506Y414226D01*
X511496Y414243D01*
X511417Y414310D01*
X511342Y414382D01*
X511324Y414390D01*
X511309Y414403D01*
X511213Y414442D01*
X511119Y414485D01*
X511099Y414487D01*
X511081Y414495D01*
X510914Y414513D01*
X506586Y414513D01*
X506566Y414510D01*
X506547Y414512D01*
X506445Y414490D01*
X506343Y414474D01*
X506326Y414464D01*
X506306Y414460D01*
X506217Y414407D01*
X506126Y414358D01*
X506112Y414344D01*
X506095Y414334D01*
X506028Y414255D01*
X505956Y414180D01*
X505948Y414162D01*
X505935Y414147D01*
X505896Y414051D01*
X505853Y413957D01*
X505851Y413937D01*
X505843Y413919D01*
X505825Y413752D01*
X505825Y411168D01*
X504932Y410275D01*
X485668Y410275D01*
X485142Y410801D01*
X485084Y410843D01*
X485032Y410893D01*
X484985Y410915D01*
X484943Y410945D01*
X484874Y410966D01*
X484809Y410996D01*
X484757Y411002D01*
X484707Y411017D01*
X484636Y411015D01*
X484575Y411022D01*
X484579Y411026D01*
X484618Y411086D01*
X484665Y411141D01*
X484684Y411189D01*
X484712Y411233D01*
X484730Y411302D01*
X484757Y411369D01*
X484765Y411440D01*
X484773Y411471D01*
X484771Y411494D01*
X484775Y411535D01*
X484775Y422432D01*
X485668Y423325D01*
X504932Y423325D01*
X505825Y422432D01*
X505825Y419848D01*
X505828Y419828D01*
X505826Y419809D01*
X505848Y419707D01*
X505864Y419605D01*
X505874Y419588D01*
X505878Y419568D01*
X505931Y419479D01*
X505980Y419388D01*
X505994Y419374D01*
X506004Y419357D01*
X506083Y419290D01*
X506158Y419218D01*
X506176Y419210D01*
X506191Y419197D01*
X506287Y419158D01*
X506381Y419115D01*
X506401Y419113D01*
X506419Y419105D01*
X506586Y419087D01*
X510914Y419087D01*
X510934Y419090D01*
X510953Y419088D01*
X511055Y419110D01*
X511157Y419126D01*
X511174Y419136D01*
X511194Y419140D01*
X511283Y419193D01*
X511374Y419242D01*
X511388Y419256D01*
X511405Y419266D01*
X511472Y419345D01*
X511544Y419420D01*
X511552Y419438D01*
X511565Y419453D01*
X511604Y419549D01*
X511647Y419643D01*
X511649Y419663D01*
X511657Y419681D01*
X511675Y419848D01*
X511675Y423032D01*
X512568Y423925D01*
X519435Y423925D01*
X519526Y423939D01*
X519616Y423947D01*
X519646Y423959D01*
X519678Y423964D01*
X519759Y424007D01*
X519843Y424043D01*
X519875Y424069D01*
X519896Y424080D01*
X519918Y424103D01*
X519974Y424148D01*
X521774Y425948D01*
X521827Y426022D01*
X521887Y426092D01*
X521899Y426122D01*
X521918Y426148D01*
X521945Y426235D01*
X521979Y426320D01*
X521983Y426361D01*
X521990Y426383D01*
X521989Y426415D01*
X521997Y426487D01*
X521997Y430442D01*
X525106Y433551D01*
X529502Y433551D01*
X532611Y430442D01*
X532611Y426046D01*
X529948Y423383D01*
X529946Y423381D01*
X529902Y423319D01*
X529881Y423297D01*
X529876Y423288D01*
X529835Y423239D01*
X529823Y423209D01*
X529804Y423183D01*
X529777Y423096D01*
X529743Y423011D01*
X529739Y422970D01*
X529732Y422948D01*
X529733Y422916D01*
X529725Y422845D01*
X529725Y408768D01*
X528832Y407875D01*
X512568Y407875D01*
G37*
%LPD*%
%LPC*%
G36*
X714461Y585955D02*
X714461Y585955D01*
X711100Y587347D01*
X708527Y589920D01*
X707135Y593281D01*
X707135Y596919D01*
X708527Y600280D01*
X711100Y602853D01*
X714461Y604245D01*
X733339Y604245D01*
X736700Y602853D01*
X739273Y600280D01*
X740665Y596919D01*
X740665Y593281D01*
X739273Y589920D01*
X736700Y587347D01*
X733339Y585955D01*
X714461Y585955D01*
G37*
%LPD*%
%LPC*%
G36*
X714461Y535955D02*
X714461Y535955D01*
X711100Y537347D01*
X708527Y539920D01*
X707135Y543281D01*
X707135Y546919D01*
X708527Y550280D01*
X711100Y552853D01*
X714461Y554245D01*
X733339Y554245D01*
X736700Y552853D01*
X739273Y550280D01*
X740665Y546919D01*
X740665Y543281D01*
X739273Y539920D01*
X736700Y537347D01*
X733339Y535955D01*
X714461Y535955D01*
G37*
%LPD*%
%LPC*%
G36*
X714461Y510955D02*
X714461Y510955D01*
X711100Y512347D01*
X708527Y514920D01*
X707135Y518281D01*
X707135Y521919D01*
X708527Y525280D01*
X711100Y527853D01*
X714461Y529245D01*
X733339Y529245D01*
X736700Y527853D01*
X739273Y525280D01*
X740665Y521919D01*
X740665Y518281D01*
X739273Y514920D01*
X736700Y512347D01*
X733339Y510955D01*
X714461Y510955D01*
G37*
%LPD*%
%LPC*%
G36*
X714461Y485955D02*
X714461Y485955D01*
X711100Y487347D01*
X708527Y489920D01*
X707135Y493281D01*
X707135Y496919D01*
X708527Y500280D01*
X711100Y502853D01*
X714461Y504245D01*
X733339Y504245D01*
X736700Y502853D01*
X739273Y500280D01*
X740665Y496919D01*
X740665Y493281D01*
X739273Y489920D01*
X736700Y487347D01*
X733339Y485955D01*
X714461Y485955D01*
G37*
%LPD*%
%LPC*%
G36*
X275549Y394461D02*
X275549Y394461D01*
X272188Y395853D01*
X269615Y398426D01*
X268223Y401787D01*
X268223Y405425D01*
X269615Y408786D01*
X272188Y411359D01*
X275549Y412751D01*
X294427Y412751D01*
X297788Y411359D01*
X300361Y408786D01*
X301753Y405425D01*
X301753Y401787D01*
X300361Y398426D01*
X297788Y395853D01*
X294427Y394461D01*
X275549Y394461D01*
G37*
%LPD*%
%LPC*%
G36*
X725423Y571623D02*
X725423Y571623D01*
X725423Y580261D01*
X732320Y580261D01*
X733899Y580011D01*
X735420Y579516D01*
X736845Y578790D01*
X738139Y577850D01*
X739270Y576719D01*
X740210Y575425D01*
X740936Y574000D01*
X741431Y572479D01*
X741566Y571623D01*
X725423Y571623D01*
G37*
%LPD*%
%LPC*%
G36*
X286511Y359917D02*
X286511Y359917D01*
X286511Y368555D01*
X293408Y368555D01*
X294987Y368305D01*
X296508Y367810D01*
X297933Y367084D01*
X299227Y366144D01*
X300358Y365013D01*
X301298Y363719D01*
X302024Y362294D01*
X302519Y360773D01*
X302654Y359917D01*
X286511Y359917D01*
G37*
%LPD*%
%LPC*%
G36*
X725423Y471623D02*
X725423Y471623D01*
X725423Y480261D01*
X732320Y480261D01*
X733899Y480011D01*
X735420Y479516D01*
X736845Y478790D01*
X738139Y477850D01*
X739270Y476719D01*
X740210Y475425D01*
X740936Y474000D01*
X741431Y472479D01*
X741566Y471623D01*
X725423Y471623D01*
G37*
%LPD*%
%LPC*%
G36*
X706234Y571623D02*
X706234Y571623D01*
X706369Y572479D01*
X706864Y574000D01*
X707590Y575425D01*
X708530Y576719D01*
X709661Y577850D01*
X710955Y578790D01*
X712380Y579516D01*
X713901Y580011D01*
X715480Y580261D01*
X722377Y580261D01*
X722377Y571623D01*
X706234Y571623D01*
G37*
%LPD*%
%LPC*%
G36*
X706234Y421623D02*
X706234Y421623D01*
X706369Y422479D01*
X706864Y424000D01*
X707590Y425425D01*
X708530Y426719D01*
X709661Y427850D01*
X710955Y428790D01*
X712380Y429516D01*
X713901Y430011D01*
X715480Y430261D01*
X722377Y430261D01*
X722377Y421623D01*
X706234Y421623D01*
G37*
%LPD*%
%LPC*%
G36*
X332346Y359917D02*
X332346Y359917D01*
X332481Y360773D01*
X332976Y362294D01*
X333702Y363719D01*
X334642Y365013D01*
X335773Y366144D01*
X337067Y367084D01*
X338492Y367810D01*
X340013Y368305D01*
X341592Y368555D01*
X348489Y368555D01*
X348489Y359917D01*
X332346Y359917D01*
G37*
%LPD*%
%LPC*%
G36*
X267322Y359917D02*
X267322Y359917D01*
X267457Y360773D01*
X267952Y362294D01*
X268678Y363719D01*
X269618Y365013D01*
X270749Y366144D01*
X272043Y367084D01*
X273468Y367810D01*
X274989Y368305D01*
X276568Y368555D01*
X283465Y368555D01*
X283465Y359917D01*
X267322Y359917D01*
G37*
%LPD*%
%LPC*%
G36*
X286511Y348233D02*
X286511Y348233D01*
X286511Y356871D01*
X302654Y356871D01*
X302519Y356015D01*
X302024Y354494D01*
X301298Y353069D01*
X300358Y351775D01*
X299227Y350644D01*
X297933Y349704D01*
X296508Y348978D01*
X294987Y348483D01*
X293408Y348233D01*
X286511Y348233D01*
G37*
%LPD*%
%LPC*%
G36*
X725423Y559939D02*
X725423Y559939D01*
X725423Y568577D01*
X741566Y568577D01*
X741431Y567721D01*
X740936Y566200D01*
X740210Y564775D01*
X739270Y563481D01*
X738139Y562350D01*
X736845Y561410D01*
X735420Y560684D01*
X733899Y560189D01*
X732320Y559939D01*
X725423Y559939D01*
G37*
%LPD*%
%LPC*%
G36*
X351535Y348233D02*
X351535Y348233D01*
X351535Y356871D01*
X367678Y356871D01*
X367543Y356015D01*
X367048Y354494D01*
X366322Y353069D01*
X365382Y351775D01*
X364251Y350644D01*
X362957Y349704D01*
X361532Y348978D01*
X360011Y348483D01*
X358432Y348233D01*
X351535Y348233D01*
G37*
%LPD*%
%LPC*%
G36*
X715480Y409939D02*
X715480Y409939D01*
X713901Y410189D01*
X712380Y410684D01*
X710955Y411410D01*
X709661Y412350D01*
X708530Y413481D01*
X707590Y414775D01*
X706864Y416200D01*
X706369Y417721D01*
X706234Y418577D01*
X722377Y418577D01*
X722377Y409939D01*
X715480Y409939D01*
G37*
%LPD*%
%LPC*%
G36*
X715480Y559939D02*
X715480Y559939D01*
X713901Y560189D01*
X712380Y560684D01*
X710955Y561410D01*
X709661Y562350D01*
X708530Y563481D01*
X707590Y564775D01*
X706864Y566200D01*
X706369Y567721D01*
X706234Y568577D01*
X722377Y568577D01*
X722377Y559939D01*
X715480Y559939D01*
G37*
%LPD*%
%LPC*%
G36*
X341592Y348233D02*
X341592Y348233D01*
X340013Y348483D01*
X338492Y348978D01*
X337067Y349704D01*
X335773Y350644D01*
X334642Y351775D01*
X333702Y353069D01*
X332976Y354494D01*
X332481Y356015D01*
X332346Y356871D01*
X348489Y356871D01*
X348489Y348233D01*
X341592Y348233D01*
G37*
%LPD*%
%LPC*%
G36*
X276568Y348233D02*
X276568Y348233D01*
X274989Y348483D01*
X273468Y348978D01*
X272043Y349704D01*
X270749Y350644D01*
X269618Y351775D01*
X268678Y353069D01*
X267952Y354494D01*
X267457Y356015D01*
X267322Y356871D01*
X283465Y356871D01*
X283465Y348233D01*
X276568Y348233D01*
G37*
%LPD*%
%LPC*%
G36*
X417016Y534109D02*
X417016Y534109D01*
X416369Y534282D01*
X415790Y534617D01*
X415317Y535090D01*
X414982Y535669D01*
X414809Y536316D01*
X414809Y537469D01*
X414795Y537559D01*
X414787Y537650D01*
X414775Y537680D01*
X414770Y537712D01*
X414727Y537793D01*
X414691Y537876D01*
X414665Y537909D01*
X414654Y537929D01*
X414631Y537951D01*
X414586Y538007D01*
X413575Y539018D01*
X413575Y545282D01*
X414468Y546175D01*
X423732Y546175D01*
X424625Y545282D01*
X424625Y539018D01*
X423614Y538007D01*
X423561Y537933D01*
X423501Y537864D01*
X423489Y537834D01*
X423470Y537808D01*
X423443Y537721D01*
X423409Y537636D01*
X423405Y537595D01*
X423398Y537573D01*
X423399Y537540D01*
X423391Y537469D01*
X423391Y536316D01*
X423218Y535669D01*
X422883Y535090D01*
X422410Y534617D01*
X421831Y534282D01*
X421184Y534109D01*
X419974Y534109D01*
X419974Y537364D01*
X419971Y537384D01*
X419973Y537403D01*
X419951Y537505D01*
X419935Y537607D01*
X419925Y537624D01*
X419921Y537644D01*
X419868Y537733D01*
X419819Y537824D01*
X419805Y537838D01*
X419795Y537855D01*
X419716Y537922D01*
X419641Y537994D01*
X419623Y538002D01*
X419608Y538015D01*
X419512Y538054D01*
X419418Y538097D01*
X419398Y538099D01*
X419380Y538107D01*
X419213Y538125D01*
X418987Y538125D01*
X418967Y538122D01*
X418947Y538124D01*
X418846Y538102D01*
X418744Y538086D01*
X418727Y538076D01*
X418707Y538072D01*
X418618Y538019D01*
X418527Y537970D01*
X418513Y537956D01*
X418496Y537946D01*
X418429Y537867D01*
X418357Y537792D01*
X418349Y537774D01*
X418336Y537759D01*
X418297Y537663D01*
X418254Y537569D01*
X418252Y537549D01*
X418244Y537531D01*
X418226Y537364D01*
X418226Y534109D01*
X417016Y534109D01*
G37*
%LPD*%
%LPC*%
G36*
X503368Y520625D02*
X503368Y520625D01*
X502475Y521518D01*
X502475Y527782D01*
X503368Y528675D01*
X503964Y528675D01*
X503984Y528678D01*
X504003Y528676D01*
X504105Y528698D01*
X504207Y528714D01*
X504224Y528724D01*
X504244Y528728D01*
X504333Y528781D01*
X504424Y528830D01*
X504438Y528844D01*
X504455Y528854D01*
X504522Y528933D01*
X504594Y529008D01*
X504602Y529026D01*
X504615Y529041D01*
X504654Y529137D01*
X504697Y529231D01*
X504699Y529251D01*
X504707Y529269D01*
X504725Y529436D01*
X504725Y530782D01*
X505618Y531675D01*
X510382Y531675D01*
X511275Y530782D01*
X511275Y529436D01*
X511278Y529416D01*
X511276Y529397D01*
X511298Y529295D01*
X511314Y529193D01*
X511324Y529176D01*
X511328Y529156D01*
X511381Y529067D01*
X511430Y528976D01*
X511444Y528962D01*
X511454Y528945D01*
X511533Y528878D01*
X511608Y528806D01*
X511626Y528798D01*
X511641Y528785D01*
X511737Y528746D01*
X511831Y528703D01*
X511851Y528701D01*
X511869Y528693D01*
X512036Y528675D01*
X512632Y528675D01*
X513525Y527782D01*
X513525Y521518D01*
X512632Y520625D01*
X503368Y520625D01*
G37*
%LPD*%
%LPC*%
G36*
X293623Y522223D02*
X293623Y522223D01*
X293623Y530353D01*
X299972Y530353D01*
X301472Y530115D01*
X302917Y529646D01*
X304271Y528956D01*
X305500Y528063D01*
X306575Y526988D01*
X307468Y525759D01*
X308158Y524405D01*
X308627Y522960D01*
X308744Y522223D01*
X293623Y522223D01*
G37*
%LPD*%
%LPC*%
G36*
X522223Y468223D02*
X522223Y468223D01*
X522223Y475741D01*
X528534Y475741D01*
X529181Y475568D01*
X529760Y475233D01*
X530233Y474760D01*
X530568Y474181D01*
X530741Y473534D01*
X530741Y468223D01*
X522223Y468223D01*
G37*
%LPD*%
%LPC*%
G36*
X538123Y509523D02*
X538123Y509523D01*
X538123Y518041D01*
X543434Y518041D01*
X544081Y517868D01*
X544660Y517533D01*
X545133Y517060D01*
X545468Y516481D01*
X545641Y515834D01*
X545641Y509523D01*
X538123Y509523D01*
G37*
%LPD*%
%LPC*%
G36*
X607923Y509523D02*
X607923Y509523D01*
X607923Y518041D01*
X613234Y518041D01*
X613881Y517868D01*
X614460Y517533D01*
X614933Y517060D01*
X615268Y516481D01*
X615441Y515834D01*
X615441Y509523D01*
X607923Y509523D01*
G37*
%LPD*%
%LPC*%
G36*
X522223Y398423D02*
X522223Y398423D01*
X522223Y405941D01*
X528534Y405941D01*
X529181Y405768D01*
X529760Y405433D01*
X530233Y404960D01*
X530568Y404381D01*
X530741Y403734D01*
X530741Y398423D01*
X522223Y398423D01*
G37*
%LPD*%
%LPC*%
G36*
X353923Y458723D02*
X353923Y458723D01*
X353923Y467241D01*
X359234Y467241D01*
X359881Y467068D01*
X360460Y466733D01*
X360933Y466260D01*
X361268Y465681D01*
X361441Y465034D01*
X361441Y458723D01*
X353923Y458723D01*
G37*
%LPD*%
%LPC*%
G36*
X446023Y417423D02*
X446023Y417423D01*
X446023Y424941D01*
X452334Y424941D01*
X452981Y424768D01*
X453560Y424433D01*
X454033Y423960D01*
X454368Y423381D01*
X454541Y422734D01*
X454541Y417423D01*
X446023Y417423D01*
G37*
%LPD*%
%LPC*%
G36*
X446023Y480923D02*
X446023Y480923D01*
X446023Y488441D01*
X452334Y488441D01*
X452981Y488268D01*
X453560Y487933D01*
X454033Y487460D01*
X454368Y486881D01*
X454541Y486234D01*
X454541Y480923D01*
X446023Y480923D01*
G37*
%LPD*%
%LPC*%
G36*
X510659Y468223D02*
X510659Y468223D01*
X510659Y473534D01*
X510832Y474181D01*
X511167Y474760D01*
X511640Y475233D01*
X512219Y475568D01*
X512866Y475741D01*
X519177Y475741D01*
X519177Y468223D01*
X510659Y468223D01*
G37*
%LPD*%
%LPC*%
G36*
X510659Y398423D02*
X510659Y398423D01*
X510659Y403734D01*
X510832Y404381D01*
X511167Y404960D01*
X511640Y405433D01*
X512219Y405768D01*
X512866Y405941D01*
X519177Y405941D01*
X519177Y398423D01*
X510659Y398423D01*
G37*
%LPD*%
%LPC*%
G36*
X607923Y497959D02*
X607923Y497959D01*
X607923Y506477D01*
X615441Y506477D01*
X615441Y500166D01*
X615268Y499519D01*
X614933Y498940D01*
X614460Y498467D01*
X613881Y498132D01*
X613234Y497959D01*
X607923Y497959D01*
G37*
%LPD*%
%LPC*%
G36*
X434459Y417423D02*
X434459Y417423D01*
X434459Y422734D01*
X434632Y423381D01*
X434967Y423960D01*
X435440Y424433D01*
X436019Y424768D01*
X436666Y424941D01*
X442977Y424941D01*
X442977Y417423D01*
X434459Y417423D01*
G37*
%LPD*%
%LPC*%
G36*
X434459Y480923D02*
X434459Y480923D01*
X434459Y486234D01*
X434632Y486881D01*
X434967Y487460D01*
X435440Y487933D01*
X436019Y488268D01*
X436666Y488441D01*
X442977Y488441D01*
X442977Y480923D01*
X434459Y480923D01*
G37*
%LPD*%
%LPC*%
G36*
X627023Y370959D02*
X627023Y370959D01*
X627023Y379477D01*
X634541Y379477D01*
X634541Y373166D01*
X634368Y372519D01*
X634033Y371940D01*
X633560Y371467D01*
X632981Y371132D01*
X632334Y370959D01*
X627023Y370959D01*
G37*
%LPD*%
%LPC*%
G36*
X538123Y497959D02*
X538123Y497959D01*
X538123Y506477D01*
X545641Y506477D01*
X545641Y500166D01*
X545468Y499519D01*
X545133Y498940D01*
X544660Y498467D01*
X544081Y498132D01*
X543434Y497959D01*
X538123Y497959D01*
G37*
%LPD*%
%LPC*%
G36*
X597359Y509523D02*
X597359Y509523D01*
X597359Y515834D01*
X597532Y516481D01*
X597867Y517060D01*
X598340Y517533D01*
X598919Y517868D01*
X599566Y518041D01*
X604877Y518041D01*
X604877Y509523D01*
X597359Y509523D01*
G37*
%LPD*%
%LPC*%
G36*
X616459Y382523D02*
X616459Y382523D01*
X616459Y388834D01*
X616632Y389481D01*
X616967Y390060D01*
X617440Y390533D01*
X618019Y390868D01*
X618666Y391041D01*
X623977Y391041D01*
X623977Y382523D01*
X616459Y382523D01*
G37*
%LPD*%
%LPC*%
G36*
X527559Y509523D02*
X527559Y509523D01*
X527559Y515834D01*
X527732Y516481D01*
X528067Y517060D01*
X528540Y517533D01*
X529119Y517868D01*
X529766Y518041D01*
X535077Y518041D01*
X535077Y509523D01*
X527559Y509523D01*
G37*
%LPD*%
%LPC*%
G36*
X522223Y457659D02*
X522223Y457659D01*
X522223Y465177D01*
X530741Y465177D01*
X530741Y459866D01*
X530568Y459219D01*
X530233Y458640D01*
X529760Y458167D01*
X529181Y457832D01*
X528534Y457659D01*
X522223Y457659D01*
G37*
%LPD*%
%LPC*%
G36*
X674623Y451359D02*
X674623Y451359D01*
X674623Y458877D01*
X683141Y458877D01*
X683141Y453566D01*
X682968Y452919D01*
X682633Y452340D01*
X682160Y451867D01*
X681581Y451532D01*
X680934Y451359D01*
X674623Y451359D01*
G37*
%LPD*%
%LPC*%
G36*
X343359Y458723D02*
X343359Y458723D01*
X343359Y465034D01*
X343532Y465681D01*
X343867Y466260D01*
X344340Y466733D01*
X344919Y467068D01*
X345566Y467241D01*
X350877Y467241D01*
X350877Y458723D01*
X343359Y458723D01*
G37*
%LPD*%
%LPC*%
G36*
X522223Y387859D02*
X522223Y387859D01*
X522223Y395377D01*
X530741Y395377D01*
X530741Y390066D01*
X530568Y389419D01*
X530233Y388840D01*
X529760Y388367D01*
X529181Y388032D01*
X528534Y387859D01*
X522223Y387859D01*
G37*
%LPD*%
%LPC*%
G36*
X618666Y370959D02*
X618666Y370959D01*
X618019Y371132D01*
X617440Y371467D01*
X616967Y371940D01*
X616632Y372519D01*
X616459Y373166D01*
X616459Y379477D01*
X623977Y379477D01*
X623977Y370959D01*
X618666Y370959D01*
G37*
%LPD*%
%LPC*%
G36*
X599566Y497959D02*
X599566Y497959D01*
X598919Y498132D01*
X598340Y498467D01*
X597867Y498940D01*
X597532Y499519D01*
X597359Y500166D01*
X597359Y506477D01*
X604877Y506477D01*
X604877Y497959D01*
X599566Y497959D01*
G37*
%LPD*%
%LPC*%
G36*
X512866Y457659D02*
X512866Y457659D01*
X512219Y457832D01*
X511640Y458167D01*
X511167Y458640D01*
X510832Y459219D01*
X510659Y459866D01*
X510659Y465177D01*
X519177Y465177D01*
X519177Y457659D01*
X512866Y457659D01*
G37*
%LPD*%
%LPC*%
G36*
X512866Y387859D02*
X512866Y387859D01*
X512219Y388032D01*
X511640Y388367D01*
X511167Y388840D01*
X510832Y389419D01*
X510659Y390066D01*
X510659Y395377D01*
X519177Y395377D01*
X519177Y387859D01*
X512866Y387859D01*
G37*
%LPD*%
%LPC*%
G36*
X284987Y358393D02*
X284987Y358393D01*
X284987Y358395D01*
X284989Y358395D01*
X284989Y358393D01*
X284987Y358393D01*
G37*
%LPD*%
%LPC*%
G36*
X350011Y358393D02*
X350011Y358393D01*
X350011Y358395D01*
X350013Y358395D01*
X350013Y358393D01*
X350011Y358393D01*
G37*
%LPD*%
%LPC*%
G36*
X723899Y570099D02*
X723899Y570099D01*
X723899Y570101D01*
X723901Y570101D01*
X723901Y570099D01*
X723899Y570099D01*
G37*
%LPD*%
%LPC*%
G36*
X625499Y380999D02*
X625499Y380999D01*
X625499Y381001D01*
X625501Y381001D01*
X625501Y380999D01*
X625499Y380999D01*
G37*
%LPD*%
%LPC*%
G36*
X606399Y507999D02*
X606399Y507999D01*
X606399Y508001D01*
X606401Y508001D01*
X606401Y507999D01*
X606399Y507999D01*
G37*
%LPD*%
%LPC*%
G36*
X520699Y396899D02*
X520699Y396899D01*
X520699Y396901D01*
X520701Y396901D01*
X520701Y396899D01*
X520699Y396899D01*
G37*
%LPD*%
%LPC*%
G36*
X520699Y466699D02*
X520699Y466699D01*
X520699Y466701D01*
X520701Y466701D01*
X520701Y466699D01*
X520699Y466699D01*
G37*
%LPD*%
%LPC*%
G36*
X536599Y507999D02*
X536599Y507999D01*
X536599Y508001D01*
X536601Y508001D01*
X536601Y507999D01*
X536599Y507999D01*
G37*
%LPD*%
D10*
X520700Y415900D03*
X520700Y396900D03*
X520700Y447700D03*
X520700Y466700D03*
D11*
X644500Y381000D03*
X625500Y381000D03*
D10*
X673100Y479400D03*
X673100Y460400D03*
D11*
X587400Y508000D03*
X606400Y508000D03*
D10*
X444500Y396900D03*
X444500Y415900D03*
X444500Y460400D03*
X444500Y479400D03*
D12*
X299212Y495300D02*
X284988Y495300D01*
X284988Y520700D02*
X299212Y520700D01*
D13*
X320040Y520700D03*
X340360Y520700D03*
D14*
X508000Y542150D03*
X508000Y524650D03*
D15*
X508000Y528400D03*
X508000Y538400D03*
D14*
X419100Y542150D03*
X419100Y524650D03*
D15*
X419100Y528400D03*
X419100Y538400D03*
D16*
X716280Y545100D02*
X731520Y545100D01*
X731520Y520100D02*
X716280Y520100D01*
X716280Y420100D02*
X731520Y420100D01*
X731520Y495100D02*
X716280Y495100D01*
X716280Y470100D02*
X731520Y470100D01*
X731520Y445100D02*
X716280Y445100D01*
X716280Y395100D02*
X731520Y395100D01*
X731520Y370100D02*
X716280Y370100D01*
X716280Y570100D02*
X731520Y570100D01*
X731520Y595100D02*
X716280Y595100D01*
D11*
X282600Y457200D03*
X301600Y457200D03*
X333400Y457200D03*
X352400Y457200D03*
X555600Y508000D03*
X536600Y508000D03*
D10*
X469900Y523900D03*
X469900Y542900D03*
X381000Y523900D03*
X381000Y542900D03*
D16*
X292608Y403606D02*
X277368Y403606D01*
X277368Y358394D02*
X292608Y358394D01*
X342392Y403606D02*
X357632Y403606D01*
X357632Y358394D02*
X342392Y358394D01*
D17*
X596900Y558800D03*
X622300Y558800D03*
X571500Y558800D03*
D18*
X566500Y468900D03*
X566500Y463900D03*
X566500Y458900D03*
X566500Y453900D03*
X566500Y448900D03*
X566500Y443900D03*
X566500Y438900D03*
X566500Y433900D03*
X566500Y428900D03*
X566500Y423900D03*
X566500Y418900D03*
X566500Y413900D03*
D19*
X579000Y401400D03*
X584000Y401400D03*
X589000Y401400D03*
X594000Y401400D03*
X599000Y401400D03*
X604000Y401400D03*
X609000Y401400D03*
X614000Y401400D03*
X619000Y401400D03*
X624000Y401400D03*
X629000Y401400D03*
X634000Y401400D03*
D18*
X646500Y413900D03*
X646500Y418900D03*
X646500Y423900D03*
X646500Y428900D03*
X646500Y433900D03*
X646500Y438900D03*
X646500Y443900D03*
X646500Y448900D03*
X646500Y453900D03*
X646500Y458900D03*
X646500Y463900D03*
X646500Y468900D03*
D19*
X634000Y481400D03*
X629000Y481400D03*
X624000Y481400D03*
X619000Y481400D03*
X614000Y481400D03*
X609000Y481400D03*
X604000Y481400D03*
X599000Y481400D03*
X594000Y481400D03*
X589000Y481400D03*
X584000Y481400D03*
X579000Y481400D03*
D20*
X408800Y394000D03*
X408800Y482000D03*
D21*
X495300Y416800D03*
X495300Y441800D03*
D22*
X579120Y481584D02*
X579120Y499872D01*
X586740Y507492D01*
X579120Y481584D02*
X579000Y481400D01*
X586740Y507492D02*
X587400Y508000D01*
X585216Y469392D02*
X621792Y469392D01*
X646176Y469392D01*
X585216Y469392D02*
X579120Y475488D01*
X579120Y480060D01*
X646176Y469392D02*
X646500Y468900D01*
X579120Y480060D02*
X579000Y481400D01*
X633984Y400812D02*
X633984Y390144D01*
X643128Y381000D01*
X633984Y400812D02*
X634000Y401400D01*
X643128Y381000D02*
X644500Y381000D01*
X713232Y381000D01*
X722376Y371856D02*
X723900Y370332D01*
X722376Y371856D02*
X713232Y381000D01*
X723900Y370332D02*
X723900Y370100D01*
X621792Y448056D02*
X621792Y469392D01*
X320040Y519684D02*
X312420Y519684D01*
X298704Y505968D01*
X281940Y505968D01*
X274320Y498348D01*
X274320Y483108D01*
X300228Y457200D01*
X320040Y519684D02*
X320040Y520700D01*
X301600Y457200D02*
X300228Y457200D01*
X672084Y480060D02*
X672084Y509016D01*
X622300Y558800D01*
X672084Y480060D02*
X673100Y479400D01*
X480060Y524256D02*
X470916Y524256D01*
X480060Y524256D02*
X528828Y573024D01*
X608076Y573024D01*
X622300Y558800D01*
X470916Y524256D02*
X469900Y523900D01*
X281940Y509016D02*
X281940Y505968D01*
X281940Y509016D02*
X274320Y516636D01*
X274320Y524256D01*
X301752Y551688D01*
X441960Y551688D01*
X469392Y524256D01*
X469900Y523900D01*
X722376Y371856D02*
X742188Y391668D01*
X742188Y449580D01*
X733044Y458724D01*
X713232Y458724D01*
X693420Y478536D01*
X673608Y478536D01*
X722376Y371856D02*
X723900Y370100D01*
X673608Y478536D02*
X673100Y479400D01*
D23*
X621792Y448056D03*
D22*
X530200Y466700D02*
X520700Y466700D01*
X530200Y466700D02*
X533400Y469900D01*
X653796Y463296D02*
X670560Y463296D01*
X653796Y463296D02*
X647700Y463296D01*
X670560Y463296D02*
X672084Y461772D01*
X647700Y463296D02*
X646500Y463900D01*
X672084Y461772D02*
X673100Y460400D01*
X583692Y477012D02*
X583692Y480060D01*
X583692Y477012D02*
X586740Y473964D01*
X597408Y473964D01*
X598932Y475488D01*
X598932Y480060D01*
X584000Y481400D02*
X583692Y480060D01*
X598932Y480060D02*
X599000Y481400D01*
X537972Y515112D02*
X537972Y541020D01*
X537972Y515112D02*
X537972Y509016D01*
X537972Y541020D02*
X566928Y569976D01*
X601980Y569976D01*
X608076Y563880D01*
X608076Y510540D01*
X606552Y509016D01*
X537972Y509016D02*
X536600Y508000D01*
X606400Y508000D02*
X606552Y509016D01*
X598932Y501396D02*
X598932Y481584D01*
X598932Y501396D02*
X605028Y507492D01*
X598932Y481584D02*
X599000Y481400D01*
X605028Y507492D02*
X606400Y508000D01*
X653796Y472440D02*
X653796Y463296D01*
X653796Y472440D02*
X652272Y473964D01*
X597408Y473964D01*
X673608Y460248D02*
X684276Y460248D01*
X723900Y420624D01*
X673608Y460248D02*
X673100Y460400D01*
X723900Y420624D02*
X723900Y420100D01*
X348996Y358140D02*
X284988Y358140D01*
X284988Y358394D01*
X348996Y358140D02*
X350012Y358394D01*
X629412Y384048D02*
X629412Y400812D01*
X629412Y384048D02*
X626364Y381000D01*
X629412Y400812D02*
X629000Y401400D01*
X626364Y381000D02*
X625500Y381000D01*
X534924Y466344D02*
X533400Y466344D01*
X381000Y457200D02*
X352400Y457200D01*
X457200Y406908D02*
X469392Y406908D01*
X469900Y406400D01*
X533400Y381000D02*
X625500Y381000D01*
X304800Y521208D02*
X292608Y521208D01*
X304800Y521208D02*
X313944Y530352D01*
X356616Y530352D01*
X362712Y524256D02*
X381000Y505968D01*
X362712Y524256D02*
X356616Y530352D01*
X292608Y521208D02*
X292100Y520700D01*
X350520Y359664D02*
X371856Y359664D01*
X381000Y368808D01*
X350520Y359664D02*
X350012Y358394D01*
X381000Y368300D02*
X381000Y368808D01*
X440436Y515112D02*
X537972Y515112D01*
X440436Y515112D02*
X422148Y533400D01*
X371856Y533400D01*
X362712Y524256D01*
X536600Y508000D02*
X537972Y515112D01*
D23*
X534924Y466344D03*
D22*
X339852Y519684D02*
X335280Y519684D01*
X310896Y495300D01*
X292100Y495300D01*
X339852Y519684D02*
X340360Y520700D01*
X566928Y432816D02*
X573024Y432816D01*
X577596Y428244D01*
X577596Y416052D01*
X566928Y432816D02*
X566500Y433900D01*
X344424Y446532D02*
X333756Y457200D01*
X344424Y446532D02*
X440436Y446532D01*
X478536Y408432D01*
X333756Y457200D02*
X333400Y457200D01*
D23*
X577596Y416052D03*
X478536Y408432D03*
D22*
X560832Y428244D02*
X565404Y428244D01*
X560832Y428244D02*
X557784Y425196D01*
X557784Y408432D01*
X559308Y406908D01*
X565404Y428244D02*
X566500Y428900D01*
X283464Y448056D02*
X283464Y457200D01*
X283464Y448056D02*
X359664Y371856D01*
X382524Y371856D01*
X390144Y364236D01*
X455676Y364236D01*
X481584Y390144D01*
X283464Y457200D02*
X282600Y457200D01*
D23*
X559308Y406908D03*
X481584Y390144D03*
D22*
X559308Y438912D02*
X565404Y438912D01*
X559308Y438912D02*
X554736Y434340D01*
X565404Y438912D02*
X566500Y438900D01*
D23*
X554736Y434340D03*
D22*
X432100Y394000D02*
X408800Y394000D01*
X432100Y394000D02*
X438912Y400812D01*
X444500Y406400D01*
X566928Y448056D02*
X573024Y448056D01*
X589788Y431292D01*
X589788Y416052D01*
X452628Y384048D02*
X445008Y391668D01*
X445008Y396240D01*
X566500Y448900D02*
X566928Y448056D01*
X445008Y396240D02*
X444500Y396900D01*
X443484Y396240D02*
X438912Y400812D01*
X443484Y396240D02*
X444500Y396900D01*
D23*
X589788Y416052D03*
X452628Y384048D03*
D22*
X443786Y470614D02*
X436053Y470614D01*
X443786Y470614D02*
X445008Y469392D01*
X424667Y482000D02*
X408800Y482000D01*
X424667Y482000D02*
X436053Y470614D01*
X554736Y443484D02*
X565404Y443484D01*
X542544Y478536D02*
X534924Y486156D01*
X477012Y486156D01*
X452628Y461772D01*
X445008Y461772D01*
X565404Y443484D02*
X566500Y443900D01*
X445008Y461772D02*
X444500Y460400D01*
X443484Y467868D02*
X445008Y469392D01*
X443484Y467868D02*
X443484Y461772D01*
X444500Y460400D01*
D23*
X554736Y443484D03*
X542544Y478536D03*
D22*
X519800Y416800D02*
X495300Y416800D01*
X519800Y416800D02*
X520700Y415900D01*
X560832Y458724D02*
X565404Y458724D01*
X560832Y458724D02*
X557784Y461772D01*
X557784Y473964D01*
X527304Y428244D02*
X521208Y422148D01*
X521208Y416052D01*
X565404Y458724D02*
X566500Y458900D01*
X521208Y416052D02*
X520700Y415900D01*
D23*
X557784Y473964D03*
X527304Y428244D03*
D22*
X498000Y444500D02*
X495300Y441800D01*
X498000Y444500D02*
X519684Y444500D01*
X520700Y444500D01*
X554736Y454152D02*
X565404Y454152D01*
X542544Y460248D02*
X528828Y446532D01*
X521208Y446532D01*
X565404Y454152D02*
X566500Y453900D01*
X521208Y446532D02*
X520700Y447700D01*
X519684Y446532D02*
X519684Y444500D01*
X519684Y446532D02*
X520700Y447700D01*
D23*
X554736Y454152D03*
X542544Y460248D03*
D22*
X633984Y480060D02*
X653796Y480060D01*
X664464Y469392D01*
X697992Y469392D01*
X720852Y446532D01*
X723900Y446532D01*
X633984Y480060D02*
X634000Y481400D01*
X723900Y446532D02*
X723900Y445100D01*
X656844Y458724D02*
X647700Y458724D01*
X656844Y458724D02*
X719328Y396240D01*
X723900Y396240D01*
X647700Y458724D02*
X646500Y458900D01*
X723900Y396240D02*
X723900Y395100D01*
X409956Y522732D02*
X381000Y522732D01*
X409956Y522732D02*
X420624Y512064D01*
X515112Y512064D01*
X542544Y484632D01*
X545592Y484632D01*
X548640Y481584D01*
X548640Y408432D01*
X556260Y400812D01*
X568452Y400812D01*
X577596Y409956D01*
X592836Y409956D01*
X641604Y458724D01*
X646176Y458724D01*
X381000Y522732D02*
X381000Y523900D01*
X646176Y458724D02*
X646500Y458900D01*
X556260Y509016D02*
X556260Y542544D01*
X571500Y557784D01*
X556260Y509016D02*
X555600Y508000D01*
X571500Y557784D02*
X571500Y558800D01*
X573024Y464820D02*
X566928Y464820D01*
X573024Y464820D02*
X574548Y466344D01*
X574548Y536448D01*
X596900Y558800D01*
X566928Y464820D02*
X566500Y463900D01*
M02*
