G04 EAGLE Gerber RS-274X export*
G75*
%MOMM*%
%FSLAX34Y34*%
%LPD*%
%INBottom Copper*%
%IPPOS*%
%AMOC8*
5,1,8,0,0,1.08239X$1,22.5*%
G01*
%ADD10R,1.188700X1.795500*%
%ADD11R,1.500000X1.300000*%
%ADD12R,1.300000X1.500000*%
%ADD13C,1.422400*%
%ADD14C,1.524000*%
%ADD15C,1.676400*%
%ADD16C,0.152400*%
%ADD17C,0.756400*%

G36*
X785898Y316742D02*
X785898Y316742D01*
X785917Y316740D01*
X786019Y316762D01*
X786121Y316779D01*
X786138Y316788D01*
X786158Y316792D01*
X786247Y316845D01*
X786338Y316894D01*
X786352Y316908D01*
X786369Y316918D01*
X786436Y316997D01*
X786508Y317072D01*
X786516Y317090D01*
X786529Y317105D01*
X786568Y317201D01*
X786611Y317295D01*
X786613Y317315D01*
X786621Y317333D01*
X786639Y317500D01*
X786639Y647700D01*
X786636Y647720D01*
X786638Y647739D01*
X786616Y647841D01*
X786600Y647943D01*
X786590Y647960D01*
X786586Y647980D01*
X786533Y648069D01*
X786484Y648160D01*
X786470Y648174D01*
X786460Y648191D01*
X786381Y648258D01*
X786306Y648330D01*
X786288Y648338D01*
X786273Y648351D01*
X786177Y648390D01*
X786083Y648433D01*
X786063Y648435D01*
X786045Y648443D01*
X785878Y648461D01*
X228600Y648461D01*
X228580Y648458D01*
X228561Y648460D01*
X228459Y648438D01*
X228357Y648422D01*
X228340Y648412D01*
X228320Y648408D01*
X228231Y648355D01*
X228140Y648306D01*
X228126Y648292D01*
X228109Y648282D01*
X228042Y648203D01*
X227971Y648128D01*
X227962Y648110D01*
X227949Y648095D01*
X227910Y647999D01*
X227867Y647905D01*
X227865Y647885D01*
X227857Y647867D01*
X227839Y647700D01*
X227839Y317500D01*
X227842Y317480D01*
X227840Y317461D01*
X227862Y317359D01*
X227879Y317257D01*
X227888Y317240D01*
X227892Y317220D01*
X227945Y317131D01*
X227994Y317040D01*
X228008Y317026D01*
X228018Y317009D01*
X228097Y316942D01*
X228172Y316871D01*
X228190Y316862D01*
X228205Y316849D01*
X228301Y316810D01*
X228395Y316767D01*
X228415Y316765D01*
X228433Y316757D01*
X228600Y316739D01*
X785878Y316739D01*
X785898Y316742D01*
G37*
%LPC*%
G36*
X340573Y349249D02*
X340573Y349249D01*
X337212Y350641D01*
X334639Y353214D01*
X333247Y356575D01*
X333247Y360213D01*
X334639Y363574D01*
X337212Y366147D01*
X338260Y366581D01*
X338343Y366632D01*
X338429Y366678D01*
X338447Y366697D01*
X338469Y366710D01*
X338531Y366785D01*
X338598Y366856D01*
X338609Y366880D01*
X338626Y366900D01*
X338661Y366991D01*
X338702Y367079D01*
X338705Y367105D01*
X338714Y367129D01*
X338718Y367227D01*
X338729Y367323D01*
X338724Y367349D01*
X338725Y367375D01*
X338698Y367469D01*
X338677Y367564D01*
X338663Y367586D01*
X338656Y367611D01*
X338601Y367691D01*
X338551Y367775D01*
X338531Y367792D01*
X338516Y367813D01*
X338438Y367872D01*
X338364Y367935D01*
X338339Y367945D01*
X338319Y367960D01*
X338226Y367990D01*
X338136Y368027D01*
X338103Y368030D01*
X338085Y368036D01*
X338052Y368036D01*
X337969Y368045D01*
X319093Y368045D01*
X317530Y369608D01*
X315386Y371752D01*
X315312Y371805D01*
X315242Y371865D01*
X315212Y371877D01*
X315186Y371896D01*
X315099Y371923D01*
X315014Y371957D01*
X314973Y371961D01*
X314951Y371968D01*
X314919Y371967D01*
X314848Y371975D01*
X300868Y371975D01*
X299975Y372868D01*
X299975Y389132D01*
X300868Y390025D01*
X312040Y390025D01*
X312110Y390036D01*
X312182Y390038D01*
X312231Y390056D01*
X312282Y390064D01*
X312346Y390098D01*
X312413Y390123D01*
X312454Y390155D01*
X312500Y390180D01*
X312549Y390232D01*
X312605Y390276D01*
X312633Y390320D01*
X312669Y390358D01*
X312699Y390423D01*
X312738Y390483D01*
X312751Y390534D01*
X312773Y390581D01*
X312781Y390652D01*
X312798Y390722D01*
X312794Y390774D01*
X312800Y390825D01*
X312785Y390896D01*
X312779Y390967D01*
X312759Y391015D01*
X312748Y391066D01*
X312711Y391127D01*
X312683Y391193D01*
X312638Y391249D01*
X312621Y391277D01*
X312604Y391292D01*
X312578Y391324D01*
X304076Y399826D01*
X304002Y399879D01*
X303932Y399939D01*
X303902Y399951D01*
X303876Y399970D01*
X303789Y399997D01*
X303704Y400031D01*
X303663Y400035D01*
X303641Y400042D01*
X303609Y400041D01*
X303537Y400049D01*
X301542Y400049D01*
X301427Y400030D01*
X301311Y400013D01*
X301305Y400011D01*
X301299Y400010D01*
X301196Y399955D01*
X301091Y399902D01*
X301087Y399897D01*
X301081Y399894D01*
X301002Y399810D01*
X300919Y399726D01*
X300916Y399720D01*
X300912Y399716D01*
X300904Y399699D01*
X300838Y399579D01*
X300361Y398426D01*
X297788Y395853D01*
X294427Y394461D01*
X275549Y394461D01*
X272188Y395853D01*
X269615Y398426D01*
X268223Y401787D01*
X268223Y405425D01*
X269615Y408786D01*
X272188Y411359D01*
X275549Y412751D01*
X294427Y412751D01*
X297788Y411359D01*
X300361Y408786D01*
X301753Y405425D01*
X301753Y405384D01*
X301756Y405364D01*
X301754Y405345D01*
X301776Y405243D01*
X301792Y405141D01*
X301802Y405124D01*
X301806Y405104D01*
X301859Y405015D01*
X301908Y404924D01*
X301922Y404910D01*
X301932Y404893D01*
X302011Y404826D01*
X302086Y404754D01*
X302104Y404746D01*
X302119Y404733D01*
X302215Y404694D01*
X302309Y404651D01*
X302329Y404649D01*
X302347Y404641D01*
X302514Y404623D01*
X305747Y404623D01*
X320122Y390248D01*
X320196Y390195D01*
X320266Y390135D01*
X320296Y390123D01*
X320322Y390104D01*
X320409Y390077D01*
X320494Y390043D01*
X320535Y390039D01*
X320557Y390032D01*
X320589Y390033D01*
X320660Y390025D01*
X333136Y390025D01*
X333226Y390039D01*
X333317Y390047D01*
X333346Y390059D01*
X333378Y390064D01*
X333459Y390107D01*
X333543Y390143D01*
X333575Y390169D01*
X333596Y390180D01*
X333618Y390203D01*
X333674Y390248D01*
X337868Y394442D01*
X337895Y394479D01*
X337929Y394511D01*
X337967Y394579D01*
X338012Y394642D01*
X338025Y394686D01*
X338048Y394726D01*
X338061Y394803D01*
X338084Y394877D01*
X338083Y394923D01*
X338091Y394968D01*
X338080Y395045D01*
X338078Y395123D01*
X338062Y395166D01*
X338055Y395211D01*
X338020Y395281D01*
X337993Y395354D01*
X337965Y395390D01*
X337944Y395431D01*
X337888Y395485D01*
X337840Y395546D01*
X337801Y395571D01*
X337768Y395603D01*
X337649Y395669D01*
X337633Y395679D01*
X337628Y395680D01*
X337621Y395684D01*
X337212Y395853D01*
X334639Y398426D01*
X333247Y401787D01*
X333247Y405425D01*
X334639Y408786D01*
X337212Y411359D01*
X340573Y412751D01*
X359451Y412751D01*
X362812Y411359D01*
X365385Y408786D01*
X366777Y405425D01*
X366777Y401787D01*
X365385Y398426D01*
X362812Y395853D01*
X359451Y394461D01*
X344670Y394461D01*
X344580Y394447D01*
X344489Y394439D01*
X344460Y394427D01*
X344428Y394422D01*
X344347Y394379D01*
X344263Y394343D01*
X344231Y394317D01*
X344210Y394306D01*
X344188Y394283D01*
X344132Y394238D01*
X335248Y385354D01*
X335195Y385280D01*
X335135Y385210D01*
X335123Y385180D01*
X335104Y385154D01*
X335077Y385067D01*
X335043Y384982D01*
X335039Y384941D01*
X335032Y384919D01*
X335033Y384887D01*
X335025Y384816D01*
X335025Y373380D01*
X335028Y373360D01*
X335026Y373341D01*
X335048Y373239D01*
X335064Y373137D01*
X335074Y373120D01*
X335078Y373100D01*
X335131Y373011D01*
X335180Y372920D01*
X335194Y372906D01*
X335204Y372889D01*
X335283Y372822D01*
X335358Y372750D01*
X335376Y372742D01*
X335391Y372729D01*
X335487Y372690D01*
X335581Y372647D01*
X335601Y372645D01*
X335619Y372637D01*
X335786Y372619D01*
X428505Y372619D01*
X428596Y372633D01*
X428686Y372641D01*
X428716Y372653D01*
X428748Y372658D01*
X428829Y372701D01*
X428913Y372737D01*
X428945Y372763D01*
X428966Y372774D01*
X428988Y372797D01*
X429044Y372842D01*
X501973Y445771D01*
X515114Y445771D01*
X515134Y445774D01*
X515153Y445772D01*
X515255Y445794D01*
X515357Y445810D01*
X515374Y445820D01*
X515394Y445824D01*
X515483Y445877D01*
X515574Y445926D01*
X515588Y445940D01*
X515605Y445950D01*
X515672Y446029D01*
X515744Y446104D01*
X515752Y446122D01*
X515765Y446137D01*
X515804Y446233D01*
X515847Y446327D01*
X515849Y446347D01*
X515857Y446365D01*
X515875Y446532D01*
X515875Y452632D01*
X516768Y453525D01*
X521208Y453525D01*
X521228Y453528D01*
X521247Y453526D01*
X521349Y453548D01*
X521451Y453564D01*
X521468Y453574D01*
X521488Y453578D01*
X521577Y453631D01*
X521668Y453680D01*
X521682Y453694D01*
X521699Y453704D01*
X521766Y453783D01*
X521838Y453858D01*
X521846Y453876D01*
X521859Y453891D01*
X521898Y453987D01*
X521941Y454081D01*
X521943Y454101D01*
X521951Y454119D01*
X521969Y454286D01*
X521969Y470339D01*
X538549Y486919D01*
X562617Y486919D01*
X562708Y486933D01*
X562798Y486941D01*
X562828Y486953D01*
X562860Y486958D01*
X562941Y487001D01*
X563025Y487037D01*
X563057Y487063D01*
X563078Y487074D01*
X563100Y487097D01*
X563156Y487142D01*
X623600Y547586D01*
X623653Y547660D01*
X623713Y547730D01*
X623725Y547760D01*
X623744Y547786D01*
X623771Y547873D01*
X623805Y547958D01*
X623809Y547999D01*
X623816Y548021D01*
X623815Y548053D01*
X623823Y548124D01*
X623823Y557277D01*
X632976Y557277D01*
X633066Y557292D01*
X633157Y557299D01*
X633186Y557311D01*
X633218Y557317D01*
X633299Y557359D01*
X633383Y557395D01*
X633415Y557421D01*
X633436Y557432D01*
X633451Y557448D01*
X633453Y557449D01*
X633461Y557458D01*
X633514Y557500D01*
X672661Y596647D01*
X706514Y596647D01*
X706629Y596666D01*
X706745Y596683D01*
X706750Y596685D01*
X706757Y596686D01*
X706859Y596741D01*
X706964Y596794D01*
X706968Y596799D01*
X706974Y596802D01*
X707054Y596886D01*
X707136Y596970D01*
X707140Y596976D01*
X707143Y596980D01*
X707151Y596997D01*
X707217Y597117D01*
X708527Y600280D01*
X711100Y602853D01*
X714461Y604245D01*
X733339Y604245D01*
X736700Y602853D01*
X739273Y600280D01*
X740665Y596919D01*
X740665Y593281D01*
X739273Y589920D01*
X736700Y587347D01*
X733339Y585955D01*
X714461Y585955D01*
X711100Y587347D01*
X708527Y589920D01*
X707830Y591603D01*
X707768Y591703D01*
X707709Y591803D01*
X707704Y591807D01*
X707701Y591812D01*
X707610Y591887D01*
X707522Y591963D01*
X707516Y591965D01*
X707511Y591969D01*
X707403Y592011D01*
X707294Y592055D01*
X707286Y592056D01*
X707281Y592057D01*
X707263Y592058D01*
X707127Y592073D01*
X674871Y592073D01*
X674780Y592059D01*
X674690Y592051D01*
X674660Y592039D01*
X674628Y592034D01*
X674547Y591991D01*
X674463Y591955D01*
X674431Y591929D01*
X674410Y591918D01*
X674388Y591895D01*
X674332Y591850D01*
X564827Y482345D01*
X548077Y482345D01*
X548007Y482334D01*
X547935Y482332D01*
X547886Y482314D01*
X547835Y482306D01*
X547771Y482272D01*
X547704Y482247D01*
X547663Y482215D01*
X547617Y482190D01*
X547568Y482138D01*
X547512Y482094D01*
X547484Y482050D01*
X547448Y482012D01*
X547418Y481947D01*
X547379Y481887D01*
X547366Y481836D01*
X547344Y481789D01*
X547336Y481718D01*
X547319Y481648D01*
X547323Y481596D01*
X547317Y481545D01*
X547332Y481474D01*
X547338Y481403D01*
X547358Y481355D01*
X547369Y481304D01*
X547406Y481243D01*
X547434Y481177D01*
X547479Y481121D01*
X547496Y481093D01*
X547513Y481078D01*
X547539Y481046D01*
X547851Y480734D01*
X547851Y476779D01*
X547865Y476688D01*
X547873Y476598D01*
X547885Y476568D01*
X547890Y476536D01*
X547933Y476455D01*
X547969Y476371D01*
X547995Y476339D01*
X548006Y476318D01*
X548029Y476296D01*
X548074Y476240D01*
X551178Y473136D01*
X551236Y473094D01*
X551288Y473045D01*
X551335Y473023D01*
X551377Y472993D01*
X551446Y472972D01*
X551511Y472941D01*
X551563Y472936D01*
X551613Y472920D01*
X551684Y472922D01*
X551755Y472914D01*
X551806Y472925D01*
X551858Y472927D01*
X551926Y472951D01*
X551996Y472966D01*
X552041Y472993D01*
X552089Y473011D01*
X552145Y473056D01*
X552207Y473093D01*
X552241Y473132D01*
X552281Y473165D01*
X552320Y473225D01*
X552367Y473280D01*
X552386Y473328D01*
X552414Y473372D01*
X552432Y473441D01*
X552459Y473508D01*
X552467Y473579D01*
X552475Y473610D01*
X552473Y473634D01*
X552477Y473674D01*
X552477Y476162D01*
X555586Y479271D01*
X559982Y479271D01*
X563091Y476162D01*
X563091Y471766D01*
X560644Y469319D01*
X560632Y469303D01*
X560616Y469290D01*
X560560Y469203D01*
X560500Y469119D01*
X560494Y469100D01*
X560483Y469083D01*
X560458Y468983D01*
X560428Y468884D01*
X560428Y468864D01*
X560423Y468845D01*
X560431Y468742D01*
X560434Y468638D01*
X560441Y468619D01*
X560443Y468600D01*
X560483Y468505D01*
X560519Y468407D01*
X560531Y468391D01*
X560539Y468373D01*
X560644Y468242D01*
X564604Y464282D01*
X566167Y462719D01*
X566167Y433393D01*
X558731Y425957D01*
X532837Y425957D01*
X532747Y425943D01*
X532656Y425935D01*
X532627Y425923D01*
X532595Y425918D01*
X532514Y425875D01*
X532430Y425839D01*
X532398Y425813D01*
X532377Y425802D01*
X532355Y425779D01*
X532299Y425734D01*
X529502Y422937D01*
X525106Y422937D01*
X521997Y426046D01*
X521997Y430442D01*
X525106Y433551D01*
X529118Y433551D01*
X529188Y433562D01*
X529260Y433564D01*
X529309Y433582D01*
X529360Y433590D01*
X529424Y433624D01*
X529491Y433649D01*
X529532Y433681D01*
X529578Y433706D01*
X529627Y433757D01*
X529683Y433802D01*
X529711Y433846D01*
X529747Y433884D01*
X529777Y433949D01*
X529816Y434009D01*
X529829Y434060D01*
X529851Y434107D01*
X529859Y434178D01*
X529876Y434248D01*
X529872Y434300D01*
X529878Y434351D01*
X529863Y434422D01*
X529857Y434493D01*
X529837Y434541D01*
X529826Y434592D01*
X529789Y434653D01*
X529761Y434719D01*
X529716Y434775D01*
X529699Y434803D01*
X529682Y434818D01*
X529656Y434850D01*
X529254Y435252D01*
X529180Y435306D01*
X529110Y435365D01*
X529080Y435377D01*
X529054Y435396D01*
X528967Y435423D01*
X528882Y435457D01*
X528841Y435461D01*
X528819Y435468D01*
X528787Y435467D01*
X528715Y435475D01*
X516768Y435475D01*
X515875Y436368D01*
X515875Y440436D01*
X515872Y440456D01*
X515874Y440475D01*
X515852Y440577D01*
X515836Y440679D01*
X515826Y440696D01*
X515822Y440716D01*
X515769Y440805D01*
X515720Y440896D01*
X515706Y440910D01*
X515696Y440927D01*
X515617Y440994D01*
X515542Y441066D01*
X515524Y441074D01*
X515509Y441087D01*
X515413Y441126D01*
X515319Y441169D01*
X515299Y441171D01*
X515281Y441179D01*
X515114Y441197D01*
X504183Y441197D01*
X504092Y441183D01*
X504002Y441175D01*
X503972Y441163D01*
X503940Y441158D01*
X503859Y441115D01*
X503775Y441079D01*
X503743Y441053D01*
X503722Y441042D01*
X503700Y441019D01*
X503644Y440974D01*
X477708Y415038D01*
X477666Y414980D01*
X477617Y414928D01*
X477595Y414881D01*
X477565Y414839D01*
X477544Y414770D01*
X477513Y414705D01*
X477508Y414653D01*
X477492Y414603D01*
X477494Y414532D01*
X477486Y414461D01*
X477497Y414410D01*
X477499Y414358D01*
X477523Y414290D01*
X477538Y414220D01*
X477565Y414175D01*
X477583Y414127D01*
X477628Y414071D01*
X477665Y414009D01*
X477704Y413975D01*
X477737Y413935D01*
X477797Y413896D01*
X477852Y413849D01*
X477900Y413830D01*
X477944Y413802D01*
X478013Y413784D01*
X478080Y413757D01*
X478151Y413749D01*
X478182Y413741D01*
X478206Y413743D01*
X478246Y413739D01*
X480734Y413739D01*
X483531Y410942D01*
X483605Y410889D01*
X483675Y410829D01*
X483705Y410817D01*
X483731Y410798D01*
X483818Y410771D01*
X483903Y410737D01*
X483944Y410733D01*
X483966Y410726D01*
X483998Y410727D01*
X484069Y410719D01*
X536314Y410719D01*
X536334Y410722D01*
X536353Y410720D01*
X536455Y410742D01*
X536557Y410758D01*
X536574Y410768D01*
X536594Y410772D01*
X536683Y410825D01*
X536774Y410874D01*
X536788Y410888D01*
X536805Y410898D01*
X536872Y410977D01*
X536944Y411052D01*
X536952Y411070D01*
X536965Y411085D01*
X537004Y411181D01*
X537047Y411275D01*
X537049Y411295D01*
X537057Y411313D01*
X537075Y411480D01*
X537075Y423032D01*
X537968Y423925D01*
X554232Y423925D01*
X555125Y423032D01*
X555125Y419100D01*
X555128Y419080D01*
X555126Y419061D01*
X555148Y418959D01*
X555164Y418857D01*
X555174Y418840D01*
X555178Y418820D01*
X555231Y418731D01*
X555280Y418640D01*
X555294Y418626D01*
X555304Y418609D01*
X555383Y418542D01*
X555458Y418470D01*
X555476Y418462D01*
X555491Y418449D01*
X555587Y418410D01*
X555681Y418367D01*
X555701Y418365D01*
X555719Y418357D01*
X555886Y418339D01*
X571500Y418339D01*
X571520Y418342D01*
X571539Y418340D01*
X571641Y418362D01*
X571743Y418378D01*
X571760Y418388D01*
X571780Y418392D01*
X571869Y418445D01*
X571960Y418494D01*
X571974Y418508D01*
X571991Y418518D01*
X572058Y418597D01*
X572130Y418672D01*
X572138Y418690D01*
X572151Y418705D01*
X572190Y418801D01*
X572233Y418895D01*
X572235Y418915D01*
X572243Y418933D01*
X572261Y419100D01*
X572261Y441383D01*
X577262Y446384D01*
X577273Y446400D01*
X577289Y446412D01*
X577318Y446458D01*
X577344Y446484D01*
X577361Y446521D01*
X577405Y446583D01*
X577411Y446602D01*
X577422Y446619D01*
X577440Y446693D01*
X577447Y446708D01*
X577449Y446727D01*
X577478Y446818D01*
X577477Y446838D01*
X577482Y446858D01*
X577474Y446961D01*
X577471Y447064D01*
X577464Y447083D01*
X577463Y447103D01*
X577422Y447198D01*
X577387Y447295D01*
X577374Y447311D01*
X577366Y447329D01*
X577262Y447460D01*
X576732Y447990D01*
X576732Y467208D01*
X577625Y468101D01*
X590775Y468101D01*
X591668Y467208D01*
X591668Y447990D01*
X590775Y447097D01*
X584758Y447097D01*
X584668Y447082D01*
X584577Y447075D01*
X584547Y447062D01*
X584515Y447057D01*
X584435Y447014D01*
X584351Y446979D01*
X584319Y446953D01*
X584298Y446942D01*
X584276Y446919D01*
X584220Y446874D01*
X580549Y443203D01*
X580507Y443145D01*
X580457Y443093D01*
X580436Y443045D01*
X580405Y443003D01*
X580384Y442935D01*
X580354Y442869D01*
X580348Y442818D01*
X580333Y442768D01*
X580335Y442696D01*
X580327Y442625D01*
X580338Y442574D01*
X580339Y442522D01*
X580364Y442455D01*
X580379Y442385D01*
X580406Y442340D01*
X580424Y442291D01*
X580468Y442235D01*
X580505Y442174D01*
X580545Y442140D01*
X580577Y442099D01*
X580638Y442060D01*
X580692Y442014D01*
X580740Y441994D01*
X580784Y441966D01*
X580854Y441949D01*
X580920Y441922D01*
X580992Y441914D01*
X581023Y441906D01*
X581046Y441908D01*
X581087Y441903D01*
X590775Y441903D01*
X591668Y441010D01*
X591668Y421992D01*
X591683Y421902D01*
X591690Y421811D01*
X591703Y421781D01*
X591708Y421749D01*
X591751Y421669D01*
X591786Y421585D01*
X591812Y421552D01*
X591823Y421532D01*
X591846Y421510D01*
X591891Y421454D01*
X595095Y418250D01*
X595095Y413854D01*
X591986Y410745D01*
X589554Y410745D01*
X589464Y410731D01*
X589373Y410723D01*
X589344Y410711D01*
X589312Y410706D01*
X589231Y410663D01*
X589147Y410627D01*
X589115Y410601D01*
X589094Y410590D01*
X589072Y410567D01*
X589016Y410522D01*
X561818Y383324D01*
X560255Y381761D01*
X458161Y381761D01*
X458071Y381747D01*
X457980Y381739D01*
X457951Y381727D01*
X457919Y381722D01*
X457838Y381679D01*
X457754Y381643D01*
X457722Y381617D01*
X457701Y381606D01*
X457679Y381583D01*
X457623Y381538D01*
X454826Y378741D01*
X450430Y378741D01*
X447321Y381850D01*
X447321Y382814D01*
X447310Y382884D01*
X447308Y382956D01*
X447290Y383005D01*
X447282Y383056D01*
X447248Y383120D01*
X447223Y383187D01*
X447191Y383228D01*
X447166Y383274D01*
X447114Y383323D01*
X447070Y383379D01*
X447026Y383407D01*
X446988Y383443D01*
X446923Y383473D01*
X446863Y383512D01*
X446812Y383525D01*
X446765Y383547D01*
X446694Y383555D01*
X446624Y383572D01*
X446572Y383568D01*
X446521Y383574D01*
X446450Y383559D01*
X446379Y383553D01*
X446331Y383533D01*
X446280Y383522D01*
X446219Y383485D01*
X446153Y383457D01*
X446097Y383412D01*
X446069Y383395D01*
X446054Y383378D01*
X446022Y383352D01*
X430715Y368045D01*
X362055Y368045D01*
X361959Y368030D01*
X361862Y368020D01*
X361838Y368010D01*
X361812Y368006D01*
X361727Y367960D01*
X361637Y367920D01*
X361618Y367903D01*
X361595Y367890D01*
X361528Y367820D01*
X361456Y367754D01*
X361444Y367731D01*
X361426Y367712D01*
X361385Y367624D01*
X361338Y367538D01*
X361333Y367513D01*
X361322Y367489D01*
X361311Y367392D01*
X361294Y367296D01*
X361298Y367270D01*
X361295Y367245D01*
X361316Y367150D01*
X361330Y367053D01*
X361342Y367030D01*
X361347Y367004D01*
X361397Y366920D01*
X361441Y366834D01*
X361460Y366816D01*
X361473Y366793D01*
X361547Y366730D01*
X361617Y366662D01*
X361645Y366646D01*
X361660Y366633D01*
X361691Y366621D01*
X361764Y366581D01*
X362812Y366147D01*
X365385Y363574D01*
X366777Y360213D01*
X366777Y356575D01*
X365385Y353214D01*
X362812Y350641D01*
X359451Y349249D01*
X340573Y349249D01*
G37*
%LPD*%
%LPC*%
G36*
X714461Y410955D02*
X714461Y410955D01*
X711100Y412347D01*
X708527Y414920D01*
X707135Y418281D01*
X707135Y421919D01*
X708527Y425280D01*
X711100Y427853D01*
X711700Y428101D01*
X711739Y428125D01*
X711782Y428141D01*
X711843Y428190D01*
X711909Y428231D01*
X711939Y428266D01*
X711974Y428295D01*
X712017Y428360D01*
X712066Y428420D01*
X712083Y428463D01*
X712107Y428502D01*
X712126Y428577D01*
X712154Y428650D01*
X712156Y428696D01*
X712168Y428740D01*
X712162Y428818D01*
X712165Y428896D01*
X712152Y428940D01*
X712148Y428986D01*
X712118Y429057D01*
X712096Y429132D01*
X712070Y429170D01*
X712052Y429212D01*
X711967Y429318D01*
X711956Y429334D01*
X711952Y429337D01*
X711947Y429343D01*
X704888Y436402D01*
X703325Y437965D01*
X703325Y467868D01*
X703322Y467888D01*
X703324Y467907D01*
X703302Y468009D01*
X703286Y468111D01*
X703276Y468128D01*
X703272Y468148D01*
X703219Y468237D01*
X703170Y468328D01*
X703156Y468342D01*
X703146Y468359D01*
X703067Y468426D01*
X702992Y468498D01*
X702974Y468506D01*
X702959Y468519D01*
X702863Y468558D01*
X702769Y468601D01*
X702749Y468603D01*
X702731Y468611D01*
X702564Y468629D01*
X617829Y468629D01*
X617810Y468626D01*
X617790Y468628D01*
X617689Y468606D01*
X617587Y468590D01*
X617569Y468580D01*
X617550Y468576D01*
X617461Y468523D01*
X617369Y468474D01*
X617356Y468460D01*
X617339Y468450D01*
X617271Y468371D01*
X617200Y468296D01*
X617192Y468278D01*
X617179Y468263D01*
X617140Y468167D01*
X617096Y468073D01*
X617094Y468053D01*
X617087Y468035D01*
X617068Y467868D01*
X617068Y460690D01*
X616175Y459797D01*
X603025Y459797D01*
X602132Y460690D01*
X602132Y479908D01*
X603025Y480801D01*
X616175Y480801D01*
X617068Y479908D01*
X617068Y473964D01*
X617071Y473944D01*
X617069Y473925D01*
X617091Y473823D01*
X617108Y473721D01*
X617117Y473704D01*
X617122Y473684D01*
X617175Y473595D01*
X617223Y473504D01*
X617237Y473490D01*
X617248Y473473D01*
X617326Y473406D01*
X617401Y473334D01*
X617419Y473326D01*
X617435Y473313D01*
X617531Y473274D01*
X617624Y473231D01*
X617644Y473229D01*
X617663Y473221D01*
X617829Y473203D01*
X702564Y473203D01*
X702584Y473206D01*
X702603Y473204D01*
X702705Y473226D01*
X702807Y473242D01*
X702824Y473252D01*
X702844Y473256D01*
X702933Y473309D01*
X703024Y473358D01*
X703038Y473372D01*
X703055Y473382D01*
X703122Y473461D01*
X703194Y473536D01*
X703202Y473554D01*
X703215Y473569D01*
X703254Y473665D01*
X703297Y473759D01*
X703299Y473779D01*
X703307Y473797D01*
X703325Y473964D01*
X703325Y549587D01*
X704888Y551150D01*
X713820Y560082D01*
X713846Y560119D01*
X713880Y560150D01*
X713918Y560218D01*
X713963Y560281D01*
X713977Y560325D01*
X713999Y560365D01*
X714013Y560442D01*
X714036Y560516D01*
X714034Y560562D01*
X714043Y560607D01*
X714031Y560685D01*
X714029Y560762D01*
X714013Y560805D01*
X714007Y560851D01*
X713972Y560920D01*
X713945Y560993D01*
X713916Y561029D01*
X713895Y561070D01*
X713840Y561125D01*
X713791Y561185D01*
X713752Y561210D01*
X713720Y561242D01*
X713600Y561308D01*
X713584Y561318D01*
X713579Y561320D01*
X713573Y561323D01*
X711100Y562347D01*
X708527Y564920D01*
X707135Y568281D01*
X707135Y571919D01*
X708527Y575280D01*
X711100Y577853D01*
X714461Y579245D01*
X733339Y579245D01*
X736700Y577853D01*
X739273Y575280D01*
X740665Y571919D01*
X740665Y568281D01*
X739273Y564920D01*
X736700Y562347D01*
X733339Y560955D01*
X721476Y560955D01*
X721386Y560941D01*
X721295Y560933D01*
X721266Y560921D01*
X721234Y560916D01*
X721153Y560873D01*
X721069Y560837D01*
X721037Y560811D01*
X721016Y560800D01*
X720994Y560777D01*
X720938Y560732D01*
X715750Y555544D01*
X715708Y555486D01*
X715659Y555434D01*
X715637Y555387D01*
X715607Y555345D01*
X715586Y555276D01*
X715555Y555211D01*
X715550Y555159D01*
X715534Y555109D01*
X715536Y555038D01*
X715528Y554967D01*
X715539Y554916D01*
X715541Y554864D01*
X715565Y554796D01*
X715580Y554726D01*
X715607Y554682D01*
X715625Y554633D01*
X715670Y554577D01*
X715707Y554515D01*
X715746Y554481D01*
X715779Y554441D01*
X715839Y554402D01*
X715894Y554355D01*
X715942Y554336D01*
X715986Y554308D01*
X716055Y554290D01*
X716122Y554263D01*
X716193Y554255D01*
X716224Y554247D01*
X716248Y554249D01*
X716288Y554245D01*
X733339Y554245D01*
X736700Y552853D01*
X739273Y550280D01*
X740665Y546919D01*
X740665Y543281D01*
X739273Y539920D01*
X736700Y537347D01*
X733339Y535955D01*
X714461Y535955D01*
X711100Y537347D01*
X709198Y539249D01*
X709140Y539291D01*
X709088Y539340D01*
X709041Y539362D01*
X708999Y539393D01*
X708930Y539414D01*
X708865Y539444D01*
X708813Y539450D01*
X708763Y539465D01*
X708692Y539463D01*
X708621Y539471D01*
X708570Y539460D01*
X708518Y539459D01*
X708450Y539434D01*
X708380Y539419D01*
X708335Y539392D01*
X708287Y539374D01*
X708231Y539329D01*
X708169Y539293D01*
X708135Y539253D01*
X708095Y539221D01*
X708056Y539160D01*
X708009Y539106D01*
X707990Y539057D01*
X707962Y539014D01*
X707944Y538944D01*
X707917Y538878D01*
X707909Y538806D01*
X707901Y538775D01*
X707903Y538752D01*
X707899Y538711D01*
X707899Y526489D01*
X707910Y526418D01*
X707912Y526347D01*
X707930Y526298D01*
X707938Y526246D01*
X707972Y526183D01*
X707997Y526116D01*
X708029Y526075D01*
X708054Y526029D01*
X708106Y525980D01*
X708150Y525924D01*
X708194Y525895D01*
X708232Y525860D01*
X708297Y525829D01*
X708357Y525791D01*
X708408Y525778D01*
X708455Y525756D01*
X708526Y525748D01*
X708596Y525731D01*
X708648Y525735D01*
X708699Y525729D01*
X708770Y525744D01*
X708841Y525750D01*
X708889Y525770D01*
X708940Y525781D01*
X709001Y525818D01*
X709067Y525846D01*
X709123Y525891D01*
X709151Y525907D01*
X709166Y525925D01*
X709198Y525951D01*
X711100Y527853D01*
X714461Y529245D01*
X733339Y529245D01*
X736700Y527853D01*
X739273Y525280D01*
X740665Y521919D01*
X740665Y518281D01*
X739273Y514920D01*
X736700Y512347D01*
X733339Y510955D01*
X714461Y510955D01*
X711100Y512347D01*
X709198Y514249D01*
X709140Y514291D01*
X709088Y514340D01*
X709041Y514362D01*
X708999Y514393D01*
X708930Y514414D01*
X708865Y514444D01*
X708813Y514450D01*
X708763Y514465D01*
X708692Y514463D01*
X708621Y514471D01*
X708570Y514460D01*
X708518Y514459D01*
X708450Y514434D01*
X708380Y514419D01*
X708335Y514392D01*
X708287Y514374D01*
X708231Y514329D01*
X708169Y514293D01*
X708135Y514253D01*
X708095Y514221D01*
X708056Y514160D01*
X708009Y514106D01*
X707990Y514057D01*
X707962Y514014D01*
X707944Y513944D01*
X707917Y513878D01*
X707909Y513806D01*
X707901Y513775D01*
X707903Y513752D01*
X707899Y513711D01*
X707899Y501489D01*
X707910Y501418D01*
X707912Y501347D01*
X707930Y501298D01*
X707938Y501246D01*
X707972Y501183D01*
X707997Y501116D01*
X708029Y501075D01*
X708054Y501029D01*
X708106Y500980D01*
X708150Y500924D01*
X708194Y500895D01*
X708232Y500860D01*
X708297Y500829D01*
X708357Y500791D01*
X708408Y500778D01*
X708455Y500756D01*
X708526Y500748D01*
X708596Y500731D01*
X708648Y500735D01*
X708699Y500729D01*
X708770Y500744D01*
X708841Y500750D01*
X708889Y500770D01*
X708940Y500781D01*
X709001Y500818D01*
X709067Y500846D01*
X709123Y500891D01*
X709151Y500907D01*
X709166Y500925D01*
X709198Y500951D01*
X711100Y502853D01*
X714461Y504245D01*
X733339Y504245D01*
X736700Y502853D01*
X739273Y500280D01*
X740665Y496919D01*
X740665Y493281D01*
X739273Y489920D01*
X736700Y487347D01*
X733339Y485955D01*
X714461Y485955D01*
X711100Y487347D01*
X709198Y489249D01*
X709140Y489291D01*
X709088Y489340D01*
X709041Y489362D01*
X708999Y489393D01*
X708930Y489414D01*
X708865Y489444D01*
X708813Y489450D01*
X708763Y489465D01*
X708692Y489463D01*
X708621Y489471D01*
X708570Y489460D01*
X708518Y489459D01*
X708450Y489434D01*
X708380Y489419D01*
X708335Y489392D01*
X708287Y489374D01*
X708231Y489329D01*
X708169Y489293D01*
X708135Y489253D01*
X708095Y489221D01*
X708056Y489160D01*
X708009Y489106D01*
X707990Y489057D01*
X707962Y489014D01*
X707944Y488944D01*
X707917Y488878D01*
X707909Y488806D01*
X707901Y488775D01*
X707903Y488752D01*
X707899Y488711D01*
X707899Y476489D01*
X707910Y476418D01*
X707912Y476347D01*
X707930Y476298D01*
X707938Y476246D01*
X707972Y476183D01*
X707997Y476116D01*
X708029Y476075D01*
X708054Y476029D01*
X708106Y475980D01*
X708150Y475924D01*
X708194Y475895D01*
X708232Y475860D01*
X708297Y475829D01*
X708357Y475791D01*
X708408Y475778D01*
X708455Y475756D01*
X708526Y475748D01*
X708596Y475731D01*
X708648Y475735D01*
X708699Y475729D01*
X708770Y475744D01*
X708841Y475750D01*
X708889Y475770D01*
X708940Y475781D01*
X709001Y475818D01*
X709067Y475846D01*
X709123Y475891D01*
X709151Y475907D01*
X709166Y475925D01*
X709198Y475951D01*
X711100Y477853D01*
X714461Y479245D01*
X733339Y479245D01*
X736700Y477853D01*
X739273Y475280D01*
X740665Y471919D01*
X740665Y468281D01*
X739273Y464920D01*
X736700Y462347D01*
X733339Y460955D01*
X714461Y460955D01*
X711100Y462347D01*
X709198Y464249D01*
X709140Y464291D01*
X709088Y464340D01*
X709041Y464362D01*
X708999Y464393D01*
X708930Y464414D01*
X708865Y464444D01*
X708813Y464450D01*
X708763Y464465D01*
X708692Y464463D01*
X708621Y464471D01*
X708570Y464460D01*
X708518Y464459D01*
X708450Y464434D01*
X708380Y464419D01*
X708335Y464392D01*
X708287Y464374D01*
X708231Y464329D01*
X708169Y464293D01*
X708135Y464253D01*
X708095Y464221D01*
X708056Y464160D01*
X708009Y464106D01*
X707990Y464057D01*
X707962Y464014D01*
X707944Y463944D01*
X707917Y463878D01*
X707909Y463806D01*
X707901Y463775D01*
X707903Y463752D01*
X707899Y463711D01*
X707899Y451489D01*
X707910Y451418D01*
X707912Y451347D01*
X707930Y451298D01*
X707938Y451246D01*
X707972Y451183D01*
X707997Y451116D01*
X708029Y451075D01*
X708054Y451029D01*
X708106Y450980D01*
X708150Y450924D01*
X708194Y450895D01*
X708232Y450860D01*
X708297Y450829D01*
X708357Y450791D01*
X708408Y450778D01*
X708455Y450756D01*
X708526Y450748D01*
X708596Y450731D01*
X708648Y450735D01*
X708699Y450729D01*
X708770Y450744D01*
X708841Y450750D01*
X708889Y450770D01*
X708940Y450781D01*
X709001Y450818D01*
X709067Y450846D01*
X709123Y450891D01*
X709151Y450907D01*
X709166Y450925D01*
X709198Y450951D01*
X711100Y452853D01*
X714461Y454245D01*
X733339Y454245D01*
X736700Y452853D01*
X739273Y450280D01*
X740665Y446919D01*
X740665Y443281D01*
X739273Y439920D01*
X736700Y437347D01*
X733339Y435955D01*
X714461Y435955D01*
X713459Y436370D01*
X713364Y436393D01*
X713271Y436421D01*
X713245Y436421D01*
X713219Y436427D01*
X713122Y436418D01*
X713025Y436415D01*
X713000Y436406D01*
X712974Y436404D01*
X712885Y436364D01*
X712794Y436331D01*
X712773Y436314D01*
X712750Y436304D01*
X712678Y436238D01*
X712602Y436177D01*
X712588Y436155D01*
X712568Y436137D01*
X712521Y436052D01*
X712469Y435970D01*
X712462Y435945D01*
X712450Y435922D01*
X712433Y435826D01*
X712409Y435731D01*
X712411Y435705D01*
X712406Y435680D01*
X712420Y435583D01*
X712428Y435486D01*
X712438Y435462D01*
X712442Y435436D01*
X712486Y435349D01*
X712524Y435260D01*
X712545Y435234D01*
X712553Y435217D01*
X712577Y435194D01*
X712629Y435129D01*
X718290Y429468D01*
X718364Y429415D01*
X718434Y429355D01*
X718464Y429343D01*
X718490Y429324D01*
X718577Y429297D01*
X718662Y429263D01*
X718703Y429259D01*
X718725Y429252D01*
X718757Y429253D01*
X718828Y429245D01*
X733339Y429245D01*
X736700Y427853D01*
X739273Y425280D01*
X740665Y421919D01*
X740665Y418281D01*
X739273Y414920D01*
X736700Y412347D01*
X733339Y410955D01*
X714461Y410955D01*
G37*
%LPD*%
%LPC*%
G36*
X714461Y385955D02*
X714461Y385955D01*
X711100Y387347D01*
X708527Y389920D01*
X707135Y393281D01*
X707135Y396919D01*
X708527Y400280D01*
X711100Y402853D01*
X714461Y404245D01*
X733339Y404245D01*
X736700Y402853D01*
X739273Y400280D01*
X740665Y396919D01*
X740665Y393281D01*
X739273Y389920D01*
X736700Y387347D01*
X733339Y385955D01*
X714461Y385955D01*
G37*
%LPD*%
%LPC*%
G36*
X275549Y349249D02*
X275549Y349249D01*
X272188Y350641D01*
X269615Y353214D01*
X268223Y356575D01*
X268223Y360213D01*
X269615Y363574D01*
X272188Y366147D01*
X275549Y367539D01*
X294427Y367539D01*
X297788Y366147D01*
X300361Y363574D01*
X301753Y360213D01*
X301753Y356575D01*
X300361Y353214D01*
X297788Y350641D01*
X294427Y349249D01*
X275549Y349249D01*
G37*
%LPD*%
%LPC*%
G36*
X283270Y512063D02*
X283270Y512063D01*
X280096Y513378D01*
X277666Y515808D01*
X276351Y518982D01*
X276351Y522418D01*
X277666Y525592D01*
X280096Y528022D01*
X283270Y529337D01*
X300930Y529337D01*
X304104Y528022D01*
X306534Y525592D01*
X307849Y522418D01*
X307849Y518982D01*
X306534Y515808D01*
X304104Y513378D01*
X300930Y512063D01*
X283270Y512063D01*
G37*
%LPD*%
%LPC*%
G36*
X283270Y486663D02*
X283270Y486663D01*
X280096Y487978D01*
X277666Y490408D01*
X276351Y493582D01*
X276351Y497018D01*
X277666Y500192D01*
X280096Y502622D01*
X283270Y503937D01*
X300930Y503937D01*
X304104Y502622D01*
X306534Y500192D01*
X307849Y497018D01*
X307849Y493582D01*
X306534Y490408D01*
X304104Y487978D01*
X300930Y486663D01*
X283270Y486663D01*
G37*
%LPD*%
%LPC*%
G36*
X594929Y548893D02*
X594929Y548893D01*
X591288Y550401D01*
X588501Y553188D01*
X586993Y556829D01*
X586993Y560771D01*
X588501Y564412D01*
X591288Y567199D01*
X594929Y568707D01*
X598871Y568707D01*
X602512Y567199D01*
X605299Y564412D01*
X606807Y560771D01*
X606807Y556829D01*
X605299Y553188D01*
X602512Y550401D01*
X598871Y548893D01*
X594929Y548893D01*
G37*
%LPD*%
%LPC*%
G36*
X569529Y548893D02*
X569529Y548893D01*
X565888Y550401D01*
X563101Y553188D01*
X561593Y556829D01*
X561593Y560771D01*
X563101Y564412D01*
X565888Y567199D01*
X569529Y568707D01*
X573471Y568707D01*
X577112Y567199D01*
X579899Y564412D01*
X581407Y560771D01*
X581407Y556829D01*
X579899Y553188D01*
X577112Y550401D01*
X573471Y548893D01*
X569529Y548893D01*
G37*
%LPD*%
%LPC*%
G36*
X725423Y371623D02*
X725423Y371623D01*
X725423Y380261D01*
X732320Y380261D01*
X733899Y380011D01*
X735420Y379516D01*
X736845Y378790D01*
X738139Y377850D01*
X739270Y376719D01*
X740210Y375425D01*
X740936Y374000D01*
X741431Y372479D01*
X741566Y371623D01*
X725423Y371623D01*
G37*
%LPD*%
%LPC*%
G36*
X706234Y371623D02*
X706234Y371623D01*
X706369Y372479D01*
X706864Y374000D01*
X707590Y375425D01*
X708530Y376719D01*
X709661Y377850D01*
X710955Y378790D01*
X712380Y379516D01*
X713901Y380011D01*
X715480Y380261D01*
X722377Y380261D01*
X722377Y371623D01*
X706234Y371623D01*
G37*
%LPD*%
%LPC*%
G36*
X725423Y359939D02*
X725423Y359939D01*
X725423Y368577D01*
X741566Y368577D01*
X741431Y367721D01*
X740936Y366200D01*
X740210Y364775D01*
X739270Y363481D01*
X738139Y362350D01*
X736845Y361410D01*
X735420Y360684D01*
X733899Y360189D01*
X732320Y359939D01*
X725423Y359939D01*
G37*
%LPD*%
%LPC*%
G36*
X715480Y359939D02*
X715480Y359939D01*
X713901Y360189D01*
X712380Y360684D01*
X710955Y361410D01*
X709661Y362350D01*
X708530Y363481D01*
X707590Y364775D01*
X706864Y366200D01*
X706369Y367721D01*
X706234Y368577D01*
X722377Y368577D01*
X722377Y359939D01*
X715480Y359939D01*
G37*
%LPD*%
%LPC*%
G36*
X611123Y445624D02*
X611123Y445624D01*
X611123Y455619D01*
X615878Y455619D01*
X616524Y455446D01*
X617104Y455112D01*
X617577Y454639D01*
X617911Y454059D01*
X618084Y453413D01*
X618084Y445624D01*
X611123Y445624D01*
G37*
%LPD*%
%LPC*%
G36*
X601116Y445624D02*
X601116Y445624D01*
X601116Y453413D01*
X601289Y454059D01*
X601623Y454639D01*
X602096Y455112D01*
X602676Y455446D01*
X603322Y455619D01*
X608077Y455619D01*
X608077Y445624D01*
X601116Y445624D01*
G37*
%LPD*%
%LPC*%
G36*
X611123Y432583D02*
X611123Y432583D01*
X611123Y442578D01*
X618084Y442578D01*
X618084Y434789D01*
X617911Y434143D01*
X617577Y433563D01*
X617104Y433090D01*
X616524Y432756D01*
X615878Y432583D01*
X611123Y432583D01*
G37*
%LPD*%
%LPC*%
G36*
X603322Y432583D02*
X603322Y432583D01*
X602676Y432756D01*
X602096Y433090D01*
X601623Y433563D01*
X601289Y434143D01*
X601116Y434789D01*
X601116Y442578D01*
X608077Y442578D01*
X608077Y432583D01*
X603322Y432583D01*
G37*
%LPD*%
%LPC*%
G36*
X623823Y560323D02*
X623823Y560323D01*
X623823Y569618D01*
X624858Y569454D01*
X626493Y568922D01*
X628025Y568142D01*
X629416Y567131D01*
X630631Y565916D01*
X631642Y564525D01*
X632422Y562993D01*
X632954Y561358D01*
X633118Y560323D01*
X623823Y560323D01*
G37*
%LPD*%
%LPC*%
G36*
X611482Y560323D02*
X611482Y560323D01*
X611646Y561358D01*
X612178Y562993D01*
X612958Y564525D01*
X613969Y565916D01*
X615184Y567131D01*
X616575Y568142D01*
X618107Y568922D01*
X619742Y569454D01*
X620777Y569618D01*
X620777Y560323D01*
X611482Y560323D01*
G37*
%LPD*%
%LPC*%
G36*
X619742Y548146D02*
X619742Y548146D01*
X618107Y548678D01*
X616575Y549458D01*
X615184Y550469D01*
X613969Y551684D01*
X612958Y553075D01*
X612178Y554607D01*
X611646Y556242D01*
X611482Y557277D01*
X620777Y557277D01*
X620777Y547982D01*
X619742Y548146D01*
G37*
%LPD*%
%LPC*%
G36*
X622299Y558799D02*
X622299Y558799D01*
X622299Y558801D01*
X622301Y558801D01*
X622301Y558799D01*
X622299Y558799D01*
G37*
%LPD*%
%LPC*%
G36*
X723899Y370099D02*
X723899Y370099D01*
X723899Y370101D01*
X723901Y370101D01*
X723901Y370099D01*
X723899Y370099D01*
G37*
%LPD*%
%LPC*%
G36*
X609599Y444100D02*
X609599Y444100D01*
X609599Y444102D01*
X609601Y444102D01*
X609601Y444100D01*
X609599Y444100D01*
G37*
%LPD*%
D10*
X609600Y444101D03*
X609600Y470299D03*
X584200Y431401D03*
X584200Y457599D03*
D11*
X546100Y396900D03*
X546100Y415900D03*
D12*
X523900Y444500D03*
X542900Y444500D03*
D13*
X299212Y495300D02*
X284988Y495300D01*
X284988Y520700D02*
X299212Y520700D01*
D14*
X716280Y545100D02*
X731520Y545100D01*
X731520Y520100D02*
X716280Y520100D01*
X716280Y420100D02*
X731520Y420100D01*
X731520Y495100D02*
X716280Y495100D01*
X716280Y470100D02*
X731520Y470100D01*
X731520Y445100D02*
X716280Y445100D01*
X716280Y395100D02*
X731520Y395100D01*
X731520Y370100D02*
X716280Y370100D01*
X716280Y570100D02*
X731520Y570100D01*
X731520Y595100D02*
X716280Y595100D01*
D12*
X327000Y381000D03*
X308000Y381000D03*
D14*
X292608Y403606D02*
X277368Y403606D01*
X277368Y358394D02*
X292608Y358394D01*
X342392Y403606D02*
X357632Y403606D01*
X357632Y358394D02*
X342392Y358394D01*
D15*
X596900Y558800D03*
X622300Y558800D03*
X571500Y558800D03*
D16*
X621792Y443484D02*
X650748Y443484D01*
X621792Y443484D02*
X609600Y443484D01*
X650748Y443484D02*
X723900Y370332D01*
X609600Y443484D02*
X609600Y444101D01*
X723900Y370332D02*
X723900Y370100D01*
X621792Y443484D02*
X621792Y448056D01*
D17*
X621792Y448056D03*
D16*
X705612Y470916D02*
X723900Y470916D01*
X705612Y470916D02*
X609600Y470916D01*
X609600Y470299D01*
X723900Y470100D02*
X723900Y470916D01*
X705612Y438912D02*
X723900Y420624D01*
X705612Y438912D02*
X705612Y470916D01*
X723900Y420624D02*
X723900Y420100D01*
X723900Y566928D02*
X723900Y570100D01*
X723900Y566928D02*
X705612Y548640D01*
X705612Y470916D01*
X542544Y451104D02*
X542544Y445008D01*
X542544Y451104D02*
X534924Y458724D01*
X534924Y466344D01*
X542544Y445008D02*
X542900Y444500D01*
D17*
X534924Y466344D03*
D16*
X547116Y416052D02*
X574548Y416052D01*
X547116Y416052D02*
X546100Y415900D01*
X539496Y408432D02*
X478536Y408432D01*
X539496Y408432D02*
X545592Y414528D01*
X546100Y415900D01*
X583692Y449580D02*
X583692Y457200D01*
X583692Y449580D02*
X574548Y440436D01*
X574548Y416052D01*
X583692Y457200D02*
X584200Y457599D01*
X577596Y416052D02*
X574548Y416052D01*
D17*
X577596Y416052D03*
X478536Y408432D03*
D16*
X556260Y406908D02*
X559308Y406908D01*
X556260Y406908D02*
X547116Y397764D01*
X546100Y396900D01*
X539496Y390144D02*
X481584Y390144D01*
X539496Y390144D02*
X545592Y396240D01*
X546100Y396900D01*
X583692Y413004D02*
X583692Y431292D01*
X583692Y413004D02*
X577596Y406908D01*
X559308Y406908D01*
X583692Y431292D02*
X584200Y431401D01*
D17*
X559308Y406908D03*
X481584Y390144D03*
D16*
X348996Y402336D02*
X327660Y381000D01*
X327000Y381000D01*
X348996Y402336D02*
X350012Y403606D01*
X304800Y402336D02*
X284988Y402336D01*
X304800Y402336D02*
X326136Y381000D01*
X284988Y402336D02*
X284988Y403606D01*
X326136Y381000D02*
X327000Y381000D01*
X533400Y434340D02*
X554736Y434340D01*
X533400Y434340D02*
X524256Y443484D01*
X523900Y444500D01*
X320040Y370332D02*
X309372Y381000D01*
X320040Y370332D02*
X429768Y370332D01*
X502920Y443484D01*
X522732Y443484D01*
X309372Y381000D02*
X308000Y381000D01*
X522732Y443484D02*
X523900Y444500D01*
X673608Y594360D02*
X723900Y594360D01*
X673608Y594360D02*
X563880Y484632D01*
X539496Y484632D01*
X524256Y469392D01*
X524256Y445008D01*
X723900Y594360D02*
X723900Y595100D01*
X524256Y445008D02*
X523900Y444500D01*
D17*
X554736Y434340D03*
D16*
X586740Y413004D02*
X589788Y416052D01*
X586740Y413004D02*
X586740Y411480D01*
X559308Y384048D01*
X452628Y384048D01*
D17*
X589788Y416052D03*
X452628Y384048D03*
D16*
X554736Y443484D02*
X560832Y449580D01*
X560832Y460248D01*
X542544Y478536D01*
D17*
X554736Y443484D03*
X542544Y478536D03*
D16*
X557784Y473964D02*
X557784Y467868D01*
X563880Y461772D01*
X563880Y434340D01*
X557784Y428244D01*
X527304Y428244D01*
D17*
X557784Y473964D03*
X527304Y428244D03*
D16*
X551688Y454152D02*
X554736Y454152D01*
X551688Y454152D02*
X545592Y460248D01*
X542544Y460248D01*
D17*
X554736Y454152D03*
X542544Y460248D03*
M02*
