G04 EAGLE Gerber RS-274X export*
G75*
%MOMM*%
%FSLAX34Y34*%
%LPD*%
%INSolderpaste Top*%
%IPPOS*%
%AMOC8*
5,1,8,0,0,1.08239X$1,22.5*%
G01*
%ADD10R,1.500000X1.300000*%
%ADD11R,1.300000X1.500000*%
%ADD12R,1.200000X1.300000*%
%ADD13R,0.450000X0.675000*%
%ADD14R,1.000000X0.220000*%
%ADD15R,0.220000X1.000000*%
%ADD16R,0.500000X3.910000*%
%ADD17R,1.800000X1.000000*%


D10*
X520700Y415900D03*
X520700Y396900D03*
X520700Y447700D03*
X520700Y466700D03*
D11*
X644500Y381000D03*
X625500Y381000D03*
D10*
X673100Y479400D03*
X673100Y460400D03*
D11*
X587400Y508000D03*
X606400Y508000D03*
D10*
X444500Y396900D03*
X444500Y415900D03*
X444500Y460400D03*
X444500Y479400D03*
D12*
X320040Y520700D03*
X340360Y520700D03*
D13*
X508000Y539775D03*
X508000Y527025D03*
X419100Y539775D03*
X419100Y527025D03*
D11*
X282600Y457200D03*
X301600Y457200D03*
X333400Y457200D03*
X352400Y457200D03*
X555600Y508000D03*
X536600Y508000D03*
D10*
X469900Y523900D03*
X469900Y542900D03*
X381000Y523900D03*
X381000Y542900D03*
D14*
X566500Y468900D03*
X566500Y463900D03*
X566500Y458900D03*
X566500Y453900D03*
X566500Y448900D03*
X566500Y443900D03*
X566500Y438900D03*
X566500Y433900D03*
X566500Y428900D03*
X566500Y423900D03*
X566500Y418900D03*
X566500Y413900D03*
D15*
X579000Y401400D03*
X584000Y401400D03*
X589000Y401400D03*
X594000Y401400D03*
X599000Y401400D03*
X604000Y401400D03*
X609000Y401400D03*
X614000Y401400D03*
X619000Y401400D03*
X624000Y401400D03*
X629000Y401400D03*
X634000Y401400D03*
D14*
X646500Y413900D03*
X646500Y418900D03*
X646500Y423900D03*
X646500Y428900D03*
X646500Y433900D03*
X646500Y438900D03*
X646500Y443900D03*
X646500Y448900D03*
X646500Y453900D03*
X646500Y458900D03*
X646500Y463900D03*
X646500Y468900D03*
D15*
X634000Y481400D03*
X629000Y481400D03*
X624000Y481400D03*
X619000Y481400D03*
X614000Y481400D03*
X609000Y481400D03*
X604000Y481400D03*
X599000Y481400D03*
X594000Y481400D03*
X589000Y481400D03*
X584000Y481400D03*
X579000Y481400D03*
D16*
X408800Y394000D03*
X408800Y482000D03*
D17*
X495300Y416800D03*
X495300Y441800D03*
M02*
