G04 EAGLE Gerber RS-274X export*
G75*
%MOMM*%
%FSLAX34Y34*%
%LPD*%
%IN*%
%IPPOS*%
%AMOC8*
5,1,8,0,0,1.08239X$1,22.5*%
G01*
%ADD10C,0.254000*%


D10*
X0Y-7620D02*
X497080Y-7620D01*
X497080Y289460D01*
X0Y289460D01*
X0Y-7620D01*
X30320Y266263D02*
X30244Y265394D01*
X30092Y264534D01*
X29866Y263690D01*
X29568Y262870D01*
X29199Y262078D01*
X28762Y261322D01*
X28261Y260607D01*
X27700Y259938D01*
X27082Y259320D01*
X26413Y258759D01*
X25698Y258258D01*
X24942Y257821D01*
X24150Y257452D01*
X23330Y257154D01*
X22486Y256928D01*
X21627Y256776D01*
X20757Y256700D01*
X19883Y256700D01*
X19014Y256776D01*
X18154Y256928D01*
X17310Y257154D01*
X16490Y257452D01*
X15698Y257821D01*
X14942Y258258D01*
X14227Y258759D01*
X13558Y259320D01*
X12940Y259938D01*
X12379Y260607D01*
X11878Y261322D01*
X11441Y262078D01*
X11072Y262870D01*
X10774Y263690D01*
X10548Y264534D01*
X10396Y265394D01*
X10320Y266263D01*
X10320Y267137D01*
X10396Y268007D01*
X10548Y268866D01*
X10774Y269710D01*
X11072Y270530D01*
X11441Y271322D01*
X11878Y272078D01*
X12379Y272793D01*
X12940Y273462D01*
X13558Y274080D01*
X14227Y274641D01*
X14942Y275142D01*
X15698Y275579D01*
X16490Y275948D01*
X17310Y276246D01*
X18154Y276472D01*
X19014Y276624D01*
X19883Y276700D01*
X20757Y276700D01*
X21627Y276624D01*
X22486Y276472D01*
X23330Y276246D01*
X24150Y275948D01*
X24942Y275579D01*
X25698Y275142D01*
X26413Y274641D01*
X27082Y274080D01*
X27700Y273462D01*
X28261Y272793D01*
X28762Y272078D01*
X29199Y271322D01*
X29568Y270530D01*
X29866Y269710D01*
X30092Y268866D01*
X30244Y268007D01*
X30320Y267137D01*
X30320Y266263D01*
X487520Y268803D02*
X487444Y267934D01*
X487292Y267074D01*
X487066Y266230D01*
X486768Y265410D01*
X486399Y264618D01*
X485962Y263862D01*
X485461Y263147D01*
X484900Y262478D01*
X484282Y261860D01*
X483613Y261299D01*
X482898Y260798D01*
X482142Y260361D01*
X481350Y259992D01*
X480530Y259694D01*
X479686Y259468D01*
X478827Y259316D01*
X477957Y259240D01*
X477083Y259240D01*
X476214Y259316D01*
X475354Y259468D01*
X474510Y259694D01*
X473690Y259992D01*
X472898Y260361D01*
X472142Y260798D01*
X471427Y261299D01*
X470758Y261860D01*
X470140Y262478D01*
X469579Y263147D01*
X469078Y263862D01*
X468641Y264618D01*
X468272Y265410D01*
X467974Y266230D01*
X467748Y267074D01*
X467596Y267934D01*
X467520Y268803D01*
X467520Y269677D01*
X467596Y270547D01*
X467748Y271406D01*
X467974Y272250D01*
X468272Y273070D01*
X468641Y273862D01*
X469078Y274618D01*
X469579Y275333D01*
X470140Y276002D01*
X470758Y276620D01*
X471427Y277181D01*
X472142Y277682D01*
X472898Y278119D01*
X473690Y278488D01*
X474510Y278786D01*
X475354Y279012D01*
X476214Y279164D01*
X477083Y279240D01*
X477957Y279240D01*
X478827Y279164D01*
X479686Y279012D01*
X480530Y278786D01*
X481350Y278488D01*
X482142Y278119D01*
X482898Y277682D01*
X483613Y277181D01*
X484282Y276620D01*
X484900Y276002D01*
X485461Y275333D01*
X485962Y274618D01*
X486399Y273862D01*
X486768Y273070D01*
X487066Y272250D01*
X487292Y271406D01*
X487444Y270547D01*
X487520Y269677D01*
X487520Y268803D01*
X490060Y9723D02*
X489984Y8854D01*
X489832Y7994D01*
X489606Y7150D01*
X489308Y6330D01*
X488939Y5538D01*
X488502Y4782D01*
X488001Y4067D01*
X487440Y3398D01*
X486822Y2780D01*
X486153Y2219D01*
X485438Y1718D01*
X484682Y1281D01*
X483890Y912D01*
X483070Y614D01*
X482226Y388D01*
X481367Y236D01*
X480497Y160D01*
X479623Y160D01*
X478754Y236D01*
X477894Y388D01*
X477050Y614D01*
X476230Y912D01*
X475438Y1281D01*
X474682Y1718D01*
X473967Y2219D01*
X473298Y2780D01*
X472680Y3398D01*
X472119Y4067D01*
X471618Y4782D01*
X471181Y5538D01*
X470812Y6330D01*
X470514Y7150D01*
X470288Y7994D01*
X470136Y8854D01*
X470060Y9723D01*
X470060Y10597D01*
X470136Y11467D01*
X470288Y12326D01*
X470514Y13170D01*
X470812Y13990D01*
X471181Y14782D01*
X471618Y15538D01*
X472119Y16253D01*
X472680Y16922D01*
X473298Y17540D01*
X473967Y18101D01*
X474682Y18602D01*
X475438Y19039D01*
X476230Y19408D01*
X477050Y19706D01*
X477894Y19932D01*
X478754Y20084D01*
X479623Y20160D01*
X480497Y20160D01*
X481367Y20084D01*
X482226Y19932D01*
X483070Y19706D01*
X483890Y19408D01*
X484682Y19039D01*
X485438Y18602D01*
X486153Y18101D01*
X486822Y17540D01*
X487440Y16922D01*
X488001Y16253D01*
X488502Y15538D01*
X488939Y14782D01*
X489308Y13990D01*
X489606Y13170D01*
X489832Y12326D01*
X489984Y11467D01*
X490060Y10597D01*
X490060Y9723D01*
X27780Y7183D02*
X27704Y6314D01*
X27552Y5454D01*
X27326Y4610D01*
X27028Y3790D01*
X26659Y2998D01*
X26222Y2242D01*
X25721Y1527D01*
X25160Y858D01*
X24542Y240D01*
X23873Y-321D01*
X23158Y-822D01*
X22402Y-1259D01*
X21610Y-1628D01*
X20790Y-1926D01*
X19946Y-2152D01*
X19087Y-2304D01*
X18217Y-2380D01*
X17343Y-2380D01*
X16474Y-2304D01*
X15614Y-2152D01*
X14770Y-1926D01*
X13950Y-1628D01*
X13158Y-1259D01*
X12402Y-822D01*
X11687Y-321D01*
X11018Y240D01*
X10400Y858D01*
X9839Y1527D01*
X9338Y2242D01*
X8901Y2998D01*
X8532Y3790D01*
X8234Y4610D01*
X8008Y5454D01*
X7856Y6314D01*
X7780Y7183D01*
X7780Y8057D01*
X7856Y8927D01*
X8008Y9786D01*
X8234Y10630D01*
X8532Y11450D01*
X8901Y12242D01*
X9338Y12998D01*
X9839Y13713D01*
X10400Y14382D01*
X11018Y15000D01*
X11687Y15561D01*
X12402Y16062D01*
X13158Y16499D01*
X13950Y16868D01*
X14770Y17166D01*
X15614Y17392D01*
X16474Y17544D01*
X17343Y17620D01*
X18217Y17620D01*
X19087Y17544D01*
X19946Y17392D01*
X20790Y17166D01*
X21610Y16868D01*
X22402Y16499D01*
X23158Y16062D01*
X23873Y15561D01*
X24542Y15000D01*
X25160Y14382D01*
X25721Y13713D01*
X26222Y12998D01*
X26659Y12242D01*
X27028Y11450D01*
X27326Y10630D01*
X27552Y9786D01*
X27704Y8927D01*
X27780Y8057D01*
X27780Y7183D01*
M02*
