M48
;GenerationSoftware,Autodesk,EAGLE,9.6.2*%
;CreationDate,2021-03-06T07:18:36Z*%
FMAT,2
ICI,OFF
METRIC,TZ,000.000
T4C0.350
T3C0.900
T2C0.914
T1C1.016
%
G90
M71
T1
X72390Y54510
X35001Y35839
X35001Y40361
X28499Y35839
X28499Y40361
X72390Y59510
X72390Y57010
X72390Y37010
X72390Y39510
X72390Y44510
X72390Y47010
X72390Y49510
X72390Y42010
X72390Y52010
T2
X29210Y52070
X29210Y49530
T3
X62230Y55880
X57150Y55880
X59690Y55880
T4
X53492Y46634
X52730Y42824
X55778Y47396
X54254Y47854
X55474Y44348
X45263Y38405
X58979Y41605
X55474Y43434
X48158Y39014
X55931Y40691
X47854Y40843
X57760Y41605
X54254Y46025
X55474Y45415
X62179Y44806
M30